<svg width="5" height="9" viewBox="0 0 5 9" fill="none" xmlns="http://www.w3.org/2000/svg">
<path d="M4.80159 7.85916L1.52778 4.5L4.80159 1.14085C4.92063 1.01408 4.99008 0.855634 4.99008 0.676056C4.99008 0.496479 4.93056 0.327465 4.81151 0.200704C4.69246 0.0739437 4.54365 0 4.375 0H4.36508C4.20635 0 4.04762 0.0633802 3.92857 0.190141L0.188492 4.02465C0.0694446 4.15141 0 4.32042 0 4.5C0 4.67958 0.0694446 4.85916 0.188492 4.97535L3.93849 8.80986C4.05754 8.92606 4.20635 9 4.375 9C4.54365 9 4.70238 8.92606 4.82143 8.7993C4.94048 8.67253 5 8.50352 5 8.32394C5 8.14437 4.93056 7.97535 4.80159 7.85916Z" fill="#27302B"/>
</svg>

