<svg width="160" height="136" viewBox="0 0 160 136" fill="none" xmlns="http://www.w3.org/2000/svg">
<path fill-rule="evenodd" clip-rule="evenodd" d="M88.2334 134.314L79.3791 133.116L76.4888 130.883L36.3502 119.694L17.7305 112.811L9.82462 103.012C8.63661 95.3913 8.21835 91.1 8.56984 90.1377C8.92132 89.1755 12.7608 85.6122 20.0882 79.4479L30.6083 83.7613L46.6478 94.5065L54.3179 93.6772L60.1356 93.5588L71.5899 95.7691L84.0151 93.5588L97.113 95.7691L133.249 83.3358H140.964L143.041 83.7613L148.586 96.6108L150.764 97.3542L151.042 101.027C149.955 105.01 148.854 107.407 147.738 108.217C146.065 109.432 139.976 114.874 137.863 115.383C135.749 115.892 113.637 126.309 107.917 124.136C107.526 120.484 107.119 115.868 106.699 110.29L104.291 109.507L97.113 112.811H89.6623L88.2334 134.314Z" fill="white"/>
<path fill-rule="evenodd" clip-rule="evenodd" d="M72.87 29.0153C72.87 29.0153 52.9192 33.213 50.0695 38.2312C47.6729 42.4516 38.471 61.6014 38.471 61.6014L36.312 66.0577C36.312 66.0577 45.8636 73.8782 56.3557 77.0467C54.765 83.3136 54.5707 93.1272 54.5707 93.1272C56.0082 92.4002 62.24 94.1105 71.5228 94.4783C78.6069 94.7594 87.6034 93.8958 96.4484 95.6874C98.9543 96.1949 104.139 92.559 104.139 92.559C104.139 92.559 104.21 75.2319 104.106 68.7118C105.852 68.6121 120.157 63.3555 122.329 60.9641C124.289 58.808 117.722 55.8859 117.722 55.8859C117.722 55.8859 114.41 38.5387 105.687 31.3238C101.922 28.2102 94.8888 28.6549 88.3629 28.6038C86.8134 31.8066 89.4202 39.0721 83.323 39.2235C77.2259 39.3744 72.87 29.0153 72.87 29.0153Z" fill="#779BE7"/>
<path fill-rule="evenodd" clip-rule="evenodd" d="M104.055 110.264V134.659C104.055 134.659 94.6958 134.08 93.47 122.515C92.4539 112.932 104.055 110.264 104.055 110.264Z" fill="#FFDA2D"/>
<path fill-rule="evenodd" clip-rule="evenodd" d="M151.515 92.5832C151.498 92.4994 151.481 92.4149 151.463 92.3305C151.126 92.2889 150.789 92.2477 150.304 92.1886C150.449 92.6165 150.542 92.8919 150.665 93.2522C151.011 92.98 151.263 92.7816 151.515 92.5832ZM152.374 89.2016C152.227 88.9774 152.154 88.7553 152.065 88.7479C151.329 88.692 150.598 88.3797 149.839 88.6899C150.612 89.0243 151.377 89.3393 152.374 89.2016ZM9.86099 82.3729C7.67511 81.8707 7.52724 81.886 7.24839 82.6351C9.40047 83.217 9.50029 83.2075 9.86099 82.3729ZM6.37752 84.0252C6.9537 84.7712 7.71419 84.931 8.54703 85.1637C8.71497 84.825 8.8713 84.51 9.08149 84.088C8.12454 83.9994 7.32866 83.4718 6.37752 84.0252ZM150.11 90.0309C150.116 91.0486 150.114 91.0639 150.645 91.1567C151.055 91.2279 151.473 91.2939 151.886 91.2839C152.087 91.2786 152.283 91.095 152.482 90.9916C152.337 90.7853 152.23 90.4498 152.041 90.3955C151.449 90.2229 150.825 90.1565 150.11 90.0309ZM6.57926 85.6986C6.92782 86.8487 7.20667 87.7693 7.48604 88.6893C7.57424 88.6856 7.66243 88.6814 7.75063 88.6783C7.85837 87.888 7.9661 87.0982 8.08334 86.2341C7.62071 86.069 7.21036 85.9234 6.57926 85.6986ZM6.24655 90.2535C6.45357 88.9631 6.04903 87.7593 5.54415 86.6408C4.96586 85.3615 5.09525 84.2167 5.6804 83.0234C5.92228 82.5301 6.26926 82.0585 6.31045 81.275C5.3065 82.451 4.89139 83.6781 4.58456 84.9416C4.51273 85.2359 4.56819 85.6374 4.72134 85.8986C5.51669 87.2533 5.96717 88.7184 6.24655 90.2535ZM91.4638 117.033C91.5557 117.02 91.647 117.007 91.7384 116.994C91.9079 116.479 92.0849 115.967 92.2444 115.449C92.3986 114.945 92.5353 114.436 92.7091 113.828C92.0669 113.717 91.5641 113.63 90.8802 113.51C91.0983 114.827 91.2811 115.93 91.4638 117.033ZM8.06909 80.9859C8.66903 81.0677 9.16387 81.1421 9.66031 81.2022C10.9257 81.3558 11.3709 80.9712 11.5478 79.5848C9.29062 79.2978 8.62414 79.5457 8.06909 80.9859ZM149.528 87.324C150.456 87.4765 151.214 87.6015 152.006 87.7318C151.849 85.6712 151.612 85.4728 149.257 85.4137C149.344 86.0268 149.428 86.6176 149.528 87.324ZM91.4411 124.905C91.3434 124.88 91.2462 124.857 91.149 124.832C90.8174 126.467 90.3183 128.069 90.2333 129.872C91.074 129.746 91.759 129.644 92.5206 129.531C92.144 127.918 91.7928 126.411 91.4411 124.905ZM90.0759 115.778C89.7252 119.147 89.4247 122.517 89.6703 125.908C90.9082 122.573 91.0608 119.197 90.0759 115.778ZM151.208 96.5742C152.357 95.4289 153.356 94.4777 154.301 93.4748C154.891 92.8497 155.043 92.0836 154.725 91.2522C154.38 90.3522 154.054 89.4443 153.698 88.5485C153.623 88.358 153.454 88.205 153.164 87.8157C153.294 88.8429 153.356 89.593 153.491 90.33C153.708 91.5134 153.429 92.4793 152.425 93.2084C152.018 93.5038 151.671 93.8821 151.264 94.1759C150.822 94.494 150.701 94.8728 150.867 95.3766C150.971 95.69 151.049 96.0113 151.208 96.5742ZM94.4941 129.679C92.5549 124.312 92.5306 119.103 94.9811 113.962C93.8245 113.913 93.7854 113.901 93.5266 114.75C93.073 116.239 92.6336 117.734 92.265 119.245C92.0775 120.013 91.8726 120.852 91.9967 121.607C92.406 124.094 92.9732 126.556 93.4537 129.033C93.5683 129.626 93.8863 129.782 94.4941 129.679ZM78.7551 110.724C78.611 109.641 78.5022 108.812 78.3907 107.984C78.2809 107.164 78.1689 106.345 78.0601 105.544C76.3205 105.59 72.4795 106.35 71.5231 106.839C73.8906 108.111 76.2075 109.356 78.7551 110.724ZM106.231 134.369C106.289 132.958 106.356 131.702 106.389 130.445C106.426 129.022 106.323 127.586 106.489 126.18C106.616 125.112 106.736 124.112 106.27 123.104C106.153 122.85 106.119 122.512 106.17 122.235C106.341 121.301 106.276 120.406 105.959 119.507C105.853 119.206 105.934 118.841 105.919 118.507C105.893 117.922 105.796 117.333 105.84 116.753C105.952 115.289 105.842 113.861 105.439 112.443C105.343 112.104 105.496 111.696 105.528 111.318C105.55 111.038 105.56 110.756 105.581 110.368C105.073 110.333 104.642 110.304 104.055 110.264C105.117 118.445 105.331 126.489 104.5 134.66C105.159 134.549 105.646 134.468 106.231 134.369ZM104.106 68.7118C106.816 67.7511 109.367 67.0711 111.712 65.9569C114.6 64.5863 117.335 62.8886 120.096 61.2632C121.514 60.4286 121.556 60.1585 121.183 58.5737C121.135 58.369 121.058 58.1712 120.992 57.9713C120.719 57.1404 120.177 56.7727 119.393 57.0095C119.063 57.1092 118.775 57.4168 118.518 57.6785C116.23 60.0055 113.726 62.054 110.917 63.7317C108.762 65.0184 106.435 65.8598 103.875 66.5235C103.946 67.1967 104.014 67.8366 104.106 68.7118ZM58.2335 72.3103C50.9323 69.8819 45.0659 65.5058 39.1536 60.9636C38.7929 62.0187 38.4935 63.0152 38.109 63.9775C37.8148 64.7129 38.0034 65.2368 38.5273 65.7849C39.9395 67.2626 41.5481 68.4886 43.3384 69.4467C46.2711 71.0146 49.2212 72.5545 52.2161 73.9985C53.7139 74.7212 55.3267 75.2055 57.0088 75.8433C57.4471 74.5798 57.8263 73.4857 58.2335 72.3103ZM55.5105 76.7338C54.881 78.1994 54.3233 79.609 53.678 80.9775C52.7242 83.0017 51.6093 84.9315 50.1411 86.644C48.7897 88.2198 47.1076 88.7004 45.133 88.2351C44.232 88.022 43.3384 87.7608 42.467 87.4506C39.0538 86.2314 35.6517 84.9822 32.2427 83.7514C31.977 83.6554 31.6913 83.6158 31.4151 83.5499C31.5624 83.8886 31.7584 84.041 31.9628 84.1819C34.2178 85.7398 36.4703 87.3024 38.7322 88.8508C40.8896 90.3274 43.0506 91.7993 45.2281 93.2464C45.5565 93.4643 45.9859 93.66 46.3646 93.6521C47.8782 93.6209 49.3902 93.516 50.9016 93.4168C52.111 93.3376 53.3183 93.2274 54.571 93.1271C54.8234 87.6548 54.6338 82.2368 56.356 77.0467C56.1812 76.9296 56.0893 76.842 55.9795 76.8014C55.8675 76.7597 55.7381 76.7639 55.5105 76.7338ZM128.085 83.7266L128.052 83.5752C127.85 83.5636 127.646 83.5346 127.445 83.5451C125.168 83.668 122.893 83.8749 120.615 83.9044C117.918 83.9387 115.214 83.906 112.522 83.7398C110.892 83.6396 109.363 83.0956 108.546 81.4523C107.512 79.3737 106.569 77.2635 105.975 75.005C105.623 73.6619 105.163 72.3456 104.739 71.0214C104.655 70.7582 104.51 70.5139 104.394 70.2607C104.236 70.8168 104.195 71.3438 104.243 71.8624C104.573 75.4371 104.77 79.0102 104.415 82.5982C104.282 83.9403 104.225 85.2929 104.202 86.6414C104.191 87.3077 104.177 88.0478 104.442 88.6287C104.907 89.6469 105.162 90.683 105.287 91.7766C105.309 91.9718 105.439 92.1549 105.49 92.2757C113.055 89.4131 120.57 86.5701 128.085 83.7266ZM103.03 110.903C101.175 111.548 99.5736 112.36 97.9887 113.226C96.2375 114.182 95.2261 115.636 94.7725 117.543C94.2486 119.741 94.1641 121.974 94.3442 124.205C94.7175 128.839 96.5818 132.685 103.3 134.127C104.206 126.391 104.018 118.706 103.03 110.903ZM80.9167 110.199C80.7641 110.769 80.6173 111.127 80.5782 111.496C80.3828 113.334 80.1557 115.172 80.0533 117.016C79.9154 119.497 79.9434 121.987 79.786 124.466C79.6292 126.942 79.2352 129.389 78.1805 131.615C78.2645 131.729 78.282 131.781 78.3142 131.792C81.2204 132.82 84.2238 133.081 87.2758 132.863C87.5177 132.846 87.8066 132.522 87.9434 132.27C88.0749 132.029 88.058 131.697 88.0685 131.404C88.1747 128.583 88.2386 125.761 88.3822 122.943C88.5771 119.124 88.4488 115.264 89.6724 111.559C89.721 111.412 89.6788 111.234 89.6788 110.923C86.7873 110.684 83.9122 110.446 80.9167 110.199ZM79.241 105.485C92.8205 100.827 105.757 94.9488 118.54 88.7025C117.887 88.8297 117.259 89.0296 116.633 89.2338C112.15 90.7014 107.885 92.7652 103.326 94.0351C100.528 94.8148 97.7975 95.9702 94.8147 95.6494C92.8496 95.4384 90.8786 95.1514 88.9573 94.6998C85.861 93.9712 82.7857 93.7745 79.6978 94.6017C75.2648 95.7903 70.8714 95.5908 66.4394 94.521C64.3607 94.0187 62.2081 93.7956 60.0782 93.5344C58.684 93.363 57.2982 93.4943 56.0312 94.2234C55.8205 94.3453 55.5216 94.503 55.3304 94.4402C54.0281 94.0124 52.7337 94.4508 51.4387 94.4387C50.3286 94.4281 49.2175 94.5948 48.1063 94.6829C48.3983 95.1118 48.7268 95.3497 49.0849 95.5312C50.777 96.389 52.468 97.2495 54.1765 98.0746C58.2361 100.037 62.3069 101.978 66.3697 103.934C66.6723 104.079 67.0367 104.21 67.2226 104.459C67.7898 105.222 68.6644 105.455 69.4449 105.839C69.7032 105.966 70.0787 105.934 70.3829 105.878C72.704 105.454 75.0161 104.979 77.3408 104.574C78.6073 104.354 78.7066 104.447 79.241 105.485ZM9.25947 87.1362C9.34555 87.1969 9.43216 87.2575 9.51824 87.3187C10.6437 86.7332 11.533 85.8326 12.4292 84.9606C14.303 83.1352 16.1445 81.2761 17.985 79.4175C18.6943 78.7011 19.4606 78.3703 20.4889 78.6832C21.8181 79.0878 23.1997 79.331 24.511 79.7831C27.9792 80.9796 31.4162 82.2658 34.8753 83.4892C38.175 84.6562 41.4795 85.8073 44.7961 86.9268C46.6788 87.5625 48.2874 87.1088 49.5312 85.5208C51.6859 82.7686 53.0907 79.6328 54.2652 76.4796C51.7651 75.3701 49.3363 74.3087 46.9223 73.2171C44.4612 72.1045 42.1782 70.6949 40.1528 68.9212C38.7031 70.4575 38.7031 70.458 36.5664 70.2713C36.3562 70.2528 36.1476 70.2116 35.9369 70.2021C33.6179 70.0982 31.2952 69.8645 28.9805 69.9231C22.7841 70.0808 16.7651 71.3654 10.8084 73.0035C9.53409 73.3538 8.48049 73.971 7.61913 74.9386C5.45384 77.3695 3.51723 79.9773 1.7887 82.7322C0.972225 84.0336 1.04246 85.3884 1.94924 86.6487C2.6395 87.6063 3.3646 88.54 4.09129 89.4706C4.26082 89.688 4.50217 89.8489 4.81165 90.1269C4.89245 88.9689 4.58614 88.0162 4.04904 87.2507C3.20036 86.0415 3.33767 84.8835 3.84202 83.6622C4.14727 82.9237 4.44091 82.1719 4.83858 81.4829C5.43324 80.4526 6.1536 79.4845 7.29962 79.0155C8.94418 78.3429 10.6743 78.2928 12.4076 78.5544C13.1258 78.6626 13.3012 79.0725 13.0139 79.7536C12.8839 80.0622 12.6796 80.3386 12.519 80.6346C11.5922 82.337 10.6542 84.0336 9.75273 85.7493C9.52722 86.1792 9.42054 86.672 9.25947 87.1362ZM152.119 99.3871C152.351 99.2969 152.526 99.2732 152.641 99.1766C154.385 97.7158 156.113 96.2345 157.864 94.7816C158.572 94.1944 158.682 93.5207 158.47 92.6534C157.848 90.1169 157.24 87.5746 156.723 85.0149C156.384 83.3373 155.841 81.8174 154.75 80.4468C152.975 78.22 150.887 76.3514 148.237 75.3796C142.863 73.4081 137.568 71.1681 131.873 70.181C128.68 69.6271 125.502 68.9824 122.323 68.3494C122.08 68.3014 121.816 68.0655 121.678 67.845C121.411 67.4193 121.209 66.9492 121.012 66.4839C120.54 65.365 120.085 64.2376 119.614 63.087C119.384 63.183 119.222 63.2289 119.083 63.3133C115.176 65.6752 111.201 67.883 106.73 69.0315C106.352 69.1286 106.019 69.395 105.652 69.5891C106.452 73.3696 108.039 76.7317 109.277 80.2115C109.807 81.7008 110.96 82.3893 112.446 82.5486C113.787 82.6921 115.141 82.8461 116.483 82.8039C121.291 82.652 126.098 82.4172 130.905 82.2167C132.08 82.1671 133.257 82.1429 134.431 82.0801C136.157 81.9873 137.881 81.8052 139.607 81.7799C141.374 81.7546 142.705 82.6367 143.437 84.2193C144.994 87.5825 146.468 90.9842 147.979 94.369C148.15 94.752 148.287 95.1662 148.533 95.4953C148.681 95.6905 149.056 95.8863 149.252 95.8272C149.454 95.766 149.689 95.3988 149.692 95.1635C149.699 94.4503 149.654 93.727 149.533 93.0243C149.069 90.3316 148.56 87.6474 148.091 84.9558C148.037 84.6467 148.127 84.3132 148.158 83.8938C149.208 84.0853 150.163 84.2331 151.106 84.4362C152.472 84.73 153.487 85.5071 154.056 86.7912C154.634 88.1006 155.173 89.4279 155.714 90.7531C156.308 92.2087 155.956 93.4832 154.896 94.5816C154.194 95.3097 153.478 96.0287 152.719 96.6977C151.866 97.45 151.892 98.3357 152.119 99.3871ZM107.821 123.99C109.561 123.661 111.287 123.466 112.936 122.997C118.168 121.51 123.377 119.94 128.582 118.363C131.328 117.531 133.931 116.343 136.529 115.123C140.307 113.348 143.768 111.138 146.773 108.241C149.633 105.483 150.374 101.962 150.325 98.1753C150.318 97.6974 150.211 97.202 149.587 97.1946C148.64 97.1835 148.128 96.5974 147.758 95.852C146.71 93.7386 145.616 91.6442 144.682 89.4801C144.001 87.8985 143.477 86.2789 142.396 84.8703C141.775 84.0611 141.146 83.5905 140.151 83.4871C137.344 83.1954 134.595 83.3183 131.952 84.4356C130.748 84.9442 129.509 85.371 128.319 85.9091C122.211 88.6677 116.117 91.4548 110.013 94.2229C107.788 95.2321 105.559 96.2339 103.318 97.2083C99.027 99.0732 94.7249 100.91 90.434 102.774C89.8948 103.009 89.308 103.243 88.8993 103.638C88.1583 104.354 87.2631 104.638 86.3215 104.882C85.7913 105.019 85.2632 105.165 84.7356 105.312C82.9547 105.805 81.1745 106.302 79.306 106.821C79.4274 107.778 79.5373 108.642 79.6324 109.392C80.4494 109.325 81.1961 109.17 81.9281 109.221C84.3273 109.388 86.7213 109.623 89.1168 109.843C91.0017 110.015 91.0059 110.029 90.8586 111.912C90.8528 111.982 90.923 112.059 90.9806 112.18C93.3344 113.129 95.702 112.714 97.976 111.883C99.9079 111.176 101.73 110.175 103.616 109.337C104.49 108.95 105.375 109.103 106.141 109.619C106.86 110.103 106.734 110.863 106.551 111.576C106.365 112.303 106.426 112.973 106.765 113.659C106.944 114.022 107.033 114.476 107.013 114.882C106.915 116.854 106.764 118.82 107.386 120.751C107.482 121.047 107.417 121.432 107.323 121.744C107.067 122.602 107.363 123.298 107.821 123.99ZM79.176 112.397C78.8196 112.172 78.5798 112.001 78.3216 111.864C75.1196 110.161 71.9429 108.406 68.704 106.776C61.3563 103.08 53.9684 99.4615 46.6181 95.7702C45.2323 95.0744 43.8132 94.3411 42.6339 93.3561C39.1251 90.4255 35.3623 87.8632 31.5492 85.3615C28.1381 83.1231 24.4249 81.5383 20.5829 80.2104C19.7775 79.9319 19.2277 80.0975 18.6753 80.6837C17.6624 81.7578 16.6236 82.8092 15.5768 83.8506C13.6941 85.7229 11.7918 87.5746 9.91433 89.4522C9.69252 89.6738 9.48814 89.9845 9.42741 90.2847C8.90246 92.875 8.85757 95.451 9.49712 98.0508C10.4757 102.033 12.5481 105.427 14.9721 108.649C16.2671 110.372 17.8963 111.688 19.8831 112.53C21.8239 113.351 23.787 114.12 25.7347 114.925C26.1202 115.084 26.4888 115.289 26.8537 115.493C27.5493 115.881 28.202 116.371 28.9351 116.663C30.5421 117.301 32.1819 117.858 33.8212 118.412C34.4576 118.628 35.1352 118.898 35.7821 118.87C37.0211 118.816 38.0958 119.267 39.2012 119.669C40.1138 120 41.01 120.375 41.9284 120.688C42.4021 120.849 42.9049 120.933 43.3992 121.024C44.1797 121.167 44.9973 121.185 45.7419 121.431C54.2351 124.229 62.7986 126.787 71.4418 129.083C73.344 129.589 75.23 130.16 77.1602 130.71C77.9577 129.429 78.2445 128.006 78.3443 126.595C78.6791 121.891 78.9046 117.178 79.176 112.397ZM59.7957 56.7864C59.8263 57.2717 59.8675 57.6299 59.8691 57.9881C59.876 60.2229 59.8089 62.4603 59.8907 64.6923C60.0413 68.792 59.4925 72.7423 57.9103 76.5634C56.891 79.0234 56.3011 81.6201 56.1707 84.2995C56.046 86.864 55.9166 89.429 55.8031 91.9945C55.7904 92.272 55.8659 92.5537 55.896 92.798C56.9592 92.6545 57.9478 92.4529 58.9438 92.3991C61.5823 92.2577 64.1611 92.7331 66.7072 93.3493C70.9189 94.368 75.1132 94.6017 79.3503 93.4653C82.7261 92.5595 86.0944 92.7542 89.486 93.5856C91.3999 94.0556 93.3883 94.2994 95.3581 94.4503C98.4703 94.6892 101.265 93.3434 104.139 92.559C104.175 92.3232 104.218 92.1981 104.207 92.0778C104.175 91.7434 104.133 91.4078 104.072 91.0776C103.55 88.2462 103.276 85.4027 103.541 82.5206C103.633 81.514 103.719 80.4974 103.683 79.4908C103.577 76.6278 103.448 73.7647 103.254 70.9064C102.805 64.2972 101.977 57.7376 100.487 51.2718C100.403 50.9062 100.355 50.5206 100.371 50.1476C100.377 49.9904 100.575 49.7477 100.723 49.7166C100.874 49.6849 101.138 49.8189 101.231 49.9608C101.362 50.1624 101.394 50.4341 101.447 50.6799C101.85 52.5321 102.268 54.3812 102.64 56.2398C102.896 57.5191 103.085 58.8117 103.307 60.0978C103.455 60.9541 103.643 61.805 103.753 62.666C103.861 63.5196 103.895 64.3827 103.973 65.3813C105.337 64.8754 106.621 64.4724 107.844 63.9305C111.246 62.4254 114.131 60.1685 116.797 57.6146C117.923 56.5353 117.925 56.5157 117.317 55.1393C115.478 50.9764 113.663 46.8023 111.767 42.6642C110.469 39.8275 109.025 37.0684 107.18 34.524C105.484 32.1869 103.242 30.744 100.473 30.0914C96.6082 29.1804 92.7212 29.5407 88.6663 29.91C88.6663 30.6301 88.7044 31.2974 88.659 31.9585C88.5322 33.8197 88.2465 35.6398 87.2468 37.2799C86.4747 38.5466 85.3434 39.1596 83.899 39.2224C82.5671 39.2804 81.3017 38.9855 80.1034 38.3994C78.2862 37.5094 76.8074 36.1905 75.5294 34.6606C74.32 33.213 73.2046 31.6863 72.0053 30.141C67.1867 31.2748 62.3386 32.5288 57.5496 34.0286C54.0603 35.1212 51.501 37.2467 49.6796 40.3735C46.0989 46.5191 43.4758 53.0935 40.8948 59.6895C40.6503 60.3152 40.7765 60.7077 41.3062 61.086C42.9883 62.2867 44.6234 63.5549 46.3255 64.724C49.7049 67.0447 53.1968 69.1713 57.0679 70.5973C57.4904 70.7529 57.9282 70.8648 58.4205 71.0151C58.5097 70.6511 58.609 70.4158 58.6196 70.1768C58.7083 68.1157 58.806 66.0545 58.8514 63.9923C58.8952 62.0108 58.8731 60.0282 58.8963 58.0462C58.9026 57.5561 58.8725 57.009 59.7957 56.7864ZM151.354 101.283C151.285 101.588 151.158 102.032 151.087 102.486C150.631 105.407 149.16 107.759 147.03 109.742C144.668 111.942 141.985 113.691 139.176 115.257C137.928 115.953 136.697 116.677 135.45 117.373C135.195 117.515 134.907 117.603 134.626 117.695C129.775 119.285 124.943 120.938 120.062 122.437C116.639 123.489 113.156 124.351 109.685 125.243C109.173 125.374 108.584 125.205 107.886 125.167C107.579 125.699 107.463 126.424 107.454 127.171C107.435 128.978 107.427 130.785 107.414 132.592C107.41 132.971 107.397 133.35 107.4 133.73C107.41 135.065 107.219 135.38 105.881 135.572C105.065 135.69 104.185 135.707 103.387 135.53C100.63 134.918 98.1197 133.826 96.0579 131.773C95.5234 131.241 94.5559 130.958 93.7653 130.908C92.5211 130.829 91.2562 131.031 90.0025 131.143C89.5198 131.186 89.2996 131.504 89.2251 131.991C89.1311 132.605 88.9579 133.206 88.8237 133.789C85.0123 134.363 81.3957 134.022 77.8552 132.862C77.4433 132.726 77.1064 132.374 76.7155 132.157C76.321 131.938 75.9207 131.689 75.4914 131.579C70.2646 130.233 65.0457 128.855 59.7978 127.596C53.5971 126.108 47.4234 124.484 41.5714 121.961C36.0874 119.596 30.323 118.134 24.7233 116.157C22.4978 115.371 20.3119 114.472 18.1208 113.594C17.5879 113.381 17.0936 113.139 16.8586 112.466C16.7144 112.052 16.1916 111.739 15.7881 111.451C11.6392 108.488 9.11001 104.471 8.11292 99.5111C7.82404 98.0756 7.77809 96.5853 7.70468 95.116C7.63972 93.8156 7.69095 92.5089 7.69095 90.9705C7.31388 91.2723 7.14118 91.4226 6.95634 91.5566C6.04797 92.2145 4.71976 92.119 4.00151 91.2533C2.92468 89.9555 1.85788 88.6424 0.887197 87.2655C-0.270967 85.6221 -0.285754 83.8817 0.787383 82.165C2.53546 79.3695 4.49689 76.7323 6.67485 74.2554C7.64923 73.1475 8.82535 72.4005 10.2634 72.0101C15.2357 70.6595 20.2317 69.3876 25.3903 69.0542C28.2892 68.8669 31.2086 68.964 34.1185 68.9787C35.2139 68.9846 36.3139 69.0758 37.4019 69.2103C38.2733 69.318 38.7612 68.9877 39.0147 68.1199C38.7998 67.9358 38.5965 67.73 38.3636 67.5654C36.8215 66.475 36.4687 65.4024 37.0718 63.5834C37.4299 62.5035 37.8597 61.4415 38.1312 60.3405C38.3762 59.345 38.8378 58.7441 39.9817 58.8375C40.5632 57.3561 41.124 55.9053 41.7007 54.4609C43.6595 49.5631 45.8195 44.7596 48.4596 40.1847C49.3923 38.5688 50.4966 37.0847 51.9056 35.8392C53.4176 34.5034 55.1435 33.5353 57.0738 32.9909C61.4154 31.7664 65.7735 30.6016 70.1262 29.4151C70.7346 29.2489 71.3541 29.1186 71.9572 28.9361C72.5318 28.7631 72.8872 28.8986 73.184 29.4615C74.4985 31.9574 76.3659 34.0181 78.4604 35.874C79.6456 36.9233 81.0313 37.6382 82.6083 37.9315C84.5634 38.296 85.8356 37.7437 86.6289 35.9368C87.0783 34.9138 87.3049 33.7701 87.4834 32.657C87.6497 31.6219 87.6286 30.5557 87.6714 29.5022C87.6909 29.0237 87.8768 28.7836 88.3632 28.6037C89.2056 28.2904 90.0183 28.2408 90.9119 28.2919C92.8913 28.4048 94.8828 28.3036 96.8628 28.4117C98.2454 28.4882 99.6428 28.656 100.987 28.9772C104.104 29.7211 106.57 31.4425 108.42 34.0956C110.216 36.669 111.687 39.415 112.979 42.2569C114.865 46.4004 116.701 50.5659 118.499 54.7474C118.85 55.563 119.266 55.9191 120.174 55.917C121.563 55.9143 121.72 56.0889 122.131 57.4115C122.306 57.9739 122.458 58.5479 122.563 59.1266C122.759 60.2081 122.547 61.1403 121.504 61.7385C121.216 61.9042 120.961 62.1284 120.632 62.37C121.116 63.5961 121.612 64.7878 122.057 65.9991C122.3 66.6628 122.729 67.0611 123.41 67.1761C124.4 67.3428 125.397 67.4715 126.387 67.6398C127.882 67.8936 129.388 68.1067 130.864 68.4464C134.028 69.1745 137.21 69.8571 140.318 70.7814C142.447 71.4145 144.493 72.3572 146.52 73.2841C148.277 74.0876 150.065 74.9064 151.638 76.0058C153.32 77.1817 154.784 78.6742 156.301 80.0733C156.655 80.3993 156.955 80.8767 157.086 81.3394C157.998 84.5834 158.861 87.8421 159.738 91.0966C159.782 91.2591 159.82 91.4237 159.853 91.5888C160.19 93.296 160.038 94.7562 158.439 95.9269C156.539 97.3181 154.812 98.9445 152.977 100.427C152.542 100.778 151.975 100.963 151.354 101.283Z" fill="black"/>
<path fill-rule="evenodd" clip-rule="evenodd" d="M90.752 5.362C90.6342 5.36939 90.5164 5.3773 90.3981 5.38469C90.3981 6.43347 90.3907 7.48225 90.4002 8.53051C90.414 10.1258 90.7488 10.5321 92.3215 10.799C93.5256 11.0032 94.7562 11.0876 95.9402 11.3693C97.7179 11.7924 98.3373 12.8971 97.9265 14.6744C97.7554 15.4125 97.5124 16.1358 97.3788 16.8802C97.2172 17.7802 97.4274 18.1141 98.3014 18.3911C98.942 18.5942 99.6101 18.7092 100.265 18.8675C101.056 19.0584 101.628 19.5095 101.921 20.2818C102.02 20.5419 102.112 20.8047 102.262 21.2198C102.647 19.4388 102.252 18.7451 100.771 18.3404C100.568 18.285 100.357 18.2529 100.159 18.1843C99.2071 17.8561 98.7899 17.2764 98.8919 16.2692C98.9463 15.7332 99.1184 15.2015 99.289 14.685C100.338 11.5133 99.3503 10.1485 95.9698 10.1343C95.0847 10.1306 94.1948 10.2129 93.3165 10.1396C91.7147 10.0061 91.0963 9.31499 90.9748 7.71491C90.9152 6.92937 90.8275 6.14595 90.752 5.362ZM102.554 23.6603C102.052 23.7226 101.523 23.8392 100.994 23.845C97.2357 23.8851 93.4781 23.8993 89.7206 23.9289C88.9321 23.9352 88.1441 23.9695 87.2072 23.9948C87.5954 25.5337 87.9487 26.9101 88.2878 28.2896C88.4436 28.9227 88.4304 28.9259 87.7586 29.4719C87.5574 28.9855 87.334 28.5529 87.1983 28.095C86.5983 26.0755 86.0258 24.0476 85.4365 22.0249C85.3556 21.749 85.2342 21.4852 85.1117 21.1634C83.3926 21.4995 81.9171 20.8722 80.4843 20.1389C79.9282 19.8545 79.4323 19.443 78.9385 19.0526C78.6749 18.8448 78.3898 18.4977 78.7468 18.2207C78.9232 18.084 79.3805 18.1632 79.6319 18.2951C80.5239 18.7598 81.3668 19.3191 82.2598 19.7817C82.6638 19.9917 83.1333 20.1025 83.587 20.1843C84.7008 20.3842 85.316 20.0466 85.8468 19.0463C87.3424 16.2302 87.7697 13.1356 88.2033 10.0441C88.3026 9.33504 88.3533 8.61756 88.3876 7.90219C88.4182 7.28231 88.3939 6.65979 88.3939 5.95339C87.7354 5.90064 87.1481 5.90433 86.5814 5.79882C84.6337 5.43586 82.696 5.02331 80.7499 4.65613C80.3021 4.57172 79.2443 4.36386 79.1878 4.21826C78.7246 4.11802 77.3504 4.94048 76.8424 6.06682C76.1558 7.58829 75.8896 10.3047 75.727 11.2163C75.6758 11.5044 75.6245 11.9686 75.4698 12.2387C75.21 12.0678 75.023 11.8721 74.8598 11.6125C74.7167 11.3846 74.5789 11.077 74.4262 10.9562C74.188 10.7684 73.7835 10.7246 73.5749 10.789C73.3299 10.8644 73.0869 11.2395 73.0151 11.5276C72.7896 12.4292 73.276 13.3756 74.3159 13.7069C75.2749 14.0124 75.4566 14.5921 75.3504 15.4257C75.0151 18.0571 74.6982 20.6918 74.318 23.3169C74.0882 24.9001 73.7693 26.4706 73.4592 28.0406C73.3832 28.4257 73.1857 28.7871 73.042 29.1649C72.2594 29.014 72.2599 28.5434 72.3428 28.0781C72.6011 26.6273 72.9301 25.1881 73.1498 23.7315C73.5527 21.0663 73.8997 18.3921 74.2609 15.7206C74.2947 15.4747 74.2657 15.2205 74.2657 14.9335C73.9472 14.761 73.5997 14.6597 73.3779 14.4349C72.9116 13.9644 72.3956 13.4853 72.1099 12.9066C71.6779 12.0319 71.7112 11.0855 72.3766 10.2867C73.0505 9.478 73.9192 9.54975 74.9628 9.93909C75.0679 9.32976 75.1857 8.77319 75.2564 8.21081C75.5701 5.71441 76.7605 3.88484 79.1429 2.86982C79.7048 2.63084 80.1811 2.165 80.6586 1.75773C84.2239 -1.28364 90.1557 0.784387 91.11 5.13146C91.2262 5.66165 91.2368 6.21612 91.2965 6.75897C91.3477 7.219 91.3699 7.68378 91.4565 8.13695C91.6656 9.2348 92.1156 9.66159 93.2457 9.72121C94.256 9.77449 95.2737 9.69325 96.2845 9.74495C96.9505 9.77924 97.6397 9.85732 98.2676 10.0668C99.6138 10.5162 100.287 11.5961 100.118 13.0142C100.039 13.6752 99.7728 14.312 99.6207 14.9667C99.4981 15.4953 99.3809 16.0308 99.3318 16.57C99.2747 17.2057 99.6418 17.5918 100.226 17.7839C100.386 17.8366 100.553 17.8683 100.719 17.9005C102.298 18.2054 103.034 19.0642 102.884 21.0415C102.824 21.8339 102.688 22.62 102.554 23.6603Z" fill="black"/>
<path fill-rule="evenodd" clip-rule="evenodd" d="M83.2962 6.71045C83.6442 7.07077 83.3326 8.15648 83.0575 8.26199C82.2737 8.5627 79.8777 8.49254 78.7549 10.2087C78.8552 9.64261 79.0052 8.88873 79.7261 8.41762C80.7839 7.72652 82.6006 7.89482 83.2962 6.71045Z" fill="black"/>
<path d="M83.3439 6.66492L83.2395 6.67734C82.9334 7.19849 82.4981 7.43991 81.5295 7.71273L80.7745 7.91666C80.2547 8.06368 79.9757 8.17616 79.6902 8.36269C79.0776 8.76304 78.8547 9.26899 78.6901 10.1974C78.6776 10.2681 78.7711 10.3051 78.8104 10.245C79.2456 9.57978 79.8974 9.1438 80.7581 8.85783C80.9903 8.78067 81.2318 8.71598 81.5003 8.65671L81.8063 8.59381C82.0591 8.54572 82.521 8.46333 82.5374 8.46022L82.7336 8.42077C82.8811 8.38885 82.991 8.35849 83.0814 8.32381C83.4473 8.18349 83.6895 7.02271 83.3439 6.66492ZM83.2999 6.82893L83.3111 6.84832C83.491 7.22201 83.2868 8.10377 83.034 8.20069C82.9504 8.23278 82.8455 8.26166 82.703 8.29244L81.6808 8.48387C81.3222 8.55611 81.0124 8.63434 80.7164 8.73268L80.5526 8.78979C79.8535 9.04546 79.2939 9.40871 78.8775 9.92675L78.9004 9.82631C79.0543 9.17684 79.2796 8.78862 79.7625 8.47307C80.0348 8.29517 80.3058 8.18618 80.8154 8.04218L81.5726 7.83762C82.4783 7.58207 82.9376 7.34914 83.26 6.88968L83.2999 6.82893Z" fill="black"/>
<path fill-rule="evenodd" clip-rule="evenodd" d="M84.2402 9.74902L85.0382 12.9007L83.8752 13.0167L84.2402 9.74902Z" fill="black"/>
<path d="M83.8096 13.0092L83.8817 13.0821L85.0447 12.9661L85.1021 12.8843L84.3041 9.73265C84.2861 9.66147 84.1826 9.66854 84.1745 9.74151L83.8096 13.0092ZM84.2652 10.1167L84.955 12.842L83.9494 12.9428L84.2652 10.1167Z" fill="black"/>
<path fill-rule="evenodd" clip-rule="evenodd" d="M83.5664 14.3749C83.3964 14.3749 83.2326 14.3474 83.0758 14.2926C82.4125 14.0578 82.1257 13.4147 82.1141 13.3873C82.0951 13.3424 82.1151 13.2902 82.16 13.2707C82.2049 13.2512 82.2572 13.2717 82.2768 13.3166C82.2789 13.3229 82.5461 13.9185 83.1371 14.1258C83.5294 14.2641 83.9783 14.2034 84.4721 13.946C84.5154 13.9233 84.5688 13.9401 84.5915 13.9834C84.6142 14.0267 84.5973 14.08 84.554 14.1026C84.206 14.2841 83.8754 14.3749 83.5664 14.3749Z" fill="black"/>
<path fill-rule="evenodd" clip-rule="evenodd" d="M81.6357 11.297C81.0664 11.3313 80.5019 11.0896 80.1285 10.8807C79.8444 10.7214 79.6247 10.5568 79.5159 10.4698C79.7044 10.3052 80.2595 9.87996 81.0765 9.74543C81.0506 9.84356 81.0347 9.96964 81.0347 10.053C81.0347 10.5325 81.4784 10.9208 82.0255 10.9208C82.5584 10.9208 82.9925 10.5531 83.0157 10.092C83.1852 10.1796 83.3157 10.2619 83.3912 10.3131C83.2037 10.5394 82.552 11.2405 81.6357 11.297ZM83.5718 10.2234C83.5354 10.1954 82.6566 9.53969 81.6252 9.52702C80.2077 9.50856 79.3537 10.3748 79.3178 10.4112C79.3009 10.4286 79.2925 10.4518 79.293 10.4761C79.2941 10.5004 79.3052 10.5231 79.3231 10.5389C79.3347 10.5494 79.6131 10.7942 80.0382 11.0327C80.4068 11.24 80.9539 11.4774 81.5238 11.4774C81.5645 11.4774 81.6056 11.4763 81.6468 11.4737C82.8214 11.4009 83.5602 10.3885 83.5903 10.3453C83.6183 10.3068 83.6104 10.2529 83.5718 10.2234Z" fill="black"/>
<path d="M81.6259 9.46118C82.4226 9.47096 83.1579 9.82282 83.6119 10.1712C83.6786 10.2223 83.6928 10.3165 83.6444 10.383C83.5488 10.5204 83.3496 10.7419 83.0888 10.95C82.6635 11.2895 82.1813 11.5067 81.6509 11.5396C81.6102 11.5422 81.568 11.5434 81.5237 11.5434C81.0208 11.5434 80.5019 11.3693 80.0058 11.0903C79.6796 10.9073 79.4087 10.7059 79.2793 10.5884C79.2479 10.5607 79.2288 10.5212 79.2268 10.4776C79.226 10.4356 79.2412 10.3954 79.2707 10.365C79.3969 10.2371 79.5948 10.0768 79.8832 9.91239C80.3482 9.64724 80.8776 9.48193 81.4644 9.46275L81.6259 9.46118ZM81.6242 9.59306C80.9977 9.5849 80.4365 9.74871 79.9486 10.0269C79.6719 10.1847 79.4831 10.3377 79.3651 10.4572C79.361 10.4615 79.3587 10.4675 79.3588 10.4733C79.3591 10.4794 79.362 10.4854 79.3674 10.4902L79.4693 10.576C79.6101 10.688 79.824 10.8371 80.0705 10.9753C80.5486 11.2443 81.0472 11.4116 81.5237 11.4116C81.5653 11.4116 81.6047 11.4104 81.6426 11.408C82.505 11.3545 83.1855 10.8114 83.5368 10.3066C83.5437 10.2971 83.5417 10.2836 83.5315 10.2758C83.1252 9.96401 82.4738 9.64498 81.7664 9.59862L81.6242 9.59306ZM81.0656 9.68046L81.1402 9.76233C81.1166 9.85162 81.1006 9.97211 81.1006 10.0531C81.1006 10.494 81.5128 10.855 82.0254 10.855C82.4953 10.855 82.8829 10.5513 82.9426 10.1589L82.9497 10.0888L83.0459 10.0336C83.1564 10.0906 83.2578 10.1491 83.3454 10.2045L83.4282 10.2586L83.442 10.3552C83.0025 10.8857 82.3866 11.3169 81.6396 11.3629C81.1379 11.3931 80.6084 11.225 80.0961 10.9383C79.9048 10.8311 79.7304 10.7155 79.5814 10.604L79.4745 10.5213L79.4723 10.4202C79.8569 10.0845 80.3982 9.79036 81.0656 9.68046ZM79.6607 10.4985C79.7691 10.5797 79.8916 10.6632 80.0245 10.7438L80.1606 10.8233C80.6528 11.0987 81.1598 11.2597 81.6316 11.2313C82.2897 11.1907 82.8478 10.8263 83.2598 10.3647L83.2914 10.3273L83.1857 10.2615L83.0691 10.1954L83.0611 10.2418C82.9676 10.6458 82.5801 10.9513 82.1093 10.984L82.0254 10.9869C81.4435 10.9869 80.9686 10.571 80.9686 10.0531C80.9686 10.0069 80.973 9.95081 80.9807 9.89379L80.9909 9.82878L80.9296 9.84056C80.413 9.95221 79.9815 10.1789 79.6542 10.4402L79.621 10.4677L79.6607 10.4985Z" fill="black"/>
<path fill-rule="evenodd" clip-rule="evenodd" d="M86.5 11.0745C85.7575 11.1277 85.0144 10.5042 84.7936 10.3011C84.8406 10.2599 84.9125 10.2008 85.0054 10.1343C85.111 10.4704 85.4047 10.7442 85.7553 10.7442C86.1953 10.7442 86.5523 10.3876 86.5523 9.94759C86.5523 9.80515 86.5285 9.68856 86.471 9.58358C86.5275 9.57935 86.584 9.57724 86.6421 9.57724H86.6426C87.2246 9.57724 87.7548 9.99824 87.9206 10.1444C87.7754 10.3506 87.2468 11.0206 86.5 11.0745ZM88.0991 10.0679C88.0722 10.0404 87.4168 9.40051 86.6426 9.40051H86.6421C85.4385 9.40051 84.6347 10.204 84.6009 10.2377C84.5676 10.272 84.5676 10.3269 84.6009 10.3612C84.6104 10.3712 84.8385 10.6033 85.1866 10.8302C85.6138 11.1087 86.0353 11.2543 86.4118 11.2543C86.4456 11.2543 86.4794 11.2533 86.5127 11.2507C87.4812 11.1815 88.087 10.2177 88.1123 10.1771C88.134 10.1417 88.1287 10.0964 88.0991 10.0679Z" fill="black"/>
<path d="M86.6433 9.33472C87.2509 9.33472 87.8156 9.68426 88.1457 10.0206C88.1976 10.0706 88.2071 10.15 88.1691 10.2121C87.8356 10.7465 87.2772 11.2624 86.5186 11.3165C86.4851 11.3192 86.4499 11.3204 86.4125 11.3204C86.0217 11.3204 85.5881 11.1704 85.1512 10.8856C84.9512 10.7552 84.7794 10.6179 84.6468 10.4961L84.5542 10.4072C84.4961 10.3474 84.4961 10.2519 84.5549 10.1913C84.6759 10.0704 84.8623 9.9187 85.1274 9.76298C85.5374 9.52217 85.9908 9.36792 86.4789 9.33948L86.6433 9.33472ZM86.6433 9.46661L86.4868 9.47116C86.0209 9.49836 85.5872 9.64589 85.1943 9.87667C84.94 10.0261 84.762 10.171 84.649 10.2838C84.6434 10.2896 84.6415 10.2979 84.6432 10.3051L84.6484 10.3148L84.6651 10.3316C84.7986 10.463 84.9915 10.624 85.2234 10.7751C85.6403 11.0469 86.0496 11.1886 86.4125 11.1886C86.4466 11.1886 86.4783 11.1874 86.5087 11.185C87.2126 11.1348 87.7442 10.6437 88.0568 10.1428C88.0624 10.1335 88.0611 10.1223 88.0527 10.1142C87.7646 9.82073 87.2766 9.51094 86.7554 9.47094L86.6433 9.46661ZM86.6433 9.51145C87.0884 9.51145 87.5203 9.72874 87.8774 10.0206L87.965 10.0951L87.9754 10.1825C87.6229 10.6831 87.1197 11.0961 86.5055 11.1404C85.9328 11.1815 85.3468 10.8702 84.8482 10.4377L84.7497 10.3497L84.7509 10.2516C84.7913 10.2162 84.8373 10.1785 84.8881 10.1397L84.9677 10.0809L85.0691 10.1147C85.172 10.442 85.4512 10.6784 85.7561 10.6784C86.1596 10.6784 86.487 10.3512 86.487 9.94774C86.487 9.83894 86.4724 9.75031 86.4407 9.67218L86.4138 9.6154L86.4668 9.51796C86.5252 9.5136 86.5833 9.51145 86.6433 9.51145ZM86.6433 9.64334L86.5701 9.64471L86.5878 9.69493C86.602 9.74542 86.6112 9.79913 86.6157 9.85721L86.619 9.94774C86.619 10.4241 86.2326 10.8103 85.7561 10.8103C85.7072 10.8103 85.659 10.8054 85.6119 10.7959L85.5936 10.7916L85.6416 10.8163C85.8884 10.9364 86.1419 11.0092 86.39 11.012L86.496 11.0088C87.0224 10.9709 87.4718 10.6283 87.7991 10.1997L87.8318 10.1549L87.7882 10.1182C87.4837 9.87097 87.1212 9.6808 86.7537 9.64827L86.6433 9.64334Z" fill="black"/>
<path fill-rule="evenodd" clip-rule="evenodd" d="M84.3143 6.89075C83.9985 7.27903 84.4025 8.33414 84.6861 8.41644C85.4921 8.64804 87.1197 8.41644 88.3861 10.0292C88.2383 9.4742 88.3766 8.88913 87.6183 8.48239C86.5045 7.88414 85.1102 8.01075 84.3143 6.89075Z" fill="black"/>
<path d="M84.3687 6.85253L84.2637 6.84912C83.95 7.23476 84.2914 8.37035 84.6683 8.47973C84.7769 8.51094 84.8926 8.53369 85.063 8.55832L85.5732 8.62622C86.3154 8.72903 86.6525 8.81778 87.1292 9.06071C87.5789 9.28988 87.9796 9.61754 88.3348 10.0698C88.3791 10.1263 88.469 10.0815 88.4505 10.0122C88.438 9.96515 88.4271 9.91632 88.417 9.86236L88.3897 9.69546L88.3782 9.61475C88.2874 8.97056 88.1532 8.69409 87.65 8.42425C87.3707 8.27422 87.0898 8.16986 86.6616 8.0457L86.3378 7.95488C85.2321 7.64953 84.778 7.42849 84.3687 6.85253ZM84.3207 7.01009L84.3806 7.08586C84.7641 7.55424 85.2211 7.77378 86.1444 8.03758L86.4776 8.1305C86.9831 8.27181 87.2879 8.37947 87.5876 8.54043C88.0182 8.77142 88.147 8.99806 88.232 9.5298L88.27 9.78821L88.1867 9.69541C87.8843 9.37494 87.5522 9.12819 87.1892 8.94323C86.6963 8.69209 86.3497 8.60073 85.5951 8.4961L85.2701 8.45313C84.9937 8.41792 84.8411 8.39215 84.705 8.35303C84.4445 8.27744 84.165 7.4164 84.3121 7.029L84.3207 7.01009Z" fill="black"/>
</svg>

