<svg width="116" height="131" viewBox="0 0 116 131" fill="none" xmlns="http://www.w3.org/2000/svg">
<path fill-rule="evenodd" clip-rule="evenodd" d="M18.2559 57.4858L30.7309 50.0638L32.0836 51.7179L43.9418 71.4044L48.2184 63.5809L54.5138 54.8729L58.1982 55.8995C65.0552 59.4095 69.6158 61.28 71.88 61.5112C74.1442 61.7423 76.861 61.6457 80.0305 61.2214V64.8861L86.8322 83.4022C87.5656 87.5718 87.9324 89.856 87.9324 90.2546C87.9324 90.8525 87.9397 94.2488 87.6275 94.9399C87.3154 95.6309 86.6132 97.481 84.7477 98.8432C83.504 99.7513 79.4736 102.09 72.6564 105.859L62.1536 111.327V112.158L60.9276 113.047L55.1204 105.254L51.8904 99.8672L54.0217 98.8432L54.5138 99.1779L59.8288 96.0862L71.0628 89.0977L66.9947 82.814L62.471 73.2457L55.5903 79.3327L48.2886 86.9082C46.7832 88.0389 45.7392 88.6865 45.1567 88.851C44.2829 89.0977 43.8585 89.4877 42.6991 89.4877C41.5398 89.4877 39.9316 89.6849 38.2784 87.4391C37.1763 85.9419 33.6192 80.3827 27.6071 70.7617L20.0182 59.3453L19.0951 59.6593L18.2559 57.4858Z" fill="white"/>
<path fill-rule="evenodd" clip-rule="evenodd" d="M47.8809 103.006C47.8809 103.006 44.7034 107.466 43.6165 107.819C42.5296 108.173 37.4244 109.767 37.4244 109.767L49.7961 130.085C49.7961 130.085 55.0119 128.431 54.7417 125.564C54.4713 122.697 51.5153 115.769 52.1736 115.567C52.8319 115.365 56.2888 113.97 56.2888 113.97L47.8809 103.006Z" fill="#FFDA2D"/>
<path fill-rule="evenodd" clip-rule="evenodd" d="M27.9925 48.4567C27.9925 48.4567 25.1681 44.3482 24.9267 43.292C24.685 42.2363 23.6207 37.2852 23.6207 37.2852L0.304443 46.2735C0.304443 46.2735 1.41941 51.335 4.52371 51.4402C7.62773 51.5457 15.4192 49.6561 15.5525 50.2941C15.6856 50.9321 16.7445 54.324 16.7445 54.324L27.9925 48.4567Z" fill="#FFDA2D"/>
<path fill-rule="evenodd" clip-rule="evenodd" d="M63.3048 25.9122C63.3048 25.9122 51.734 28.9934 49.6598 28.028C48.479 29.8896 48.0741 37.3225 48.0741 37.3225L48.6084 37.7249C48.6084 37.7249 52.2614 37.7249 55.0998 38.1655C55.9818 38.025 53.0382 54.2799 53.0382 54.2799C55.3271 54.2453 62.949 60.8568 72.3737 61.3197C73.6313 61.3814 81.4107 60.3286 81.4107 60.3286C81.4107 60.3286 80.3839 45.6026 82.2739 36.5011C84.0145 33.9876 89.7583 31.0921 89.7583 31.0921L86.1806 23.5935C86.1806 23.5935 75.7597 25.9173 73.2302 25.9536C71.523 25.9782 73.0862 29.3023 70.0818 29.3685C67.0772 29.4352 63.3048 25.9122 63.3048 25.9122Z" fill="#779BE7"/>
<path fill-rule="evenodd" clip-rule="evenodd" d="M31.4472 56.1538C30.975 55.367 30.975 55.367 31.1199 55.2366L31.5072 55.5851L31.3136 55.4109L31.5571 55.2982C31.5686 55.3182 31.6992 55.5361 31.9293 55.9199L31.4472 56.1538ZM32.2306 57.4583L31.8389 56.8063L32.3207 56.5719L32.7127 57.2239L32.2306 57.4583ZM33.0156 58.7611L32.6234 58.1098L33.1049 57.8746L33.4969 58.5261L33.0156 58.7611ZM33.8009 60.0628L33.4081 59.4121L33.8897 59.1771L34.2825 59.8274L33.8009 60.0628ZM34.5873 61.3641L34.194 60.7136L34.675 60.4782L35.0683 61.1287L34.5873 61.3641ZM35.3751 62.6642L34.9812 62.0141L35.4622 61.7782L35.856 62.4283L35.3751 62.6642ZM36.1636 63.9637L35.7689 63.3139L36.2499 63.078L36.6441 63.7273L36.1636 63.9637ZM36.9539 65.2623L36.5583 64.6128L37.0393 64.3764L37.434 65.0254L36.9539 65.2623ZM37.7449 66.5606L37.3494 65.9121L37.8293 65.6742L38.2253 66.3232L37.7449 66.5606ZM38.5379 67.8577L38.141 67.2097L38.6209 66.9718L39.0178 67.6201L38.5379 67.8577ZM39.3322 69.1541L38.9348 68.5063L39.4141 68.2681L39.8115 68.9157L39.3322 69.1541ZM40.129 70.4514L39.7296 69.8024L40.209 69.5635L40.6083 70.2125L40.129 70.4514ZM40.928 71.7465L40.5286 71.0997L41.0074 70.8603L41.4068 71.5067L40.928 71.7465ZM41.7278 73.0387L41.3271 72.3919L41.8058 72.152L42.206 72.7983L41.7278 73.0387ZM42.5309 74.3313L42.1288 73.6853L42.6065 73.4447L43.0086 74.0903L42.5309 74.3313ZM43.337 75.6223L42.9335 74.9769L43.4112 74.7354L43.8141 75.38L43.337 75.6223Z" fill="black"/>
<path fill-rule="evenodd" clip-rule="evenodd" d="M53.4296 61.9278L52.9722 61.6602C53.1247 61.4311 53.2659 61.2165 53.3929 61.0177L53.8551 61.2779C53.7266 61.4791 53.5837 61.6961 53.4296 61.9278ZM52.5592 63.2106L52.1053 62.9377C52.2565 62.7169 52.4021 62.5039 52.5409 62.2997L52.9959 62.5711C52.8565 62.7757 52.7104 62.9892 52.5592 63.2106ZM51.6827 64.4865L51.2293 64.2132L51.6673 63.5754L52.1207 63.8488L51.6827 64.4865ZM50.8132 65.7635L50.3579 65.4929C50.5046 65.2759 50.6498 65.0621 50.7927 64.8524L51.2469 65.1243C51.1045 65.3335 50.9595 65.5467 50.8132 65.7635ZM49.9561 67.0468L49.4976 66.7812C49.641 66.5634 49.7841 66.3482 49.9259 66.1357L50.3827 66.4043C50.2415 66.6157 50.0992 66.8298 49.9561 67.0468ZM49.1154 68.3394L48.6531 68.0794C48.793 67.8606 48.9329 67.6438 49.0731 67.4288L49.5332 67.6918C49.3941 67.9059 49.2547 68.1219 49.1154 68.3394ZM48.299 69.6422L47.8313 69.39C47.9666 69.1699 48.1028 68.9509 48.2391 68.7333L48.7041 68.9893C48.5682 69.2056 48.4332 69.4231 48.299 69.6422ZM47.5103 70.9598L47.037 70.7175C47.1669 70.4949 47.2982 70.2726 47.4305 70.0515L47.9006 70.2988C47.7693 70.5184 47.6392 70.7387 47.5103 70.9598ZM46.7559 72.2957L46.2758 72.0657C46.3993 71.8396 46.5246 71.6142 46.6518 71.3888L47.1281 71.6253C47.002 71.8487 46.878 72.072 46.7559 72.2957ZM46.1268 73.4925L45.64 73.2757C45.729 73.0999 45.8198 72.9238 45.912 72.7472L46.3958 72.9698C46.3044 73.1444 46.2147 73.3184 46.1268 73.4925Z" fill="black"/>
<path fill-rule="evenodd" clip-rule="evenodd" d="M103.924 10.8953C103.924 11.484 103.791 12.0479 103.474 12.5588C102.937 13.4232 102.425 14.307 101.811 15.1251C100.209 17.2591 98.5581 19.3618 96.9259 21.4769C94.838 24.1834 92.7499 26.7895 90.6612 29.4953C90.6274 29.5388 90.3483 29.7944 90.3145 29.8383C90.3142 29.8385 90.3139 29.839 90.3136 29.8395C90.2891 29.8574 90.2662 29.8739 90.2403 29.8928C89.4 28.0532 87.4203 23.9012 87.1036 23.2914C90.1673 20.1642 91.6882 18.6033 94.8277 15.4143C95.9482 14.2756 97.111 13.1721 98.2362 12.0372C98.6889 11.5809 99.1062 11.0936 99.5148 10.6031C99.9332 10.1009 100.11 9.50434 100.236 8.89304C100.41 8.05457 100.56 7.21011 100.782 6.38235C101.051 5.37896 101.355 4.38181 101.702 3.3986C101.893 2.85506 102.199 2.34466 102.461 1.82279C102.491 1.76176 102.573 1.7219 102.713 1.60208C102.475 3.16569 102.147 4.62269 102.06 6.09164C101.972 7.57554 102.123 9.0714 102.172 10.6744C102.703 10.4559 102.907 10.1894 102.971 9.84162C103.127 8.99891 103.268 8.15396 103.41 7.30925C103.5 6.77916 103.579 6.24733 103.671 5.71774C103.686 5.63105 103.749 5.55184 103.883 5.48857C103.898 5.67764 103.927 5.86646 103.927 6.05527C103.929 7.66871 103.925 9.28189 103.924 10.8953ZM89.5603 31.8017C88.7927 32.2008 88.4362 32.0665 88.1841 31.2743C88.099 31.0068 88.0328 30.7345 87.9611 30.464C87.4293 28.4602 86.5451 26.58 85.5611 24.7349C85.418 24.4664 85.2684 24.2006 85.1395 23.9266C84.9116 23.4426 84.9876 23.2971 85.5355 23.1414C85.6797 23.1003 85.8304 23.0789 85.8609 23.0727C86.3216 23.045 86.5039 23.2533 86.64 23.4822C86.9098 23.9358 87.1813 24.3919 87.4015 24.8662C88.1914 26.5693 88.9647 28.2789 89.7325 29.9905C89.8549 30.2637 89.9293 30.5572 90.0037 30.8461C90.1536 31.427 90.1054 31.5177 89.5603 31.8017ZM87.3745 31.9609C86.0487 33.0494 84.7609 34.1781 83.1944 35.1342C83.1374 34.9165 83.0736 34.7558 83.0557 34.5911C82.9333 33.452 82.5669 32.3701 82.1464 31.3007C82.0709 31.1089 82.0632 31.1114 81.7803 30.9463C81.5576 31.0683 81.6179 31.2464 81.6786 31.4173C81.7931 31.7389 81.9087 32.0605 82.036 32.3776C82.3933 33.2677 82.3819 34.2125 82.5454 35.1317C83.1658 38.6101 82.7051 42.0435 81.9853 45.4535C81.4799 47.8471 81.2267 50.2554 81.0858 52.6836C80.9615 54.8224 81.1359 56.9403 81.4529 59.0544C81.5434 59.6562 81.4979 59.7332 80.8732 59.9283C80.0094 60.198 79.1525 60.4957 78.271 60.7065C77.5822 60.8709 76.8637 60.9865 76.1536 61.0096C74.0129 61.0794 71.8713 60.9989 69.8128 60.4063C68.5923 60.0551 67.4069 59.5887 66.2351 59.1135C64.9014 58.5732 63.5952 57.9761 62.2877 57.3834C61.5665 57.0566 60.8338 56.7348 60.1644 56.3305C58.3984 55.2641 56.461 54.6712 54.3758 54.4311C53.7634 54.3606 53.7307 54.3295 53.3303 53.9501C53.4049 53.7657 53.4992 53.5665 53.5671 53.3597C53.88 52.4076 54.212 51.4601 54.4832 50.498C54.631 49.9739 54.5699 49.4319 54.396 48.9045C54.2136 48.3515 54.0411 47.806 54.3407 47.2196C54.4361 47.0328 54.3641 46.7446 54.2932 46.5226C54.1411 46.0463 53.9449 45.5812 53.7579 45.1147C53.3804 44.1731 53.523 43.6671 54.4388 43.1131C55.3868 42.5402 55.6403 42.5452 55.5315 41.087C55.4579 40.1005 55.8101 39.0874 55.9777 38.087C55.9968 37.9734 56.0527 37.8648 56.0955 37.7428C55.7768 37.4478 55.3824 37.4585 54.9951 37.4456C53.689 37.4022 52.3828 37.3594 51.0769 37.3121C50.9305 37.3066 50.7853 37.272 50.5814 37.2426C51.081 34.2339 51.0434 31.2357 50.8278 28.2236C51.0355 28.1568 51.1712 28.1048 51.3119 28.0689C52.6744 27.7229 54.0207 27.2999 55.4048 27.0531C57.605 26.6607 59.8305 26.3882 62.0449 26.0604C62.5818 25.9809 63.1237 25.9099 63.6487 25.7844C64.0202 25.6955 64.2783 25.7804 64.5195 26.025C64.8837 26.3952 65.2522 26.7621 65.6305 27.1203C66.1296 27.5926 66.6371 28.0574 67.146 28.5213C67.6977 29.0237 68.3696 29.3478 69.0935 29.5869C70.3356 29.9972 71.4976 29.6006 72.0228 28.4812C72.345 27.7949 72.5132 27.0419 72.6868 26.3065C72.7577 26.0081 72.8531 25.8524 73.1892 25.7948C74.6223 25.549 76.0481 25.2663 77.4835 25.0348C79.3272 24.7374 81.1768 24.4726 83.0254 24.2021C83.519 24.1299 84.0178 24.0885 84.5616 24.0277C84.6284 24.1166 84.726 24.2195 84.7916 24.3376C85.9901 26.4891 87.0139 28.7009 87.6267 31.0604C87.7218 31.4263 87.6989 31.6946 87.3745 31.9609ZM76.7116 61.5218C77.5334 61.3237 78.2805 61.1436 79.1271 60.9394C79.1879 61.9248 79.2438 62.832 79.3073 63.8626C78.0962 63.3056 77.3502 62.5022 76.7116 61.5218ZM80.5417 68.1327C81.4442 70.5009 82.4339 72.8415 83.3797 75.196C84.6186 78.2808 85.7506 81.3969 86.6487 84.5814C86.9984 85.8219 87.1398 87.0921 87.1984 88.365C87.269 89.896 87.3246 91.4307 87.2862 92.9614C87.2216 95.5558 85.8678 97.5544 83.6542 99.0983C81.7451 100.43 79.7142 101.598 77.6241 102.674C72.4955 105.313 67.4494 108.078 62.4188 110.868C62.2719 110.949 62.1179 111.019 61.9437 111.107C59.4884 107.163 57.0462 103.241 54.5718 99.2667C60.1388 96.0904 65.286 92.3755 70.7617 89.046C70.9072 89.1947 71.0255 89.334 71.1667 89.4496C71.2168 89.4907 71.367 89.5069 71.3954 89.4762C71.4545 89.412 71.5041 89.2989 71.4826 89.2239C71.451 89.114 71.3608 89.0149 71.2839 88.9192C68.2229 85.0965 66.0366 80.8501 64.0665 76.498C63.5257 75.3033 62.9648 74.1159 62.3608 72.8121C62.533 72.6987 62.7263 72.5993 62.8836 72.4651C64.7733 70.8549 66.8323 69.4559 69.0837 68.2951C69.2543 68.2072 69.428 68.1207 69.5855 68.0154C69.7466 67.9072 70.0429 67.8243 69.8594 67.572C69.7068 67.362 69.5106 67.5261 69.3484 67.6161C68.4917 68.0911 67.626 68.5544 66.7827 69.0489C64.6613 70.2931 62.8244 71.8555 61.0026 73.4301C57.7047 76.2806 54.653 79.3435 51.6888 82.4824C50.1082 84.1564 48.5221 85.8301 46.7063 87.3006C45.3211 88.422 43.6903 89.0276 41.8338 89.0891C41.0139 89.1163 40.3085 88.8704 39.7047 88.3371C38.9617 87.6807 38.3397 86.9431 37.7782 86.1569C35.7285 83.2863 33.8031 80.3474 32.033 77.3258C29.2438 72.5642 26.206 67.9389 23.0278 63.3873C22.1024 62.0621 21.2883 60.6723 20.4253 59.311C20.3719 59.2263 20.3384 59.1316 20.2651 58.9772C24.3495 56.9239 27.9134 54.176 31.9065 51.8611C32.0493 52.0758 32.2061 52.2808 32.3287 52.5015C33.1778 54.028 34.0462 55.5463 34.859 57.0888C36.3827 59.9806 38.1099 62.7708 39.8394 65.5602C41.3971 68.0724 42.9677 70.5781 44.5363 73.0846C44.6369 73.2455 44.6971 73.4789 45.0417 73.393C45.1613 72.9172 44.7555 72.6018 44.575 72.2249C44.393 71.8448 44.1536 71.4873 43.9631 71.1605C46.2541 66.5215 49.1212 62.2449 52.056 57.9444C54.7152 58.7667 56.9091 58.2217 58.5519 56.0263C58.7966 56.1486 59.0242 56.2545 59.2437 56.3733C62.0787 57.912 65.0742 59.1583 68.0902 60.3565C70.1745 61.1842 72.4053 61.4899 74.6676 61.4433C75.6442 61.4231 76.3474 61.5679 76.8351 62.441C77.1989 63.0926 77.8545 63.5784 78.5522 63.968C78.7853 64.098 79.05 64.1799 79.3214 64.2925C79.7134 65.5415 80.0566 66.8598 80.5417 68.1327ZM60.6695 112.835C57.5295 108.6 54.6329 104.288 52.0208 99.7121C52.5897 99.4204 53.1136 99.1521 53.617 98.894C55.3181 100.955 56.4389 103.255 57.8307 105.409C59.2123 107.548 60.5198 109.727 61.8922 111.941C61.4646 112.254 61.1004 112.52 60.6695 112.835ZM57.2106 111.226C56.8298 111.407 56.4299 111.555 56.0088 111.729C53.874 109.312 52.0625 106.693 50.1652 104.052C50.3982 103.894 50.6122 103.735 50.8417 103.597C51.3686 103.28 51.9047 102.976 52.4329 102.661C52.8704 102.4 53.0738 102.427 53.3322 102.819C54.9916 105.341 56.6474 107.864 58.3027 110.388C58.3341 110.436 58.3423 110.497 58.3802 110.608C57.9945 110.814 57.6115 111.035 57.2106 111.226ZM55.5569 113.572C54.1689 114.61 52.6319 115.362 50.8556 115.675C50.6337 115.713 50.4211 115.796 50.2164 115.855C50.2562 116.19 50.4478 116.195 50.6539 116.15C51.0987 116.054 51.5419 115.952 51.984 115.847C52.2356 115.787 52.4842 115.717 52.823 115.627C52.8999 116.323 52.9718 116.981 53.0495 117.684C52.7126 117.799 52.4131 117.905 52.1094 118.003C51.987 118.042 51.8281 118.029 51.7374 118.097C51.642 118.169 51.6087 118.309 51.5485 118.419C51.661 118.449 51.7842 118.522 51.8837 118.501C52.2007 118.434 52.5084 118.331 52.8203 118.244C52.9233 118.215 53.028 118.191 53.21 118.145C53.3349 118.59 53.4559 119.021 53.593 119.51C53.1926 119.611 52.8636 119.696 52.5338 119.777C52.4076 119.808 52.2555 119.802 52.1596 119.867C52.0778 119.922 52.0317 120.055 52.0285 120.155C52.0276 120.192 52.1999 120.276 52.2819 120.265C52.5611 120.229 52.8347 120.16 53.1111 120.105C53.2796 120.072 53.4485 120.043 53.7086 119.995C53.8277 120.408 53.9498 120.8 54.0536 121.196C54.3426 122.298 54.698 123.388 54.7231 124.534C54.7288 124.792 54.7171 125.051 54.7304 125.308C54.8261 127.163 53.2229 128.502 51.7962 128.944C51.283 129.103 50.7531 129.216 50.1725 129.366C50.0425 129.184 49.9051 129.011 49.7896 128.828C47.7995 125.672 45.8054 122.519 43.826 119.357C42.1712 116.716 40.5312 114.066 38.8922 111.416C38.615 110.967 38.3771 110.499 38.0802 109.965C38.3155 109.88 38.521 109.792 38.7355 109.731C40.8662 109.13 42.9099 108.353 44.8127 107.277C46.2426 106.468 47.5976 105.571 48.8394 104.534C49.0294 104.376 49.2308 104.229 49.5159 104.008C50.1458 104.869 50.7324 105.633 51.2775 106.421C52.6518 108.409 54.1559 110.312 55.7313 112.169C56.383 112.937 56.38 112.956 55.5569 113.572ZM49.2106 129.909C48.6461 129.936 48.4011 129.795 48.2531 129.294C48.1623 128.987 47.9974 128.763 47.7347 128.565C47.2432 128.194 47.0159 127.709 47.1729 127.13C47.2806 126.734 47.1304 126.502 46.7624 126.299C45.8335 125.785 45.3696 125.006 45.3369 124.02C45.3202 123.517 45.2074 123.134 44.6538 122.847C43.9339 122.474 43.6944 121.778 43.7028 121.052C43.7077 120.612 43.6028 120.353 43.1012 120.217C42.4746 120.048 42.1249 119.644 42.183 119.007C42.2099 118.713 42.0491 118.548 41.761 118.408C40.9608 118.022 40.6942 117.502 40.8176 116.686C40.8893 116.208 40.897 116.191 40.4336 116.007C39.8061 115.757 39.4984 115.323 39.445 114.714C39.4295 114.536 39.3875 114.359 39.3711 114.181C39.3493 113.94 39.2248 113.761 38.9865 113.666C38.1841 113.346 37.9407 112.75 38.0216 112.013C38.0579 111.681 37.9519 111.504 37.5978 111.386C36.9144 111.158 36.8474 110.936 37.2301 110.369C37.2854 110.287 37.368 110.221 37.5087 110.073C37.67 110.295 37.821 110.473 37.9374 110.669C38.8843 112.259 39.7909 113.87 40.7735 115.442C42.6101 118.378 44.4938 121.29 46.3492 124.217C47.4626 125.973 48.5606 127.738 49.6636 129.5C49.7149 129.582 49.7487 129.673 49.8157 129.812C49.581 129.851 49.3968 129.9 49.2106 129.909ZM19.0148 58.8534C18.7188 58.328 18.4143 57.788 18.1107 57.2492C22.3538 54.7776 26.5494 52.3337 30.7762 49.8715C31.3039 50.2275 31.3856 50.8463 31.846 51.3083C31.6157 51.471 31.4832 51.5724 31.3426 51.6623C28.9519 53.1903 26.5723 54.7323 24.1644 56.2371C22.9616 56.9886 21.7127 57.6796 20.4725 58.3803C20.0514 58.6182 19.6122 58.8499 19.0148 58.8534ZM18.9477 54.2037C22.0539 52.4111 25.231 50.9477 28.4103 49.5235C28.6793 49.7709 28.9055 49.9786 29.1555 50.2083C29.0394 50.2923 28.9298 50.3849 28.8066 50.4577C26.1929 51.9991 23.5776 53.5381 20.9623 55.0768C20.8342 55.152 20.6941 55.2118 20.5728 55.2945C20.3588 55.4402 20.1574 55.413 19.9887 55.2511C19.6499 54.9261 19.3271 54.5873 18.9477 54.2037ZM17.7798 53.5697C16.7235 52.1321 15.9764 50.5874 15.826 48.8353C15.8055 48.5941 15.7238 48.3575 15.66 48.0713C15.2817 48.2519 15.2945 48.4805 15.3356 48.7227C15.4351 49.3081 15.5305 49.8939 15.6357 50.5279H13.4075C13.3363 50.2987 13.2592 50.0765 13.2006 49.8506C13.1556 49.6767 13.1641 49.4869 13.0926 49.3247C13.046 49.2196 12.8988 49.1514 12.7969 49.0667C12.7372 49.1765 12.6165 49.2924 12.629 49.3945C12.6772 49.7831 12.7688 50.1677 12.8539 50.6019C12.448 50.6672 12.0899 50.7212 11.7333 50.783C11.4166 50.8383 11.2899 50.6776 11.2517 50.43C11.2152 50.1944 11.2029 49.956 11.174 49.7191C11.1462 49.4946 11.0784 49.2988 10.7276 49.2812C10.6213 49.8 10.7488 50.2793 10.8183 50.783C10.6908 50.8356 10.5787 50.9153 10.4593 50.9257C8.96893 51.056 7.47961 51.2242 5.98565 51.279C5.1704 51.3086 4.32815 51.2129 3.57286 50.856C2.3373 50.2723 1.61308 49.3185 1.28763 48.1069C1.15898 47.6281 1.10883 47.1317 1.0246 46.6531C1.71421 46.1587 22.4933 38.0322 23.4697 37.8778C23.8295 39.1552 24.1647 40.4425 24.5586 41.7144C24.9628 43.0182 25.5772 44.253 26.2908 45.4345C26.9915 46.5946 27.7956 47.7031 28.5891 48.8858C27.9063 49.2171 27.2401 49.54 26.5748 49.8641C24.4286 50.91 22.2802 51.952 20.138 53.0055C19.6619 53.2396 19.2162 53.5251 18.7433 53.7655C18.2159 54.0338 18.103 54.0096 17.7798 53.5697ZM0.634557 46.193C0.364985 45.298 0.563416 45.0111 1.45499 44.8143C1.71339 44.7572 1.98024 44.621 2.1743 44.4541C2.67447 44.0234 3.23269 43.9168 3.85415 44.1365C4.20168 44.2593 4.43527 44.1798 4.64597 43.9282C5.36447 43.0696 6.32064 42.7071 7.49269 42.8008C7.96369 42.8381 8.34093 42.7803 8.66992 42.3686C9.18917 41.7184 9.99897 41.5849 10.8358 41.6482C11.4174 41.6923 11.506 41.6985 11.7162 41.2743C12.0195 40.6607 12.5121 40.4079 13.2284 40.509C13.529 40.5514 13.7059 40.4363 13.873 40.2129C14.4146 39.4892 14.866 39.3452 15.8254 39.5453C16.3387 39.6519 16.379 39.6339 16.6568 39.2299C16.9803 38.7589 17.4344 38.4923 18.0591 38.502C18.2333 38.5048 18.4086 38.4938 18.5814 38.508C18.939 38.5369 19.1998 38.4398 19.3996 38.1413C19.8017 37.5415 20.4286 37.4 21.1509 37.4979C21.3412 37.5238 21.5336 37.5383 21.7448 37.5602C22.3777 36.5319 22.6787 36.4798 23.3931 37.2916C23.0556 37.4424 22.7414 37.6008 22.4124 37.7263C19.6286 38.7882 16.8337 39.8258 14.0594 40.9069C11.2863 41.9872 8.53446 43.1134 5.77005 44.2127C4.31943 44.7894 2.86282 45.3526 1.40757 45.919C1.15489 46.0172 0.895679 46.1009 0.634557 46.193ZM54.1793 55.0974C54.2537 55.0038 54.4399 54.9121 54.5552 54.9293C55.6896 55.0969 56.8311 55.2506 57.8762 55.7292C57.9089 55.7444 57.9241 55.7907 57.9473 55.8218C57.1092 57.5984 53.9727 58.5316 52.3836 57.4198C52.9784 56.6459 53.5696 55.8654 54.1793 55.0974ZM50.0905 37.0879C50.0741 37.1835 50.0387 37.2767 49.9937 37.4366C49.5851 37.4645 49.2281 37.4892 48.8784 37.5128C48.7606 36.86 49.695 28.449 49.9351 27.8851C50.3829 27.8905 50.3481 28.2064 50.365 28.4685C50.4037 29.083 50.4301 29.6983 50.4552 30.3133C50.547 32.5811 50.4764 34.8417 50.0905 37.0879ZM48.43 36.2977C47.7821 36.2327 47.2228 36.1948 46.67 36.1161C46.0254 36.024 45.3881 35.8882 44.7451 35.7851C42.8189 35.4759 41.1856 34.6517 39.7426 33.4659C37.9761 32.0144 36.2129 30.5579 34.409 29.145C32.2249 27.4342 30.0051 25.7612 27.7885 24.085C27.3233 23.7333 26.9444 23.2809 26.3592 23.0607C26.0915 22.9601 25.8527 22.8898 25.5477 22.9479C24.8445 23.0809 24.1331 23.183 23.4203 23.2685C21.6445 23.4814 20.0113 24.0671 18.4337 24.8131C18.1161 24.9636 17.8037 25.1579 17.4265 25.1544C17.4003 25.1155 17.3736 25.0767 17.3469 25.0376C17.4407 24.9399 17.5252 24.8328 17.629 24.7459C18.4582 24.0529 19.4427 23.5756 20.4207 23.0948C21.0531 22.784 21.7075 22.5112 22.3516 22.2197C22.4486 22.1756 22.5647 22.1408 22.6291 22.069C22.6857 22.0063 22.7285 21.8742 22.6931 21.8157C22.6547 21.7522 22.5203 21.7315 22.4233 21.7066C22.3906 21.6981 22.3434 21.7325 22.3041 21.7492C20.5071 22.5169 18.7081 23.2819 17.1924 24.4873C17.1103 24.5526 17.0013 24.6116 16.9618 24.6956C16.6859 25.2832 16.0181 25.3131 15.5283 25.6419C15.313 25.278 15.5251 25.0597 15.718 24.9028C16.1547 24.5473 16.6001 24.1834 17.1013 23.9149C18.5288 23.1499 19.987 22.4327 21.43 21.6921C21.6192 21.595 21.9844 21.5472 21.8043 21.2565C21.6688 21.0378 21.4104 21.2134 21.2289 21.3053C19.6864 22.087 18.1316 22.8507 16.6132 23.6698C15.8682 24.0716 15.1478 24.5396 14.8464 25.3467C14.5427 25.2912 14.4757 25.1375 14.6362 24.9599C14.8987 24.6694 15.1699 24.374 15.4904 24.1418C16.0012 23.7714 16.5398 23.4286 17.0942 23.1145C18.2788 22.4424 19.4811 21.7968 20.6761 21.1396C20.7693 21.0886 20.8827 21.0505 20.9459 20.977C21.0034 20.91 21.0571 20.7558 21.022 20.7241C20.9473 20.6571 20.7848 20.5879 20.7093 20.6198C20.3746 20.7615 20.0516 20.9294 19.7354 21.1048C18.4688 21.807 17.2071 22.5157 15.9418 23.2204C15.8928 23.2475 15.8298 23.254 15.709 23.2027C15.9519 22.9984 16.1675 22.7541 16.4425 22.5966C17.9359 21.7405 19.4375 20.8958 20.9506 20.0687C21.5478 19.7424 22.1845 19.4766 22.798 19.174C23.32 18.9167 23.854 18.7089 24.4558 18.6591C24.6019 18.6469 24.8298 18.5475 24.8584 18.4488C24.9216 18.2299 24.6861 18.13 24.4975 18.1111C23.6335 18.0244 22.7672 17.9504 21.9002 17.8951C21.533 17.8714 21.1613 17.909 20.7917 17.9108C20.3018 17.913 19.851 17.8204 19.4896 17.3934C19.6103 17.3294 19.7177 17.2367 19.8418 17.212C21.0552 16.9732 22.2682 16.73 23.4879 16.5213C24.1843 16.4017 24.8734 16.4657 25.5357 16.7345C26.3919 17.082 27.2567 17.4113 28.1203 17.7429C29.0151 18.0866 29.7508 18.6362 30.4761 19.2103C30.7833 19.4535 31.1725 19.6082 31.5077 19.8244C34.6415 21.8451 37.7657 23.8783 40.9062 25.8908C42.1906 26.7138 43.512 27.4885 44.8081 28.2966C45.8537 28.9487 47.0006 29.1261 48.2343 28.9724C48.512 28.938 48.7963 28.9447 49.1651 28.9285C49.1992 31.4126 48.5426 33.795 48.43 36.2977ZM101.817 0.901359C101.862 0.913316 101.906 0.925522 101.95 0.937479C101.761 1.4718 101.859 2.08484 101.301 2.51803C101.473 1.97897 101.645 1.44017 101.817 0.901359ZM104.388 5.24221C104.387 5.06759 104.347 4.88051 104.269 4.72233C104.115 4.4117 103.767 4.38031 103.544 4.65532C103.431 4.79582 103.335 4.96844 103.302 5.13833C103.152 5.90008 103.023 6.66582 102.896 7.43106C102.829 7.82788 102.78 8.22719 102.724 8.62551L102.564 8.61455C102.554 7.76312 102.476 6.90621 102.552 6.06125C102.648 4.99311 102.878 3.93542 103.035 2.87101C103.116 2.32074 103.176 1.76724 103.22 1.21348C103.232 1.06602 103.201 0.85951 103.097 0.775314C102.977 0.677915 102.755 0.685886 102.569 0.646279C102.552 0.57379 102.528 0.497316 102.515 0.419098C102.479 0.19665 102.347 0.0713522 102.103 0.014557C101.819 -0.0517041 101.702 0.120176 101.59 0.289067C101.479 0.45746 101.364 0.633575 101.307 0.82065C101.077 1.56696 100.813 2.30953 100.665 3.07054C100.328 4.81375 100.039 6.56519 99.7574 8.31687C99.5794 9.42338 99.1918 10.4081 98.3177 11.2458C96.9202 12.586 95.586 13.9822 94.2367 15.3637C91.6394 18.0234 89.4014 20.333 86.8237 22.9735C86.1234 22.4091 84.9331 22.5396 84.4725 23.337C84.3231 23.5955 84.1244 23.66 83.8554 23.6889C83.2713 23.752 82.6852 23.805 82.1052 23.8917C79.8699 24.225 77.634 24.5561 75.4038 24.917C74.483 25.0662 73.5759 25.2874 72.6637 25.48C72.36 25.544 72.2063 25.67 72.1967 26.0118C72.1747 26.7915 71.9672 27.5488 71.5933 28.2552C71.0844 29.2175 70.189 29.5102 69.0913 29.1361C68.0967 28.7968 67.3518 28.1628 66.6415 27.4845C66.0386 26.9088 65.4613 26.3115 64.8681 25.7273C64.4977 25.3622 64.0477 25.2543 63.5094 25.3502C62.6968 25.4949 61.8783 25.61 61.0617 25.7338C58.9774 26.0504 56.8854 26.3304 54.8111 26.6951C53.8108 26.8707 52.847 27.2155 51.86 27.4606C51.3718 27.5819 50.9161 27.7306 50.3636 27.4666C49.7849 27.1903 49.4434 27.4451 49.3327 28.0472C49.3082 28.181 49.2793 28.3138 49.2496 28.4617C48.6791 28.5051 48.1402 28.5514 47.6006 28.5868C46.7 28.6456 45.8796 28.4435 45.1286 27.9745C43.7794 27.1318 42.4097 26.3155 41.0646 25.4675C39.0198 24.1784 36.9837 22.8779 34.953 21.5703C33.7417 20.7901 32.5067 20.0334 31.3576 19.1814C30.369 18.4483 29.3547 17.7765 28.1919 17.3057C27.2559 16.9271 26.315 16.5559 25.3591 16.2221C25.0018 16.0973 24.5926 16.0253 24.213 16.0415C23.5866 16.0684 22.961 16.1673 22.342 16.2707C21.4423 16.4209 20.5483 16.6 19.6526 16.7704C19.3116 16.8352 19.0333 16.9714 18.981 17.3281C18.9341 17.647 19.1415 17.9962 19.4991 18.1519C19.6725 18.2279 19.869 18.2907 20.0584 18.3004C20.7093 18.3323 21.3624 18.3589 22.0133 18.3475C22.5304 18.3382 22.6051 18.3235 23.0518 18.5206C22.888 18.607 22.7411 18.687 22.5917 18.763C20.9356 19.6052 19.2737 20.4374 17.6249 21.2916C16.7107 21.7654 15.8794 22.345 15.1644 23.0552C14.9254 23.2931 14.715 23.53 14.7507 23.8954C14.7638 24.0262 14.6398 24.1784 14.5509 24.305C14.4345 24.4719 14.2685 24.6119 14.1636 24.7837C13.8891 25.2324 14.0791 25.5956 14.6299 25.7258C14.7679 25.7587 14.9317 25.7844 15.0265 25.8676C15.2934 26.101 15.5659 26.0903 15.8647 25.9513C16.213 25.7896 16.5611 25.627 16.9269 25.4563C17.2567 25.7164 17.6045 25.6596 17.9605 25.5029C18.3532 25.33 18.7635 25.1878 19.1429 24.9945C21.1313 23.9804 23.3266 23.6782 25.5352 23.4142C25.8606 23.3753 26.1327 23.4463 26.3832 23.6359C26.8697 24.0036 27.3677 24.359 27.8534 24.7274C29.8154 26.2163 31.795 27.6865 33.7292 29.2053C35.6467 30.7109 37.525 32.2585 39.4063 33.8025C40.9152 35.041 42.6188 35.9156 44.6344 36.234C45.707 36.4031 46.7828 36.5573 47.8568 36.7212C48.0189 36.7459 48.1784 36.7872 48.3463 36.8226C48.3463 37.0508 48.3373 37.2289 48.3479 37.4062C48.3777 37.9171 48.5112 38.0205 49.0869 37.9846C49.2172 37.9767 49.3461 37.9505 49.4758 37.9393C50.1423 37.8815 50.8084 37.7789 51.4743 37.7794C52.6723 37.7806 53.8697 37.8427 55.0673 37.8848C55.1875 37.8887 55.3067 37.9306 55.4023 37.9503C55.2701 38.9138 55.1407 39.8397 55.0177 40.7664C54.9967 40.9233 54.955 41.0974 55.0052 41.2394C55.2611 41.9625 54.9169 42.3519 54.2458 42.7245C53.0381 43.3956 52.8189 44.1823 53.3311 45.3827C53.5126 45.8087 53.6731 46.2429 53.822 46.6795C53.8716 46.8263 53.9217 47.0198 53.8588 47.1444C53.5164 47.8232 53.7756 48.4629 53.9198 49.1272C54.019 49.5856 54.0806 50.0917 53.9722 50.5386C53.7516 51.4483 53.4404 52.3441 53.1005 53.2244C52.7082 54.2408 52.6774 54.2316 53.7075 54.8396C53.6126 54.9838 53.541 55.1054 53.4567 55.219C53.016 55.8119 52.5496 56.3903 52.1331 56.9973C49.1921 61.2844 46.265 65.5789 43.9086 70.1713C43.8418 70.3014 43.7352 70.4145 43.6153 70.5791C43.4768 70.3843 43.3765 70.256 43.2904 70.12C42.437 68.7771 41.5599 67.4464 40.7394 66.0868C39.0882 63.3494 37.4547 60.6033 35.8419 57.847C35.2054 56.7592 34.6123 55.6475 34.0582 54.5228C33.5098 53.4098 32.673 52.4303 32.3301 51.2167C32.1995 50.7551 31.8016 50.3543 31.5135 49.9326C31.052 49.258 30.9375 49.2376 30.1869 49.6566C29.7355 49.9084 29.5123 49.8822 29.1707 49.5265C29.1004 49.4535 29.0513 49.3636 28.9701 49.2505C29.3138 49.0241 29.1855 48.7805 29.0061 48.5388C28.6155 48.0135 28.1859 47.5083 27.8395 46.9595C27.2336 45.9987 26.6214 45.035 26.1171 44.0281C25.6123 43.0205 25.167 41.9777 24.8238 40.9158C24.4376 39.7199 24.1939 38.4853 23.8894 37.2675C23.7428 36.6808 23.2601 36.4345 22.6866 36.3094C22.1848 36.2003 21.8675 36.4721 21.6129 36.8246C21.5549 36.9045 21.4957 36.9835 21.4308 37.0719C20.3509 36.9571 19.4266 37.1688 18.8248 38.0676C18.6084 38.0676 18.4127 38.0666 18.2172 38.0678C17.4355 38.0721 16.7601 38.2811 16.3106 38.9091C16.1462 39.139 15.9364 39.1054 15.6812 39.0672C14.8475 38.9429 14.1268 39.1519 13.6053 39.7824C13.4061 40.023 13.1512 40.0333 12.867 40.0793C12.514 40.1366 12.1269 40.2134 11.8467 40.3984C11.5455 40.5975 11.3512 40.9315 11.074 41.2484C10.9216 41.2392 10.7068 41.2177 10.4915 41.2155C9.67571 41.2065 8.91305 41.4046 8.38754 41.9795C8.06918 42.328 7.75082 42.378 7.3147 42.3663C6.12139 42.3352 5.08917 42.6722 4.32543 43.5598C4.26137 43.6343 4.16434 43.6846 4.07439 43.7523C3.31392 43.49 2.58807 43.5476 1.97969 44.0219C1.64743 44.2809 1.29854 44.4047 0.889682 44.4947C0.165464 44.6538 -0.255384 45.6358 0.170643 46.1893C0.471833 46.5809 0.610298 47.0029 0.653637 47.4605C0.716328 48.1221 0.899495 48.7521 1.25193 49.3302C1.96034 50.4928 2.94513 51.3273 4.44263 51.5649C5.78586 51.7779 7.125 51.7635 8.46877 51.5901C9.28184 51.4852 10.0966 51.3888 10.8006 51.3021C11.3468 51.6419 11.3817 52.3581 12.1283 52.3591C12.2158 51.8596 11.5314 51.7278 11.6347 51.2296C12.1297 51.1661 12.6165 51.1038 13.0826 51.0443C13.2731 51.2354 13.4165 51.415 13.6002 51.5485C13.6907 51.6145 13.8553 51.5953 13.9864 51.6145C13.9799 51.4937 13.9842 51.3709 13.963 51.2523C13.9482 51.1703 13.8984 51.0936 13.8234 50.9217C14.4768 50.9703 15.0396 50.985 15.5897 51.0697C15.7543 51.0954 15.953 51.2932 16.017 51.4521C16.3888 52.3725 16.971 53.1826 17.5227 54.0129C17.7757 54.3937 18.0417 54.6368 18.5171 54.4667C18.9292 54.9049 19.3045 55.3042 19.7205 55.7466C19.1213 56.0717 18.5969 56.3504 18.0796 56.6391C17.6789 56.8626 17.5715 57.1515 17.7601 57.5466C17.9253 57.8931 18.1194 58.2284 18.3075 58.5654C18.7457 59.3516 18.7474 59.3504 19.6935 59.2258C19.7308 59.2208 19.7739 59.249 19.8363 59.2686C19.9494 59.443 20.0732 59.6298 20.1928 59.8187C20.9225 60.974 21.6091 62.1545 22.3886 63.2812C25.4766 67.7423 28.4937 72.2409 31.2158 76.9003C33.1467 80.2049 35.2125 83.439 37.4931 86.5533C38.0227 87.2762 38.672 87.9308 39.3079 88.5827C40.0436 89.337 41.0248 89.5696 42.0935 89.5176C42.5049 89.4974 42.917 89.4319 43.3201 89.3512C45.0537 89.0044 46.5394 88.228 47.7423 87.0502C49.6898 85.1431 51.6125 83.2136 53.5118 81.2656C56.0797 78.6316 58.7015 76.0462 61.518 73.6306C61.6682 73.5016 61.8317 73.3855 62.0323 73.2303C62.5717 74.3826 63.0877 75.455 63.5783 76.5369C65.4509 80.664 67.4837 84.7142 70.3048 88.3916C70.3522 88.4534 70.3776 88.5291 70.4264 88.6248C70.2604 88.7424 70.1138 88.8545 69.9578 88.9549C68.0864 90.1588 66.216 91.3644 64.3402 92.5629C61.5357 94.3544 58.7304 96.1447 55.9178 97.925C55.404 98.2501 54.8531 98.5254 54.3197 98.8233C54.1335 98.6282 53.9833 98.4708 53.8201 98.2999C52.9778 98.7421 52.1356 99.1015 51.3735 99.6164C51.8477 100.378 52.2956 101.096 52.745 101.817C51.8851 102.541 50.9226 103.009 49.9872 103.513C49.9504 103.533 49.8989 103.568 49.8702 103.558C49.3008 103.354 49.0362 103.786 48.72 104.046C46.5653 105.819 44.1994 107.298 41.5203 108.318C40.1959 108.822 38.8164 109.204 37.464 109.647C36.9226 109.824 36.5274 110.35 36.5266 110.896C36.526 111.389 36.8662 111.643 37.3274 111.804C37.3849 111.825 37.4321 111.87 37.5013 111.914C37.5097 112.027 37.5187 112.145 37.5272 112.263C37.5809 112.999 37.866 113.626 38.6022 113.998C38.8631 114.129 38.9083 114.323 38.9298 114.538C39.0173 115.409 39.3804 116.114 40.3188 116.471C40.3188 116.604 40.3218 116.702 40.3186 116.8C40.2908 117.639 40.5961 118.326 41.4198 118.76C41.6673 118.89 41.7092 119.073 41.7283 119.303C41.779 119.917 42.1442 120.37 42.7521 120.58C43.1691 120.724 43.2482 120.941 43.2607 121.294C43.2814 121.864 43.4801 122.395 43.901 122.825C44.185 123.115 44.6238 123.316 44.8045 123.643C44.9882 123.978 44.9048 124.426 45.0024 124.811C45.2308 125.71 45.831 126.371 46.6787 126.815C46.6787 127.051 46.6844 127.249 46.6776 127.446C46.6591 127.976 46.8608 128.441 47.2795 128.784C47.5872 129.037 47.7567 129.319 47.8903 129.666C48.1626 130.372 49.2869 130.629 49.8926 130.132C50.2475 129.84 50.6713 129.723 51.108 129.601C51.6054 129.462 52.1277 129.35 52.5774 129.124C54.2172 128.301 55.2404 127.105 55.2017 125.3C55.1835 124.442 55.1769 123.59 54.9316 122.751C54.7291 122.06 54.6059 121.347 54.3731 120.666C54.1758 120.089 54.1752 119.634 54.8329 119.32C54.9586 119.26 55.0682 119.132 55.1303 119.011C55.1865 118.902 55.1682 118.761 55.1826 118.635C55.1456 118.61 55.1082 118.586 55.0712 118.562C54.752 118.796 54.4328 119.03 54.0397 119.318C53.892 118.765 53.7705 118.309 53.659 117.893C53.8599 117.676 54.0324 117.52 54.1608 117.338C54.2153 117.26 54.1777 117.128 54.1823 117.02C54.0621 117.02 53.9345 116.996 53.8244 117.026C53.72 117.054 53.6342 117.139 53.457 117.253C53.4134 116.579 53.3752 115.992 53.3384 115.421C53.5546 115.306 53.7116 115.235 53.8525 115.144C54.7555 114.557 55.6667 113.979 56.5509 113.369C56.9565 113.089 56.9453 112.957 56.673 112.562C56.5869 112.437 56.5024 112.311 56.4171 112.186C56.4076 112.138 56.3983 112.088 56.389 112.04C56.7873 112.23 57.0061 112.135 57.1201 111.834C57.1427 111.774 57.2528 111.737 57.328 111.698C57.778 111.462 58.23 111.229 58.7086 110.981C58.7901 111.071 58.8964 111.17 58.9787 111.284C59.3644 111.815 59.7397 112.352 60.1254 112.883C60.4642 113.349 60.697 113.384 61.1901 113.046C61.4689 112.855 61.7314 112.643 62.0195 112.465C62.2719 112.309 62.3537 112.115 62.2932 111.851C62.2673 111.738 62.2594 111.621 62.2419 111.497C62.4049 111.396 62.5431 111.301 62.6906 111.22C66.2831 109.26 69.8723 107.295 73.4718 105.346C75.8713 104.046 78.3061 102.8 80.6846 101.47C81.9643 100.754 83.2045 99.9639 84.3798 99.112C85.952 97.9721 87.1235 96.5353 87.5247 94.6949C87.7196 93.8016 87.8281 92.881 87.8466 91.9707C87.8706 90.7775 87.7853 89.5814 87.7139 88.3882C87.6177 86.7745 87.3936 85.1755 86.9038 83.6174C85.9713 80.6503 84.9337 77.7156 83.7643 74.8188C82.694 72.1676 81.6486 69.5077 80.6164 66.8441C79.8592 64.8891 79.6316 62.8604 79.7218 60.7393C80.1648 60.6135 80.6442 60.4945 81.1103 60.341C81.9398 60.0678 82.058 59.8817 81.9444 59.0963C81.6353 56.961 81.405 54.8204 81.59 52.664C81.7361 50.9576 81.8247 49.2413 82.1036 47.5519C82.5329 44.955 83.1979 42.389 83.2424 39.746C83.262 38.5725 83.2917 37.3975 83.2396 36.2257C83.2233 35.8516 83.3211 35.6456 83.6218 35.4274C84.6276 34.6968 85.6181 33.9482 86.6053 33.1962C87.0695 32.8424 87.513 32.466 87.9897 32.0807C88.5302 32.6534 89.1113 32.5336 89.705 32.21C89.8358 32.1385 89.9691 32.07 90.0972 31.9947C90.511 31.7524 90.732 31.3775 90.5696 30.9729C90.4726 30.7313 90.4851 30.547 90.5587 30.3885C92.0622 28.4383 93.9609 26.0469 95.4633 24.096C97.5076 21.4418 99.5497 18.7861 101.591 16.1297C101.94 15.6748 102.288 15.2182 102.62 14.7527C102.868 14.4034 103.088 14.037 103.324 13.6803C103.82 12.9295 104.384 12.1867 104.397 11.2752C104.424 9.26445 104.4 7.25321 104.388 5.24221Z" fill="black"/>
<path fill-rule="evenodd" clip-rule="evenodd" d="M70.342 5.94409C70.3977 5.48343 70.4406 5.13018 69.9602 4.70604C70.2112 4.68991 70.3289 4.57399 70.5154 4.68048C70.9864 4.94884 70.8151 5.5598 70.342 5.94409ZM68.5566 4.12611C68.57 3.79172 68.3527 3.51454 67.9703 3.14881C68.4528 3.25744 68.8161 3.70714 68.5566 4.12611ZM64.6864 4.42703C64.9568 3.90248 65.4291 3.63777 66.0714 3.97672C65.7275 4.10907 65.2006 3.93442 64.6864 4.42703ZM62.1269 5.66234C61.9048 5.01091 62.1412 4.64762 62.8243 4.60654C62.4734 4.81953 62.1591 5.06933 62.1269 5.66234ZM61.6744 9.6555C61.3525 9.82407 60.9384 10.2598 61.4535 11.0521C61.17 10.8665 60.7473 10.6118 60.5654 10.3221C60.3929 10.0471 60.4382 9.6835 60.4306 9.3628C60.4084 8.45336 60.891 7.81379 61.8984 7.43346C61.5862 8.24554 61.2704 9.01837 61.6744 9.6555ZM70.9545 6.22797C71.1325 6.33081 71.2667 6.61438 71.1793 6.80059C71.1553 6.85171 71.068 6.93234 71.0147 6.95181C71.0668 6.76864 70.9919 6.47412 70.7963 6.37493C70.7671 6.27056 70.7433 6.10596 70.9545 6.22797ZM73.353 10.9769C73.3341 10.9149 73.353 10.5914 73.1498 10.3879C72.9824 10.2208 72.7204 10.2513 72.5501 10.0882C71.9926 9.55479 71.776 8.6563 70.7266 8.91219C70.7738 8.73389 70.7686 8.61005 70.8276 8.55437C71.3543 8.05812 70.8943 7.28498 71.3357 6.74917C71.3978 6.67432 71.2064 6.35971 71.092 6.18202C71.0242 6.07705 70.8766 6.02381 70.8002 5.97117C70.9874 5.46852 71.1027 4.99083 70.6143 4.62419C70.6159 4.62419 70.1512 4.44254 69.8954 4.37469C69.5363 4.27885 69.1682 4.218 68.755 4.1322C68.9594 3.56413 68.6646 3.32224 68.3059 3.11717C67.6745 2.75662 66.9668 2.85702 66.277 3.3764C66.0939 3.51423 65.8645 3.6904 65.663 3.68188C65.3058 3.66728 65.0752 3.82763 64.8184 4.01627C64.3711 4.34518 63.9099 4.60167 63.3132 4.34183C62.9371 4.17844 62.2586 4.45532 61.9714 4.82805C61.679 5.20777 61.749 5.59175 61.9465 5.98729C62.0922 6.27878 62.5389 6.5231 62.3292 6.85779C62.1783 7.09847 61.7782 7.20161 61.4721 7.32332C60.2191 7.82231 59.921 9.55631 60.5958 10.4983C60.5958 10.4977 60.5955 10.4971 60.5955 10.4965C60.6515 10.6383 60.8268 10.7749 60.891 10.8166C61.2114 11.0229 61.5022 11.151 61.7678 11.4065C62.0517 11.6801 62.1956 12.0933 62.4445 12.4115C62.555 12.5521 62.7801 12.5974 62.9399 12.7064C63.0841 12.8043 63.1483 13.3289 63.7961 13.5826C63.9102 13.6274 63.9926 13.7311 64.0151 13.8516C64.0766 14.1823 64.1362 14.504 64.1995 14.8438C63.4453 15.281 63.2511 15.6489 63.3698 16.4178C63.4921 17.2104 64.0982 17.5688 64.7615 17.9357C64.6215 19.1829 64.5202 20.4173 64.3352 21.6393C64.1469 22.8867 63.8785 24.1217 63.6397 25.361C63.5837 25.6501 63.5052 25.9339 63.9543 26.1217C64.0422 25.8792 64.1499 25.6686 64.1937 25.4459C64.3766 24.5167 64.5695 23.5881 64.7046 22.6515C64.9191 21.1625 65.0904 19.667 65.2797 18.174C65.3384 17.7112 65.2188 17.3896 64.7067 17.2442C64.2893 17.1255 64.0151 16.806 63.9324 16.3572C63.8533 15.9276 63.9759 15.5601 64.254 15.4749C64.6651 15.3492 64.7204 15.7155 64.864 15.9498C65.0356 16.2307 65.2127 16.4932 65.653 16.3253C65.7519 15.9544 65.8231 15.5482 65.9688 15.1712C66.1836 14.6168 66.4608 14.0871 66.6936 13.5394C66.9151 13.0179 66.912 12.4769 67.5492 12.3689C67.6578 12.3507 67.924 12.5831 68.1982 12.3905C68.4802 12.1922 68.5301 11.9113 68.8441 11.9125C69.0236 11.9131 69.2652 11.9691 69.4444 11.9089C69.6224 11.8486 69.7338 11.5937 69.9163 11.5681C70.2145 11.5264 70.3925 11.3834 70.7817 11.4783C71.008 11.5337 71.0032 11.8097 71.4684 11.8228C71.8907 11.8349 71.7809 12.0312 71.9075 12.3689C71.9659 12.5253 72.3112 12.6193 72.3681 12.776C72.5464 13.2665 72.742 13.8035 72.7366 14.2961C72.7138 16.3539 72.3362 18.3526 71.424 20.2217C71.0674 20.9519 70.67 21.1363 69.8896 20.9401C69.6456 20.8789 69.2643 20.7252 69.0431 20.606C68.6342 20.3848 68.2286 20.1572 67.8288 19.9205C67.6411 19.8088 67.4488 19.5943 67.2659 19.8341C67.1497 19.9865 67.2102 20.11 67.3122 20.2107C67.5686 20.4633 68.0594 20.7834 68.3822 20.9419C69.1986 21.3429 70.0381 21.6937 70.9825 21.4765C71.162 22.0305 71.3315 22.511 71.4733 22.9999C71.7097 23.816 71.9254 24.6381 72.1557 25.4562C72.237 25.7438 72.2364 26.0855 72.5686 26.2266C72.9228 26.0526 72.781 25.8022 72.7195 25.5798C72.3638 24.2924 72.0106 23.0042 71.6348 21.7226C71.5396 21.398 71.546 21.143 71.7267 20.8342C72.2187 19.9926 72.5908 19.092 72.7862 18.1317C72.9651 17.2512 73.1133 16.3642 73.2818 15.4819C73.3171 15.2963 73.3332 15.076 73.4431 14.9412C73.9555 14.3147 74.0209 13.5951 74.0227 12.8232C74.0245 12.0285 73.5681 11.6804 73.353 10.9769Z" fill="black"/>
<path fill-rule="evenodd" clip-rule="evenodd" d="M70.8273 14.3022L71.2922 16.1415L70.614 16.2094L70.8273 14.3022Z" fill="black"/>
<path fill-rule="evenodd" clip-rule="evenodd" d="M70.8284 14.3205L70.6178 16.2057L71.2881 16.1391L70.8284 14.3205ZM70.6139 16.2127C70.6133 16.2127 70.6124 16.2124 70.6118 16.2118C70.6111 16.2112 70.6108 16.21 70.6108 16.2091L70.8238 14.3019C70.8241 14.3007 70.8253 14.2995 70.8269 14.2992C70.8284 14.2992 70.8299 14.3001 70.8302 14.3016L71.2951 16.1409C71.2954 16.1418 71.2951 16.1427 71.2948 16.1433C71.2942 16.1443 71.2933 16.1449 71.2924 16.1449L70.6145 16.2127H70.6139Z" fill="black"/>
<path fill-rule="evenodd" clip-rule="evenodd" d="M70.0924 13.0331C70.0924 13.0331 70.1898 13.5887 70.0802 13.7213C69.5968 13.6489 68.5273 13.7819 67.8549 14.3983C67.9985 13.5838 70.0924 13.0331 70.0924 13.0331Z" fill="black"/>
<path fill-rule="evenodd" clip-rule="evenodd" d="M70.0893 13.0375C70.0434 13.0496 69.5407 13.1866 69.0283 13.4132C68.714 13.5523 68.4578 13.6971 68.2665 13.8441C68.0319 14.0242 67.8949 14.208 67.859 14.3896C68.2354 14.0482 68.707 13.88 69.0372 13.7987C69.3256 13.7278 69.7504 13.6694 70.0787 13.7181C70.1797 13.5909 70.0972 13.0843 70.0893 13.0375ZM67.8542 14.4018C67.8539 14.4018 67.8533 14.4015 67.8527 14.4012C67.8517 14.4006 67.8508 14.3997 67.8511 14.3981C67.884 14.2113 68.0224 14.0233 68.2625 13.8389C68.4542 13.6916 68.711 13.5465 69.0256 13.4075C69.5611 13.1704 70.086 13.0314 70.0911 13.0305C70.092 13.0302 70.093 13.0302 70.0936 13.0308C70.0945 13.0311 70.0951 13.0317 70.0951 13.0326C70.099 13.0557 70.1915 13.5912 70.0826 13.7236C70.0817 13.7245 70.0805 13.7251 70.0796 13.7248C69.7519 13.6758 69.3271 13.7339 69.0387 13.8048C68.7073 13.8864 68.233 14.0561 67.8566 14.4009C67.856 14.4015 67.8551 14.4018 67.8542 14.4018Z" fill="black"/>
<path fill-rule="evenodd" clip-rule="evenodd" d="M71.3408 12.9464C71.3408 12.9464 71.255 13.5038 71.3673 13.6344C71.8933 13.6304 72.717 13.8549 73.2781 14.1747C73.1022 13.6146 71.3408 12.9464 71.3408 12.9464Z" fill="black"/>
<path fill-rule="evenodd" clip-rule="evenodd" d="M71.3813 13.6312C71.9211 13.6312 72.7286 13.8603 73.272 14.1682C73.1746 13.8819 72.6589 13.5676 72.2415 13.3537C71.807 13.1307 71.3868 12.9679 71.343 12.9512C71.3357 13.0014 71.2645 13.5074 71.3682 13.6315C71.3725 13.6312 71.377 13.6312 71.3813 13.6312ZM73.2775 14.1783C73.2769 14.1783 73.2766 14.1783 73.276 14.178C72.7335 13.8685 71.9226 13.6376 71.3813 13.6376H71.3667C71.3658 13.6376 71.3649 13.6376 71.3643 13.637C71.3171 13.5819 71.2982 13.4489 71.3083 13.2417C71.3156 13.0875 71.3369 12.9478 71.3372 12.9463C71.3372 12.9454 71.3378 12.9445 71.3387 12.9439C71.3396 12.9433 71.3405 12.9433 71.3414 12.9436C71.346 12.9454 71.7872 13.1136 72.2445 13.3479C72.6668 13.5643 73.1895 13.8834 73.2805 14.174C73.2811 14.1752 73.2805 14.1767 73.2796 14.1777C73.279 14.178 73.2784 14.1783 73.2775 14.1783Z" fill="black"/>
<path fill-rule="evenodd" clip-rule="evenodd" d="M69.6106 15.986C69.9443 16.4822 70.2154 16.7583 70.6675 16.8055C71.1196 16.8532 71.4362 16.5929 71.4362 16.5929C71.4362 16.5929 71.0744 17.559 70.6372 17.7383C69.7331 18.1103 69.7757 16.9943 69.6106 15.986Z" fill="black"/>
<path fill-rule="evenodd" clip-rule="evenodd" d="M68.3065 15.1956L68.2095 15.1107C68.225 15.0928 68.5974 14.6753 69.233 14.6431C70.018 14.6038 70.3637 14.9677 70.378 14.9833L70.283 15.0706C70.28 15.0675 69.9596 14.735 69.2394 14.7718C68.6604 14.8013 68.3099 15.1917 68.3065 15.1956Z" fill="black"/>
<path fill-rule="evenodd" clip-rule="evenodd" d="M73.0772 15.0673C73.0742 15.0633 72.7641 14.6809 72.245 14.6592C71.9061 14.6453 71.6679 14.7301 71.5276 14.8041C71.3758 14.8838 71.3024 14.9684 71.3018 14.9693L71.2032 14.8859C71.2166 14.8704 71.5367 14.5007 72.2502 14.5302C72.8301 14.5546 73.1645 14.9696 73.1785 14.9872L73.0772 15.0673Z" fill="black"/>
<mask id="path-18-inside-1" fill="white">
<path d="M82.8934 95.8705L85.8178 98.8934C93.0847 91.3814 104.87 91.3814 112.137 98.8934L115.061 95.8705C106.186 86.6959 91.7834 86.6959 82.8934 95.8705ZM94.5907 107.962L98.9772 112.497L103.364 107.962C100.951 105.453 97.0179 105.453 94.5907 107.962ZM88.7421 101.916L91.6664 104.939C95.702 100.768 102.252 100.768 106.288 104.939L109.212 101.916C103.568 96.0821 94.4007 96.0821 88.7421 101.916Z"/>
</mask>
<path d="M82.8934 95.8705L85.8178 98.8934C93.0847 91.3814 104.87 91.3814 112.137 98.8934L115.061 95.8705C106.186 86.6959 91.7834 86.6959 82.8934 95.8705ZM94.5907 107.962L98.9772 112.497L103.364 107.962C100.951 105.453 97.0179 105.453 94.5907 107.962ZM88.7421 101.916L91.6664 104.939C95.702 100.768 102.252 100.768 106.288 104.939L109.212 101.916C103.568 96.0821 94.4007 96.0821 88.7421 101.916Z" fill="black"/>
<path d="M82.8934 95.8705L59.9123 73.6024L38.3529 95.8521L59.894 118.12L82.8934 95.8705ZM85.8178 98.8934L62.8183 121.143L85.8178 144.918L108.817 121.143L85.8178 98.8934ZM112.137 98.8934L89.1373 121.143L112.137 144.918L135.136 121.143L112.137 98.8934ZM115.061 95.8705L138.06 118.12L159.584 95.8705L138.06 73.6213L115.061 95.8705ZM94.5907 107.962L71.5913 85.713L50.0679 107.962L71.5913 130.211L94.5907 107.962ZM98.9772 112.497L75.9778 134.746L98.9772 158.521L121.977 134.746L98.9772 112.497ZM103.364 107.962L126.363 130.211L147.822 108.029L126.43 85.7825L103.364 107.962ZM88.7421 101.916L65.7714 79.6374L44.1914 101.888L65.7427 124.166L88.7421 101.916ZM91.6664 104.939L68.667 127.188L91.6664 150.963L114.666 127.188L91.6664 104.939ZM106.288 104.939L83.2886 127.188L106.288 150.963L129.287 127.188L106.288 104.939ZM109.212 101.916L132.212 124.166L153.735 101.916L132.212 79.6671L109.212 101.916ZM59.894 118.12L62.8183 121.143L108.817 76.6442L105.893 73.6213L59.894 118.12ZM108.817 121.143C103.507 126.632 94.4473 126.632 89.1373 121.143L135.136 76.6442C115.292 56.1311 82.6623 56.1311 62.8183 76.6442L108.817 121.143ZM135.136 121.143L138.06 118.12L92.0616 73.6213L89.1373 76.6442L135.136 121.143ZM138.06 73.6213C116.598 51.4349 81.3652 51.4626 59.9123 73.6024L105.875 118.139C102.202 121.929 95.7736 121.957 92.0616 118.12L138.06 73.6213ZM71.5913 130.211L75.9778 134.746L121.977 90.2474L117.59 85.713L71.5913 130.211ZM121.977 134.746L126.363 130.211L80.3643 85.713L75.9778 90.2474L121.977 134.746ZM126.43 85.7825C111.389 70.1403 86.5574 70.2423 71.5913 85.713L117.59 130.211C107.478 140.664 90.5129 140.766 80.2972 130.142L126.43 85.7825ZM65.7427 124.166L68.667 127.188L114.666 82.6901L111.742 79.6671L65.7427 124.166ZM114.666 127.188C106.124 136.018 91.83 136.018 83.2886 127.188L129.287 82.6901C112.675 65.5173 85.2795 65.5173 68.667 82.6901L114.666 127.188ZM129.287 127.188L132.212 124.166L86.2129 79.6671L83.2886 82.6901L129.287 127.188ZM132.212 79.6671C113.975 60.815 83.9849 60.8585 65.7714 79.6374L111.713 124.195C104.816 131.306 93.1622 131.349 86.2129 124.166L132.212 79.6671Z" fill="black" fill-opacity="0.98" mask="url(#path-18-inside-1)"/>
</svg>

