<svg width="143" height="143" viewBox="0 0 143 143" fill="none" xmlns="http://www.w3.org/2000/svg">
<mask id="mask0" mask-type="alpha" maskUnits="userSpaceOnUse" x="0" y="0" width="143" height="143">
<circle cx="71.5" cy="71.5" r="71.5" fill="#C4C4C4"/>
</mask>
<g mask="url(#mask0)">
<path fill-rule="evenodd" clip-rule="evenodd" d="M46.9409 160.624L175.36 161.3C156.622 70.7417 139.446 25.4215 123.832 25.3394C100.411 25.2161 91.6889 53.3337 78.7846 64.1425C65.8803 74.9514 58.3855 79.7144 37.4214 71.7645C16.4572 63.8146 -27.2707 66.9088 -27.409 93.18C-27.5011 110.694 -21.4757 133.048 -9.33283 160.243L46.9409 160.624Z" fill="#FBF9FF"/>
</g>
<path fill-rule="evenodd" clip-rule="evenodd" d="M40.643 75.8579C41.1478 76.7623 40.6071 77.3647 40.4416 77.9762C40.2586 78.6489 40.1616 79.3897 39.5399 80.0881C39.3426 78.4558 39.9142 77.2387 40.643 75.8579ZM41.0674 78.7906C41.1667 78.797 41.266 78.803 41.3653 78.8089C41.5644 80.358 41.7635 81.9071 41.9626 83.4562C41.8789 83.4879 41.7962 83.5197 41.7129 83.5509C41.2467 82.9127 40.7648 82.2846 40.3262 81.6271C40.2236 81.4735 40.1965 81.199 40.2554 81.0202C40.5009 80.2688 40.7924 79.5322 41.0674 78.7906ZM132.301 113.992C132.883 115.869 132.685 116.284 130.927 116.869C130.545 116.997 130.156 117.116 129.761 117.179C127.848 117.487 125.933 117.785 124.015 118.062C123.343 118.159 122.662 118.187 121.914 118.253C121.835 117.442 121.77 116.771 121.705 116.115C125.292 115.396 128.754 114.702 132.301 113.992ZM41.9176 68.8311C42.0845 69.7084 42.2128 70.4267 42.3576 71.1417C43.7628 78.0962 44.744 85.1037 45.0001 92.2027C45.0121 92.5314 45.0116 92.8676 44.9509 93.1876C44.9252 93.3232 44.727 93.5219 44.6074 93.5214C44.4226 93.5205 44.1908 93.4161 44.0676 93.2772C43.9637 93.1595 43.9775 92.9315 43.9536 92.7503C43.7241 91.0035 43.4979 89.2571 43.2712 87.5099C42.9126 84.7451 42.5976 81.9738 42.182 79.2177C41.8316 76.8971 41.3308 74.5994 40.9639 72.2811C40.8007 71.2447 40.4981 70.1981 40.763 69.0647C41.1138 68.9934 41.4628 68.9231 41.9176 68.8311ZM61.4194 108.821C62.2447 109.508 63.0259 110.053 63.6807 110.722C66.8101 113.92 69.9046 117.153 73.0143 120.37C73.4944 120.866 73.9914 121.346 74.4866 121.839C74.0618 122.608 73.7045 123.31 72.9762 123.822C68.631 119.458 64.0812 115.364 60.1816 110.537C60.6069 109.948 60.9816 109.427 61.4194 108.821ZM47.0587 90.7373C47.4559 89.9984 47.5074 89.9519 46.9883 89.3813C45.9294 88.2161 45.3358 86.8983 45.3601 85.3092C45.3661 84.9074 45.2884 84.5046 45.265 84.1013C45.2498 83.8287 45.2622 83.5546 45.2622 83.0245C46.8444 84.6361 48.45 85.8606 49.6396 87.5011C50.1573 88.2157 50.3734 89.0668 50.2369 89.9105C50.0401 91.1345 49.7564 92.354 49.3885 93.537C49.051 94.6203 48.5563 95.6544 48.1245 96.7079C47.8537 97.3691 47.9236 97.8946 48.3898 98.5232C51.803 103.128 55.1623 107.772 58.5322 112.408C58.8307 112.82 59.0799 113.266 59.3222 113.649C59.0247 114.482 58.1648 114.875 58.0287 115.727C58.7327 115.859 58.7364 115.862 59.1557 115.368C59.8114 114.596 60.4607 113.82 61.1131 113.044C64.1952 116.179 67.1729 119.208 70.1557 122.242C70.0932 122.367 70.0656 122.481 69.9957 122.554C67.3656 125.276 64.7769 128.04 62.0751 130.689C61.0377 131.705 59.8142 132.585 58.5488 133.304C55.9702 134.77 53.439 134.412 51.219 132.474C49.5393 131.009 48.4008 129.177 47.7148 127.087C46.8453 124.437 45.9556 121.783 45.287 119.079C43.9485 113.663 42.7595 108.209 41.4987 102.774C41.0591 100.877 40.7437 98.9343 40.0972 97.1093C39.2047 94.5872 38.0308 92.1659 37.0188 89.6843C36.2573 87.8175 35.5005 85.9438 34.8522 84.0356C34.1744 82.0396 34.5547 80.1268 35.5902 78.3165C36.885 76.0529 38.1582 73.7768 39.4447 71.5081C39.5413 71.3375 39.6709 71.1849 39.9022 70.8584C40.0507 71.7339 40.1197 72.4195 40.2912 73.0793C40.4802 73.8062 40.3078 74.4302 40.014 75.0882C39.596 76.0244 39.218 76.9844 38.9026 77.9597C38.4193 79.4531 38.6322 80.8454 39.6162 82.1163C40.38 83.104 41.1042 84.1243 41.8026 85.1593C42.0367 85.5047 42.2091 85.9277 42.2836 86.3388C42.467 87.3494 42.5769 88.3739 42.7172 89.3928C42.9121 90.8108 43.1167 92.2289 43.2984 93.6492C43.3669 94.184 43.634 94.4139 44.172 94.4176C44.6332 94.4203 45.0944 94.4911 45.6659 94.5417C45.7243 94.1863 45.8296 93.841 45.8282 93.4957C45.8245 92.3953 45.7744 91.2946 45.7574 90.1938C45.7542 89.9735 45.8172 89.7528 45.8696 89.3928C46.3142 89.8949 46.6444 90.2692 47.0587 90.7373ZM106.021 88.0685C106.12 89.0369 106.868 88.9091 107.347 89.1068C107.882 89.3289 108.459 89.4544 109.167 89.6664C108.713 90.5819 108.283 91.4178 107.88 92.2657C106.459 95.2489 103.999 96.9994 100.97 98.0381C97.9198 99.0846 95.2391 98.2662 93.1677 95.9455C91.9138 94.5408 91.0535 92.7825 90.0359 91.1699C89.886 90.9327 89.8465 90.626 89.7398 90.3032C90.8958 89.6829 92.1998 89.8379 93.3704 89.4296C93.4022 88.8539 93.0615 88.7601 92.666 88.8111C91.9745 88.9003 91.2834 89.0098 90.6001 89.1519C86.7538 89.9538 82.9029 90.7386 79.0672 91.5911C77.0096 92.0482 75.0835 92.8777 73.3219 94.0493C72.9651 94.287 72.6014 94.5757 72.3642 94.9247C70.839 97.1732 69.3501 99.4469 67.8456 101.71C66.4621 103.791 65.0776 105.87 63.6858 107.945C63.4641 108.275 63.2039 108.58 62.9229 108.947C62.6572 108.758 62.4567 108.618 62.259 108.475C61.4217 107.868 61.1058 107.911 60.4124 108.73C60.3411 108.814 60.2648 108.894 60.2004 108.984C59.2367 110.336 59.1075 110.729 60.2653 111.935C60.3402 112.013 60.3885 112.117 60.5016 112.288C60.3673 112.483 60.2151 112.704 60.0537 112.938C59.8997 112.83 59.7889 112.787 59.73 112.706C56.2088 107.86 52.6977 103.006 49.1655 98.1678C48.8179 97.6919 48.7577 97.2854 48.9986 96.7515C49.4069 95.8489 49.8129 94.9367 50.1123 93.9941C50.4884 92.8096 50.8452 91.6058 51.0493 90.3832C51.3183 88.7702 50.8318 87.3122 49.6768 86.1374C48.4919 84.9322 47.307 83.7188 46.0305 82.6148C45.2879 81.9724 44.9187 81.3163 44.778 80.3171C44.3384 77.1895 43.7384 74.0858 43.2009 70.972C43.0763 70.2487 42.9558 69.5241 42.8266 68.8012C42.6951 68.0637 42.5305 67.9906 41.8008 67.9773C40.4011 67.9538 39.7551 68.8472 39.1927 69.9314C38.0437 72.1454 36.8638 74.3438 35.6904 76.5449C35.3791 77.1284 35.0439 77.699 34.7202 78.2756C33.6576 80.1649 33.3688 82.172 34.0374 84.2315C34.6255 86.0436 35.3373 87.8184 36.049 89.5877C37.022 92.0059 38.2005 94.3532 39.0074 96.8233C39.8843 99.5044 40.4646 102.285 41.1239 105.034C42.3994 110.354 43.5853 115.697 44.9192 121.002C45.5091 123.347 46.3234 125.641 47.1203 127.929C47.7567 129.757 48.8206 131.34 50.2235 132.691C53.027 135.391 56.5707 135.763 59.771 133.561C61.0966 132.649 62.3652 131.616 63.5101 130.486C65.7333 128.292 67.8534 125.995 70.0072 123.732C70.2578 123.469 70.4509 123.151 70.7323 122.777C71.3374 123.354 71.7724 123.79 72.2299 124.202C73.0695 124.954 73.4447 124.918 74.1022 124.034C74.3868 123.65 74.6526 123.253 74.9276 122.863C75.2117 122.458 75.3883 122.055 75.2007 121.526C75.1156 121.288 75.1501 120.935 75.2683 120.706C76.0771 119.139 76.9199 117.59 77.7609 116.039C77.8032 115.96 77.9232 115.924 78.0506 115.838C78.0506 116.39 78.051 116.887 78.0506 117.384C78.0478 121.722 78.0064 126.061 78.0579 130.399C78.0832 132.491 78.275 134.582 78.4189 136.672C78.4336 136.88 78.6166 137.225 78.7624 137.248C79.156 137.31 79.219 136.964 79.2038 136.655C79.1385 135.334 79.024 134.014 78.9941 132.692C78.9169 129.275 78.8024 125.856 78.8392 122.439C78.8773 118.876 79.0769 115.315 79.2024 111.752C79.2217 111.201 79.2419 110.65 79.2277 110.099C79.2185 109.748 79.1026 109.441 78.5348 109.505C78.4943 109.752 78.4023 110.023 78.4143 110.289C78.5086 112.372 77.9637 114.257 76.8624 116.035C75.9966 117.433 75.2849 118.927 74.5055 120.378C73.3344 119.749 65.5526 111.813 63.7533 109.426C63.8412 109.262 63.9285 109.066 64.0444 108.889C66.2423 105.541 68.4448 102.196 70.6426 98.8483C71.0054 98.2956 71.3714 97.7429 71.7025 97.1709C72.9067 95.087 74.7372 93.7748 76.9838 93.097C79.2305 92.4197 81.5226 91.8918 83.8046 91.3382C85.0884 91.0269 86.391 90.7911 87.6872 90.5322C88.0394 90.4618 88.3986 90.431 88.7793 90.3791C89.4782 92.3052 90.544 93.9338 91.6944 95.5036C93.5585 98.0473 96.0617 99.4033 99.2551 99.2451C100.977 99.16 102.499 98.3958 103.995 97.5843C106.697 96.1189 108.249 93.7122 109.476 91.0246C109.628 90.6922 109.784 90.3611 109.954 89.9928C110.187 89.9928 110.41 89.9487 110.61 89.9993C113.849 90.8168 117.085 91.6399 120.219 92.8276C122.204 93.5798 123.741 94.8006 124.681 96.7037C125.51 98.3816 126.411 100.043 127.037 101.798C128.294 105.325 129.387 108.911 130.543 112.473C130.621 112.714 130.66 112.968 130.744 113.333C127.802 114.363 124.733 114.601 121.602 115.243C121.457 114.188 121.335 113.255 121.197 112.324C121.127 111.853 121.05 111.379 120.926 110.92C120.889 110.788 120.609 110.588 120.557 110.618C120.397 110.712 120.272 110.89 120.176 111.06C120.131 111.138 120.182 111.274 120.195 111.383C120.379 112.911 120.578 114.436 120.745 115.966C120.992 118.228 121.279 120.49 121.438 122.76C121.65 125.801 121.757 128.851 121.908 131.896C121.92 132.117 121.88 132.356 121.957 132.551C122.023 132.723 122.219 132.845 122.359 132.989C122.49 132.844 122.693 132.716 122.737 132.548C122.8 132.308 122.756 132.037 122.741 131.781C122.527 128.038 122.307 124.297 122.096 120.554C122.072 120.121 122.093 119.685 122.093 119.234C125.221 118.758 128.322 118.286 131.496 117.803C132.833 123.391 133.541 129.128 134.061 134.939C134.829 134.843 134.849 134.415 134.81 133.967C134.732 133.088 134.643 132.211 134.554 131.333C134.083 126.651 133.311 122.018 132.26 117.371C132.438 117.213 132.621 117.047 132.806 116.885C133.313 116.44 133.559 115.904 133.416 115.219C133.363 114.968 133.34 114.71 133.297 114.456C133.063 113.084 133.062 113.084 131.627 113.065C131.516 112.719 131.384 112.346 131.275 111.967C130.044 107.695 128.747 103.444 126.945 99.3711C126.368 98.0648 125.67 96.8063 124.952 95.5689C124.054 94.018 122.702 92.9168 121.033 92.3259C118.51 91.4339 115.952 90.6306 113.384 89.8719C111.238 89.2378 109.058 88.7178 106.889 88.1591C106.634 88.0929 106.358 88.1012 106.021 88.0685Z" fill="black"/>
<path fill-rule="evenodd" clip-rule="evenodd" d="M131.497 117.803C131.497 117.803 127.471 95.075 123.198 93.5213C118.927 91.9676 109.394 88.5669 109.394 88.5669C109.394 88.5669 108.051 102.531 96.8897 99.0611C91.7946 97.477 88.7805 90.379 88.7805 90.379C88.7805 90.379 76.2531 92.449 73.3232 94.0496C72.6854 94.3982 67.6027 104.024 64.1555 109.931C62.9242 108.947 61.6054 109.214 61.4445 109.475C60.7534 110.596 60.5442 109.554 60.1828 110.537C64.7243 113.992 69.6792 122.884 72.9769 123.822C73.6142 121.989 79.2285 110.099 79.2285 110.099C79.2285 110.099 79.251 136.914 79.8285 137.256C90.331 143.476 103.151 143.158 106.929 142.1C115.56 139.683 122.982 135.655 122.982 135.655C122.982 135.655 120.606 119.46 122.094 119.234C125.234 118.756 131.497 117.803 131.497 117.803Z" fill="#779BE7"/>
<path fill-rule="evenodd" clip-rule="evenodd" d="M40.6442 75.8593C41.1491 76.7638 40.6079 77.3657 40.4423 77.9772C40.2598 78.6499 40.1623 79.3907 39.5407 80.0891C39.3434 78.4572 39.9154 77.2397 40.6442 75.8593ZM41.0681 78.7915C41.1679 78.798 41.2668 78.8039 41.3661 78.8099C41.5657 80.359 41.7647 81.9081 41.9634 83.4572C41.8802 83.4889 41.7974 83.5206 41.7137 83.5519C41.2475 82.9137 40.766 82.2856 40.3274 81.6285C40.2244 81.4745 40.1977 81.2005 40.2561 81.0211C40.5021 80.2698 40.7936 79.5332 41.0681 78.7915ZM132.302 113.993C132.884 115.87 132.686 116.285 130.928 116.87C130.547 116.998 130.157 117.117 129.762 117.18C127.848 117.488 125.933 117.786 124.016 118.063C123.344 118.16 122.663 118.188 121.915 118.254C121.836 117.443 121.77 116.773 121.706 116.116C125.293 115.397 128.755 114.703 132.302 113.993ZM41.9188 68.8321C42.0852 69.7094 42.2135 70.4276 42.3584 71.1431C43.7635 78.0972 44.7452 85.1051 45.0013 92.2036C45.0128 92.5324 45.0128 92.8685 44.9517 93.1886C44.9264 93.3242 44.7277 93.5228 44.6082 93.5224C44.4233 93.5215 44.1916 93.4175 44.0684 93.2782C43.9649 93.1605 43.9783 92.9324 43.9543 92.7513C43.7254 91.0045 43.4991 89.2581 43.2725 87.5109C42.9133 84.746 42.5984 81.9748 42.1827 79.2187C41.8323 76.898 41.3316 74.6004 40.9651 72.282C40.8015 71.2456 40.4994 70.1991 40.7637 69.0657C41.1146 68.9944 41.464 68.9241 41.9188 68.8321ZM61.4201 108.822C62.2455 109.509 63.0267 110.054 63.6815 110.723C66.8109 113.921 69.9054 117.154 73.0155 120.371C73.4956 120.867 73.9922 121.347 74.4874 121.84C74.063 122.609 73.7057 123.311 72.9769 123.823C68.6322 119.459 64.082 115.365 60.1828 110.538C60.6081 109.949 60.9824 109.428 61.4201 108.822ZM47.0594 90.7382C47.4572 89.9998 47.5082 89.9529 46.9895 89.3823C45.9301 88.2171 45.3365 86.8993 45.3609 85.3107C45.3669 84.9083 45.2892 84.5056 45.2662 84.1023C45.2505 83.8301 45.263 83.5556 45.263 83.0259C46.8456 84.6371 48.4513 85.8615 49.6408 87.5021C50.1585 88.2167 50.3742 89.0678 50.2381 89.912C50.0408 91.1355 49.7571 92.3549 49.3893 93.538C49.0522 94.6213 48.557 95.6559 48.1257 96.7088C47.8549 97.37 47.9243 97.8956 48.3906 98.5242C51.8042 103.129 55.1635 107.773 58.533 112.409C58.8319 112.82 59.0806 113.267 59.3229 113.65C59.0259 114.484 58.1656 114.876 58.03 115.728C58.7335 115.86 58.7376 115.863 59.157 115.369C59.8122 114.597 60.4614 113.821 61.1139 113.045C64.196 116.18 67.1737 119.21 70.1565 122.243C70.0939 122.368 70.0663 122.482 69.9965 122.556C67.3664 125.277 64.7776 128.041 62.0758 130.69C61.0389 131.706 59.8149 132.586 58.5496 133.305C55.971 134.772 53.4402 134.413 51.2202 132.476C49.5401 131.01 48.4016 129.178 47.716 127.088C46.8461 124.438 45.9564 121.785 45.2883 119.08C43.9493 113.664 42.7607 108.21 41.4994 102.775C41.0599 100.879 40.7444 98.9352 40.0984 97.1103C39.2055 94.5882 38.0316 92.1669 37.02 89.6853C36.2586 87.8185 35.5013 85.9452 34.8529 84.0366C34.1752 82.0405 34.5554 80.1277 35.5914 78.3175C36.8857 76.0538 38.1594 73.7778 39.4459 71.5091C39.5425 71.3385 39.6717 71.1859 39.9035 70.8594C40.0515 71.7349 40.1209 72.4209 40.292 73.0803C40.4814 73.8072 40.3085 74.4312 40.0147 75.0892C39.5972 76.0253 39.2193 76.9854 38.9038 77.9607C38.4201 79.4541 38.633 80.8464 39.617 82.1178C40.3812 83.1054 41.1054 84.1253 41.8038 85.1603C42.0374 85.5061 42.2103 85.9291 42.2848 86.3397C42.4683 87.3504 42.5777 88.3748 42.7179 89.3938C42.9129 90.8127 43.1175 92.2303 43.2991 93.6502C43.3681 94.185 43.6348 94.4149 44.1728 94.4185C44.6344 94.4213 45.0951 94.4921 45.6671 94.5431C45.7251 94.1873 45.8304 93.8419 45.829 93.4971C45.8258 92.3963 45.7756 91.2955 45.7586 90.1952C45.755 89.975 45.8179 89.7538 45.8708 89.3942C46.315 89.8963 46.6456 90.2702 47.0594 90.7382ZM106.021 88.0695C106.12 89.0379 106.868 88.91 107.348 89.1078C107.884 89.3299 108.459 89.4554 109.168 89.6678C108.714 90.5828 108.284 91.4188 107.881 92.2671C106.461 95.2499 104 97.0008 100.971 98.0391C97.9205 99.0856 95.2399 98.2671 93.1689 95.9469C91.9145 94.5418 91.0542 92.7835 90.0367 91.1709C89.8872 90.9337 89.8477 90.6274 89.741 90.3042C90.897 89.6839 92.2005 89.8389 93.3712 89.4305C93.4034 88.8549 93.0627 88.7611 92.6668 88.8121C91.9752 88.9013 91.2841 89.0107 90.6013 89.1528C86.7546 89.9547 82.9042 90.7396 79.0684 91.5921C77.0108 92.0492 75.0847 92.8786 73.3232 94.0507C72.9659 94.2884 72.6022 94.5767 72.3654 94.9257C70.8402 97.1746 69.3513 99.4484 67.8464 101.711C66.4633 103.792 65.0784 105.871 63.6865 107.946C63.4653 108.276 63.2051 108.581 62.9242 108.948C62.6584 108.759 62.4579 108.619 62.2602 108.476C61.4224 107.869 61.1065 107.912 60.4131 108.73C60.3423 108.815 60.2655 108.896 60.2016 108.985C59.2374 110.337 59.1082 110.73 60.2665 111.937C60.3414 112.014 60.3892 112.118 60.5028 112.29C60.3681 112.484 60.2159 112.705 60.055 112.939C59.9009 112.831 59.7896 112.788 59.7313 112.707C56.21 107.861 52.699 103.007 49.1663 98.1692C48.8191 97.6933 48.7584 97.2864 48.9998 96.753C49.4077 95.8499 49.8137 94.9377 50.1135 93.9955C50.4896 92.8111 50.8459 91.6068 51.0501 90.3842C51.3191 88.7712 50.8326 87.3131 49.6776 86.1383C48.4926 84.9332 47.3082 83.7202 46.0318 82.6157C45.2892 81.9734 44.9199 81.3177 44.7792 80.3181C44.3397 77.1909 43.7396 74.0868 43.2016 70.973C43.077 70.2497 42.957 69.5255 42.8278 68.8022C42.6959 68.0651 42.5317 67.9916 41.802 67.9782C40.4019 67.9548 39.7559 68.8487 39.194 69.9324C38.0449 72.1469 36.8646 74.3447 35.6912 76.5458C35.3799 77.1293 35.0451 77.6999 34.721 78.2765C33.6583 80.1664 33.3696 82.1734 34.0381 84.2324C34.6262 86.0445 35.338 87.8194 36.0503 89.5887C37.0228 92.0068 38.2012 94.3542 39.0087 96.8242C39.8855 99.5054 40.4653 102.286 41.1247 105.035C42.4002 110.355 43.586 115.697 44.9204 121.003C45.5099 123.349 46.3247 125.643 47.121 127.931C47.7574 129.759 48.8219 131.341 50.2247 132.692C53.0282 135.392 56.5715 135.764 59.7722 133.562C61.0978 132.65 62.3659 131.617 63.5109 130.487C65.734 128.293 67.8547 125.996 70.0079 123.733C70.2585 123.47 70.4521 123.152 70.7335 122.778C71.3382 123.355 71.7731 123.791 72.2311 124.203C73.0707 124.956 73.4459 124.919 74.103 124.035C74.3881 123.652 74.6538 123.254 74.9283 122.864C75.2125 122.459 75.3895 122.056 75.2015 121.527C75.1164 121.289 75.1509 120.937 75.2695 120.707C76.0779 119.14 76.9211 117.591 77.7617 116.04C77.804 115.961 77.924 115.925 78.0513 115.839C78.0513 116.391 78.0518 116.888 78.0513 117.385C78.0486 121.723 78.0072 126.062 78.0592 130.4C78.084 132.492 78.2762 134.583 78.4201 136.673C78.4344 136.881 78.6178 137.226 78.7631 137.249C79.1572 137.311 79.2202 136.965 79.205 136.656C79.1393 135.334 79.0252 134.015 78.9949 132.693C78.9176 129.276 78.8031 125.856 78.8399 122.44C78.8785 118.877 79.0776 115.316 79.2032 111.753C79.2225 111.202 79.2432 110.651 79.2285 110.1C79.2197 109.749 79.1034 109.442 78.5355 109.507C78.4951 109.753 78.4031 110.024 78.4155 110.29C78.5093 112.373 77.9649 114.258 76.8637 116.036C75.9974 117.434 75.2861 118.929 74.5062 120.379C73.3356 119.75 65.5533 111.814 63.7541 109.427C63.8419 109.262 63.9293 109.067 64.0452 108.89C66.243 105.542 68.4455 102.197 70.6434 98.8492C71.0066 98.2966 71.3722 97.7439 71.7033 97.1719C72.9079 95.0885 74.7384 93.7757 76.9851 93.098C79.2312 92.4207 81.5238 91.8928 83.8054 91.3397C85.0896 91.0279 86.3923 90.7925 87.6885 90.5332C88.0402 90.4628 88.3998 90.432 88.7805 90.3801C89.4789 92.3062 90.5448 93.9357 91.6952 95.5051C93.5597 98.0483 96.0629 99.4042 99.2563 99.2461C100.979 99.161 102.5 98.3968 103.996 97.5852C106.698 96.1198 108.25 93.7132 109.477 91.0261C109.629 90.6932 109.784 90.3621 109.955 89.9938C110.189 89.9938 110.411 89.9501 110.611 90.0002C113.85 90.8178 117.086 91.6408 120.22 92.8285C122.205 93.5808 123.741 94.8016 124.682 96.7047C125.51 98.3825 126.412 100.044 127.038 101.799C128.295 105.326 129.388 108.912 130.544 112.474C130.622 112.715 130.661 112.969 130.745 113.334C127.803 114.364 124.734 114.602 121.603 115.244C121.458 114.189 121.336 113.256 121.198 112.325C121.128 111.854 121.051 111.38 120.927 110.921C120.89 110.789 120.61 110.589 120.558 110.62C120.398 110.713 120.273 110.891 120.177 111.061C120.132 111.14 120.183 111.275 120.196 111.385C120.38 112.912 120.579 114.437 120.746 115.967C120.994 118.23 121.28 120.491 121.439 122.761C121.651 125.803 121.757 128.852 121.91 131.897C121.921 132.118 121.881 132.358 121.957 132.552C122.025 132.724 122.22 132.846 122.359 132.99C122.491 132.845 122.694 132.717 122.738 132.549C122.801 132.309 122.757 132.038 122.742 131.782C122.528 128.039 122.308 124.298 122.097 120.555C122.073 120.122 122.094 119.686 122.094 119.235C125.222 118.759 128.323 118.287 131.497 117.804C132.834 123.392 133.542 129.129 134.062 134.94C134.831 134.844 134.85 134.416 134.811 133.968C134.734 133.089 134.644 132.212 134.555 131.334C134.084 126.653 133.312 122.019 132.262 117.372C132.439 117.213 132.622 117.048 132.807 116.886C133.314 116.441 133.559 115.905 133.417 115.22C133.364 114.969 133.341 114.711 133.298 114.457C133.064 113.085 133.063 113.085 131.628 113.066C131.517 112.72 131.385 112.347 131.275 111.968C130.045 107.696 128.747 103.445 126.946 99.372C126.369 98.0657 125.67 96.8077 124.953 95.5699C124.055 94.0194 122.703 92.9177 121.035 92.3273C118.511 91.4348 115.953 90.6316 113.386 89.8729C111.239 89.2388 109.058 88.7188 106.89 88.1601C106.634 88.0939 106.359 88.1026 106.021 88.0695Z" fill="black"/>
<path fill-rule="evenodd" clip-rule="evenodd" d="M94.4365 71.4148L94.4604 71.3058C94.4898 71.1789 94.6411 70.8152 94.8857 70.4009C94.4397 70.6584 94.1799 71.0855 94.0305 71.6281C93.9523 71.9109 93.8415 72.1849 93.7679 72.4682C93.6277 73.0062 93.3987 73.4494 93.1136 73.8329C93.1375 74.0297 93.1624 74.2269 93.1886 74.4242C93.67 73.8297 94.1261 72.8926 94.4365 71.4148ZM97.7149 68.9456C99.2934 69.8491 100.431 69.2031 100.991 68.7079C100.261 69.1171 99.5771 69.1148 98.7656 68.6403C98.029 68.209 97.411 68.2803 96.9139 68.7502C97.1843 68.7369 97.4524 68.7952 97.7149 68.9456ZM90.4031 75.5792C90.0715 75.6864 89.6522 75.5227 89.2733 75.4836C90.1778 74.553 90.1916 74.4909 89.6366 73.4982C89.529 73.306 89.409 73.1188 89.3207 72.9188C89.008 72.2116 89.0457 71.813 89.694 71.4083C90.3129 71.0212 90.3884 70.5103 90.3258 69.9025C90.2803 69.4656 90.1998 69.032 90.1286 68.5984C89.9226 67.3423 90.2826 66.2815 91.2068 65.4046C92.234 64.4294 93.4392 63.9576 94.866 63.8569C97.3862 63.6799 99.3495 64.8671 101.261 66.2502C101.472 67.1142 102.304 67.2255 102.922 67.5174C103.972 68.014 104.48 68.8711 104.669 69.9043C104.842 70.8515 104.718 71.7615 104.473 72.6912C104.486 72.808 104.499 72.9262 104.517 73.0475C104.729 73.0103 104.834 73.0048 104.93 72.9731C106.266 72.5312 107.284 73.2825 107.232 74.6891C107.194 75.7351 106.692 76.5425 105.765 76.9789C105.223 77.2341 105.098 77.5311 105.145 78.0801C105.444 81.56 106.009 84.9966 106.721 88.4134C106.803 88.8061 106.732 89.2314 106.732 89.6709C106.008 89.6461 106.037 89.1978 105.955 88.818C105.189 85.2619 104.602 81.6786 104.28 78.0535C104.179 76.921 104.191 76.8865 105.281 76.3223C106.119 75.8882 106.605 74.9553 106.306 74.2426C106.205 73.9998 105.956 73.7 105.733 73.6614C105.535 73.6274 105.259 73.894 105.059 74.0738C104.93 74.1892 104.33 74.821 104.1 74.9571C104.013 74.7824 103.889 74.6136 103.827 74.4348C103.619 74.1566 103.46 73.9869 103.379 73.7924C102.957 72.7767 102.546 71.7564 102.159 70.7269C101.902 70.0404 101.684 69.3341 101.436 68.5833C101.017 69.0495 99.6277 70.3057 97.6009 69.1447C97.2988 68.9723 96.9884 68.9341 96.6753 69.0173C96.6036 69.1116 96.5341 69.2141 96.4684 69.3268C96.2086 69.7719 95.8821 70.0841 95.3975 70.2009C95.3465 70.2133 95.3014 70.2308 95.2536 70.2455C94.9216 70.7462 94.7142 71.2308 94.6839 71.3587L94.6613 71.4621C94.3156 73.1078 93.7863 74.1143 93.2327 74.7268C93.5288 76.7922 94.0024 78.819 94.9441 80.7346C95.5681 82.0037 96.2224 82.2864 97.6124 81.8579C98.635 81.5425 99.6098 81.1254 100.436 80.4146C100.673 80.2113 100.969 79.8688 101.266 80.2619C101.538 80.6206 101.191 80.8817 100.934 81.0712C100.493 81.3963 100.041 81.7213 99.5542 81.9683C98.3347 82.5858 97.0638 83.0346 95.6729 82.778C95.5456 83.1495 95.4393 83.4217 95.3584 83.7017C94.8724 85.3952 94.4025 87.0933 93.9027 88.7826C93.7785 89.2024 93.8075 89.7546 92.9352 89.9726C93.0019 89.47 93.0088 89.1155 93.0998 88.7844C93.6047 86.9443 94.1408 85.1129 94.6407 83.2714C94.7501 82.8699 94.9837 82.4786 94.6912 82.0142C93.5348 80.1814 92.984 78.1293 92.5899 76.0239C92.5481 75.7972 92.5085 75.5705 92.4694 75.3438C92.3103 75.4312 92.1554 75.4969 92.0087 75.542C90.7415 75.9305 89.448 75.9351 89.3933 75.9351V75.7052C89.4067 75.7052 90.707 75.7006 91.9411 75.3217C92.0952 75.2748 92.2593 75.205 92.4271 75.1043C92.3996 74.9387 92.3752 74.7732 92.3494 74.6072C91.7921 75.0353 91.1282 75.3452 90.4031 75.5792Z" fill="black"/>
<path fill-rule="evenodd" clip-rule="evenodd" d="M96.3454 71.8206L95.6433 74.6001L96.6677 74.7031L96.3454 71.8206Z" fill="black"/>
<path fill-rule="evenodd" clip-rule="evenodd" d="M96.3439 71.848L96.6621 74.6969L95.6491 74.5962L96.3439 71.848ZM96.6681 74.7075C96.669 74.7075 96.6704 74.7071 96.6713 74.7061C96.6727 74.7052 96.6731 74.7038 96.6727 74.702L96.3508 71.8199C96.3508 71.8181 96.3485 71.8163 96.3462 71.8158C96.3439 71.8163 96.3416 71.8176 96.3412 71.8195L95.6386 74.599C95.6386 74.6004 95.6386 74.6018 95.6395 74.6031C95.6404 74.6041 95.6418 74.605 95.6432 74.605L96.6672 74.7075H96.6681Z" fill="black"/>
<path fill-rule="evenodd" clip-rule="evenodd" d="M98.0061 69.5844C98.0061 69.5844 97.8061 70.4129 97.9588 70.6235C98.6954 70.5601 100.296 70.8622 101.251 71.8553C101.112 70.6129 98.0061 69.5844 98.0061 69.5844Z" fill="black"/>
<path fill-rule="evenodd" clip-rule="evenodd" d="M98.0092 69.5907C98.0777 69.6142 98.823 69.8684 99.5739 70.2584C100.035 70.4979 100.408 70.7407 100.682 70.9798C101.019 71.2741 101.209 71.5637 101.245 71.8419C100.71 71.2911 100.014 70.9927 99.5243 70.8386C99.0957 70.7044 98.4603 70.5765 97.9614 70.6184C97.8207 70.4174 97.9931 69.6611 98.0092 69.5907ZM101.251 71.8608C101.252 71.8608 101.253 71.8603 101.254 71.8603C101.255 71.8594 101.256 71.8571 101.256 71.8553C101.224 71.5706 101.033 71.2736 100.688 70.9729C100.414 70.7324 100.04 70.4892 99.5785 70.2501C98.7932 69.8418 98.0152 69.5824 98.0073 69.5801C98.006 69.5797 98.0046 69.5797 98.0032 69.5806C98.0023 69.5811 98.0014 69.582 98.0009 69.5834C98.0005 69.5852 97.9508 69.793 97.9204 70.0243C97.8791 70.3356 97.8906 70.5384 97.9549 70.6267C97.9559 70.628 97.9577 70.6285 97.9595 70.6285C98.458 70.5853 99.093 70.7136 99.521 70.8478C100.013 71.0023 100.713 71.303 101.248 71.8589C101.249 71.8603 101.25 71.8608 101.251 71.8608Z" fill="black"/>
<path fill-rule="evenodd" clip-rule="evenodd" d="M95.4433 69.3616C95.4433 69.3616 95.6258 70.0715 95.4975 70.2545C94.8175 70.3166 93.7824 70.7125 93.0987 71.198C93.2541 70.4509 95.4433 69.3616 95.4433 69.3616Z" fill="black"/>
<path fill-rule="evenodd" clip-rule="evenodd" d="M95.4947 70.2498C94.7972 70.3147 93.7737 70.7161 93.1065 71.1869C93.2762 70.4692 95.3191 69.43 95.44 69.3689C95.457 69.4369 95.6115 70.077 95.4947 70.2498ZM93.0987 71.203C93.0996 71.203 93.101 71.2026 93.1019 71.2021C93.7682 70.7285 94.7981 70.3234 95.498 70.2595C95.4993 70.2595 95.5007 70.259 95.5016 70.2577C95.5554 70.1809 95.5623 70.0061 95.5233 69.739C95.4938 69.5404 95.4483 69.3624 95.4478 69.3606C95.4474 69.3592 95.4469 69.3583 95.4455 69.3574C95.4442 69.3569 95.4423 69.3569 95.4409 69.3578C95.4354 69.3601 94.8869 69.6342 94.3264 69.9956C93.8086 70.3299 93.1746 70.8094 93.0941 71.1975C93.0936 71.1989 93.0945 71.2007 93.0959 71.2021C93.0968 71.2026 93.0978 71.203 93.0987 71.203Z" fill="black"/>
<path fill-rule="evenodd" clip-rule="evenodd" d="M96.3813 76.5429C96.419 76.5429 96.4548 76.5208 96.4705 76.4845C96.4728 76.479 96.7054 75.9608 97.2172 75.7815C97.5579 75.6614 97.9478 75.7148 98.3782 75.9392C98.4256 75.964 98.4844 75.9456 98.5097 75.8978C98.5345 75.85 98.5161 75.7911 98.4683 75.7663C97.9874 75.5157 97.5441 75.4591 97.151 75.598C96.5583 75.8072 96.3026 76.382 96.2921 76.4063C96.2704 76.456 96.2934 76.5135 96.3426 76.5346C96.355 76.5401 96.3684 76.5429 96.3813 76.5429Z" fill="black"/>
<path fill-rule="evenodd" clip-rule="evenodd" d="M98.6421 73.3616C98.8972 73.3772 99.1511 73.3298 99.3879 73.2521C99.3005 73.2774 99.2072 73.2917 99.1097 73.2917C98.6255 73.2917 98.2314 72.9464 98.2314 72.5215C98.2314 72.3504 98.3643 72.1458 98.4903 72.0042C97.8696 72.0617 97.3247 72.3845 97.1233 72.5174C97.3036 72.7307 97.8636 73.3137 98.6421 73.3616ZM99.9645 72.31C99.9792 72.3831 99.9879 72.4631 99.9879 72.5215C99.9879 72.83 99.7801 73.0963 99.4807 73.219C99.9383 73.0498 100.316 72.7771 100.478 72.6502C100.384 72.5702 100.209 72.436 99.9645 72.31ZM96.9238 72.419C96.9559 72.3941 97.7349 71.812 98.6499 71.8005C99.9061 71.7853 100.665 72.5537 100.697 72.5863C100.715 72.6056 100.725 72.6314 100.724 72.6581C100.723 72.6847 100.711 72.7096 100.691 72.7275C100.651 72.7624 99.7382 73.5597 98.7423 73.5597C98.705 73.5597 98.6678 73.5588 98.6306 73.5565C97.5859 73.4917 96.9302 72.5914 96.9031 72.5532C96.8723 72.51 96.8815 72.4507 96.9238 72.419Z" fill="black"/>
<path fill-rule="evenodd" clip-rule="evenodd" d="M94.3566 73.1654C94.5796 73.1815 94.804 73.1268 95.0091 73.0408C94.9737 73.0477 94.9378 73.0523 94.9015 73.0523C94.5116 73.0523 94.1943 72.735 94.1943 72.3456C94.1943 72.175 94.2541 72.0145 94.3622 71.8885C94.3185 71.8858 94.2748 71.8839 94.2302 71.8839C93.7377 71.8839 93.2876 72.2311 93.1294 72.3676C93.2697 72.5621 93.7249 73.1199 94.3566 73.1654ZM95.8294 72.5028C95.7784 72.4591 95.7016 72.3975 95.6027 72.3304C95.5839 72.4945 95.5131 72.6592 95.4018 72.793C95.3714 72.8297 95.3397 72.8615 95.3057 72.8904C95.5429 72.7507 95.7315 72.5916 95.8294 72.5028ZM92.9322 72.283C92.957 72.2587 93.5396 71.689 94.2302 71.689C95.2983 71.689 96.0124 72.403 96.0418 72.4329C96.0791 72.4711 96.0791 72.5318 96.0423 72.5695C96.0336 72.5782 95.8312 72.7847 95.5232 72.9856C95.1388 73.2362 94.7741 73.3636 94.4371 73.3636C94.4049 73.3636 94.3737 73.3622 94.3428 73.3599C93.4793 73.2978 92.9404 72.4398 92.9179 72.4035C92.894 72.3649 92.9004 72.3148 92.9322 72.283Z" fill="black"/>
<path fill-rule="evenodd" clip-rule="evenodd" d="M80.7686 43.6945C86.6187 43.6945 91.3612 38.952 91.3612 33.1019C91.3612 27.2517 86.6187 22.5093 80.7686 22.5093C74.9185 22.5093 70.176 27.2517 70.176 33.1019C70.176 38.952 74.9185 43.6945 80.7686 43.6945ZM83.9462 31.5129V34.4205L83.6867 34.6801L78.65 29.6486V28.3351H79.7092V30.4536H81.8277V28.3351H82.887V30.4536C83.4113 30.4483 83.9462 30.9832 83.9462 31.5129ZM78.2262 30.5595L83.0141 35.358L85.3815 37.7201L84.7142 38.3981L82.3468 36.0253L82.0925 36.2795V37.8684H79.4444V36.2795L77.5907 34.4152V31.5129C77.5907 31.4578 77.6043 31.4027 77.6178 31.3476C77.6212 31.3339 77.6246 31.3201 77.6278 31.3063L75.8482 29.5268L76.5208 28.8647L78.221 30.5648L78.2262 30.5595Z" fill="#27302B"/>
<path fill-rule="evenodd" clip-rule="evenodd" d="M67.3225 61.279C67.1576 61.279 67.1145 61.3014 67.078 61.2742C66.9997 61.2162 66.923 61.1418 66.8493 61.056C64.9849 58.8828 63.3045 56.1118 61.8717 52.5636C61.5928 51.8735 61.3683 51.0945 61.275 50.084C61.1514 48.7453 60.9666 48.5598 60.3629 48.4401C59.6437 48.2969 58.918 48.1809 58.2114 47.8599C56.4574 47.0634 55.1964 44.7657 54.6033 40.7582C54.2601 38.4375 53.9892 36.0557 53.7197 33.68C53.4344 31.1665 53.6605 28.7968 54.1942 26.5673C54.518 25.2136 54.9953 24.1747 55.6091 23.6531C56.4602 22.9297 57.3268 22.2365 58.2111 21.8093C60.6454 20.6326 63.1239 20.2784 65.6008 20.0856C69.2768 19.7986 72.9542 19.6215 76.6316 19.4511C80.2666 19.2824 83.9023 19.161 87.5378 19.0528C91.0084 18.9507 94.4793 18.8987 97.9499 18.8123C99.561 18.773 101.172 18.7059 102.784 18.6479C103.548 18.6207 104.252 18.8975 104.811 20.3195C105.058 20.9499 105.404 21.3638 105.688 21.9235C105.875 22.2921 106.062 22.6995 106.197 23.1703C106.634 24.695 107.047 26.2573 107.47 27.8038C108.188 30.4322 108.68 33.295 109.04 36.2817C109.151 37.201 109.218 38.1806 109.22 39.1337C109.224 41.8212 108.478 44.0767 107.387 44.8297C105.932 45.8335 104.433 46.2838 102.928 46.4663C100.721 46.7346 98.5097 46.8585 96.2993 46.9589C90.8443 47.2072 85.3886 47.3535 79.9345 47.6442C75.3073 47.8914 70.6817 48.2818 66.0554 48.616C65.937 48.6245 65.8197 48.7097 65.6129 48.7967C66.0494 53.0586 66.5609 57.1797 67.3225 61.279ZM66.5852 50.4768C67.4406 50.388 68.2193 50.2919 68.9985 50.2284C72.2595 49.9625 75.52 49.6537 78.7818 49.4621C82.3537 49.2536 85.9267 49.1793 89.4991 49.0064C93.5667 48.8094 97.6344 48.5948 101.701 48.335C103.541 48.2171 105.362 47.6714 107.161 46.7219C108.757 45.8795 109.554 43.6409 109.86 39.6981C109.977 38.1945 109.803 36.7163 109.613 35.2851C109.152 31.8101 108.491 28.575 107.647 25.4928C106.889 22.7255 106.018 20.3401 104.861 18.4406C104.371 17.6374 103.905 17.2071 103.33 17.2131C101.265 17.2331 99.2 17.2222 97.1348 17.2536C93.8296 17.3056 90.5244 17.3503 87.2197 17.4567C82.6553 17.6035 78.091 17.7945 73.5267 17.9891C71.0068 18.0967 68.4863 18.1801 65.9683 18.4031C63.1828 18.6497 60.395 18.9507 57.6591 20.3624C57.0768 20.6628 56.5083 21.1155 55.9379 21.5319C54.2076 22.7962 53.3349 25.7176 53.0348 29.7559C52.9307 31.1568 52.9413 32.5492 53.0573 33.9308C53.3082 36.9187 53.6393 39.8559 54.1699 42.651C54.7651 45.7852 55.7795 47.8599 57.1464 49.0082C58.0269 49.748 58.9428 50.1148 59.8763 50.1565C60.2639 50.1728 60.5234 50.4103 60.711 51.283C61.1954 53.5354 61.9803 55.2155 62.8155 56.721C64.2052 59.2266 65.6163 61.6809 67.2985 63.0697C67.56 63.2855 67.8355 63.8802 68.1004 63.3254C68.394 62.7101 68.163 61.9613 68.0668 61.3062C67.6523 58.4772 67.2165 55.6658 66.8061 52.8332C66.7035 52.1255 66.6663 51.3646 66.5852 50.4768Z" fill="black"/>
</svg>

