<svg width="120" height="120" viewBox="0 0 120 120" fill="none" xmlns="http://www.w3.org/2000/svg">
<mask id="mask0" mask-type="alpha" maskUnits="userSpaceOnUse" x="0" y="0" width="120" height="120">
<circle cx="60" cy="60" r="60" fill="#C4C4C4"/>
</mask>
<g mask="url(#mask0)">
<path fill-rule="evenodd" clip-rule="evenodd" d="M126.586 109.871L131.181 14.8372C48.9225 -10.891 32.0322 2.70164 27.4704 16.1043C20.6276 36.2082 45.1263 39.2824 51.1677 53.644C57.209 68.0056 56.889 75.5945 43.6921 91.2222C30.4952 106.85 20.7181 145.389 44.3767 153.442C60.1491 158.81 82.0459 160.38 110.067 158.15L126.586 109.871Z" fill="#EAEAEA"/>
<path fill-rule="evenodd" clip-rule="evenodd" d="M-53.3999 120.169C-42.3244 109.089 -30.24 94.769 -17.1468 77.2098C2.4931 50.8711 81.0064 100.867 89.9245 107.042C95.8699 111.159 98.1105 115.549 96.6462 120.212L-53.3999 120.169Z" fill="#B28960"/>
<path fill-rule="evenodd" clip-rule="evenodd" d="M-0.0885508 79.8205C-0.350377 79.2708 -0.67696 78.8686 -1.2109 78.6649C-1.60852 78.5131 -2.02539 78.5248 -2.42971 78.6836C-2.8154 78.8347 -2.86706 79.1056 -2.569 79.3609C-2.44918 79.4637 -2.3063 79.5503 -2.15847 79.612C-1.52741 79.8757 -0.85911 79.9168 -0.0885508 79.8205ZM17.4892 81.7051C17.5245 81.7661 17.5567 81.8252 17.5918 81.8824C17.935 82.4418 18.2636 82.4961 18.7535 82.0177C19.0112 81.7659 19.2242 81.4592 19.41 81.1514C20.2187 79.812 20.7385 78.3713 21.0906 76.8767C21.3821 75.6392 21.5294 74.3932 21.4412 73.1367C21.4068 72.6469 21.3235 72.1682 21.1243 71.7209C20.8686 71.1462 20.3754 70.9327 19.7648 71.1718C19.5111 71.2712 19.2236 71.4192 19.0731 71.6265C18.7891 72.0182 18.5437 72.4524 18.3735 72.8988C18.1578 73.4644 18.0322 74.0594 17.8696 74.6423C17.4806 76.0356 17.0498 77.4227 16.9884 78.8671C16.9462 79.8565 17.0198 80.824 17.4892 81.7051ZM6.44397 55.8947C6.86137 56.4379 7.21978 56.9601 7.6349 57.4347C9.35464 59.4012 11.3437 61.0864 13.5362 62.5301C14.939 63.4541 16.4154 64.2785 17.8868 65.1026C19.1204 65.7934 20.3836 66.4382 21.6546 67.0659C22.3773 67.4227 23.1567 67.6554 23.9813 67.7444C24.3422 67.7836 24.6343 67.676 24.799 67.3599C25.0641 66.8513 25.1606 66.2854 24.9983 65.7695C24.8388 65.2632 24.547 64.7943 24.2667 64.3377C23.8141 63.6001 23.1869 63 22.5752 62.3921C21.6086 61.4313 20.5233 60.601 19.4658 59.7391C18.0318 58.5707 16.5802 57.4237 15.0568 56.3666C14.2229 55.7877 13.3534 55.2528 12.4748 54.7372C11.3813 54.0953 10.2354 53.549 8.96618 53.2726C8.28718 53.1247 7.59727 53.0484 6.89574 53.1837C6.15307 53.3272 5.78367 53.8333 5.9543 54.5345C6.07123 55.0139 6.28643 55.4666 6.44397 55.8947ZM16.798 76.7424C16.1386 76.6072 15.522 76.4604 14.896 76.3565C13.1673 76.0693 11.4209 75.9709 9.65478 76.2123C8.16264 76.4162 6.70097 76.7552 5.32747 77.4301C4.95574 77.6128 4.56903 77.7756 4.22427 78.0004C3.87187 78.23 3.56841 78.5319 3.23291 78.7886C2.51082 79.3415 1.73454 79.7963 0.859175 80.0641C0.807288 80.0799 0.760156 80.1127 0.691347 80.1476C0.6981 80.2144 0.694405 80.2822 0.713023 80.3423C1.12044 81.6658 0.936963 82.9713 0.412929 84.2633C-0.0276391 85.3495 -0.64665 86.3464 -1.35986 87.2859C-3.17984 89.6832 -5.29104 91.8222 -7.59017 93.7838C-9.34767 95.2832 -11.1249 96.7612 -12.9146 98.2237C-14.2238 99.2935 -15.5661 100.324 -16.898 101.367C-17.1305 101.55 -17.3803 101.712 -17.6302 101.871C-17.7344 101.937 -17.8564 101.991 -17.976 102.013C-18.0394 102.025 -18.1438 101.976 -18.1769 101.922C-18.2099 101.869 -18.2031 101.759 -18.166 101.702C-18.107 101.612 -18.0138 101.539 -17.9258 101.471C-16.4009 100.286 -14.856 99.1245 -13.3533 97.9131C-11.5654 96.472 -9.79926 95.0038 -8.04933 93.5185C-5.76601 91.5803 -3.67534 89.4584 -1.85716 87.0962C-1.09554 86.107 -0.432624 85.0532 0.00312977 83.8881C0.430319 82.7456 0.576027 81.5969 0.20863 80.4416C0.192749 80.3912 0.16931 80.3435 0.133639 80.2563C0.00235322 80.2675 -0.132541 80.2784 -0.267473 80.2903C-0.886981 80.3454 -1.49482 80.3052 -2.08442 80.1383C-2.43207 80.0398 -2.75457 79.893 -3.0071 79.6353C-3.43224 79.2017 -3.32683 78.6477 -2.7642 78.3458C-1.89861 77.8813 -0.689956 78.1358 -0.0648401 78.9219C0.126655 79.1627 0.297498 79.4192 0.49224 79.6881C0.850659 79.6279 1.18627 79.489 1.51284 79.3239C2.54373 78.8026 3.44141 78.1022 4.26695 77.307C5.68998 75.9362 6.94472 74.4265 8.12303 72.8577C9.61385 70.8729 10.9851 68.8157 12.1441 66.6346C12.6746 65.6363 13.1104 64.6027 13.4497 63.5344C13.5742 63.1424 13.5694 63.144 13.2261 62.9067C11.1461 61.4707 9.20798 59.8774 7.52638 58.0066C6.83264 57.2348 6.17852 56.4282 5.7885 55.452C5.66971 55.1545 5.56847 54.8419 5.51957 54.5248C5.38598 53.658 5.82695 53.0322 6.70874 52.7935C7.27746 52.6396 7.84742 52.6701 8.41365 52.7386C9.52945 52.8737 10.5514 53.2624 11.5379 53.7429C13.0881 54.4979 14.4967 55.4646 15.915 56.4178C18.6891 58.2827 21.215 60.4374 23.6893 62.6521C24.0601 62.984 24.4079 63.3483 24.7153 63.7371C25.2169 64.3716 25.5347 65.0912 25.4674 65.9376C25.4362 66.3318 25.4158 66.7297 25.3374 67.1178C25.1863 67.8672 24.6425 68.2434 23.8693 68.1723C22.858 68.0792 21.9201 67.7556 21.0476 67.3038C19.282 66.3897 17.5414 65.4322 15.7964 64.4825C15.2589 64.1899 14.7414 63.8638 14.2137 63.5547C14.1451 63.5146 14.0703 63.4837 13.972 63.4357C13.8702 63.7409 13.7769 64.0271 13.6794 64.3121C13.1796 65.7711 12.459 67.1373 11.6597 68.466C10.1396 70.9929 8.44249 73.404 6.49366 75.6471C6.16388 76.0268 5.82012 76.3953 5.4948 76.806C7.34185 76.1038 9.23445 75.6998 11.1834 75.6377C13.1232 75.5758 15.0117 75.8429 16.8919 76.2984C16.9346 76.1816 16.9774 76.0829 17.0064 75.9809C17.2709 75.053 17.5356 74.1251 17.7947 73.1961C17.9523 72.6321 18.207 72.1049 18.5441 71.6234C18.7233 71.3677 18.9664 71.1253 19.2321 70.9582C20.1729 70.366 21.1486 70.668 21.5524 71.645C21.7703 72.1726 21.8653 72.7303 21.9001 73.302C22.0077 75.076 21.6711 76.8063 21.123 78.5132C20.7974 79.528 20.3832 80.5137 19.8143 81.4316C19.589 81.7952 19.3205 82.1472 19.0153 82.4505C18.4197 83.0428 17.8021 82.9954 17.321 82.3531C16.9526 81.8617 16.7298 81.3011 16.6099 80.6976C16.3763 79.5246 16.4789 78.3468 16.7151 77.1675C16.7392 77.0475 16.7618 76.9274 16.798 76.7424Z" fill="black"/>
<path fill-rule="evenodd" clip-rule="evenodd" d="M38.0081 60.1485L46.0894 55.3406L46.9657 56.412L54.6474 69.165L57.4178 64.0969L61.496 58.4559L63.8827 59.1209C68.3247 61.3947 71.2791 62.6064 72.7458 62.7562C74.2125 62.9059 75.9725 62.8433 78.0257 62.5685V64.9424L82.4318 76.9371C82.9069 79.6383 83.1445 81.1179 83.1445 81.3761C83.1445 81.7635 83.1493 83.9636 82.947 84.4113C82.7448 84.859 82.29 86.0574 81.0815 86.9398C80.2758 87.5281 77.6649 89.0431 73.2487 91.4849L66.445 95.027V95.565L65.6508 96.1408L61.8889 91.0927L59.7965 87.6032L61.1772 86.9398L61.496 87.1567L64.939 85.1539L72.2164 80.6267L69.5811 76.5562L66.6507 70.3578L62.1933 74.3009L57.4633 79.2083C56.4881 79.9408 55.8118 80.3603 55.4344 80.4669C54.8684 80.6267 54.5934 80.8793 53.8424 80.8793C53.0914 80.8793 52.0496 81.0071 50.9787 79.5523C50.2647 78.5824 47.9604 74.9812 44.0658 68.7487L39.1497 61.3531L38.5517 61.5565L38.0081 60.1485Z" fill="white"/>
<path fill-rule="evenodd" clip-rule="evenodd" d="M57.1991 89.6362C57.1991 89.6362 55.1408 92.5255 54.4367 92.7545C53.7326 92.9833 50.4254 94.016 50.4254 94.016L58.4398 107.178C58.4398 107.178 61.8185 106.107 61.6436 104.249C61.4684 102.392 59.5535 97.904 59.9799 97.7731C60.4064 97.6425 62.6458 96.7386 62.6458 96.7386L57.1991 89.6362Z" fill="#FFDA2D"/>
<path fill-rule="evenodd" clip-rule="evenodd" d="M44.3153 54.2992C44.3153 54.2992 42.4857 51.6377 42.3293 50.9535C42.1727 50.2696 41.4833 47.0623 41.4833 47.0623L26.379 52.8849C26.379 52.8849 27.1013 56.1637 29.1123 56.2319C31.1231 56.3002 36.1704 55.0762 36.2567 55.4894C36.3429 55.9027 37.0289 58.1 37.0289 58.1L44.3153 54.2992Z" fill="#FFDA2D"/>
<path fill-rule="evenodd" clip-rule="evenodd" d="M67.1907 39.6952C67.1907 39.6952 59.6951 41.6912 58.3514 41.0658C57.5865 42.2717 57.3242 47.0868 57.3242 47.0868L57.6703 47.3474C57.6703 47.3474 60.0368 47.3474 61.8755 47.6328C62.4468 47.5418 60.5399 58.0718 60.5399 58.0718C62.0227 58.0494 66.9602 62.3323 73.0655 62.6321C73.8802 62.6721 78.9197 61.9901 78.9197 61.9901C78.9197 61.9901 78.2545 52.4506 79.4789 46.5546C80.6064 44.9264 84.3272 43.0507 84.3272 43.0507L82.0096 38.1931C82.0096 38.1931 75.259 39.6984 73.6203 39.722C72.5144 39.7379 73.5271 41.8913 71.5808 41.9342C69.6344 41.9774 67.1907 39.6952 67.1907 39.6952Z" fill="#779BE7"/>
<path fill-rule="evenodd" clip-rule="evenodd" d="M46.5533 59.2853C46.2474 58.7756 46.2474 58.7756 46.3412 58.6912L46.5921 58.917L46.4667 58.8041L46.6244 58.7311C46.6319 58.744 46.7165 58.8852 46.8656 59.1338L46.5533 59.2853ZM47.0608 60.1304L46.807 59.708L47.1191 59.5562L47.373 59.9785L47.0608 60.1304ZM47.5693 60.9743L47.3152 60.5524L47.6271 60.4001L47.881 60.8221L47.5693 60.9743ZM48.078 61.8176L47.8236 61.396L48.1355 61.2439L48.3899 61.6651L48.078 61.8176ZM48.5874 62.6606L48.3326 62.2392L48.6442 62.0867L48.899 62.5081L48.5874 62.6606ZM49.0977 63.5028L48.8426 63.0817L49.1542 62.9289L49.4093 63.3499L49.0977 63.5028ZM49.6086 64.3446L49.3529 63.9237L49.6645 63.7709L49.9198 64.1915L49.6086 64.3446ZM50.1205 65.1858L49.8643 64.7651L50.1758 64.6119L50.4315 65.0324L50.1205 65.1858ZM50.6329 66.0269L50.3767 65.6068L50.6876 65.4527L50.9441 65.8731L50.6329 66.0269ZM51.1466 66.8671L50.8895 66.4473L51.2004 66.2932L51.4575 66.7132L51.1466 66.8671ZM51.6612 67.7069L51.4037 67.2873L51.7142 67.133L51.9717 67.5525L51.6612 67.7069ZM52.1773 68.5473L51.9186 68.1269L52.2291 67.9722L52.4878 68.3926L52.1773 68.5473ZM52.6949 69.3863L52.4362 68.9673L52.7464 68.8122L53.0051 69.2309L52.6949 69.3863ZM53.213 70.2234L52.9534 69.8044L53.2636 69.649L53.5228 70.0677L53.213 70.2234ZM53.7333 71.0608L53.4728 70.6422L53.7822 70.4864L54.0427 70.9046L53.7333 71.0608ZM54.2555 71.897L53.9941 71.479L54.3035 71.3225L54.5646 71.7401L54.2555 71.897Z" fill="black"/>
<path fill-rule="evenodd" clip-rule="evenodd" d="M60.7935 63.0261L60.4972 62.8528C60.596 62.7043 60.6875 62.5653 60.7698 62.4365L61.0692 62.6051C60.9859 62.7354 60.8934 62.876 60.7935 63.0261ZM60.2297 63.8571L59.9357 63.6803C60.0336 63.5372 60.1279 63.3993 60.2178 63.267L60.5126 63.4428C60.4223 63.5754 60.3277 63.7137 60.2297 63.8571ZM59.6619 64.6836L59.3682 64.5065L59.6519 64.0934L59.9456 64.2705L59.6619 64.6836ZM59.0986 65.5109L58.8037 65.3356C58.8987 65.195 58.9928 65.0565 59.0853 64.9206L59.3796 65.0968C59.2874 65.2323 59.1934 65.3704 59.0986 65.5109ZM58.5434 66.3422L58.2464 66.1701C58.3393 66.0291 58.432 65.8896 58.5238 65.752L58.8198 65.9259C58.7283 66.0629 58.6361 66.2016 58.5434 66.3422ZM57.9988 67.1795L57.6993 67.0111C57.79 66.8694 57.8806 66.7289 57.9714 66.5897L58.2694 66.76C58.1793 66.8987 58.0891 67.0386 57.9988 67.1795ZM57.4699 68.0235L57.167 67.8601C57.2546 67.7175 57.3428 67.5756 57.4311 67.4347L57.7323 67.6005C57.6443 67.7406 57.5569 67.8816 57.4699 68.0235ZM56.959 68.877L56.6524 68.7201C56.7366 68.5759 56.8216 68.4318 56.9073 68.2886L57.2118 68.4489C57.1268 68.5911 57.0425 68.7338 56.959 68.877ZM56.4703 69.7424L56.1593 69.5934C56.2393 69.447 56.3205 69.301 56.4029 69.155L56.7114 69.3082C56.6297 69.4528 56.5494 69.5975 56.4703 69.7424ZM56.0628 70.5177L55.7474 70.3773C55.8051 70.2634 55.8639 70.1493 55.9236 70.0349L56.237 70.1791C56.1778 70.2922 56.1197 70.4049 56.0628 70.5177Z" fill="black"/>
<path fill-rule="evenodd" clip-rule="evenodd" d="M93.5039 29.9672C93.5035 30.3485 93.4179 30.7138 93.2123 31.0448C92.8641 31.6047 92.5329 32.1773 92.1351 32.7072C91.0974 34.0896 90.0277 35.4518 88.9704 36.8219C87.6179 38.5752 86.2652 40.2634 84.9121 42.0162C84.8902 42.0445 84.7094 42.21 84.6875 42.2384C84.6873 42.2386 84.6871 42.2389 84.687 42.2392C84.6711 42.2508 84.6562 42.2615 84.6395 42.2738C84.0951 41.0821 82.8127 38.3924 82.6075 37.9973C84.5921 35.9715 85.5774 34.9604 87.6112 32.8946C88.337 32.1569 89.0903 31.4421 89.8192 30.7069C90.1125 30.4113 90.3828 30.0956 90.6475 29.7779C90.9185 29.4526 91.0327 29.0661 91.1149 28.6701C91.2271 28.1269 91.3243 27.5799 91.4682 27.0437C91.6424 26.3937 91.8399 25.7477 92.0643 25.1108C92.1882 24.7587 92.3862 24.428 92.5558 24.09C92.5756 24.0504 92.6286 24.0246 92.7195 23.947C92.5654 24.9599 92.3526 25.9038 92.2961 26.8553C92.2391 27.8166 92.3369 28.7856 92.3689 29.824C92.7126 29.6825 92.8447 29.5099 92.8864 29.2846C92.9874 28.7387 93.0785 28.1913 93.171 27.6441C93.2289 27.3007 93.28 26.9562 93.34 26.6131C93.3499 26.557 93.3907 26.5057 93.4774 26.4647C93.4871 26.5872 93.5056 26.7095 93.5058 26.8318C93.507 27.877 93.5046 28.922 93.5039 29.9672ZM84.1989 43.5103C83.7017 43.7688 83.4707 43.6819 83.3074 43.1687C83.2523 42.9954 83.2094 42.819 83.163 42.6438C82.8185 41.3457 82.2457 40.1277 81.6083 38.9325C81.5156 38.7585 81.4186 38.5863 81.3351 38.4088C81.1875 38.0953 81.2368 38.0011 81.5917 37.9002C81.6851 37.8736 81.7827 37.8597 81.8025 37.8557C82.1009 37.8377 82.219 37.9727 82.3071 38.1209C82.4819 38.4148 82.6578 38.7103 82.8005 39.0175C83.3122 40.1208 83.8131 41.2283 84.3105 42.337C84.3898 42.514 84.438 42.7041 84.4862 42.8913C84.5833 43.2676 84.5521 43.3264 84.1989 43.5103ZM82.783 43.6134C81.9242 44.3186 81.0899 45.0498 80.0751 45.6691C80.0382 45.5281 79.9969 45.424 79.9852 45.3173C79.9059 44.5794 79.6686 43.8786 79.3962 43.1858C79.3473 43.0616 79.3423 43.0632 79.1591 42.9562C79.0148 43.0353 79.0538 43.1506 79.0932 43.2613C79.1674 43.4697 79.2422 43.678 79.3247 43.8834C79.5562 44.46 79.5487 45.072 79.6547 45.6675C80.0566 47.9208 79.7582 50.145 79.2918 52.3539C78.9645 53.9045 78.8004 55.4646 78.7092 57.0377C78.6286 58.4232 78.7416 59.7951 78.947 61.1646C79.0056 61.5545 78.9761 61.6044 78.5714 61.7307C78.0119 61.9055 77.4567 62.0983 76.8857 62.2348C76.4395 62.3413 75.9741 62.4162 75.5141 62.4312C74.1273 62.4764 72.74 62.4243 71.4065 62.0404C70.6158 61.8129 69.8479 61.5108 69.0889 61.2029C68.2249 60.8529 67.3788 60.4661 66.5318 60.0822C66.0645 59.8705 65.5899 59.662 65.1563 59.4001C64.0123 58.7093 62.7572 58.3252 61.4064 58.1697C61.0097 58.124 60.9885 58.1038 60.7291 57.8581C60.7775 57.7386 60.8386 57.6095 60.8825 57.4756C61.0853 56.8589 61.3003 56.245 61.476 55.6218C61.5717 55.2823 61.5322 54.9312 61.4195 54.5895C61.3014 54.2313 61.1896 53.8779 61.3837 53.498C61.4455 53.377 61.3988 53.1903 61.3529 53.0465C61.2544 52.738 61.1273 52.4367 61.0061 52.1345C60.7616 51.5245 60.8539 51.1968 61.4472 50.8379C62.0613 50.4667 62.2255 50.47 62.1551 49.5253C62.1074 48.8863 62.3355 48.23 62.4441 47.582C62.4565 47.5084 62.4927 47.438 62.5204 47.359C62.314 47.1679 62.0585 47.1748 61.8076 47.1664C60.9615 47.1384 60.1153 47.1106 59.2694 47.0799C59.1746 47.0764 59.0805 47.054 58.9484 47.0349C59.272 45.0859 59.2477 43.1437 59.108 41.1924C59.2426 41.1492 59.3305 41.1155 59.4216 41.0922C60.3043 40.8681 61.1764 40.5941 62.073 40.4342C63.4983 40.18 64.94 40.0035 66.3744 39.7911C66.7223 39.7396 67.0733 39.6936 67.4134 39.6123C67.654 39.5547 67.8213 39.6097 67.9775 39.7682C68.2134 40.008 68.4521 40.2457 68.6972 40.4777C69.0205 40.7837 69.3493 41.0848 69.679 41.3853C70.0363 41.7107 70.4716 41.9207 70.9406 42.0756C71.7452 42.3414 72.4979 42.0845 72.8382 41.3593C73.0469 40.9147 73.1558 40.4269 73.2683 39.9505C73.3142 39.7572 73.376 39.6564 73.5937 39.6191C74.5221 39.4598 75.4458 39.2767 76.3756 39.1268C77.5699 38.9341 78.7681 38.7625 79.9656 38.5873C80.2854 38.5405 80.6085 38.5137 80.9608 38.4743C81.004 38.532 81.0673 38.5986 81.1098 38.6751C81.8862 40.0688 82.5494 41.5016 82.9463 43.0301C83.0079 43.2671 82.9931 43.4409 82.783 43.6134ZM75.8755 62.763C76.4079 62.6347 76.8919 62.518 77.4403 62.3857C77.4797 63.0241 77.5159 63.6118 77.557 64.2794C76.7725 63.9186 76.2892 63.3981 75.8755 62.763ZM78.3567 67.0456C78.9413 68.5797 79.5825 70.0959 80.1952 71.6211C80.9977 73.6195 81.731 75.6381 82.3128 77.701C82.5393 78.5046 82.631 79.3274 82.6689 80.152C82.7147 81.1438 82.7507 82.138 82.7258 83.1296C82.6839 84.8103 81.8069 86.1049 80.373 87.1051C79.1363 87.9679 77.8206 88.7246 76.4667 89.4212C73.1443 91.1307 69.8755 92.9219 66.6167 94.7292C66.5215 94.7818 66.4218 94.8275 66.3089 94.8842C64.7184 92.3294 63.1363 89.7886 61.5334 87.2142C65.1397 85.1566 68.474 82.7501 72.0212 80.5932C72.1155 80.6896 72.1921 80.7798 72.2836 80.8546C72.316 80.8813 72.4133 80.8918 72.4317 80.8719C72.47 80.8303 72.5022 80.757 72.4882 80.7084C72.4677 80.6373 72.4093 80.5731 72.3595 80.5111C70.3766 78.0347 68.9603 75.2839 67.6841 72.4646C67.3337 71.6907 66.9704 70.9215 66.5791 70.0769C66.6907 70.0034 66.8159 69.939 66.9177 69.8521C68.1419 68.809 69.4757 67.9027 70.9342 67.1508C71.0447 67.0938 71.1572 67.0378 71.2593 66.9695C71.3636 66.8995 71.5556 66.8458 71.4367 66.6823C71.3378 66.5463 71.2107 66.6526 71.1057 66.7109C70.5507 67.0186 69.9899 67.3187 69.4436 67.6391C68.0693 68.4451 66.8794 69.4572 65.6992 70.4772C63.5629 72.3237 61.586 74.3079 59.6658 76.3413C58.6419 77.4257 57.6144 78.51 56.4381 79.4625C55.5407 80.189 54.4843 80.5813 53.2817 80.6211C52.7506 80.6387 52.2936 80.4795 51.9025 80.134C51.4212 79.7088 51.0182 79.2309 50.6545 78.7217C49.3267 76.8621 48.0794 74.9582 46.9327 73.0008C45.1259 69.9163 43.158 66.92 41.0992 63.9715C40.4997 63.113 39.9723 62.2127 39.4133 61.3309C39.3787 61.276 39.357 61.2147 39.3095 61.1146C41.9554 59.7845 44.264 58.0044 46.8508 56.5048C46.9433 56.6439 47.0449 56.7767 47.1243 56.9197C47.6743 57.9086 48.2369 58.8921 48.7634 59.8913C49.7505 61.7646 50.8694 63.5721 51.9897 65.3791C52.9988 67.0065 54.0162 68.6297 55.0324 70.2534C55.0976 70.3576 55.1366 70.5088 55.3598 70.4532C55.4373 70.145 55.1744 69.9407 55.0575 69.6965C54.9395 69.4503 54.7845 69.2187 54.6611 69.007C56.1452 66.0018 58.0025 63.2315 59.9036 60.4456C61.6263 60.9783 63.0475 60.6252 64.1117 59.2031C64.2702 59.2823 64.4177 59.3509 64.5598 59.4278C66.3963 60.4246 68.3368 61.2319 70.2906 62.0081C71.6408 62.5443 73.0859 62.7423 74.5514 62.7122C75.1841 62.6991 75.6396 62.7929 75.9555 63.3584C76.1912 63.7806 76.6159 64.0953 77.0679 64.3476C77.2189 64.4319 77.3903 64.485 77.5662 64.5579C77.8201 65.367 78.0424 66.221 78.3567 67.0456ZM65.4835 96.0037C63.4494 93.26 61.5729 90.467 59.8809 87.5027C60.2494 87.3137 60.5887 87.1399 60.9149 86.9728C62.0168 88.3078 62.7429 89.7975 63.6445 91.1929C64.5395 92.5788 65.3865 93.9907 66.2756 95.4249C65.9985 95.6273 65.7626 95.7999 65.4835 96.0037ZM63.2428 94.9613C62.9961 95.0784 62.7371 95.1745 62.4643 95.2876C61.0814 93.7213 59.9079 92.0249 58.6788 90.3144C58.8297 90.2121 58.9683 90.1088 59.117 90.0194C59.4583 89.8138 59.8056 89.6171 60.1478 89.4131C60.4312 89.2439 60.563 89.2611 60.7303 89.5153C61.8053 91.1488 62.878 92.7835 63.9503 94.4184C63.9706 94.4497 63.9759 94.4893 64.0004 94.5611C63.7506 94.6942 63.5025 94.8378 63.2428 94.9613ZM62.1715 96.4809C61.2724 97.1535 60.2767 97.641 59.126 97.8432C58.9823 97.8683 58.8446 97.9218 58.712 97.9598C58.7377 98.177 58.8619 98.1803 58.9954 98.1514C59.2835 98.0892 59.5706 98.0228 59.857 97.9547C60.02 97.9159 60.181 97.8704 60.4005 97.8127C60.4503 98.2632 60.4969 98.6894 60.5472 99.1449C60.329 99.2193 60.1349 99.2884 59.9382 99.3513C59.859 99.3768 59.756 99.3684 59.6972 99.4126C59.6354 99.4589 59.6139 99.5498 59.5749 99.6211C59.6478 99.6406 59.7276 99.6878 59.792 99.674C59.9974 99.6306 60.1967 99.5642 60.3987 99.5075C60.4655 99.4888 60.5333 99.4731 60.6512 99.4435C60.7321 99.7321 60.8105 100.011 60.8993 100.328C60.6399 100.393 60.4268 100.448 60.2132 100.501C60.1314 100.521 60.0329 100.517 59.9707 100.559C59.9178 100.595 59.8879 100.681 59.8858 100.746C59.8853 100.77 59.9969 100.824 60.05 100.817C60.2308 100.794 60.4081 100.749 60.5871 100.713C60.6963 100.692 60.8057 100.673 60.9742 100.642C61.0513 100.909 61.1305 101.163 61.1977 101.42C61.3849 102.134 61.6151 102.84 61.6314 103.582C61.6351 103.749 61.6275 103.917 61.6362 104.084C61.6981 105.285 60.6595 106.153 59.7354 106.439C59.4029 106.542 59.0596 106.616 58.6835 106.712C58.5993 106.595 58.5103 106.483 58.4355 106.364C57.1463 104.32 55.8545 102.277 54.5723 100.229C53.5003 98.5175 52.4379 96.8012 51.3761 95.0842C51.1966 94.7938 51.0424 94.4902 50.8501 94.1448C51.0025 94.0897 51.1357 94.0324 51.2746 93.9932C52.6549 93.6034 53.9788 93.1006 55.2114 92.4033C56.1377 91.8792 57.0155 91.2984 57.8199 90.6263C57.943 90.5238 58.0735 90.4289 58.2582 90.2856C58.6662 90.8432 59.0462 91.3382 59.3994 91.8488C60.2896 93.1367 61.2639 94.3696 62.2845 95.5724C62.7067 96.0699 62.7048 96.082 62.1715 96.4809ZM58.0604 107.064C57.6947 107.081 57.536 106.991 57.4401 106.666C57.3813 106.467 57.2745 106.322 57.1043 106.193C56.7859 105.953 56.6387 105.639 56.7404 105.264C56.8101 105.007 56.7128 104.858 56.4745 104.726C55.8727 104.393 55.5722 103.888 55.551 103.25C55.5402 102.924 55.4671 102.676 55.1085 102.49C54.6422 102.248 54.487 101.797 54.4924 101.327C54.4956 101.042 54.4276 100.874 54.1028 100.786C53.6968 100.676 53.4703 100.414 53.5079 100.002C53.5254 99.8114 53.4212 99.7044 53.2346 99.6142C52.7161 99.3637 52.5435 99.0273 52.6234 98.4982C52.6699 98.1887 52.6748 98.1778 52.3747 98.0583C51.9682 97.8964 51.7688 97.6155 51.7342 97.2208C51.7242 97.1054 51.697 96.9911 51.6864 96.8756C51.6723 96.7192 51.5916 96.6034 51.4372 96.5421C50.9174 96.335 50.7597 95.9489 50.8122 95.4712C50.8357 95.2559 50.767 95.1417 50.5376 95.065C50.0949 94.9174 50.0515 94.7733 50.2994 94.406C50.3353 94.3531 50.3888 94.3102 50.4799 94.2148C50.5844 94.3586 50.6822 94.4738 50.7576 94.6005C51.371 95.6306 51.9583 96.6744 52.5948 97.6923C53.7846 99.5947 55.0049 101.481 56.2068 103.377C56.9281 104.515 57.6393 105.658 58.3539 106.799C58.3871 106.853 58.409 106.912 58.4524 107.002C58.3004 107.027 58.181 107.058 58.0604 107.064ZM38.4995 61.0344C38.3078 60.6941 38.1106 60.3443 37.9139 59.9952C40.6625 58.3941 43.3805 56.8109 46.1186 55.216C46.4604 55.4466 46.5134 55.8474 46.8116 56.1467C46.6624 56.2521 46.5766 56.3178 46.4855 56.376C44.9368 57.3659 43.3953 58.3647 41.8355 59.3396C41.0563 59.8264 40.2472 60.2741 39.4438 60.728C39.171 60.8821 38.8866 61.0322 38.4995 61.0344ZM38.4561 58.0223C40.4683 56.8611 42.5264 55.9131 44.5859 54.9905C44.7602 55.1508 44.9068 55.2854 45.0687 55.4341C44.9935 55.4885 44.9225 55.5486 44.8427 55.5957C43.1495 56.5942 41.4553 57.5912 39.7611 58.5879C39.6781 58.6367 39.5874 58.6754 39.5088 58.729C39.3702 58.8234 39.2397 58.8058 39.1304 58.7009C38.9109 58.4903 38.7019 58.2708 38.4561 58.0223ZM37.6995 57.6116C37.0153 56.6804 36.5313 55.6797 36.4338 54.5447C36.4206 54.3885 36.3676 54.2352 36.3263 54.0498C36.0812 54.1668 36.0895 54.3149 36.1162 54.4717C36.1806 54.851 36.2424 55.2305 36.3106 55.6412H34.8671C34.821 55.4927 34.7711 55.3488 34.7331 55.2024C34.704 55.0898 34.7094 54.9668 34.6632 54.8618C34.633 54.7937 34.5376 54.7495 34.4716 54.6946C34.4329 54.7658 34.3547 54.8408 34.3628 54.907C34.3941 55.1587 34.4534 55.4078 34.5085 55.6891C34.2456 55.7314 34.0136 55.7664 33.7826 55.8064C33.5774 55.8422 33.4953 55.7382 33.4706 55.5778C33.447 55.4251 33.439 55.2707 33.4203 55.1172C33.4023 54.9718 33.3583 54.845 33.1311 54.8335C33.0622 55.1697 33.1448 55.4801 33.1899 55.8064C33.1072 55.8405 33.0347 55.8921 32.9573 55.8989C31.9918 55.9833 31.0271 56.0922 30.0593 56.1277C29.5311 56.1469 28.9855 56.0849 28.4963 55.8537C27.6959 55.4756 27.2267 54.8577 27.0159 54.0728C26.9326 53.7627 26.9001 53.4411 26.8455 53.1311C27.2922 52.8108 40.7529 47.5465 41.3854 47.4464C41.6185 48.2739 41.8357 49.1079 42.0908 49.9318C42.3527 50.7764 42.7507 51.5763 43.2129 52.3417C43.6669 53.0932 44.1878 53.8113 44.7018 54.5774C44.2595 54.7921 43.8279 55.0012 43.3969 55.2111C42.0066 55.8887 40.6149 56.5637 39.2272 57.2461C38.9187 57.3978 38.63 57.5828 38.3237 57.7385C37.982 57.9123 37.9089 57.8966 37.6995 57.6116ZM26.5928 52.833C26.4182 52.2533 26.5467 52.0674 27.1243 51.9399C27.2917 51.9029 27.4646 51.8147 27.5903 51.7065C27.9143 51.4275 28.2759 51.3585 28.6785 51.5008C28.9036 51.5803 29.0549 51.5289 29.1914 51.3659C29.6569 50.8097 30.2763 50.5749 31.0355 50.6355C31.3406 50.6597 31.585 50.6223 31.7981 50.3556C32.1345 49.9344 32.6591 49.8479 33.2012 49.8889C33.578 49.9174 33.6354 49.9215 33.7715 49.6467C33.968 49.2492 34.2871 49.0854 34.7511 49.1509C34.9459 49.1784 35.0605 49.1038 35.1687 48.9591C35.5195 48.4903 35.812 48.397 36.4335 48.5266C36.766 48.5957 36.7921 48.5841 36.972 48.3223C37.1816 48.0172 37.4758 47.8445 37.8805 47.8508C37.9933 47.8526 38.1068 47.8455 38.2188 47.8547C38.4504 47.8734 38.6194 47.8105 38.7489 47.6171C39.0093 47.2286 39.4154 47.1369 39.8833 47.2003C40.0066 47.2171 40.1312 47.2265 40.2681 47.2407C40.6781 46.5745 40.873 46.5408 41.3358 47.0667C41.1172 47.1643 40.9136 47.267 40.7005 47.3483C38.8972 48.0362 37.0866 48.7083 35.2895 49.4087C33.493 50.1085 31.7104 50.8381 29.9196 51.5502C28.9799 51.9237 28.0363 52.2886 27.0936 52.6555C26.9299 52.7191 26.762 52.7733 26.5928 52.833ZM61.2791 58.6013C61.3273 58.5406 61.4479 58.4813 61.5226 58.4924C62.2575 58.601 62.997 58.7006 63.674 59.0105C63.6951 59.0204 63.705 59.0504 63.72 59.0706C63.1771 60.2215 61.1453 60.8259 60.1159 60.1058C60.5012 59.6044 60.8841 59.0988 61.2791 58.6013ZM58.6304 46.9347C58.6198 46.9967 58.5968 47.057 58.5677 47.1606C58.303 47.1787 58.0717 47.1947 57.8452 47.21C57.7689 46.7871 58.3742 41.3385 58.5297 40.9731C58.8198 40.9767 58.7972 41.1813 58.8082 41.3511C58.8333 41.7492 58.8504 42.1477 58.8666 42.5461C58.9261 44.0152 58.8804 45.4797 58.6304 46.9347ZM57.5547 46.4229C57.135 46.3807 56.7727 46.3562 56.4146 46.3052C55.997 46.2455 55.5842 46.1576 55.1677 46.0908C53.9198 45.8905 52.8618 45.3565 51.927 44.5884C50.7827 43.6481 49.6405 42.7046 48.4719 41.7893C47.057 40.6811 45.6191 39.5973 44.1832 38.5115C43.8818 38.2836 43.6363 37.9906 43.2572 37.8479C43.0838 37.7827 42.9292 37.7372 42.7316 37.7748C42.276 37.861 41.8152 37.9271 41.3535 37.9825C40.2031 38.1205 39.1451 38.4998 38.1231 38.9831C37.9174 39.0806 37.715 39.2065 37.4707 39.2042C37.4537 39.179 37.4364 39.1539 37.4191 39.1285C37.4798 39.0653 37.5346 38.9959 37.6018 38.9396C38.139 38.4906 38.7768 38.1815 39.4103 37.87C39.8199 37.6686 40.2439 37.4919 40.6611 37.3031C40.724 37.2746 40.7992 37.252 40.8409 37.2055C40.8776 37.1648 40.9053 37.0793 40.8824 37.0414C40.8575 37.0002 40.7704 36.9869 40.7076 36.9707C40.6864 36.9652 40.6558 36.9875 40.6304 36.9983C39.4663 37.4956 38.3009 37.9912 37.319 38.7721C37.2658 38.8143 37.1952 38.8526 37.1696 38.907C36.9909 39.2876 36.5583 39.307 36.241 39.52C36.1015 39.2843 36.2389 39.1429 36.3639 39.0412C36.6468 38.811 36.9353 38.5752 37.26 38.4012C38.1847 37.9057 39.1294 37.4411 40.0641 36.9614C40.1867 36.8984 40.4233 36.8674 40.3066 36.6791C40.2188 36.5374 40.0514 36.6512 39.9338 36.7108C38.9346 37.2171 37.9274 37.7119 36.9438 38.2425C36.4612 38.5027 35.9945 38.806 35.7992 39.3288C35.6025 39.2928 35.5591 39.1932 35.6631 39.0782C35.8331 38.89 36.0088 38.6986 36.2165 38.5483C36.5474 38.3083 36.8963 38.0863 37.2554 37.8828C38.0228 37.4474 38.8016 37.0291 39.5757 36.6034C39.6361 36.5704 39.7096 36.5457 39.7505 36.4981C39.7878 36.4547 39.8226 36.3548 39.7998 36.3343C39.7514 36.2909 39.6462 36.246 39.5973 36.2667C39.3804 36.3585 39.1712 36.4672 38.9664 36.5808C38.1459 37.0357 37.3285 37.4948 36.5089 37.9513C36.4771 37.9689 36.4363 37.9731 36.3581 37.9399C36.5154 37.8076 36.6551 37.6493 36.8332 37.5473C37.8007 36.9927 38.7734 36.4455 39.7535 35.9097C40.1404 35.6983 40.5529 35.5261 40.9503 35.3301C41.2885 35.1634 41.6344 35.0288 42.0242 34.9965C42.1189 34.9886 42.2665 34.9242 42.285 34.8603C42.326 34.7185 42.1734 34.6538 42.0513 34.6415C41.4915 34.5854 40.9304 34.5374 40.3687 34.5016C40.1309 34.4863 39.89 34.5107 39.6506 34.5118C39.3333 34.5132 39.0413 34.4532 38.8071 34.1766C38.8853 34.1352 38.9549 34.0751 39.0353 34.0591C39.8213 33.9044 40.6071 33.7469 41.3972 33.6117C41.8484 33.5342 42.2948 33.5757 42.7238 33.7498C43.2784 33.9749 43.8387 34.1882 44.3981 34.403C44.9777 34.6257 45.4543 34.9817 45.9242 35.3536C46.1232 35.5111 46.3753 35.6113 46.5925 35.7514C48.6225 37.0604 50.6464 38.3775 52.6808 39.6812C53.5128 40.2144 54.3688 40.7162 55.2084 41.2397C55.8858 41.6622 56.6288 41.7771 57.4279 41.6775C57.6079 41.6552 57.792 41.6596 58.0309 41.6491C58.053 43.2583 57.6276 44.8016 57.5547 46.4229ZM92.1391 23.4931C92.1677 23.5008 92.1965 23.5087 92.2251 23.5165C92.1024 23.8626 92.166 24.2597 91.8049 24.5404C91.9163 24.1912 92.0277 23.8421 92.1391 23.4931ZM93.8044 26.3051C93.8037 26.192 93.7779 26.0708 93.7272 25.9683C93.6273 25.7671 93.4023 25.7467 93.2579 25.9249C93.1844 26.0159 93.1223 26.1277 93.1006 26.2378C93.0036 26.7313 92.9203 27.2273 92.8376 27.723C92.7946 27.9801 92.763 28.2388 92.7262 28.4968L92.6228 28.4897C92.6164 27.9381 92.5656 27.383 92.6148 26.8357C92.677 26.1437 92.826 25.4585 92.9277 24.769C92.9805 24.4126 93.0193 24.054 93.0478 23.6953C93.0554 23.5997 93.0352 23.466 92.968 23.4114C92.8901 23.3483 92.7462 23.3535 92.6259 23.3278C92.6146 23.2809 92.5991 23.2313 92.5908 23.1807C92.5675 23.0366 92.4822 22.9554 92.324 22.9186C92.1398 22.8757 92.0646 22.987 91.9921 23.0964C91.9198 23.2055 91.8455 23.3196 91.8082 23.4408C91.6597 23.9243 91.4881 24.4053 91.3928 24.8983C91.1745 26.0275 90.9872 27.1621 90.8046 28.2969C90.6893 29.0136 90.4382 29.6515 89.872 30.1942C88.9667 31.0624 88.1024 31.9668 87.2283 32.8618C85.5458 34.5847 84.096 36.0809 82.4261 37.7914C81.9725 37.4258 81.2015 37.5103 80.903 38.0269C80.8063 38.1944 80.6776 38.2362 80.5033 38.2549C80.1249 38.2957 79.7453 38.3301 79.3695 38.3862C77.9215 38.6021 76.4731 38.8166 75.0284 39.0504C74.4319 39.1471 73.8443 39.2904 73.2533 39.4151C73.0566 39.4566 72.957 39.5382 72.9508 39.7596C72.9365 40.2647 72.8021 40.7553 72.5599 41.2129C72.2302 41.8363 71.6502 42.0259 70.9391 41.7835C70.2948 41.5637 69.8123 41.1531 69.3521 40.7136C68.9616 40.3407 68.5876 39.9538 68.2034 39.5754C67.9634 39.3388 67.6719 39.2689 67.3232 39.331C66.7968 39.4248 66.2665 39.4994 65.7375 39.5796C64.3873 39.7847 63.0321 39.966 61.6884 40.2023C61.0404 40.316 60.416 40.5394 59.7767 40.6982C59.4604 40.7767 59.1652 40.8731 58.8073 40.702C58.4324 40.5231 58.2112 40.6882 58.1395 41.0782C58.1236 41.1648 58.1049 41.2508 58.0857 41.3467C57.7161 41.3748 57.367 41.4048 57.0174 41.4277C56.434 41.4658 55.9025 41.3349 55.4161 41.0311C54.5421 40.4852 53.6548 39.9564 52.7834 39.4071C51.4588 38.572 50.1398 37.7295 48.8243 36.8824C48.0397 36.377 47.2396 35.8868 46.4952 35.3349C45.8548 34.86 45.1978 34.4248 44.4445 34.1198C43.8382 33.8745 43.2286 33.6341 42.6094 33.4179C42.3779 33.337 42.1129 33.2904 41.8669 33.3009C41.4612 33.3183 41.0559 33.3824 40.6549 33.4493C40.0721 33.5466 39.4929 33.6627 38.9127 33.773C38.6918 33.815 38.5115 33.9033 38.4776 34.1343C38.4473 34.3409 38.5816 34.5671 38.8133 34.668C38.9256 34.7172 39.0529 34.7579 39.1756 34.7642C39.5973 34.7848 40.0203 34.8021 40.442 34.7947C40.7769 34.7887 40.8253 34.7792 41.1147 34.9068C41.0086 34.9628 40.9134 35.0146 40.8167 35.0638C39.7438 35.6094 38.6673 36.1485 37.5992 36.7019C37.007 37.0088 36.4684 37.3843 36.0053 37.8444C35.8504 37.9985 35.7141 38.1519 35.7373 38.3887C35.7457 38.4734 35.6654 38.572 35.6078 38.6539C35.5324 38.7621 35.4249 38.8528 35.3569 38.9641C35.1791 39.2547 35.3022 39.49 35.659 39.5744C35.7484 39.5957 35.8545 39.6123 35.9159 39.6662C36.0888 39.8174 36.2654 39.8105 36.4589 39.7204C36.6846 39.6157 36.91 39.5103 37.147 39.3998C37.3607 39.5683 37.586 39.5315 37.8166 39.43C38.071 39.318 38.3367 39.2258 38.5825 39.1006C39.8706 38.4437 41.2927 38.2479 42.7235 38.0769C42.9343 38.0517 43.1105 38.0977 43.2728 38.2205C43.588 38.4587 43.9106 38.689 44.2252 38.9276C45.4962 39.8921 46.7786 40.8445 48.0315 41.8284C49.2737 42.8037 50.4905 43.8063 51.7092 44.8064C52.6867 45.6088 53.7902 46.1753 55.096 46.3815C55.7908 46.4911 56.4877 46.591 57.1834 46.6972C57.2884 46.7132 57.3917 46.7399 57.5005 46.7629C57.5005 46.9107 57.4947 47.0261 57.5016 47.1409C57.5208 47.4719 57.6073 47.5389 57.9803 47.5156C58.0647 47.5105 58.1482 47.4935 58.2322 47.4863C58.6639 47.4488 59.0955 47.3824 59.5268 47.3827C60.3029 47.3835 61.0785 47.4237 61.8544 47.4509C61.9323 47.4535 62.0094 47.4806 62.0714 47.4934C61.9858 48.1175 61.9019 48.7174 61.8223 49.3176C61.8087 49.4193 61.7816 49.5321 61.8141 49.6241C61.9799 50.0925 61.7569 50.3447 61.3222 50.5862C60.5398 51.0209 60.3979 51.5305 60.7296 52.3081C60.8472 52.5841 60.9512 52.8653 61.0476 53.1482C61.0798 53.2432 61.1123 53.3686 61.0715 53.4493C60.8497 53.889 61.0176 54.3034 61.111 54.7338C61.1753 55.0307 61.2152 55.3586 61.1449 55.6481C61.0021 56.2374 60.8004 56.8177 60.5803 57.388C60.3262 58.0464 60.3062 58.0404 60.9735 58.4343C60.912 58.5277 60.8656 58.6065 60.811 58.6801C60.5255 59.0641 60.2234 59.4388 59.9536 59.8321C58.0484 62.6092 56.1522 65.3912 54.6258 68.3662C54.5825 68.4504 54.5135 68.5237 54.4358 68.6304C54.3461 68.5042 54.2811 68.4211 54.2253 68.3329C53.6725 67.463 53.1042 66.601 52.5728 65.7202C51.5031 63.947 50.4449 62.168 49.4001 60.3825C48.9878 59.6778 48.6036 58.9576 48.2447 58.229C47.8894 57.508 47.3473 56.8735 47.1252 56.0874C47.0406 55.7883 46.7828 55.5287 46.5962 55.2555C46.2973 54.8185 46.2231 54.8053 45.7368 55.0767C45.4444 55.2399 45.2998 55.2229 45.0786 54.9925C45.033 54.9452 45.0012 54.8869 44.9486 54.8137C45.1713 54.667 45.0881 54.5092 44.9719 54.3526C44.7189 54.0123 44.4406 53.6851 44.2162 53.3296C43.8237 52.7072 43.4271 52.0828 43.1004 51.4306C42.7734 50.7779 42.4849 50.1024 42.2626 49.4145C42.0124 48.6397 41.8546 47.84 41.6573 47.0511C41.5623 46.671 41.2496 46.5114 40.8781 46.4304C40.5531 46.3598 40.3475 46.5358 40.1826 46.7642C40.145 46.816 40.1067 46.8671 40.0647 46.9244C39.3651 46.85 38.7663 46.9872 38.3765 47.5694C38.2363 47.5694 38.1095 47.5687 37.9829 47.5695C37.4765 47.5723 37.0389 47.7077 36.7478 48.1145C36.6413 48.2634 36.5053 48.2416 36.3401 48.2169C35.7999 48.1364 35.3331 48.2718 34.9953 48.6802C34.8662 48.8361 34.7011 48.8427 34.517 48.8726C34.2883 48.9097 34.0376 48.9594 33.8561 49.0793C33.661 49.2082 33.5351 49.4246 33.3555 49.6299C33.2568 49.6239 33.1177 49.61 32.9782 49.6086C32.4497 49.6028 31.9556 49.7311 31.6152 50.1035C31.409 50.3293 31.2027 50.3617 30.9202 50.3541C30.1472 50.3339 29.4785 50.5523 28.9838 51.1272C28.9423 51.1755 28.8794 51.2081 28.8212 51.252C28.3285 51.082 27.8583 51.1193 27.4642 51.4266C27.249 51.5944 27.023 51.6746 26.7581 51.7328C26.289 51.836 26.0163 52.4721 26.2923 52.8306C26.4874 53.0843 26.5771 53.3577 26.6052 53.6541C26.6458 54.0827 26.7645 54.4908 26.9928 54.8653C27.4517 55.6184 28.0896 56.159 29.0597 56.313C29.9298 56.4509 30.7973 56.4416 31.6678 56.3293C32.1945 56.2613 32.7223 56.1989 33.1784 56.1427C33.5322 56.3628 33.5548 56.8267 34.0385 56.8274C34.0952 56.5038 33.6518 56.4185 33.7187 56.0957C34.0394 56.0546 34.3547 56.0143 34.6566 55.9757C34.7801 56.0995 34.8729 56.2158 34.992 56.3023C35.0506 56.3451 35.1572 56.3326 35.2422 56.3451C35.2379 56.2668 35.2407 56.1872 35.227 56.1104C35.2174 56.0573 35.1851 56.0076 35.1366 55.8963C35.5598 55.9278 35.9244 55.9373 36.2807 55.9922C36.3874 56.0088 36.5161 56.1369 36.5576 56.2399C36.7985 56.8361 37.1756 57.3609 37.533 57.8987C37.6968 58.1455 37.8692 58.3029 38.1771 58.1927C38.4441 58.4766 38.6872 58.7353 38.9567 59.0218C38.5686 59.2324 38.2289 59.413 37.8937 59.6C37.6342 59.7448 37.5646 59.932 37.6868 60.1879C37.7938 60.4123 37.9195 60.6296 38.0413 60.8479C38.3253 61.3572 38.3263 61.3564 38.9392 61.2757C38.9634 61.2724 38.9913 61.2907 39.0317 61.3034C39.105 61.4164 39.1852 61.5374 39.2627 61.6597C39.7354 62.4081 40.1801 63.1729 40.6851 63.9027C42.6855 66.7927 44.64 69.7068 46.4034 72.7252C47.6542 74.8659 48.9924 76.961 50.4698 78.9784C50.8129 79.4467 51.2335 79.8708 51.6454 80.2931C52.122 80.7817 52.7576 80.9324 53.45 80.8987C53.7164 80.8856 53.9834 80.8432 54.2445 80.7909C55.3675 80.5663 56.33 80.0633 57.1092 79.3003C58.3708 78.0649 59.6164 76.8149 60.8467 75.5531C62.5102 73.8467 64.2086 72.1719 66.0331 70.6071C66.1304 70.5235 66.2364 70.4483 66.3663 70.3478C66.7157 71.0943 67.05 71.789 67.3678 72.4898C68.5809 75.1633 69.8977 77.787 71.7252 80.1693C71.756 80.2093 71.7724 80.2584 71.804 80.3204C71.6965 80.3965 71.6015 80.4691 71.5005 80.5342C70.2881 81.3141 69.0765 82.0951 67.8613 82.8714C66.0446 84.032 64.2273 85.1917 62.4053 86.345C62.0725 86.5556 61.7156 86.7339 61.3701 86.9269C61.2495 86.8006 61.1522 86.6986 61.0464 86.5879C60.5008 86.8743 59.9552 87.1072 59.4615 87.4407C59.7687 87.9339 60.0588 88.3989 60.35 88.8662C59.7929 89.3353 59.1695 89.6382 58.5635 89.965C58.5396 89.9779 58.5063 90.0003 58.4877 89.9939C58.1189 89.8621 57.9474 90.1417 57.7426 90.3102C56.3468 91.4585 54.8142 92.417 53.0786 93.0778C52.2207 93.4042 51.3271 93.6516 50.4509 93.9385C50.1002 94.0534 49.8442 94.3939 49.8437 94.7475C49.8433 95.067 50.0637 95.2314 50.3625 95.3361C50.3997 95.3492 50.4303 95.3784 50.4751 95.4072C50.4806 95.4806 50.4864 95.5567 50.4919 95.6329C50.5267 96.1099 50.7114 96.5161 51.1883 96.7568C51.3573 96.842 51.3866 96.9677 51.4005 97.1068C51.4572 97.671 51.6924 98.128 52.3003 98.3589C52.3003 98.4454 52.3023 98.5088 52.3001 98.5722C52.2821 99.1157 52.4799 99.5611 53.0135 99.8417C53.1738 99.9259 53.201 100.044 53.2134 100.194C53.2462 100.592 53.4828 100.885 53.8766 101.021C54.1467 101.114 54.1979 101.255 54.206 101.483C54.2195 101.853 54.3482 102.197 54.6208 102.476C54.8048 102.663 55.0891 102.793 55.2061 103.005C55.3252 103.222 55.2711 103.512 55.3343 103.762C55.4823 104.344 55.8711 104.772 56.4202 105.06C56.4202 105.213 56.424 105.341 56.4195 105.469C56.4075 105.812 56.5382 106.113 56.8094 106.336C57.0088 106.499 57.1186 106.682 57.2051 106.907C57.3815 107.364 58.1099 107.531 58.5022 107.208C58.7321 107.02 59.0067 106.944 59.2895 106.864C59.6118 106.774 59.9501 106.702 60.2414 106.556C61.3037 106.022 61.9665 105.248 61.9414 104.079C61.9296 103.523 61.9254 102.971 61.7665 102.427C61.6353 101.98 61.5555 101.518 61.4047 101.076C61.2768 100.703 61.2765 100.408 61.7025 100.205C61.7839 100.166 61.8549 100.083 61.8952 100.004C61.9316 99.934 61.9197 99.8428 61.9291 99.7607C61.9051 99.7449 61.8809 99.7291 61.8569 99.7134C61.6501 99.8651 61.4433 100.017 61.1887 100.203C61.093 99.8451 61.0143 99.5499 60.9421 99.28C61.0722 99.1396 61.184 99.0384 61.2671 98.9205C61.3024 98.8699 61.2781 98.7846 61.2811 98.7149C61.2032 98.7145 61.1206 98.6991 61.0492 98.7186C60.9816 98.737 60.926 98.7922 60.8112 98.8659C60.783 98.4288 60.7582 98.0487 60.7344 97.6792C60.8744 97.6042 60.9761 97.5587 61.0674 97.4995C61.6524 97.1193 62.2427 96.7451 62.8155 96.3497C63.0782 96.1685 63.071 96.083 62.8946 95.827C62.8388 95.7462 62.784 95.6645 62.7288 95.5834C62.7226 95.5519 62.7166 95.5201 62.7106 95.4886C62.9686 95.6118 63.1103 95.55 63.1842 95.3553C63.1988 95.3163 63.2701 95.2924 63.3189 95.2671C63.6104 95.1144 63.9031 94.9634 64.2132 94.8025C64.266 94.8611 64.3349 94.9253 64.3882 94.9989C64.638 95.3429 64.8812 95.6908 65.131 96.0349C65.3505 96.3368 65.5013 96.3591 65.8207 96.1404C66.0013 96.0168 66.1714 95.8793 66.358 95.7639C66.5215 95.6628 66.5745 95.537 66.5353 95.3665C66.5185 95.2932 66.5134 95.2175 66.5021 95.1372C66.6077 95.0717 66.6972 95.0099 66.7927 94.9577C69.1199 93.6881 71.445 92.4151 73.7768 91.1522C75.3312 90.3103 76.9085 89.5032 78.4492 88.6413C79.2782 88.1777 80.0816 87.6658 80.843 87.1139C81.8615 86.3755 82.6204 85.4448 82.8803 84.2526C83.0065 83.6739 83.0768 83.0775 83.0888 82.4878C83.1044 81.7149 83.0491 80.94 83.0028 80.167C82.9405 79.1217 82.7954 78.0859 82.4781 77.0765C81.874 75.1545 81.2018 73.2534 80.4443 71.3768C79.7509 69.6594 79.0738 67.9363 78.4051 66.2108C77.9146 64.9444 77.7671 63.6302 77.8256 62.2561C78.1125 62.1747 78.4231 62.0975 78.725 61.9981C79.2623 61.8211 79.339 61.7006 79.2653 61.1918C79.0651 59.8085 78.9159 58.4219 79.0358 57.0249C79.1304 55.9195 79.1878 54.8077 79.3685 53.7133C79.6466 52.031 80.0774 50.3688 80.1062 48.6567C80.1189 47.8965 80.1381 47.1353 80.1044 46.3762C80.0938 46.1338 80.1572 46.0004 80.352 45.859C81.0035 45.3857 81.6452 44.9008 82.2847 44.4137C82.5854 44.1845 82.8727 43.9407 83.1815 43.6911C83.5317 44.062 83.9081 43.9844 84.2927 43.7748C84.3774 43.7285 84.4638 43.6841 84.5468 43.6354C84.8148 43.4784 84.958 43.2355 84.8528 42.9735C84.7899 42.8169 84.798 42.6975 84.8457 42.5949C85.8197 41.3315 87.0497 39.7824 88.0229 38.5186C89.3472 36.7992 90.6701 35.0788 91.9922 33.358C92.2188 33.0633 92.4439 32.7676 92.6588 32.466C92.8198 32.2397 92.9621 32.0023 93.1149 31.7713C93.4364 31.2849 93.8017 30.8037 93.8099 30.2133C93.8277 28.9107 93.8123 27.6078 93.8044 26.3051Z" fill="black"/>
<path fill-rule="evenodd" clip-rule="evenodd" d="M71.7494 26.7598C71.7854 26.4614 71.8132 26.2325 71.502 25.9578C71.6646 25.9473 71.7409 25.8722 71.8617 25.9412C72.1668 26.115 72.0559 26.5108 71.7494 26.7598ZM70.5928 25.5821C70.6014 25.3655 70.4607 25.1859 70.213 24.949C70.5256 25.0193 70.7609 25.3107 70.5928 25.5821ZM68.0856 25.777C68.2609 25.4372 68.5668 25.2657 68.9828 25.4853C68.7601 25.571 68.4187 25.4579 68.0856 25.777ZM66.4276 26.5772C66.2837 26.1553 66.4369 25.9199 66.8794 25.8933C66.6521 26.0313 66.4485 26.1931 66.4276 26.5772ZM66.1345 29.164C65.926 29.2732 65.6577 29.5555 65.9914 30.0687C65.8077 29.9485 65.5339 29.7835 65.4161 29.5959C65.3043 29.4177 65.3337 29.1822 65.3288 28.9744C65.3144 28.3853 65.627 27.971 66.2796 27.7246C66.0774 28.2506 65.8728 28.7513 66.1345 29.164ZM72.1461 26.9437C72.2614 27.0103 72.3484 27.194 72.2918 27.3146C72.2762 27.3477 72.2197 27.4 72.1852 27.4126C72.2189 27.2939 72.1704 27.1031 72.0436 27.0389C72.0247 26.9713 72.0093 26.8646 72.1461 26.9437ZM73.6999 30.02C73.6877 29.9798 73.6999 29.7703 73.5682 29.6384C73.4598 29.5302 73.2901 29.5499 73.1797 29.4443C72.8187 29.0988 72.6783 28.5167 71.9985 28.6825C72.0291 28.567 72.0257 28.4868 72.0639 28.4507C72.4051 28.1292 72.1071 27.6284 72.3931 27.2813C72.4333 27.2328 72.3093 27.029 72.2352 26.9139C72.1913 26.8459 72.0957 26.8114 72.0462 26.7773C72.1674 26.4517 72.2421 26.1422 71.9258 25.9047C71.9268 25.9047 71.6258 25.7871 71.46 25.7431C71.2274 25.681 70.9889 25.6416 70.7213 25.586C70.8537 25.218 70.6627 25.0613 70.4304 24.9285C70.0214 24.6949 69.5629 24.76 69.1161 25.0964C68.9974 25.1857 68.8488 25.2998 68.7183 25.2943C68.4869 25.2848 68.3375 25.3887 68.1712 25.5109C67.8814 25.724 67.5826 25.8901 67.1961 25.7218C66.9525 25.616 66.5129 25.7953 66.3269 26.0368C66.1375 26.2828 66.1828 26.5315 66.3107 26.7878C66.4051 26.9766 66.6945 27.1348 66.5587 27.3517C66.4609 27.5076 66.2017 27.5744 66.0034 27.6532C65.1918 27.9765 64.9986 29.0998 65.4358 29.71C65.4358 29.7096 65.4356 29.7092 65.4356 29.7088C65.4719 29.8007 65.5854 29.8892 65.627 29.9162C65.8345 30.0498 66.023 30.1328 66.195 30.2983C66.3789 30.4755 66.4721 30.7432 66.6334 30.9494C66.7049 31.0404 66.8508 31.0698 66.9543 31.1404C67.0477 31.2038 67.0893 31.5436 67.5089 31.708C67.5828 31.737 67.6362 31.8042 67.6508 31.8823C67.6906 32.0965 67.7293 32.3048 67.7703 32.525C67.2816 32.8082 67.1559 33.0465 67.2328 33.5446C67.312 34.0581 67.7046 34.2903 68.1343 34.528C68.0436 35.3359 67.978 36.1355 67.8582 36.9271C67.7362 37.7352 67.5623 38.5353 67.4076 39.3381C67.3713 39.5253 67.3205 39.7092 67.6114 39.8308C67.6684 39.6737 67.7381 39.5373 67.7665 39.393C67.885 38.7911 68.0099 38.1895 68.0975 37.5829C68.2364 36.6182 68.3474 35.6495 68.47 34.6823C68.508 34.3825 68.4306 34.1742 68.0988 34.08C67.8284 34.0031 67.6508 33.7961 67.5972 33.5054C67.546 33.2271 67.6254 32.989 67.8055 32.9338C68.0718 32.8524 68.1077 33.0897 68.2007 33.2415C68.3119 33.4234 68.4266 33.5935 68.7118 33.4847C68.7759 33.2444 68.822 32.9813 68.9164 32.7371C69.0556 32.378 69.2351 32.0348 69.3859 31.68C69.5294 31.3422 69.5274 30.9917 69.9402 30.9218C70.0105 30.91 70.183 31.0605 70.3606 30.9358C70.5433 30.8073 70.5756 30.6253 70.779 30.6261C70.8953 30.6265 71.0518 30.6628 71.1679 30.6238C71.2832 30.5847 71.3554 30.4196 71.4736 30.403C71.6668 30.376 71.7821 30.2834 72.0342 30.3449C72.1808 30.3807 72.1777 30.5595 72.479 30.568C72.7526 30.5759 72.6815 30.703 72.7635 30.9218C72.8013 31.0231 73.025 31.084 73.0619 31.1855C73.1774 31.5032 73.3041 31.8511 73.3006 32.1702C73.2858 33.5032 73.0412 34.798 72.4503 36.0088C72.2193 36.4818 71.9618 36.6013 71.4563 36.4742C71.2982 36.4345 71.0512 36.335 70.9079 36.2577C70.643 36.1144 70.3803 35.967 70.1213 35.8137C69.9997 35.7413 69.8751 35.6024 69.7567 35.7577C69.6814 35.8564 69.7206 35.9365 69.7866 36.0017C69.9528 36.1653 70.2707 36.3726 70.4798 36.4753C71.0087 36.7351 71.5525 36.9624 72.1643 36.8216C72.2806 37.1806 72.3903 37.4918 72.4822 37.8085C72.6353 38.3372 72.7751 38.8697 72.9243 39.3997C72.9769 39.586 72.9765 39.8074 73.1918 39.8988C73.4212 39.7861 73.3293 39.6238 73.2895 39.4798C73.0591 38.6458 72.8303 37.8113 72.5869 36.9811C72.5252 36.7708 72.5293 36.6056 72.6464 36.4056C72.9651 35.8604 73.2062 35.277 73.3327 34.6549C73.4486 34.0845 73.5446 33.5099 73.6538 32.9383C73.6766 32.8181 73.6871 32.6754 73.7582 32.5881C74.0902 32.1822 74.1325 31.7161 74.1337 31.2161C74.1349 30.7012 73.8392 30.4757 73.6999 30.02Z" fill="black"/>
<path fill-rule="evenodd" clip-rule="evenodd" d="M72.0637 32.1741L72.3649 33.3656L71.9255 33.4095L72.0637 32.1741Z" fill="black"/>
<path fill-rule="evenodd" clip-rule="evenodd" d="M72.0644 32.1859L71.928 33.4072L72.3622 33.364L72.0644 32.1859ZM71.9254 33.4117C71.925 33.4117 71.9244 33.4115 71.9241 33.4111C71.9237 33.4107 71.9235 33.4099 71.9235 33.4093L72.0614 32.1739C72.0616 32.1731 72.0624 32.1723 72.0634 32.1721C72.0644 32.1721 72.0654 32.1727 72.0656 32.1737L72.3667 33.3652C72.3669 33.3658 72.3667 33.3664 72.3665 33.3668C72.3662 33.3673 72.3656 33.3677 72.365 33.3677L71.9258 33.4117H71.9254Z" fill="black"/>
<path fill-rule="evenodd" clip-rule="evenodd" d="M71.5874 31.3518C71.5874 31.3518 71.6505 31.7117 71.5795 31.7977C71.2664 31.7507 70.5735 31.8369 70.1379 32.2362C70.231 31.7086 71.5874 31.3518 71.5874 31.3518Z" fill="black"/>
<path fill-rule="evenodd" clip-rule="evenodd" d="M71.5857 31.3548C71.5559 31.3626 71.2303 31.4513 70.8984 31.5982C70.6948 31.6883 70.5288 31.7821 70.4048 31.8773C70.2529 31.994 70.1642 32.113 70.1409 32.2307C70.3847 32.0095 70.6902 31.9005 70.9041 31.8479C71.0909 31.802 71.3661 31.7641 71.5788 31.7957C71.6442 31.7133 71.5908 31.3851 71.5857 31.3548ZM70.1378 32.2386C70.1376 32.2386 70.1372 32.2384 70.1368 32.2382C70.1362 32.2378 70.1356 32.2372 70.1358 32.2362C70.1571 32.1152 70.2467 31.9934 70.4023 31.8739C70.5264 31.7785 70.6928 31.6845 70.8966 31.5944C71.2435 31.4409 71.5835 31.3508 71.5868 31.3502C71.5874 31.35 71.588 31.35 71.5884 31.3504C71.589 31.3506 71.5894 31.351 71.5894 31.3516C71.592 31.3666 71.6519 31.7135 71.5813 31.7992C71.5807 31.7998 71.58 31.8002 71.5794 31.8C71.3671 31.7683 71.0919 31.8059 70.9051 31.8519C70.6904 31.9047 70.3831 32.0147 70.1393 32.238C70.1389 32.2384 70.1383 32.2386 70.1378 32.2386Z" fill="black"/>
<path fill-rule="evenodd" clip-rule="evenodd" d="M72.3964 31.2957C72.3964 31.2957 72.3408 31.6567 72.4136 31.7413C72.7543 31.7387 73.2879 31.8842 73.6514 32.0914C73.5374 31.7285 72.3964 31.2957 72.3964 31.2957Z" fill="black"/>
<path fill-rule="evenodd" clip-rule="evenodd" d="M72.4225 31.7395C72.7722 31.7395 73.2953 31.8879 73.6473 32.0874C73.5843 31.9019 73.2502 31.6983 72.9797 31.5598C72.6983 31.4153 72.4261 31.3098 72.3977 31.299C72.393 31.3315 72.3468 31.6593 72.4141 31.7397C72.4168 31.7395 72.4198 31.7395 72.4225 31.7395ZM73.6509 32.0939C73.6505 32.0939 73.6503 32.0939 73.6499 32.0937C73.2985 31.8933 72.7732 31.7437 72.4225 31.7437H72.4131C72.4125 31.7437 72.4119 31.7437 72.4115 31.7433C72.3809 31.7076 72.3687 31.6215 72.3752 31.4872C72.38 31.3873 72.3938 31.2968 72.394 31.2958C72.394 31.2953 72.3944 31.2947 72.3949 31.2943C72.3955 31.2939 72.3961 31.2939 72.3967 31.2941C72.3997 31.2953 72.6855 31.4043 72.9817 31.556C73.2553 31.6962 73.5939 31.9029 73.6529 32.0912C73.6532 32.0919 73.6529 32.0929 73.6523 32.0935C73.6519 32.0937 73.6515 32.0939 73.6509 32.0939Z" fill="black"/>
<path fill-rule="evenodd" clip-rule="evenodd" d="M71.2754 33.2646C71.4915 33.5861 71.6672 33.765 71.9601 33.7956C72.2529 33.8264 72.458 33.6578 72.458 33.6578C72.458 33.6578 72.2237 34.2837 71.9404 34.3998C71.3547 34.6408 71.3823 33.9178 71.2754 33.2646Z" fill="black"/>
<path fill-rule="evenodd" clip-rule="evenodd" d="M70.4308 32.7529L70.3679 32.6979C70.378 32.6863 70.6192 32.4159 71.031 32.395C71.5395 32.3696 71.7634 32.6053 71.7727 32.6153L71.7112 32.6719C71.7092 32.6699 71.5017 32.4545 71.0351 32.4784C70.66 32.4975 70.433 32.7504 70.4308 32.7529Z" fill="black"/>
<path fill-rule="evenodd" clip-rule="evenodd" d="M73.5212 32.6698C73.5192 32.6672 73.3184 32.4195 72.9821 32.4055C72.7626 32.3964 72.6082 32.4514 72.5174 32.4993C72.419 32.5509 72.3715 32.6057 72.3711 32.6063L72.3073 32.5523C72.3159 32.5422 72.5233 32.3028 72.9855 32.3219C73.3612 32.3377 73.5778 32.6065 73.5868 32.6179L73.5212 32.6698Z" fill="black"/>
</g>
</svg>

