<svg width="176" height="176" viewBox="0 0 176 176" fill="none" xmlns="http://www.w3.org/2000/svg">
<mask id="mask0" mask-type="alpha" maskUnits="userSpaceOnUse" x="0" y="0" width="176" height="176">
<circle cx="88" cy="88" r="88" fill="#C4C4C4"/>
</mask>
<g mask="url(#mask0)">
<path fill-rule="evenodd" clip-rule="evenodd" d="M90.7192 173.075L193.025 145.094C186.485 30.7065 122.353 1.36996 109.914 4.77203C91.256 9.87514 93.0374 43.2309 86.1287 58.1906C79.2199 73.1504 74.7378 80.1472 55.6065 75.9591C36.4752 71.7711 2.66954 85.0117 10.7031 114.385C16.0588 133.966 27.7784 157.585 45.8619 185.241L90.7192 173.075Z" fill="#FBF9FF"/>
<path fill-rule="evenodd" clip-rule="evenodd" d="M41.9998 175.966C56.6464 167.209 72.6271 155.892 89.9421 142.014C115.915 121.198 219.743 160.711 231.537 165.591C239.399 168.845 242.362 172.315 240.426 176L41.9998 175.966Z" fill="#B28960"/>
<path fill-rule="evenodd" clip-rule="evenodd" d="M18.3554 103.538C17.4698 103.999 16.8559 104.668 16.6755 105.667C17.4715 105.144 17.9329 104.356 18.3554 103.538ZM23.3209 128.739C24.0335 129.16 24.6949 129.019 25.1041 128.405C25.3355 128.057 25.3268 127.842 25.0718 127.593C24.7941 127.322 24.548 127.303 24.2093 127.564C23.8192 127.865 23.5425 128.259 23.3209 128.739ZM22.5429 109.063C22.4955 109.134 22.451 109.179 22.4322 109.233C22.185 109.941 21.9196 110.644 21.7015 111.361C21.3567 112.497 21.8326 113.169 22.7248 113.77C22.9725 113.937 23.2376 113.913 23.4563 113.717C23.6049 113.585 23.7561 113.426 23.8337 113.248C24.1907 112.432 24.5211 111.604 24.8626 110.782C24.9799 110.5 24.9038 110.262 24.6936 110.064C24.0871 109.492 23.387 109.124 22.5429 109.063ZM13.2909 84.2712C13.6063 84.5888 13.8971 84.8685 14.1733 85.1622C14.8836 85.9183 15.5626 86.7057 16.3047 87.4287C16.661 87.7756 17.1104 88.0469 17.5565 88.2767C18.0355 88.5236 18.5473 88.491 19.0026 88.1622C19.9048 87.5102 20.0269 87.0009 19.4678 86.0364C18.6903 84.6964 17.6171 83.6199 16.3866 82.6938C16.2578 82.5969 16.1077 82.5279 15.9649 82.45C15.7074 82.3093 15.4407 82.3276 15.2111 82.4851C14.4906 82.9799 13.8376 83.5487 13.2909 84.2712ZM35.4784 166.287C35.5079 166.29 35.5377 166.292 35.5672 166.294C35.6021 166.224 35.6517 166.158 35.6695 166.084C36.1734 164.01 36.7374 161.949 37.1611 159.858C37.8803 156.312 38.527 152.75 38.9606 149.154C39.2454 146.793 39.5096 144.429 39.7394 142.062C39.8789 140.626 39.9527 139.182 40.0249 137.74C40.1692 134.871 40.1163 132.002 39.928 129.138C39.789 127.028 39.5679 124.923 39.3854 122.816C39.2047 120.729 39.0062 118.643 38.8517 116.554C38.5285 112.173 38.2203 107.791 37.9248 103.409C37.8208 101.866 37.7571 100.32 37.7032 98.7752C37.6299 96.6791 37.6744 94.5834 37.8605 92.4942C38.0261 90.631 38.2109 88.7697 38.4097 86.9101C38.5761 85.3536 38.753 83.7978 38.965 82.2472C39.2485 80.1723 39.5926 78.1055 39.8687 76.0298C40.1262 74.0957 40.3611 72.1567 40.5439 70.2144C40.6558 69.0218 40.6856 67.8185 40.6887 66.6199C40.6915 65.5599 40.283 64.6315 39.5188 63.8896C39.3078 63.6845 39.0281 63.4771 38.7517 63.4272C38.1172 63.3124 37.4657 63.2941 36.7664 63.232C36.6552 63.7474 36.5478 64.1978 36.4618 64.6521C36.038 66.8889 35.5532 69.1167 35.2155 71.3667C34.7233 74.6462 34.536 77.9592 34.3253 81.2674C34.0937 84.9041 33.9819 88.5452 34.0868 92.1878C34.1807 95.4413 34.3207 98.6937 34.4869 101.944C34.5457 103.098 34.7353 104.246 34.8808 105.394C34.903 105.569 34.9559 105.736 34.7439 105.789C34.5309 105.843 34.4614 105.658 34.4238 105.501C34.3477 105.186 34.2593 104.868 34.2362 104.546C34.1105 102.803 33.9906 101.058 33.8934 99.3129C33.8153 97.9119 33.7524 96.5089 33.7188 95.1058C33.6595 92.6258 33.5557 90.1434 33.603 87.6646C33.6598 84.7171 33.8275 81.7703 34.0028 78.8262C34.125 76.7773 34.3044 74.7296 34.5245 72.6883C34.806 70.0782 35.3577 67.5114 35.882 64.942C35.9909 64.4088 36.0966 63.8746 36.207 63.3234C35.7354 63.1814 35.2593 63.1333 34.9091 63.3208C34.3451 63.6222 33.7593 63.9861 33.4651 64.5936C33.1513 65.2413 32.6889 65.8274 32.597 66.5781C32.5799 66.7186 32.4756 66.9143 32.3603 66.9629C32.1078 67.0698 32.0625 67.276 31.9938 67.4852C30.2597 72.7563 29.2404 78.1501 29.2314 83.7133C29.2259 87.3384 29.4534 90.9527 29.9019 94.5485C30.294 97.6948 30.7145 100.84 31.2102 103.971C31.7918 107.644 32.5069 111.296 33.092 114.969C33.6452 118.442 34.1553 121.923 34.5899 125.412C34.9696 128.458 35.2689 131.517 35.5092 134.577C35.7242 137.314 35.8352 140.06 35.9477 142.804C36.191 148.726 36.008 154.644 35.7199 160.56C35.627 162.469 35.5583 164.378 35.4784 166.287ZM36.928 62.6673C37.4207 62.7159 37.9012 62.7884 38.3837 62.8045C39.1592 62.8309 39.7272 63.202 40.1975 63.7838C40.9633 64.7313 41.2763 65.8347 41.2417 67.0243C41.2022 68.3649 41.1262 69.7069 41.0014 71.0422C40.8561 72.6003 40.6584 74.154 40.4517 75.7054C40.2077 77.5385 39.9176 79.3658 39.6712 81.1989C39.4276 83.0117 39.1958 84.8265 38.9927 86.6441C38.7891 88.463 38.5916 90.2836 38.4585 92.1086C38.3387 93.7501 38.2282 95.3998 38.26 97.0433C38.3127 99.7674 38.4629 102.49 38.6089 105.211C38.7507 107.851 38.9057 110.491 39.1154 113.127C39.3895 116.573 39.7162 120.014 40.0336 123.457C40.4243 127.692 40.7582 131.931 40.6523 136.19C40.5859 138.875 40.4283 141.554 40.1016 144.221C39.8048 146.644 39.5419 149.07 39.2088 151.487C38.9731 153.198 38.6807 154.903 38.3493 156.598C37.8508 159.151 37.31 161.695 36.7577 164.237C36.5289 165.288 36.2126 166.32 35.9566 167.366C35.7896 168.048 35.9579 168.257 36.6801 168.348C36.9942 168.388 37.0659 168.501 36.9453 168.788C36.8985 168.9 36.8333 169.006 36.7656 169.107C36.5147 169.48 36.4236 169.492 36.0439 169.221C35.9953 169.187 35.9431 169.156 35.8983 169.128C35.7621 169.184 35.6359 169.236 35.5318 169.279C35.4807 169.251 35.4512 169.246 35.4468 169.232C35.2827 168.702 34.6805 168.352 34.7793 167.73C34.8368 167.369 34.7434 167.09 34.5395 166.824C33.4002 165.34 32.2613 163.855 31.1158 162.375C29.4842 160.268 27.7865 158.209 26.2267 156.051C24.0156 152.991 22.4039 149.626 21.4895 145.947C20.7573 143.001 20.556 140.013 20.769 136.988C20.9197 134.849 21.2516 132.747 21.8906 130.698C22.0479 130.194 22.2311 129.696 22.4401 129.212C22.5464 128.965 22.5019 128.81 22.3395 128.613C20.9291 126.91 20.2506 124.92 20.0564 122.739C19.8628 120.567 20.0521 118.428 20.6848 116.344C20.9429 115.494 21.3353 114.685 21.701 113.772C21.6857 113.75 21.6185 113.628 21.531 113.524C20.968 112.852 20.8823 112.089 21.1388 111.285C21.3546 110.607 21.6201 109.946 21.8606 109.276C21.9074 109.146 21.9911 109.003 21.97 108.881C21.9054 108.507 22.1179 108.443 22.3922 108.483C22.7734 108.538 23.1486 108.635 23.5267 108.71C23.624 108.729 23.724 108.734 23.8316 108.747C24.0271 108.407 24.2139 108.082 24.4071 107.746C24.6768 107.992 24.6768 107.992 24.3208 109.027C24.5427 109.209 24.7822 109.392 25.0077 109.592C25.4121 109.949 25.5732 110.4 25.3828 110.912C25.0784 111.73 24.7379 112.535 24.4109 113.345C24.3882 113.401 24.3536 113.452 24.3218 113.505C23.769 114.413 23.2493 114.595 22.1766 114.214C22.0377 114.462 21.8779 114.714 21.7499 114.982C21.1737 116.187 20.8604 117.471 20.6856 118.785C20.4512 120.548 20.4171 122.313 20.7729 124.069C21.0429 125.4 21.548 126.634 22.3164 127.757C22.4085 127.891 22.5085 128.02 22.6121 128.145C22.6622 128.207 22.7289 128.254 22.8284 128.344C22.9574 128.169 23.0656 128.005 23.1916 127.856C23.3883 127.624 23.5759 127.377 23.8052 127.18C24.378 126.689 24.8626 126.701 25.3746 127.181C25.8765 127.652 25.9233 128.176 25.5164 128.762C25.0387 129.449 24.2157 129.72 23.4216 129.451C23.3079 129.413 23.1959 129.369 23.0251 129.307C22.9294 129.516 22.8287 129.71 22.751 129.912C22.1133 131.574 21.7692 133.307 21.5208 135.061C21.2839 136.737 21.2197 138.423 21.264 140.115C21.3816 144.596 22.5943 148.772 24.7611 152.684C25.9182 154.773 27.2943 156.712 28.7795 158.576C30.5671 160.82 32.3623 163.057 34.1553 165.297C34.2163 165.374 34.2858 165.444 34.452 165.482C34.3909 165.246 34.3367 165.008 34.2672 164.775C33.1487 161.014 32.032 157.253 30.9071 153.494C30.0233 150.539 29.4809 147.53 29.3071 144.446C29.1715 142.039 29.3231 139.648 29.5423 137.257C29.8708 133.673 30.3877 130.103 30.3775 126.494C30.3651 122.06 29.8914 117.683 28.5973 113.424C27.732 110.575 26.4883 107.913 24.5155 105.648C23.9446 104.993 23.2967 104.393 22.6243 103.841C21.8802 103.23 20.9803 102.978 20.0106 102.974C19.5571 102.972 19.2846 103.147 19.0392 103.55C18.5745 104.31 18.0403 105.03 17.4932 105.735C17.3163 105.963 17.0295 106.139 16.7567 106.252C16.2993 106.44 15.982 106.191 16.0237 105.704C16.0425 105.486 16.1097 105.263 16.2008 105.063C16.6775 104.021 17.4466 103.253 18.4966 102.806C18.8499 102.655 19.0509 102.443 19.2016 102.113C19.9351 100.505 20.3453 98.8118 20.5413 97.0637C20.7853 94.8832 20.7217 92.7164 20.1898 90.5781C20.0134 89.8696 19.7905 89.1751 19.3502 88.5513C19.2474 88.5806 19.1677 88.5905 19.1003 88.6241C18.1088 89.1183 17.1921 88.932 16.368 88.2675C15.9112 87.8993 15.5073 87.4623 15.1019 87.035C14.3878 86.2825 13.6905 85.5144 12.9868 84.7522C12.628 84.3633 12.5946 84.2699 12.9553 83.8816C13.4795 83.3173 14.0264 82.7679 14.6138 82.2714C15.3335 81.6626 15.9509 81.6356 16.7086 82.2485C17.4957 82.8849 18.2297 83.5952 18.9295 84.3279C19.3461 84.7641 19.6956 85.281 19.9982 85.806C20.453 86.5955 20.6815 87.4114 19.821 88.0627C19.821 88.1612 19.8058 88.2098 19.8233 88.239C20.7255 89.7701 21.0121 91.4637 21.1546 93.2004C21.346 95.5357 21.1381 97.8325 20.5184 100.089C20.3573 100.675 20.1208 101.241 19.9162 101.815C19.849 102.004 19.7737 102.189 19.6778 102.439C19.8765 102.455 20.0272 102.481 20.1776 102.478C21.3068 102.458 22.2884 102.858 23.1651 103.538C24.4182 104.51 25.3935 105.731 26.2738 107.036C28.0171 109.621 29.0552 112.501 29.7588 115.507C30.6391 119.268 31.0117 123.09 30.9667 126.949C30.9389 129.31 30.7137 131.659 30.4658 134.007C30.1648 136.858 29.8367 139.711 29.853 142.586C29.8736 146.251 30.4345 149.834 31.4991 153.342C32.5675 156.863 33.6198 160.389 34.6803 163.912C34.7368 164.1 34.8001 164.287 34.9569 164.463C34.9908 164.027 35.0381 163.593 35.0567 163.157C35.3287 156.773 35.6217 150.389 35.4387 143.997C35.3272 140.112 35.1536 136.23 34.7543 132.362C34.3932 128.864 34.0502 125.361 33.5971 121.874C33.2152 118.932 32.7021 116.006 32.2193 113.078C31.4884 108.645 30.6659 104.226 30.0116 99.7819C29.5527 96.6664 29.289 93.5213 28.9747 90.3857C28.6737 87.3847 28.6469 84.3727 28.7668 81.3613C28.9182 77.5634 29.5845 73.8447 30.6348 70.1983C31.1237 68.5003 31.7213 66.8336 32.2672 65.1522C32.3572 64.8748 32.5138 64.6674 32.7403 64.4684C33.1508 64.1085 33.5348 63.7089 33.8763 63.2829C34.2028 62.876 34.623 62.7408 35.1005 62.7037C35.4043 62.68 35.7105 62.6803 36.0159 62.6838C36.2622 62.6864 36.3849 62.5777 36.4279 62.3357C36.4951 61.9555 36.5844 61.5796 36.6615 61.2017C36.6946 61.0393 36.7178 60.8431 36.9351 60.8708C37.1957 60.9039 37.1535 61.1319 37.1265 61.3055C37.0733 61.6468 36.9914 61.9832 36.9303 62.3232C36.9132 62.4186 36.928 62.5197 36.928 62.6673Z" fill="black"/>
<path fill-rule="evenodd" clip-rule="evenodd" d="M149.733 96.768C151.232 96.7647 152.505 96.3971 153.727 95.7841C153.94 95.6775 154.001 95.5446 154 95.3113C153.994 93.9195 153.759 92.5802 153.216 91.3116C152.661 90.0125 151.855 88.9345 150.707 88.186C149.56 87.4375 148.336 87.2465 147.05 87.7169C145.051 88.448 143.909 90.6019 144.37 92.7697C144.612 93.9046 145.221 94.7856 146.079 95.4722C147.202 96.3716 148.484 96.7596 149.733 96.768ZM161.404 88.9842C161.102 89.3358 160.806 89.6941 160.497 90.038C159.494 91.1522 158.503 92.2802 157.474 93.3661C156.571 94.318 155.555 95.1217 154.436 95.7635C154.279 95.8531 154.261 95.9747 154.249 96.1331C154.115 97.779 153.665 99.313 152.838 100.714C151.807 102.46 150.37 103.678 148.602 104.467C147.048 105.161 145.425 105.468 143.747 105.402C140.564 105.275 137.624 104.304 134.971 102.401C133.493 101.34 132.189 100.058 130.971 98.6728C129.809 97.3515 128.792 95.9085 127.839 94.4111C127.776 94.3126 127.721 94.2063 127.68 94.0963C127.667 94.0634 127.702 93.9947 127.733 93.9634C127.753 93.9443 127.82 93.9498 127.843 93.9716C127.902 94.0292 127.953 94.0981 127.999 94.1686C128.968 95.6535 129.981 97.1002 131.142 98.422C132.458 99.9203 133.877 101.287 135.493 102.407C136.82 103.326 138.263 103.962 139.778 104.424C140.778 104.729 141.794 104.943 142.83 105.038C145.361 105.271 147.764 104.82 149.939 103.358C151.909 102.033 153.145 100.115 153.715 97.7053C153.827 97.2315 153.879 96.7414 153.955 96.2581C153.963 96.2073 153.951 96.1528 153.947 96.0568C153.823 96.1117 153.722 96.1532 153.624 96.2004C152.332 96.8197 150.984 97.1527 149.564 97.0732C147.887 96.9792 146.396 96.3802 145.224 95.0545C144.077 93.7578 143.686 92.2088 144.175 90.4912C144.67 88.7519 145.811 87.6803 147.461 87.2883C148.892 86.9485 150.183 87.3642 151.333 88.3035C152.626 89.3595 153.435 90.7689 153.896 92.4227C154.137 93.2844 154.267 94.1648 154.273 95.0653C154.273 95.1724 154.282 95.2794 154.289 95.445C154.445 95.3615 154.572 95.3059 154.687 95.2303C155.514 94.6892 156.283 94.0647 157.006 93.3726C158.063 92.3611 159.015 91.2401 159.983 90.1345C160.345 89.7209 160.709 89.3092 161.07 88.8956C161.144 88.8114 161.213 88.7225 161.33 88.5808C160.935 88.554 160.606 88.5695 160.276 88.5889C159.982 88.6061 159.687 88.6091 159.392 88.6072C159.286 88.6066 159.131 88.6173 159.126 88.4612C159.12 88.2972 159.271 88.3126 159.381 88.3082C160.021 88.2831 160.661 88.2588 161.302 88.2361C161.383 88.2332 161.465 88.2361 161.546 88.246C161.746 88.2706 161.798 88.3201 161.786 88.5384C161.762 88.9623 161.725 89.3857 161.688 89.8087C161.641 90.3282 161.588 90.847 161.54 91.3666C161.529 91.4843 161.508 91.5973 161.373 91.5869C161.231 91.5761 161.233 91.4484 161.243 91.3386C161.29 90.8507 161.34 90.3633 161.391 89.8758C161.421 89.5876 161.453 89.3 161.485 89.012C161.458 89.0027 161.431 88.9936 161.404 88.9842Z" fill="black"/>
<path fill-rule="evenodd" clip-rule="evenodd" d="M59.0208 141.988L61.5253 139.839H61.9714L70.8764 123.847L76.0687 113.938C78.4384 108.745 79.79 105.729 80.1236 104.891C80.4572 104.054 81.6076 99.7096 83.5747 91.8594L92.05 91.4753L101.322 92.3562C104.899 92.0063 106.74 91.7127 106.846 91.4753C106.952 91.2379 106.627 110.62 105.87 149.621L106.846 150.092V152.614L91.3741 153.061V150.933H92.05L93.2616 110.352H92.6183L86.1725 126.259L81.338 134.904L73.3568 147.932L73.6641 148.731L71.882 150.933L59.0208 142.755V141.988Z" fill="white"/>
<path fill-rule="evenodd" clip-rule="evenodd" d="M91.5962 155.257C91.5962 155.257 94.0257 160.133 93.8243 161.21C93.6229 162.287 92.6193 167.313 92.6193 167.313H116.351C116.351 167.313 117.354 162.165 114.701 160.945C112.048 159.724 104.552 158.68 104.684 158.033C104.817 157.387 105.218 153.825 105.218 153.825L91.5962 155.257Z" fill="#FFDA2D"/>
<path fill-rule="evenodd" clip-rule="evenodd" d="M60.9129 147.208C60.9129 147.208 59.302 150.96 58.529 151.732C57.7562 152.504 56.4758 155.434 56.4758 155.434L64.9942 164.983C64.9942 164.983 74.6648 166.631 72.7726 162.122C71.8032 159.813 67.4261 155.322 67.8977 154.865C68.369 154.408 68.094 152.367 68.094 152.367L60.9129 147.208Z" fill="#FFDA2D"/>
<path fill-rule="evenodd" clip-rule="evenodd" d="M93.1864 60.0949C93.1864 60.0949 82.4294 61.2114 81.1119 63.4883C80.0039 65.4033 77.6845 71.6344 77.6845 71.6344L75.5632 75.8436C75.5632 75.8436 81.773 78.9045 84.2802 78.1171C85.1076 77.9728 82.8604 89.9487 82.8604 89.9487C85.0078 89.9128 91.5924 89.9766 100.434 90.4528C101.614 90.5165 106.583 89.3417 106.583 89.3417C106.583 89.3417 107.413 74.5653 109.463 71.6829C111.513 68.8005 116.792 65.2255 116.792 65.2255L110.81 56.8618C110.81 56.8618 103.658 59.9019 101.285 59.939C99.6836 59.9646 101.15 63.3838 98.3316 63.4524C95.5129 63.5205 93.1864 60.0949 93.1864 60.0949Z" fill="#779BE7"/>
<path fill-rule="evenodd" clip-rule="evenodd" d="M129.76 29.8329C129.719 29.8202 129.677 29.8079 129.636 29.7953C129.475 30.3523 129.315 30.9088 129.154 31.4653C129.675 31.0179 129.583 30.3847 129.76 29.8329ZM65.8923 154.564H67.6163C67.5791 154.28 67.5453 154.021 67.5074 153.73C66.9299 153.538 66.3716 153.524 65.7559 153.661C65.8078 154.004 65.8493 154.279 65.8923 154.564ZM72.9169 165.338C71.6661 165.483 70.4822 165.617 69.2993 165.759C68.1579 165.895 67.0284 165.825 65.917 165.541C65.4373 165.418 64.9736 165.233 64.4076 165.044C64.7275 165.604 65.0329 165.985 65.6404 166.041C66.2148 166.095 66.7597 166.405 67.3623 166.246C67.415 166.232 67.4804 166.277 67.5399 166.277C67.9818 166.281 68.4246 166.298 68.8654 166.274C69.2687 166.251 69.6688 166.17 70.0719 166.138C70.7754 166.08 71.4811 166.048 72.1842 165.99C72.5589 165.958 72.8268 165.774 72.9169 165.338ZM63.4494 164.009C63.4937 163.98 63.538 163.95 63.5823 163.92C63.2952 163.491 62.9919 163.071 62.7257 162.629C62.4526 162.176 62.2767 161.65 61.9492 161.246C61.4758 160.663 60.907 160.158 60.3736 159.625C59.9412 159.192 59.4788 158.788 59.0701 158.334C58.5102 157.712 57.9941 157.05 57.4487 156.414C57.2036 156.128 56.9338 155.864 56.6582 155.572C56.4187 156.049 56.4014 156.08 56.6702 156.237C57.1094 156.495 57.3273 156.9 57.6113 157.303C57.9719 157.813 58.3588 158.335 58.7728 158.798C59.1136 159.179 59.5381 159.505 59.8717 159.92C59.9906 160.068 60.2112 160.13 60.3807 160.239C60.6174 160.391 60.9154 160.502 61.0724 160.716C61.5771 161.407 62.0202 162.142 62.504 162.849C62.7865 163.261 63.0008 163.738 63.4494 164.009ZM86.1981 90.2892C86.1215 90.273 86.0471 90.2437 85.9726 90.2434C85.2025 90.2398 84.4324 90.2411 83.6012 90.2411C83.3329 91.4336 83.081 92.5544 82.8168 93.7289C83.9063 93.353 85.9097 91.2862 86.1981 90.2892ZM111.895 55.628C112.141 56.5779 112.504 57.4202 113.015 58.1924C114.33 60.1807 115.862 61.9904 117.518 63.6939C117.667 63.8483 117.846 63.9741 118.028 64.1282C118.216 63.9162 118.363 63.7505 118.549 63.5406C116.475 60.8074 114.464 58.0526 112.77 55.0077C112.45 55.2343 112.176 55.4283 111.895 55.628ZM75.5039 74.5774C77.3202 76.7369 81.6698 78.3652 84.4313 77.7616C84.612 77.2941 84.7652 76.8043 84.7986 76.2483C83.7203 76.3818 82.6908 76.4531 81.6713 76.1976C80.6353 75.9377 79.7227 75.4028 78.7899 74.8993C77.8567 74.3955 77.2533 73.5599 76.5326 72.6789C76.147 73.3906 75.82 73.9942 75.5039 74.5774ZM101.342 90.7438C101.363 90.8799 101.358 90.9263 101.377 90.9569C102.527 92.806 104.1 94.1519 106.091 94.9963C106.246 95.0616 106.421 95.0796 106.591 95.1208C106.718 94.3927 106.732 90.3327 106.608 89.8521C104.956 90.7055 103.152 90.6605 101.342 90.7438ZM116.233 167.635H93.0946C93.174 167.821 93.2226 167.996 93.3158 168.141C93.5848 168.561 93.8182 168.592 94.2154 168.285C94.3572 168.175 94.4967 168.063 94.614 167.97C94.7015 167.996 94.745 167.999 94.7781 168.02C94.8644 168.073 94.9456 168.134 95.0296 168.191C95.6564 168.613 96.2965 168.741 96.9477 168.254C97.1729 168.085 97.3862 168.083 97.6282 168.204C97.8461 168.313 98.0695 168.416 98.2996 168.493C98.7673 168.65 99.2114 168.619 99.6316 168.317C100.078 167.996 100.086 168.008 100.563 168.359C101.177 168.811 101.79 168.855 102.429 168.433C102.711 168.246 102.932 168.238 103.206 168.416C103.721 168.751 104.234 168.675 104.659 168.271C105.026 167.924 105.323 167.943 105.731 168.205C106.364 168.611 107.085 168.748 107.753 168.336C108.216 168.05 108.561 168.142 108.984 168.366C109.924 168.864 110.889 168.93 111.834 168.375C112.148 168.19 112.384 168.21 112.645 168.466C113.116 168.929 113.671 168.986 114.285 168.784C114.506 168.711 114.765 168.677 114.99 168.718C115.795 168.862 116.127 168.619 116.233 167.635ZM63.7268 145.26C63.0112 145.997 62.5032 146.801 62.0052 147.656C63.9335 149.086 65.773 150.558 67.8802 151.741C68.4691 150.879 69.029 150.06 69.6059 149.215C67.6176 147.878 65.6837 146.576 63.7268 145.26ZM91.3979 152.178C96.5962 152.277 101.695 151.886 106.865 151.562V149.188C101.768 149.52 96.6838 149.851 91.56 150.184C91.5101 150.797 91.459 151.426 91.3979 152.178ZM73.6939 147.81C73.3939 147.584 73.1903 147.422 72.978 147.273C71.4276 146.181 69.8714 145.097 68.3256 143.999C67.4611 143.385 66.6171 142.741 65.7559 142.122C64.3834 141.134 62.9305 140.25 61.8105 138.941C61.7639 138.887 61.6761 138.869 61.5593 138.809C60.7922 139.69 60.0354 140.56 59.2553 141.457C59.5076 141.672 59.6961 141.861 59.9109 142.011C60.8129 142.643 61.7219 143.264 62.6292 143.889C64.3089 145.045 65.9812 146.212 67.672 147.351C68.9068 148.183 70.1658 148.977 71.4164 149.785C71.549 149.87 71.6979 149.93 71.9124 150.039C72.4912 149.316 73.06 148.604 73.6939 147.81ZM129.967 39.8897C129.921 38.2338 129.78 36.6891 129.862 35.1564C129.944 33.6392 130.25 32.134 130.472 30.5196C130.341 30.6431 130.265 30.6842 130.237 30.7473C129.992 31.2863 129.707 31.8135 129.528 32.3749C129.205 33.3904 128.92 34.4203 128.669 35.4564C128.461 36.3119 128.322 37.1838 128.16 38.0501C128.041 38.6815 127.877 39.2972 127.486 39.8161C127.105 40.323 126.715 40.8262 126.292 41.2976C125.242 42.4693 124.156 43.6096 123.11 44.7854C120.115 48.1497 117.135 51.5258 114.148 54.8973C113.973 55.0949 113.798 55.292 113.588 55.5299C114.855 57.596 116.16 59.6123 117.718 61.6367C117.822 61.4548 117.866 61.3616 117.924 61.2785C118.323 60.7071 118.726 60.1392 119.125 59.5678C121.107 56.7281 123.088 53.8877 125.069 51.0472C126.593 48.8626 128.134 46.6908 129.63 44.4867C130.203 43.6417 130.681 42.7289 131.183 41.8358C131.479 41.3084 131.602 40.7259 131.603 40.1179C131.604 38.4517 131.607 36.7853 131.606 35.1191C131.605 34.9238 131.579 34.7285 131.565 34.5338C131.44 34.5988 131.381 34.6809 131.367 34.7699C131.28 35.3172 131.207 35.8665 131.123 36.414C130.99 37.2865 130.859 38.1592 130.713 39.0293C130.653 39.3888 130.463 39.6643 129.967 39.8897ZM74.521 106.262C74.5686 106.261 74.6162 106.26 74.6638 106.259C74.6735 106.098 74.6867 105.937 74.6926 105.775C74.7307 104.769 74.7628 103.761 74.8091 102.755C74.8183 102.554 74.8509 102.344 74.9234 102.159C75.4031 100.937 75.9113 99.7268 76.3827 98.5021C77.6712 95.1519 78.9531 91.799 80.2238 88.4416C80.9649 86.4847 81.6754 84.5157 82.4068 82.5549C82.8224 81.4401 83.2574 80.3322 83.6729 79.2171C83.7763 78.9397 83.8384 78.6464 83.9389 78.2916C81.0773 78.4229 78.5678 77.6222 76.2865 75.9586C76.216 76.1273 76.1663 76.2143 76.1424 76.308C75.8459 77.4825 75.5617 78.6601 75.2583 79.8328C74.3482 83.3494 73.6059 86.9115 72.4535 90.363C71.6419 92.7947 70.8492 95.2325 70.0661 97.6741C69.7215 98.7486 69.4454 99.8459 69.0957 100.919C68.803 101.817 68.4907 102.707 68.4103 103.656C68.3615 104.227 68.3528 104.803 68.3014 105.374C68.1383 107.183 68.4365 108.936 68.9076 110.669C68.9473 110.815 69.0323 110.948 69.1557 111.217C69.1682 110.985 69.183 110.904 69.1751 110.825C69.0832 109.885 68.9819 108.945 68.8979 108.004C68.8758 107.757 68.7656 107.373 69.128 107.356C69.4367 107.341 69.3428 107.729 69.3927 107.953C69.6423 109.073 69.8877 110.194 70.145 111.313C70.1717 111.43 70.2666 111.531 70.33 111.64C70.3944 111.49 70.389 111.371 70.3674 111.254C70.2437 110.587 70.0854 109.926 70.0004 109.255C69.9363 108.749 69.95 108.23 69.9643 107.718C69.9671 107.62 70.1322 107.526 70.2226 107.43C70.3165 107.52 70.414 107.607 70.5015 107.704C70.5242 107.729 70.5135 107.783 70.5221 107.823C70.6858 108.565 70.8196 109.315 71.0237 110.045C71.1719 110.574 71.4001 111.083 71.6198 111.589C71.6926 111.756 71.8503 111.886 71.9694 112.033C72.0147 112.013 72.06 111.993 72.1056 111.973C71.8109 110.412 71.4594 108.855 71.6699 107.225C72.0628 107.208 72.1537 107.441 72.2206 107.752C72.4189 108.675 72.626 109.597 72.8609 110.51C72.9699 110.935 73.1389 111.348 73.6244 111.724C73.6071 111.354 73.615 111.116 73.5824 110.884C73.4532 109.968 73.2796 109.059 73.1829 108.14C73.0824 107.182 73.0205 106.216 73.0055 105.253C73.0004 104.901 73.1376 104.526 73.2854 104.197C73.4325 103.869 73.8359 103.875 74.0156 104.19C74.1141 104.362 74.1535 104.573 74.1991 104.772C74.3126 105.267 74.4144 105.765 74.521 106.262ZM93.399 154.67C93.5973 156.146 93.8174 157.503 93.9525 158.868C94.0884 160.24 94.104 161.625 93.9261 162.996C93.7505 164.348 93.5021 165.69 93.2847 167.042C93.3837 167.063 93.442 167.086 93.5008 167.088C95.3314 167.143 97.1617 167.236 98.9923 167.241C104.487 167.257 109.982 167.239 115.477 167.231C115.673 167.231 115.869 167.211 116.111 167.198C116.252 166.468 116.464 165.789 116.5 165.101C116.58 163.561 116.065 162.27 114.699 161.438C114.316 161.205 113.936 160.943 113.519 160.797C112.233 160.349 110.931 159.949 109.633 159.536C109.566 159.514 109.482 159.546 109.419 159.551C109.179 160.031 109.207 160.587 108.856 160.99C108.562 160.752 108.56 160.751 108.637 160.452C108.732 160.085 108.831 159.719 108.938 159.316C108.432 159.176 108.011 159.059 107.549 158.931C107.446 159.408 107.368 159.829 107.257 160.241C107.234 160.325 107.091 160.376 107.003 160.442C106.941 160.35 106.833 160.261 106.827 160.165C106.819 160.029 106.894 159.889 106.918 159.748C106.971 159.433 107.143 159.125 106.988 158.782C106.38 158.507 105.775 158.233 105.139 157.946C105.1 158.124 105.079 158.244 105.047 158.361C104.902 158.895 104.757 159.43 104.606 159.962C104.547 160.173 104.447 160.339 104.115 160.211C104.171 159.988 104.209 159.773 104.279 159.569C104.885 157.807 104.877 156.017 104.521 154.213C104.431 153.755 104.363 153.71 103.91 153.735C103.789 153.742 103.669 153.769 103.547 153.783C102.275 153.929 101.004 154.103 99.7281 154.214C98.3098 154.337 96.8861 154.397 95.4653 154.495C94.7804 154.542 94.0966 154.611 93.399 154.67ZM82.9128 89.8243C83.4111 89.8243 83.7737 89.8379 84.1351 89.8222C88.7171 89.6239 93.2842 89.8976 97.8522 90.2244C99.8815 90.3695 101.924 90.3759 103.949 90.1444C104.686 90.0605 105.401 89.7782 106.122 89.5722C106.557 89.4474 106.778 89.1376 106.836 88.6812C106.878 88.3562 106.957 88.0346 107.039 87.7169C107.585 85.6017 107.863 83.4449 108.083 81.2741C108.241 79.7196 108.18 78.1571 108.382 76.6013C108.587 75.0246 108.886 73.4832 109.37 71.9724C109.509 71.5396 109.751 71.2126 110.101 70.9412C110.738 70.4462 111.376 69.9512 111.996 69.4345C113.126 68.4929 114.258 67.552 115.362 66.5784C116.125 65.9058 116.841 65.1793 117.537 64.5167C116.421 63.2169 115.337 61.992 114.296 60.7302C113.226 59.4327 112.214 58.0902 111.673 56.4562C111.657 56.4083 111.59 56.378 111.553 56.3448C110.95 56.7135 110.391 57.1431 109.766 57.4218C107.215 58.5605 104.614 59.5498 101.796 59.7803C101.27 59.8233 101.044 60.0736 100.97 60.589C100.621 63.0147 99.2257 63.5959 97.7204 63.4866C97.6595 63.4819 97.5982 63.484 97.5374 63.4799C96.2797 63.3947 95.1288 63.0515 94.2803 62.0362C93.8113 61.4748 93.3733 60.8867 92.8849 60.264C92.3795 60.369 91.8239 60.475 91.2727 60.6006C90.3219 60.8175 89.3787 61.0706 88.4236 61.2646C86.7513 61.6042 85.0732 61.9148 83.3961 62.2295C81.9057 62.5094 80.9025 63.4307 80.3217 64.7789C79.2994 67.1524 78.3616 69.5629 77.3709 71.9505C77.1431 72.4998 77.2477 72.9233 77.6361 73.3512C78.3519 74.1395 79.2233 74.6734 80.1652 75.1412C81.6851 75.8953 83.2446 76.1585 84.9495 75.7321C84.9884 75.5384 85.0404 75.3215 85.075 75.1015C85.1607 74.5535 85.2251 74.0019 85.3254 73.4567C85.3743 73.1909 85.4951 72.954 85.8759 73.0926C85.8044 73.4796 85.7395 73.8383 85.6715 74.1967C85.4753 75.2245 85.3633 76.2784 85.0638 77.2746C84.3942 79.5014 84.0336 81.7581 84.1623 84.0832C84.2311 85.3207 84.0005 86.4896 83.5691 87.6409C83.3192 88.3081 83.1545 89.0082 82.9128 89.8243ZM105.889 148.711C105.903 148.457 105.922 148.255 105.925 148.053C106.006 142.253 106.086 136.452 106.167 130.651C106.252 124.5 106.334 118.35 106.424 112.2C106.444 110.781 106.502 109.363 106.522 107.945C106.536 106.98 106.5 106.013 106.511 105.047C106.547 102.065 106.593 99.082 106.641 96.0995C106.646 95.8209 106.579 95.6611 106.282 95.5577C104.424 94.9127 102.907 93.7706 101.69 92.2217C101.324 91.7565 100.999 91.2589 100.625 90.7343C100.456 90.7343 100.254 90.7423 100.053 90.733C98.2645 90.6504 96.4728 90.6111 94.6891 90.4685C92.2729 90.2756 89.8575 90.1732 87.4341 90.2015C87.0142 90.2061 86.8078 90.3587 86.5849 90.7173C85.6099 92.285 84.3845 93.5953 82.6547 94.3523C82.2307 96.0113 81.806 97.7032 81.3649 99.391C80.7152 101.877 79.9777 104.341 78.9979 106.712C78.0038 109.117 76.9069 111.484 75.7762 113.828C74.7964 115.859 73.7084 117.836 72.6635 119.835C71.6376 121.797 70.6054 123.756 69.5769 125.716C68.9483 126.915 68.3467 128.128 67.6891 129.31C66.6324 131.208 65.5187 133.075 64.4697 134.977C63.7528 136.277 63.0173 137.572 62.4869 139.049C62.9975 139.482 63.5016 139.962 64.0567 140.371C65.7144 141.594 67.3906 142.791 69.0618 143.995C70.3035 144.889 71.5472 145.781 72.7945 146.667C72.9696 146.792 73.1697 146.881 73.3867 147.002C73.4539 146.902 73.4901 146.852 73.5221 146.8C74.5635 145.108 75.6319 143.431 76.6392 141.718C77.9789 139.44 79.2748 137.134 80.5824 134.836C81.3224 133.536 82.0633 132.235 82.7769 130.92C84.0478 128.578 85.3137 126.233 86.5528 123.873C87.594 121.889 88.3094 119.764 89.1115 117.677C90.4881 114.095 91.8809 110.52 93.2858 106.95C93.6609 105.996 94.0727 105.054 94.5231 104.134C95.2668 102.615 96.5219 101.673 98.0789 101.138C98.6134 100.955 99.1878 100.887 99.7469 100.781C99.8451 100.763 99.9576 100.822 100.157 100.866C100.012 101.006 99.9474 101.116 99.8566 101.147C99.511 101.266 99.1618 101.386 98.8045 101.457C96.9846 101.82 95.6454 102.832 94.8468 104.517C94.3121 105.647 93.8566 106.815 93.3723 107.968C93.3191 108.096 93.2845 108.244 93.287 108.382C93.3059 109.469 93.369 110.556 93.3552 111.642C93.3313 113.575 93.255 115.507 93.216 117.44C93.1921 118.632 93.2272 119.826 93.1812 121.018C93.1374 122.146 92.9697 123.271 92.9498 124.399C92.9132 126.475 92.9463 128.552 92.9475 130.629C92.9478 131.205 93.0091 131.792 92.9162 132.354C92.7905 133.115 92.8396 133.868 92.8345 134.626C92.8116 138.123 92.7752 141.619 92.7475 145.116C92.7378 146.33 92.7401 147.543 92.7373 148.757C92.7366 149.016 92.7371 149.274 92.7371 149.602C97.1577 149.375 101.511 149.132 105.889 148.711ZM61.3173 147.264C61.5662 147.391 61.6837 147.239 61.8026 147.049C62.0197 146.701 62.2393 146.354 62.4808 146.023C62.732 145.679 63.0102 145.355 63.3067 144.985C62.8033 144.614 62.2704 144.214 61.7293 143.825C60.8681 143.205 59.9959 142.601 59.1401 141.975C58.655 141.62 58.6499 141.434 59.0556 140.985C59.7819 140.181 60.5075 139.377 61.2396 138.578C61.6216 138.162 61.6328 138.167 62.1683 138.398C62.6946 137.379 63.1954 136.345 63.752 135.344C64.8764 133.318 66.0405 131.316 67.1689 129.293C67.7675 128.219 68.3291 127.125 68.9012 126.036C70.16 123.641 71.4236 121.249 72.668 118.846C73.9222 116.425 75.2077 114.018 76.3844 111.558C77.7559 108.69 78.9681 105.752 79.928 102.709C81.0229 99.2395 81.8111 95.6902 82.7104 92.1695C82.8624 91.5754 82.9525 90.9651 83.0711 90.362C82.4562 90.1351 82.3928 90.0445 82.5712 89.3738C82.7608 88.6603 82.9655 87.9482 83.2136 87.254C83.5783 86.2323 83.716 85.1916 83.6984 84.1063C83.6801 82.9982 83.7564 81.8883 83.79 80.7794C83.7918 80.7261 83.7786 80.6726 83.7562 80.4817C83.5584 80.9286 83.3943 81.2533 83.2675 81.5926C82.4414 83.803 81.6314 86.0195 80.801 88.2281C79.8626 90.7245 78.9192 93.2192 77.9577 95.7066C77.1367 97.8311 76.2783 99.9406 75.4588 102.065C75.3285 102.403 75.2779 102.784 75.2575 103.149C75.2018 104.155 75.183 105.163 75.1468 106.17C75.1382 106.417 75.1547 106.672 75.0949 106.906C75.056 107.058 74.9252 107.246 74.7895 107.301C74.576 107.386 74.4004 107.229 74.3093 107.024C74.2263 106.838 74.1512 106.644 74.1019 106.447C73.9973 106.029 73.9135 105.606 73.8171 105.185C73.7812 105.029 73.7339 104.875 73.6736 104.653C73.4425 104.944 73.4476 105.223 73.444 105.498C73.4267 106.8 73.6199 108.077 73.8578 109.353C73.9963 110.098 74.0586 110.859 74.107 111.616C74.1192 111.805 73.9909 112.099 73.843 112.173C73.6952 112.247 73.4023 112.161 73.245 112.045C73.0399 111.894 72.8966 111.65 72.7449 111.434C72.6416 111.287 72.5685 111.118 72.3998 110.977C72.4288 111.198 72.4555 111.42 72.4873 111.64C72.508 111.782 72.5718 111.928 72.5522 112.063C72.5271 112.233 72.4774 112.484 72.3647 112.536C72.2133 112.605 71.9521 112.577 71.8091 112.481C71.5976 112.34 71.4363 112.113 71.2767 111.904C71.1574 111.748 71.0746 111.563 70.871 111.418C70.8985 111.606 70.925 111.795 70.9538 111.983C70.9856 112.194 71.01 112.45 70.7817 112.514C70.6221 112.559 70.3638 112.488 70.2417 112.371C70.0269 112.166 69.8828 111.886 69.7065 111.633C69.1379 111.922 68.8178 111.804 68.6009 111.146C68.0563 109.493 67.8362 107.787 67.8191 106.049C67.8059 104.687 67.884 103.337 68.2197 102.012C68.2551 101.873 68.2744 101.729 68.3179 101.593C69.0593 99.2649 69.7426 96.9162 70.5593 94.6157C72.2379 89.8876 73.5321 85.0514 74.6999 80.176C75.03 78.7982 75.3733 77.4236 75.734 76.0535C75.8248 75.7082 75.7749 75.4571 75.4968 75.242C75.4008 75.1679 75.3257 75.0668 75.2395 74.9798C75.0432 74.7833 74.9878 74.5635 75.129 74.3111C75.4492 73.7387 75.7482 73.1521 76.1014 72.6017C76.2282 72.4041 76.487 72.2935 76.755 72.2135C77.094 71.3794 77.4327 70.5447 77.7722 69.7109C78.4301 68.0953 79.0948 66.4829 79.7435 64.8638C80.1128 63.9422 80.719 63.2105 81.4616 62.5822C81.792 62.303 82.159 62.1075 82.5959 62.0203C84.7881 61.5808 86.9786 61.1326 89.1652 60.6646C90.3367 60.4135 91.4977 60.1143 92.6645 59.8408C92.8574 59.7955 93.0549 59.7695 93.1809 59.7469C93.5224 60.2692 93.822 60.7233 94.1182 61.1795C94.9698 62.4911 96.2407 62.964 97.7191 63.0191C97.9219 63.0268 98.1275 63.0278 98.3289 63.0052C99.2313 62.9041 99.8963 62.4631 100.229 61.5865C100.396 61.1458 100.569 60.7019 100.674 60.244C100.789 59.742 101.086 59.5071 101.56 59.4641C103.195 59.3164 104.745 58.8034 106.296 58.3182C107.928 57.8077 109.541 57.2278 110.932 56.1742C111.164 55.9985 111.492 55.8745 111.376 55.4692C111.371 55.4528 111.384 55.4296 111.392 55.4113C111.47 55.2418 112.589 54.5301 112.763 54.5872C112.994 54.6631 113.203 54.8101 113.483 54.9593C113.99 54.4095 114.552 53.8221 115.089 53.2133C117.582 50.3893 120.065 47.5571 122.558 44.7331C123.818 43.306 125.063 41.8644 126.368 40.4802C127.184 39.6147 127.546 38.5976 127.712 37.455C127.976 35.6457 128.246 33.8368 128.56 32.036C128.698 31.25 128.945 30.4828 129.159 29.7122C129.213 29.5187 129.32 29.3368 129.424 29.1629C129.529 28.989 129.637 28.8109 129.903 28.8796C130.13 28.9383 130.253 29.0677 130.287 29.2974C130.299 29.378 130.321 29.4572 130.338 29.5321C130.511 29.573 130.719 29.5648 130.831 29.6654C130.927 29.7523 130.956 29.9656 130.946 30.1179C130.905 30.6899 130.849 31.2618 130.773 31.8302C130.626 32.9291 130.411 34.0215 130.322 35.1247C130.251 35.9977 130.324 36.8825 130.333 37.7622C130.383 37.7658 130.432 37.7697 130.482 37.7733C130.535 37.3621 130.581 36.9497 130.643 36.5398C130.762 35.7492 130.882 34.9585 131.022 34.1715C131.053 33.9965 131.143 33.8177 131.249 33.6731C131.457 33.3886 131.781 33.421 131.925 33.7418C131.998 33.9052 132.035 34.0989 132.036 34.279C132.048 36.3561 132.07 38.4337 132.044 40.5103C132.032 41.4517 131.506 42.2189 131.042 42.9944C130.822 43.3631 130.617 43.7416 130.385 44.102C130.075 44.5831 129.751 45.0545 129.424 45.5243C127.519 48.268 125.612 51.011 123.703 53.7526C121.923 56.309 120.14 58.8639 118.36 61.4203C118.243 61.5878 118.135 61.7617 117.989 61.9845C118.232 62.321 118.478 62.6671 118.729 63.0095C119.121 63.5432 119.14 63.6206 118.67 64.1048C118.147 64.6441 117.594 65.1561 117.032 65.6545C115.503 67.0104 113.96 68.3501 112.428 69.7026C112.109 69.9843 111.821 70.3021 111.505 70.5874C111.372 70.7073 111.208 70.7945 111.049 70.8823C110.37 71.2607 109.884 71.7432 109.659 72.5637C109.27 73.9744 108.925 75.3889 108.796 76.8447C108.695 77.9698 108.689 79.1029 108.623 80.2316C108.471 82.8232 108.121 85.3861 107.464 87.9C107.325 88.4326 107.168 88.9608 107.024 89.4919C107.009 89.5454 107.001 89.6233 107.029 89.6627C107.289 90.0394 107.163 90.4631 107.158 90.8609C107.093 96.1067 107.013 101.352 106.94 106.597C106.924 107.746 106.837 108.903 106.937 110.043C107.083 111.714 106.876 113.369 106.865 115.03C106.834 120.028 106.712 125.024 106.637 130.02C106.548 135.883 106.47 141.746 106.388 147.608C106.384 147.935 106.388 148.262 106.388 148.635C106.571 148.651 106.724 148.665 106.878 148.681C107.228 148.715 107.405 148.871 107.404 149.219C107.401 149.98 107.38 150.741 107.346 151.501C107.331 151.847 107.193 151.956 106.768 151.99C106.058 152.045 105.346 152.079 104.636 152.13C104.273 152.156 103.911 152.201 103.521 152.24C103.485 152.443 103.476 152.628 103.414 152.793C103.381 152.883 103.258 152.939 103.175 153.01C103.114 152.936 103.021 152.871 103 152.787C102.965 152.652 102.978 152.505 102.969 152.334C99.8589 152.458 96.7637 152.582 93.6354 152.707V154.118C93.9151 154.118 94.1521 154.134 94.3859 154.116C96.9612 153.912 99.5362 153.71 102.11 153.492C102.758 153.438 103.4 153.318 104.048 153.253C104.759 153.181 104.858 153.252 104.945 153.986C105.079 155.105 105.178 156.229 105.304 157.468C105.734 157.688 106.268 157.96 106.794 158.228C106.856 158.141 106.897 158.11 106.895 158.082C106.883 157.892 106.727 157.641 107.022 157.564C107.323 157.485 107.336 157.795 107.37 157.963C107.451 158.371 107.688 158.541 108.07 158.606C108.346 158.653 108.612 158.758 108.999 158.871C108.915 158.393 108.848 158.014 108.778 157.613C109.276 157.709 109.297 157.752 109.509 159.019C109.961 159.152 110.445 159.293 110.927 159.437C112.194 159.815 113.444 160.216 114.625 160.847C116.86 162.041 117.328 164.47 116.774 166.395C116.7 166.651 116.614 166.907 116.574 167.169C116.545 167.368 116.556 167.581 116.594 167.78C116.762 168.667 116.037 169.415 115.162 169.218C114.873 169.153 114.621 169.154 114.334 169.244C113.676 169.449 113.046 169.361 112.489 168.916C112.41 168.853 112.324 168.801 112.216 168.727C111.508 169.154 110.738 169.32 109.934 169.146C109.502 169.053 109.096 168.844 108.671 168.712C108.513 168.663 108.297 168.619 108.168 168.688C107.225 169.19 106.326 169.068 105.436 168.559C105.384 168.529 105.323 168.516 105.23 168.483C105.114 168.56 104.977 168.643 104.848 168.738C104.342 169.109 103.799 169.149 103.229 168.925C103.023 168.844 102.849 168.745 102.605 168.888C101.841 169.335 101.087 169.241 100.362 168.766C100.294 168.722 100.221 168.686 100.148 168.649C100.131 168.64 100.109 168.642 100.022 168.629C99.2985 169.208 98.4892 169.115 97.6611 168.726C97.528 168.664 97.3134 168.614 97.2093 168.679C96.3517 169.211 95.5365 169.02 94.7132 168.572C94.6651 168.591 94.6015 168.601 94.557 168.635C94.1755 168.932 93.7718 169.083 93.3224 168.798C92.8254 168.483 92.6045 167.913 92.7149 167.31C92.9447 166.058 93.2176 164.811 93.386 163.55C93.7321 160.96 93.6011 158.38 93.0758 155.821C93.0101 155.499 92.9371 155.178 92.8966 154.852C92.8681 154.623 92.7656 154.355 93.0967 154.22C93.1486 154.199 93.1697 154.045 93.1674 153.953C93.1583 153.564 93.1346 153.175 93.113 152.715C92.8725 152.699 92.6589 152.683 92.4449 152.672C92.1202 152.656 91.7926 152.664 91.471 152.626C91.0966 152.58 90.9477 152.44 90.9569 152.069C90.9729 151.433 91.0118 150.794 91.1055 150.166C91.132 149.99 91.3666 149.825 91.5381 149.701C91.6417 149.626 91.8082 149.64 91.9973 149.606C92.0082 149.399 92.025 149.199 92.0283 148.998C92.1242 143.445 92.2212 137.891 92.3128 132.337C92.3558 129.725 92.3787 127.113 92.4276 124.501C92.5047 120.347 92.5981 116.193 92.6798 112.038C92.6936 111.342 92.6818 110.646 92.6818 109.925C92.45 109.976 92.4357 110.214 92.3693 110.384C91.8687 111.664 91.3776 112.948 90.8887 114.233C89.9323 116.745 89.054 119.291 88.0012 121.762C87.1422 123.777 86.097 125.713 85.0948 127.663C84.411 128.994 83.6707 130.296 82.9352 131.599C81.0303 134.973 79.134 138.352 77.1935 141.704C76.2394 143.354 75.1944 144.949 74.1917 146.569C73.9935 146.889 73.8469 147.208 74.0339 147.606C74.0899 147.724 74.0548 147.953 73.9721 148.061C73.4262 148.774 72.8594 149.47 72.2924 150.167C72.0196 150.502 71.7099 150.462 71.3701 150.254C70.9385 149.989 70.4918 149.749 70.0037 149.47C69.8793 149.64 69.7584 149.796 69.6464 149.959C69.3092 150.448 68.9756 150.939 68.6399 151.429C68.4462 151.713 68.2747 151.972 68.3062 152.371C68.3299 152.671 68.1334 152.989 68.0159 153.358C68.1742 153.467 68.3355 153.58 68.4986 153.69C68.6849 153.815 68.8827 153.926 69.0545 154.068C69.1145 154.118 69.1603 154.296 69.129 154.326C69.0552 154.397 68.9257 154.454 68.8285 154.441C68.717 154.426 68.6175 154.327 68.5103 154.27C68.3892 154.205 68.2653 154.144 68.1289 154.075C68.1029 154.681 68.1624 154.793 68.5976 154.95C68.846 155.04 69.1117 155.091 69.3458 155.208C69.4601 155.265 69.5189 155.434 69.6029 155.553C69.481 155.587 69.3598 155.644 69.2367 155.651C69.1262 155.656 69.0132 155.606 68.901 155.581C69.1982 156.239 69.4174 156.905 69.7785 157.479C70.2124 158.168 70.7397 158.804 71.277 159.417C71.9409 160.175 72.5566 160.954 73.0332 161.852C73.5804 162.882 73.6753 163.994 73.5046 165.092C73.3307 166.212 72.7917 166.453 71.6956 166.533C70.726 166.603 69.7589 166.711 68.7893 166.777C68.3666 166.805 67.9398 166.77 67.5148 166.764C67.3343 166.761 67.1536 166.761 66.9737 166.75C66.7538 166.737 66.5319 166.73 66.3153 166.692C66.0565 166.647 65.8053 166.537 65.5465 166.519C64.9868 166.479 64.583 166.189 64.2916 165.746C63.7818 164.97 63.0993 164.362 62.4544 163.715C62.3437 163.604 62.2609 163.46 62.181 163.322C61.9675 162.954 61.7741 162.573 61.5506 162.211C61.3577 161.898 61.1188 161.614 60.9284 161.3C60.7373 160.984 60.4749 160.774 60.1397 160.653C59.7799 160.523 59.5271 160.278 59.2928 159.979C59.096 159.728 58.8308 159.532 58.5942 159.313C58.5649 159.286 58.5122 159.278 58.4931 159.247C58.2923 158.921 58.1351 158.557 57.8879 158.273C57.6408 157.989 57.2105 157.867 57.1155 157.441C57.0361 157.086 56.8053 156.887 56.5144 156.71C55.8988 156.334 55.8479 156.211 56.136 155.518C56.9005 153.679 57.7625 151.895 58.8917 150.243C59.6065 149.197 60.1988 148.065 60.8645 146.94C61.0938 146.899 61.2152 147.086 61.3336 147.282C61.1814 147.467 61.003 147.635 60.8775 147.836C60.1858 148.949 59.4798 150.054 58.8311 151.192C58.1236 152.433 57.4734 153.708 56.7824 154.997C57.6329 155.86 58.4522 156.658 59.2327 157.492C60.3077 158.64 61.358 159.812 62.4068 160.985C62.5814 161.181 62.704 161.426 62.8356 161.657C63.2209 162.334 63.6133 163.007 63.9757 163.696C64.346 164.4 64.9306 164.792 65.6689 164.996C66.6161 165.258 67.5771 165.429 68.5602 165.35C69.6334 165.264 70.7041 165.142 71.7745 165.024C72.056 164.993 72.3334 164.919 72.6108 164.859C72.8401 164.808 72.9605 164.658 72.9597 164.42C72.9554 163.467 72.8963 162.515 72.3789 161.685C71.5836 160.411 70.5817 159.307 69.4993 158.275C69.4011 158.181 69.2481 158.066 69.2479 157.96C69.2441 157.302 68.8643 156.794 68.5834 156.259C68.3793 155.871 68.1085 155.426 67.7489 155.237C67.2025 154.95 66.5533 154.885 65.9186 155.158C65.8972 155.588 65.8768 155.994 65.8554 156.423C65.744 156.416 65.6445 156.441 65.5946 156.402C65.223 156.11 65.578 155.649 65.348 155.297C65.2589 155.303 65.1599 155.311 65.0609 155.317C64.8828 155.328 64.6522 155.388 64.6321 155.131C64.6255 155.049 64.8367 154.933 64.9637 154.861C65.0973 154.785 65.2497 154.743 65.4302 154.672C65.3711 154.341 65.3195 154.05 65.2701 153.772C64.7909 153.776 64.3799 154.001 63.9337 153.769C64.1877 153.151 64.8825 153.577 65.1772 153.162C65.15 152.265 65.0243 151.944 64.5079 151.323C64.4351 151.236 64.3878 151.036 64.4366 150.955C64.5517 150.764 64.7296 150.86 64.8479 150.98C65.1703 151.305 65.3968 151.691 65.4994 152.145C65.5707 152.46 65.6386 152.777 65.7152 153.124H67.5532C67.6575 152.885 67.7746 152.615 67.8868 152.358C67.4633 152.075 67.0981 151.839 66.7408 151.591C65.5844 150.79 64.4219 149.997 63.2792 149.176C62.5343 148.64 61.8672 148.011 61.3173 147.264Z" fill="black"/>
<path fill-rule="evenodd" clip-rule="evenodd" d="M104.062 156.37C103.951 156.261 103.815 156.187 103.812 156.109C103.809 156.023 103.953 155.85 103.993 155.861C104.113 155.894 104.213 155.999 104.321 156.075C104.247 156.159 104.173 156.243 104.062 156.37Z" fill="black"/>
<path fill-rule="evenodd" clip-rule="evenodd" d="M103.812 157.68C103.925 157.541 104.023 157.373 104.056 157.389C104.161 157.437 104.265 157.54 104.319 157.653C104.338 157.693 104.207 157.902 104.154 157.897C104.053 157.887 103.959 157.78 103.812 157.68Z" fill="black"/>
<path fill-rule="evenodd" clip-rule="evenodd" d="M85.6777 90.7097L85.2339 90.6011C85.2563 90.4664 85.2773 90.3329 85.2977 90.2007L85.7429 90.3018C85.7221 90.4365 85.7006 90.5723 85.6777 90.7097Z" fill="black"/>
<path fill-rule="evenodd" clip-rule="evenodd" d="M85.3163 92.3314L84.8222 92.2102C84.8817 91.9609 84.9387 91.715 84.9921 91.4731L85.4881 91.5853C85.4342 91.8302 85.3768 92.079 85.3163 92.3314ZM84.9364 93.8132L84.4461 93.6769C84.513 93.4302 84.5776 93.186 84.6396 92.9447L85.1317 93.0744C85.0691 93.3177 85.004 93.5642 84.9364 93.8132ZM84.5176 95.282L84.0304 95.1338C84.1031 94.8889 84.1741 94.6465 84.2425 94.406L84.7312 94.5487C84.6623 94.7908 84.5908 95.0352 84.5176 95.282ZM84.0678 96.7412L83.5841 96.5827C83.6617 96.3398 83.737 96.099 83.8107 95.8595L84.2964 96.0128C84.2221 96.2536 84.1458 96.4965 84.0678 96.7412ZM83.5938 98.1903L83.1119 98.0247C83.1931 97.7836 83.2729 97.5436 83.351 97.3048L83.8338 97.4667C83.755 97.7069 83.6749 97.948 83.5938 98.1903ZM83.0977 99.6321L82.6192 99.4592C82.7036 99.2197 82.7865 98.9809 82.8681 98.7432L83.3484 98.912C83.266 99.1512 83.1826 99.391 83.0977 99.6321ZM82.5846 101.067L82.1073 100.888C82.1945 100.65 82.2805 100.412 82.3654 100.175L82.8434 100.35C82.758 100.589 82.6718 100.827 82.5846 101.067ZM82.0562 102.494L81.581 102.31C81.6702 102.074 81.7584 101.838 81.8459 101.601L82.3222 101.782C82.2342 102.019 82.1454 102.256 82.0562 102.494ZM81.5136 103.915L81.0404 103.727C81.1316 103.492 81.2222 103.256 81.3124 103.019L81.7867 103.205C81.6966 103.442 81.6054 103.678 81.5136 103.915ZM80.9585 105.335L80.4868 105.143C80.5801 104.908 80.6729 104.672 80.7655 104.436L81.2382 104.625C81.1454 104.862 81.0523 105.099 80.9585 105.335ZM80.3925 106.75L79.9216 106.555C80.0164 106.321 80.1107 106.086 80.2051 105.851L80.6765 106.044C80.5822 106.28 80.4873 106.515 80.3925 106.75ZM79.817 108.159L79.3477 107.961C79.444 107.728 79.5399 107.494 79.636 107.258L80.1059 107.455C80.0098 107.69 79.9134 107.925 79.817 108.159ZM79.2332 109.563L78.7654 109.362C78.8628 109.13 78.9604 108.897 79.0578 108.662L79.5264 108.861C79.4288 109.097 79.3311 109.331 79.2332 109.563ZM78.641 110.966L78.1742 110.762C78.2728 110.531 78.3715 110.298 78.4704 110.063L78.9383 110.265C78.8388 110.5 78.7402 110.734 78.641 110.966ZM78.0417 112.364L77.5759 112.158C77.6755 111.927 77.7755 111.695 77.8759 111.46L78.3422 111.665C78.2418 111.9 78.1416 112.133 78.0417 112.364ZM77.4355 113.759L76.9707 113.551L77.274 112.855L77.7394 113.062L77.4355 113.759ZM76.824 115.152L76.3594 114.942L76.6656 114.247L77.1306 114.456L76.824 115.152ZM76.2066 116.542L75.7428 116.331L76.0517 115.636L76.5158 115.847L76.2066 116.542ZM75.5862 117.927L75.1219 117.717L75.4328 117.024L75.8961 117.237L75.5862 117.927ZM74.9362 119.316L74.4803 119.088C74.5978 118.847 74.7071 118.619 74.8073 118.405L75.2668 118.626C75.1656 118.841 75.0552 119.072 74.9362 119.316ZM74.2538 120.681L73.8019 120.445C73.9212 120.211 74.0353 119.985 74.1439 119.767L74.598 120C74.4882 120.219 74.3735 120.446 74.2538 120.681ZM73.555 122.034L73.1052 121.793C73.225 121.564 73.3417 121.339 73.4553 121.119L73.9059 121.358C73.7922 121.578 73.675 121.804 73.555 122.034ZM72.8451 123.38L72.397 123.136C72.5178 122.909 72.6363 122.686 72.7523 122.465L73.2011 122.707C73.0846 122.928 72.9659 123.153 72.8451 123.38ZM72.1278 124.722L71.6813 124.476L72.0398 123.807L72.4873 124.052L72.1278 124.722ZM71.4061 126.06L70.9601 125.813L71.3212 125.145L71.7677 125.391L71.4061 126.06ZM70.6799 127.395L70.2344 127.146L70.5973 126.48L71.0428 126.728L70.6799 127.395ZM69.9499 128.729L69.5049 128.48L69.8708 127.812L70.3158 128.061L69.9499 128.729ZM69.2178 130.061L68.7734 129.811L69.1398 129.145L69.5842 129.395L69.2178 130.061ZM68.484 131.392L68.04 131.142L68.4069 130.476L68.8509 130.727L68.484 131.392ZM67.7484 132.722L67.3044 132.471L67.6721 131.806L68.1161 132.057L67.7484 132.722ZM67.0117 134.052L66.5683 133.801L66.9365 133.136L67.3799 133.388L67.0117 134.052ZM66.2759 135.382L65.8319 135.131L66.2001 134.466L66.6436 134.717L66.2759 135.382ZM65.5408 136.713L65.0965 136.462L65.464 135.797L65.9079 136.047L65.5408 136.713ZM64.8105 138.046L64.365 137.798L64.7299 137.13L65.1749 137.379L64.8105 138.046Z" fill="black"/>
<path fill-rule="evenodd" clip-rule="evenodd" d="M64.2215 138.809L63.8564 138.6C63.8981 138.514 63.9467 138.413 64.0024 138.3L64.3654 138.514C64.3108 138.625 64.2624 138.724 64.2215 138.809Z" fill="black"/>
<path fill-rule="evenodd" clip-rule="evenodd" d="M99.4962 43.4313C99.2613 43.2654 98.959 43.3598 98.5558 43.3954C99.1498 43.0926 99.7341 43.1984 100.077 43.9774C99.8278 43.7089 99.7059 43.5794 99.4962 43.4313ZM95.0089 43.9894C94.9891 43.8945 94.9634 43.7929 94.9552 43.7064C94.9102 43.2386 94.9947 42.7156 95.2866 42.2878C95.3924 42.1326 95.6037 41.8962 95.7882 41.8402C96.2091 41.7117 96.4005 41.6307 96.8782 41.8875C95.6579 42.0825 95.2952 42.9732 95.0089 43.9894ZM93.2163 48.8381C93.0674 48.7538 92.3377 48.2629 92.044 47.8353C91.931 47.6707 91.8509 47.262 92.3021 46.5667C92.3314 46.6952 92.3614 46.7616 92.3594 46.8273C92.3301 47.814 92.8526 48.4227 93.7153 48.7846C93.997 48.9029 94.2518 49.0259 94.4315 49.4333C93.9098 49.2974 93.5756 49.0411 93.2163 48.8381ZM93.3552 44.9929C93.585 44.3905 93.8011 44.2398 94.2981 44.3167C93.952 44.4569 93.6698 45.0168 93.8309 45.4123C93.6833 45.2899 93.5756 45.2227 93.2717 45.4497C93.3015 45.2779 93.3043 45.1262 93.3552 44.9929ZM102.574 45.6607C102.682 45.3504 102.796 45.0685 102.878 44.7776C103.012 44.3004 102.916 43.8433 102.669 43.4277C102.254 42.7294 101.091 42.8493 100.721 43.3389C100.528 43.5952 100.458 43.8403 100.47 44.0864C100.255 43.7209 100.08 43.4893 99.7532 43.2386C99.346 42.9266 98.7452 43.0908 98.3319 43.2862C98.3769 43.0643 98.2418 42.7037 98.099 42.5176C97.9201 42.2848 97.5885 41.9445 97.0296 41.7384C96.3198 41.4765 95.7958 41.5427 95.2782 42.1234C94.9998 42.4357 94.8285 42.8342 94.773 43.1895C94.7274 43.4822 94.7722 43.7914 94.7119 44.0935C94.5977 44.1032 94.519 44.1215 94.4434 44.1144C93.8054 44.0533 93.6056 44.1505 93.3277 44.6943C93.2358 44.8735 93.1514 45.0624 93.104 45.2565C92.988 45.7309 92.666 46.0755 92.327 46.3677C91.8122 46.8115 91.7857 47.5444 91.9188 47.8532C91.9186 47.8532 92.1873 48.4683 93.5619 49.2122C93.7573 49.318 93.9474 49.4415 94.1531 49.527C94.4763 49.6616 94.4472 50.0019 94.1439 50.1912C94.0482 50.2508 93.9136 50.2502 93.7965 50.2729C93.2112 50.3854 92.9195 50.7445 92.9335 51.3408C92.9465 51.8963 93.2173 52.3038 93.6698 52.6018C93.8018 52.6886 93.9433 52.7608 94.1126 52.8581C94.024 53.7175 93.9693 54.5701 93.8415 55.4112C93.6644 56.5755 93.4305 57.7309 93.2254 58.8911C93.1939 59.0695 93.1676 59.2538 93.1783 59.4332C93.1829 59.5108 93.2789 59.6297 93.3501 59.6434C93.4232 59.6572 93.5486 59.5857 93.5929 59.5149C93.654 59.4172 93.6667 59.2866 93.6896 59.168C93.8932 58.1109 94.1235 57.0575 94.2884 55.9942C94.4376 55.031 94.5274 54.0578 94.6195 53.0869C94.673 52.5237 94.643 52.4944 94.1289 52.2646C93.767 52.1027 93.5316 51.8482 93.4649 51.4545C93.4076 51.1188 93.5532 50.6485 94.0026 50.7613C94.3696 50.8531 94.5101 51.3525 94.5999 51.6973C94.6501 51.6869 94.7002 51.6764 94.7504 51.666C94.7974 51.4853 94.8611 51.3072 94.8888 51.1239C94.971 50.5813 95.0046 50.0291 95.1204 49.4944C95.3054 48.6385 95.8559 48.0389 96.6771 47.7931C97.2869 47.6101 97.9463 47.592 98.5841 47.5037C98.6215 47.4984 98.6653 47.5147 98.7019 47.5307C99.2547 47.7715 99.7756 47.6373 100.272 47.3808C100.737 47.6498 100.924 48.0196 100.919 48.5461C100.903 50.0594 100.718 51.5507 100.34 53.0113C100.174 53.6546 99.8767 54.2644 99.6323 54.8874C99.4863 55.2605 99.1781 55.4076 98.8057 55.3822C98.5469 55.3646 98.2708 55.3188 98.0415 55.2058C97.5534 54.9648 97.0958 54.6627 96.614 54.4077C96.5135 54.3548 96.3626 54.3975 96.2348 54.396C96.2521 54.5212 96.2229 54.7019 96.2946 54.7619C96.5725 54.9953 96.865 55.2236 97.1846 55.3921C97.8539 55.7456 98.5635 55.9805 99.3771 55.8527C99.6911 56.9646 99.9871 58.019 100.287 59.0721C100.343 59.2665 100.399 59.4643 100.488 59.6442C100.52 59.7104 100.661 59.7773 100.728 59.7577C100.795 59.7379 100.87 59.6134 100.873 59.5325C100.878 59.3945 100.839 59.2518 100.801 59.1159C100.524 58.1175 100.248 57.1183 99.9573 56.1238C99.8624 55.7998 99.8665 55.5351 100.033 55.2071C100.352 54.5764 100.654 53.9152 100.814 53.2319C101.064 52.1671 101.2 51.0746 101.363 49.9907C101.427 49.5715 101.434 49.144 101.466 48.7207C101.558 48.6698 101.623 48.6212 101.697 48.5937C102.239 48.3922 102.602 48.0593 102.594 47.4297C102.593 47.3363 102.637 47.2268 102.695 47.1507C103.105 46.6107 103.097 46.1076 102.574 45.6607Z" fill="black"/>
<path fill-rule="evenodd" clip-rule="evenodd" d="M98.881 50.105L99.2699 51.6434L98.7026 51.7002L98.881 50.105Z" fill="black"/>
<path fill-rule="evenodd" clip-rule="evenodd" d="M98.8819 50.1199L98.7058 51.697L99.2665 51.641L98.8819 50.1199ZM98.7025 51.7028C98.702 51.7028 98.7012 51.7026 98.7007 51.7021C98.7002 51.7013 98.7 51.7005 98.7 51.6998L98.8781 50.1046C98.8784 50.1033 98.8794 50.1023 98.8806 50.1023C98.8819 50.1023 98.8832 50.1031 98.8834 50.1041L99.2723 51.6425C99.2726 51.6433 99.2723 51.6443 99.2721 51.6448C99.2715 51.6456 99.2708 51.6458 99.27 51.6461L98.703 51.7028H98.7025Z" fill="black"/>
<path fill-rule="evenodd" clip-rule="evenodd" d="M98.4346 48.9773C98.4346 48.9773 98.458 49.4484 98.3537 49.5471C97.9159 49.4988 96.9305 49.6614 96.4363 49.8795C96.6307 49.4283 98.4346 48.9773 98.4346 48.9773Z" fill="black"/>
<path fill-rule="evenodd" clip-rule="evenodd" d="M98.4301 48.9784C98.3886 48.9891 97.9562 49.0998 97.5073 49.2593C96.8932 49.4782 96.5247 49.6897 96.4397 49.8719C96.9217 49.6617 97.9 49.4927 98.3507 49.5423C98.4476 49.4479 98.4319 49.0204 98.4301 48.9784ZM96.4343 49.88C96.4336 49.88 96.4331 49.8795 96.4325 49.879C96.4315 49.8783 96.4315 49.8772 96.4318 49.876C96.5127 49.6884 96.8741 49.4792 97.5055 49.2545C97.9756 49.0873 98.4275 48.9735 98.4319 48.9725C98.4329 48.9723 98.4336 48.9725 98.4342 48.973C98.4349 48.9733 98.4354 48.974 98.4354 48.9748C98.4362 48.9941 98.4578 49.4484 98.3535 49.5469C98.353 49.5474 98.352 49.5479 98.3512 49.5477C97.8997 49.4975 96.9151 49.6683 96.4356 49.8798C96.4351 49.8798 96.4348 49.88 96.4343 49.88Z" fill="black"/>
<path fill-rule="evenodd" clip-rule="evenodd" d="M97.6785 51.0836C97.5375 51.0923 97.397 51.0661 97.266 51.0228C97.3143 51.037 97.366 51.0449 97.4197 51.0449C97.6877 51.0449 97.9058 50.8536 97.9058 50.6187C97.9058 50.524 97.8322 50.4107 97.7628 50.3323C98.1063 50.3639 98.4079 50.5428 98.5191 50.6164C98.4196 50.7344 98.1096 51.0571 97.6785 51.0836ZM96.9466 50.5016C96.9387 50.542 96.9339 50.5863 96.9339 50.6187C96.9339 50.7892 97.0486 50.9365 97.2138 51.0045C96.9611 50.9108 96.7519 50.7602 96.6626 50.6899C96.7145 50.6456 96.8114 50.5713 96.9466 50.5016ZM98.6298 50.5616C98.6117 50.5482 98.1806 50.226 97.6744 50.2193C96.9786 50.2115 96.559 50.6365 96.5412 50.6545C96.531 50.665 96.5256 50.6795 96.5262 50.6942C96.5267 50.7087 96.5333 50.7227 96.5442 50.7324C96.5664 50.752 97.072 51.1933 97.623 51.1933C97.6436 51.1933 97.6645 51.1925 97.6851 51.1913C98.2631 51.1554 98.626 50.6573 98.6413 50.6362C98.6583 50.6123 98.6532 50.5795 98.6298 50.5616Z" fill="black"/>
<path fill-rule="evenodd" clip-rule="evenodd" d="M100.051 50.9751C99.9271 50.9838 99.8031 50.9535 99.6896 50.9062C99.7092 50.91 99.7291 50.9125 99.7489 50.9125C99.965 50.9125 100.14 50.7369 100.14 50.5211C100.14 50.4267 100.107 50.3381 100.048 50.2682C100.072 50.2666 100.096 50.2659 100.121 50.2659H100.121C100.393 50.2659 100.642 50.458 100.73 50.5336C100.652 50.6412 100.4 50.9499 100.051 50.9751ZM99.2356 50.6084C99.2639 50.5842 99.3064 50.5504 99.3611 50.5132C99.3718 50.6038 99.4107 50.6949 99.4723 50.769C99.4888 50.7894 99.5067 50.8069 99.5252 50.823C99.3942 50.7456 99.2898 50.6575 99.2356 50.6084ZM100.839 50.4868C100.825 50.4733 100.503 50.158 100.121 50.158H100.121C99.5293 50.158 99.1343 50.5529 99.1178 50.5697C99.0972 50.5906 99.0972 50.6242 99.1175 50.6453C99.1224 50.6502 99.2343 50.7644 99.4051 50.8756C99.6176 51.0143 99.8197 51.0846 100.006 51.0846C100.024 51.0846 100.041 51.0841 100.058 51.0828C100.536 51.0484 100.834 50.5736 100.847 50.5534C100.86 50.5321 100.857 50.5043 100.839 50.4868Z" fill="black"/>
<path fill-rule="evenodd" clip-rule="evenodd" d="M99.1827 48.9751C99.1827 48.9751 99.159 49.4462 99.2636 49.5449C99.7011 49.4966 100.406 49.6126 100.9 49.8305C100.706 49.3795 99.1827 48.9751 99.1827 48.9751Z" fill="black"/>
<path fill-rule="evenodd" clip-rule="evenodd" d="M99.4821 49.5314C99.9183 49.5314 100.485 49.6459 100.895 49.8253C100.811 49.6431 100.491 49.4398 99.9674 49.2362C99.5869 49.0883 99.2233 48.9888 99.1851 48.9786C99.1836 49.0209 99.1678 49.4479 99.2647 49.5423C99.3319 49.5349 99.405 49.5314 99.4821 49.5314ZM100.9 49.8335C100.9 49.8335 100.899 49.8335 100.899 49.8332C100.417 49.6207 99.7139 49.4978 99.264 49.5477C99.2632 49.5479 99.2625 49.5474 99.2619 49.5472C99.2179 49.5054 99.1909 49.3968 99.1813 49.2232C99.1741 49.0944 99.18 48.9761 99.18 48.9748C99.18 48.9743 99.1805 48.9735 99.181 48.973C99.1818 48.9725 99.1825 48.9723 99.1836 48.9725C99.1871 48.9735 99.5689 49.0753 99.9694 49.2311C100.339 49.3751 100.802 49.5958 100.902 49.8297C100.903 49.8307 100.903 49.8319 100.902 49.8327C100.901 49.8332 100.901 49.8335 100.9 49.8335Z" fill="black"/>
<path fill-rule="evenodd" clip-rule="evenodd" d="M97.9521 52.272C98.2212 52.5265 98.4398 52.668 98.8042 52.6921C99.1686 52.7166 99.4239 52.5832 99.4239 52.5832C99.4239 52.5832 99.1322 53.0782 98.7798 53.1701C98.0509 53.3607 98.0852 52.7889 97.9521 52.272Z" fill="black"/>
<path fill-rule="evenodd" clip-rule="evenodd" d="M97.9568 52.2803C97.9776 52.3617 97.9942 52.4447 98.0102 52.5249C98.0631 52.7875 98.113 53.0359 98.2879 53.1448C98.4024 53.2166 98.563 53.224 98.7788 53.1675C99.102 53.083 99.3774 52.6531 99.4165 52.5895C99.3695 52.6119 99.1285 52.7163 98.8037 52.6949C98.4372 52.6702 98.2219 52.5302 97.9568 52.2803ZM98.5245 53.2102C98.4291 53.2102 98.3497 53.1899 98.2851 53.1494C98.1082 53.039 98.0581 52.7898 98.0049 52.5259C97.9883 52.4429 97.971 52.3569 97.9494 52.2727C97.9489 52.2714 97.9496 52.2704 97.9507 52.2696C97.9514 52.2691 97.9529 52.2691 97.9537 52.2701C98.2214 52.5231 98.436 52.6649 98.8042 52.6893C99.1638 52.7135 99.4199 52.5821 99.4224 52.5809C99.4237 52.5801 99.4249 52.5804 99.4255 52.5814C99.4265 52.5821 99.4265 52.5834 99.426 52.5844C99.4232 52.5895 99.1297 53.0812 98.7803 53.1728C98.6846 53.1975 98.5996 53.2102 98.5245 53.2102Z" fill="black"/>
<path fill-rule="evenodd" clip-rule="evenodd" d="M101.187 51.6979C101.051 51.8178 100.89 51.8607 100.695 51.829C99.9218 51.7034 99.47 50.9417 99.2957 50.2421C100.412 50.191 101.374 50.1472 101.638 50.1354C101.635 50.4003 101.597 51.3368 101.187 51.6979ZM98.6368 50.5778C98.6671 50.4804 98.6945 50.3789 98.7199 50.2732C98.8334 50.2752 99.0334 50.2706 99.1571 50.2553C99.1797 50.347 99.2063 50.4392 99.2377 50.5311L98.6368 50.5778ZM97.3761 51.8824C96.6154 51.9553 95.9577 51.3242 95.8228 50.4046C96.5374 50.37 97.5735 50.3216 98.5779 50.2752C98.4482 50.7974 98.1036 51.812 97.3761 51.8824ZM101.776 50.0611L101.774 49.9905L101.704 49.9936C101.682 49.9948 100.578 50.0447 99.2643 50.1049L99.2617 50.0934L99.2 50.1078C99.0251 50.1158 98.8468 50.1239 98.6671 50.1323L98.6122 50.1285L98.6105 50.1349C97.5584 50.1833 96.4663 50.2343 95.7414 50.2697L95.6682 50.2735L95.6768 50.347C95.7325 50.8354 95.9337 51.2755 96.2428 51.5861C96.5283 51.8728 96.8843 52.0264 97.2575 52.0264C97.3012 52.0264 97.3452 52.0244 97.389 52.0201C97.895 51.9714 98.3199 51.5054 98.5905 50.7204L99.2871 50.6663C99.528 51.2809 99.9803 51.8533 100.673 51.9659C100.908 52.004 101.111 51.9489 101.277 51.802C101.5 51.6057 101.652 51.2513 101.728 50.7492C101.783 50.3815 101.776 50.074 101.776 50.0611Z" fill="#F7B500"/>
</g>
</svg>

