<svg width="176" height="176" viewBox="0 0 176 176" fill="none" xmlns="http://www.w3.org/2000/svg">
<mask id="mask0" mask-type="alpha" maskUnits="userSpaceOnUse" x="0" y="0" width="176" height="176">
<circle cx="88" cy="88" r="88" fill="#C4C4C4"/>
</mask>
<g mask="url(#mask0)">
<path fill-rule="evenodd" clip-rule="evenodd" d="M90.7192 173.075L193.025 145.094C186.485 30.7065 122.353 1.36996 109.914 4.77203C91.256 9.87514 93.0374 43.2309 86.1286 58.1906C79.2199 73.1504 74.7378 80.1472 55.6065 75.9591C36.4752 71.7711 2.66951 85.0117 10.7031 114.385C16.0588 133.966 27.7784 157.585 45.8619 185.241L90.7192 173.075Z" fill="#FBF9FF"/>
<mask id="mask1" mask-type="alpha" maskUnits="userSpaceOnUse" x="0" y="0" width="176" height="176">
<circle cx="88" cy="88" r="88" fill="#C4C4C4"/>
</mask>
<g mask="url(#mask1)">
<path fill-rule="evenodd" clip-rule="evenodd" d="M-8.88265 114.611C-13.2247 90.5448 104.099 142.013 148.023 114.611C153.563 127.166 165.889 148.629 185 179H18.3784C3.99604 157.089 -5.09098 135.626 -8.88265 114.611Z" fill="#B28960"/>
<path fill-rule="evenodd" clip-rule="evenodd" d="M15.5088 140.351C15.8358 140.332 16.1423 140.403 16.3382 140.287C17.5867 139.548 18.6688 138.713 18.7885 137.053C18.9117 135.342 19.2181 133.646 19.4159 131.94C19.8952 127.799 20.3794 123.658 20.8201 119.513C21.1182 116.707 21.3218 113.891 21.6086 111.084C22.0106 107.156 22.4549 103.231 22.8734 99.3044C23.1958 96.2796 23.5056 93.2532 23.8231 90.228C24.2097 86.5411 24.5002 82.8477 24.569 79.1393C24.6138 76.6997 24.4695 74.2798 23.7845 71.9218C23.4977 70.9337 23.1881 69.9496 22.5396 69.1144C22.2918 68.7947 21.9943 68.6771 21.5926 68.6599C20.2419 68.6022 19.1217 69.0929 18.0783 69.9223C17.5747 70.3227 17.4138 70.7175 17.4458 71.3495C17.5615 73.6518 17.6834 75.9582 17.6659 78.2621C17.6404 81.5983 17.4894 84.9333 17.4043 88.2695C17.3374 90.8934 17.2981 93.5175 17.2296 96.1414C17.1593 98.838 17.0503 101.534 16.9925 104.231C16.9468 106.366 17.006 108.504 16.9238 110.637C16.796 113.972 16.5878 117.302 16.414 120.635C16.262 123.55 16.0919 126.466 15.9648 129.382C15.8272 132.545 15.732 135.709 15.6132 138.872C15.5957 139.333 15.549 139.793 15.5088 140.351ZM16.5261 71.4296C16.4696 71.4014 16.4125 71.3728 16.356 71.3446C15.6608 71.9593 14.9561 72.563 14.2735 73.1906C12.5275 74.7953 11.2118 76.689 10.3974 78.9296C9.79315 80.5942 9.35528 82.292 9.08537 84.0447C8.54248 87.5701 8.27166 91.112 8.38435 94.6758C8.50441 98.4766 8.65917 102.276 8.82867 106.075C9.0169 110.291 9.19284 114.508 9.46152 118.719C9.67063 121.998 9.99704 125.271 10.3032 128.544C10.5795 131.498 10.8817 134.451 11.2087 137.401C11.3377 138.566 11.5652 139.72 11.7304 140.767C12.4971 141.373 13.2393 141.262 13.9895 141.073C14.5701 140.926 14.5873 140.9 14.6107 140.276C14.6963 137.995 14.7731 135.714 14.8738 133.434C14.9933 130.713 15.1327 127.992 15.2665 125.271C15.3172 124.242 15.3725 123.213 15.4302 122.183C15.6061 119.072 15.842 115.963 15.9464 112.849C16.06 109.464 16.029 106.074 16.1054 102.688C16.1662 100.013 16.3195 97.3417 16.3858 94.6678C16.4662 91.4283 16.5031 88.1879 16.5513 84.9477C16.6029 81.4635 16.6606 77.9787 16.6824 74.4938C16.6889 73.4728 16.5814 72.4512 16.5261 71.4296ZM17.4347 69.2575C17.7114 69.0742 17.9162 68.9559 18.1007 68.8122C19.2783 67.896 20.6417 67.7222 22.0717 67.8038C22.5283 67.8299 22.8399 68.0928 23.1163 68.4198C23.681 69.0877 24.0243 69.8762 24.3092 70.6872C24.9313 72.4571 25.251 74.2878 25.3846 76.1572C25.6118 79.3273 25.3637 82.4845 25.1186 85.6386C24.8886 88.5969 24.6025 91.5514 24.2994 94.5032C23.9512 97.8938 23.5492 101.279 23.1857 104.668C22.9717 106.666 22.7822 108.667 22.5906 110.669C22.2848 113.866 22.0066 117.066 21.6805 120.261C21.3243 123.748 20.9432 127.233 20.5422 130.715C20.2895 132.906 19.9324 135.086 19.7116 137.28C19.5187 139.196 18.3587 140.362 16.7813 141.124C15.736 141.627 14.5637 141.891 13.4257 142.171C12.6964 142.351 11.9822 142.243 11.396 141.633C11.1381 141.364 10.9861 141.093 10.9339 140.749C10.6459 138.859 10.3198 136.973 10.0904 135.076C9.77196 132.447 9.52201 129.81 9.25426 127.175C9.08844 125.54 8.90728 123.904 8.79765 122.265C8.56337 118.764 8.33522 115.262 8.1694 111.757C7.91055 106.292 7.67565 100.825 7.48803 95.3569C7.36521 91.7698 7.60871 88.1971 8.11997 84.6407C8.41045 82.6174 8.84924 80.6397 9.53092 78.7113C10.4893 76.0009 12.1403 73.786 14.3054 71.9295C14.9014 71.4186 15.4987 70.9073 16.1113 70.4166C16.3658 70.2127 16.4776 69.9877 16.4546 69.6622C16.3753 68.5368 16.3124 67.4108 16.2408 66.2851C16.2316 66.1389 16.1558 65.9744 16.2022 65.8531C16.2636 65.6912 16.395 65.476 16.5319 65.4462C16.6631 65.4173 16.8691 65.5687 16.9864 65.6937C17.0754 65.7883 17.0979 65.9627 17.1144 66.1058C17.209 66.9084 17.2944 67.7123 17.3794 68.5159C17.4015 68.7272 17.4114 68.94 17.4347 69.2575Z" fill="black"/>
<path fill-rule="evenodd" clip-rule="evenodd" d="M92.6373 149.589L87.4892 148.892L85.8087 147.593L62.471 141.082L51.645 137.078L47.0483 131.376C46.3576 126.942 46.1144 124.446 46.3188 123.886C46.5231 123.326 48.7555 121.253 53.0159 117.666L59.1325 120.176L68.4583 126.428L72.9179 125.945L76.3005 125.876L82.9603 127.162L90.1847 125.876L97.8001 127.162L118.81 119.928H123.297L124.504 120.176L127.728 127.652L128.994 128.085L129.156 130.222C128.524 132.539 127.884 133.933 127.235 134.405C126.262 135.112 122.722 138.278 121.493 138.574C120.264 138.87 107.408 144.931 104.082 143.667C103.854 141.542 103.618 138.856 103.374 135.611L101.974 135.155L97.8001 137.078H93.4681L92.6373 149.589Z" fill="white"/>
<path fill-rule="evenodd" clip-rule="evenodd" d="M83.7047 88.3229C83.7047 88.3229 72.1048 90.7653 70.4479 93.685C69.0544 96.1406 63.7042 107.283 63.7042 107.283L62.4489 109.875C62.4489 109.875 68.0024 114.426 74.1028 116.269C73.178 119.915 73.065 125.625 73.065 125.625C73.9008 125.202 77.5241 126.197 82.9214 126.411C87.0403 126.575 92.2711 126.073 97.4138 127.115C98.8708 127.41 101.885 125.295 101.885 125.295C101.885 125.295 101.926 115.213 101.866 111.42C102.881 111.362 111.198 108.303 112.462 106.912C113.601 105.657 109.783 103.957 109.783 103.957C109.783 103.957 107.857 93.864 102.786 89.6661C100.596 87.8545 96.507 88.1133 92.7127 88.0835C91.8117 89.947 93.3274 94.1743 89.7824 94.2624C86.2373 94.3502 83.7047 88.3229 83.7047 88.3229Z" fill="#779BE7"/>
<path fill-rule="evenodd" clip-rule="evenodd" d="M101.836 135.596V149.79C101.836 149.79 96.3946 149.453 95.6819 142.724C95.0911 137.148 101.836 135.596 101.836 135.596Z" fill="#FFDA2D"/>
<path fill-rule="evenodd" clip-rule="evenodd" d="M129.431 125.309C129.421 125.26 129.411 125.211 129.401 125.162C129.205 125.137 129.009 125.114 128.727 125.079C128.811 125.328 128.865 125.488 128.937 125.698C129.138 125.54 129.284 125.424 129.431 125.309ZM129.93 123.341C129.845 123.211 129.802 123.082 129.751 123.077C129.323 123.045 128.898 122.863 128.456 123.043C128.906 123.238 129.35 123.421 129.93 123.341ZM47.0694 119.368C45.7985 119.076 45.7125 119.085 45.5503 119.521C46.8016 119.859 46.8597 119.854 47.0694 119.368ZM45.044 120.329C45.379 120.763 45.8212 120.856 46.3054 120.992C46.4031 120.795 46.4939 120.612 46.6162 120.366C46.0598 120.314 45.597 120.007 45.044 120.329ZM128.614 123.824C128.617 124.416 128.616 124.425 128.925 124.479C129.163 124.52 129.407 124.559 129.646 124.553C129.763 124.55 129.877 124.443 129.993 124.383C129.909 124.263 129.847 124.067 129.737 124.036C129.392 123.935 129.03 123.897 128.614 123.824ZM45.1613 121.303C45.364 121.972 45.5261 122.508 45.6885 123.043C45.7398 123.041 45.7911 123.039 45.8424 123.037C45.905 122.577 45.9676 122.117 46.0358 121.615C45.7668 121.519 45.5282 121.434 45.1613 121.303ZM44.9678 123.953C45.0882 123.202 44.853 122.502 44.5595 121.851C44.2232 121.107 44.2985 120.441 44.6387 119.747C44.7793 119.46 44.9811 119.185 45.005 118.729C44.4213 119.413 44.1799 120.127 44.0015 120.863C43.9598 121.034 43.992 121.267 44.0811 121.419C44.5435 122.208 44.8054 123.06 44.9678 123.953ZM94.5154 139.534C94.5689 139.527 94.622 139.519 94.6751 139.512C94.7737 139.212 94.8766 138.914 94.9693 138.613C95.0589 138.32 95.1385 138.024 95.2395 137.67C94.8661 137.605 94.5738 137.554 94.1761 137.485C94.303 138.251 94.4092 138.893 94.5154 139.534ZM46.0275 118.561C46.3763 118.609 46.6641 118.652 46.9527 118.687C47.6884 118.776 47.9473 118.552 48.0501 117.746C46.7378 117.579 46.3502 117.723 46.0275 118.561ZM128.275 122.249C128.815 122.337 129.256 122.41 129.716 122.486C129.625 121.287 129.487 121.172 128.118 121.137C128.169 121.494 128.217 121.838 128.275 122.249ZM94.5022 144.114C94.4454 144.1 94.3889 144.086 94.3324 144.072C94.1396 145.024 93.8494 145.956 93.8 147.005C94.2888 146.931 94.6871 146.872 95.1299 146.806C94.9109 145.868 94.7067 144.991 94.5022 144.114ZM93.7085 138.804C93.5046 140.765 93.3299 142.725 93.4727 144.698C94.1924 142.758 94.2812 140.793 93.7085 138.804ZM129.252 127.631C129.921 126.964 130.501 126.411 131.051 125.828C131.394 125.464 131.482 125.018 131.297 124.534C131.096 124.011 130.907 123.482 130.7 122.961C130.656 122.85 130.558 122.761 130.39 122.535C130.465 123.132 130.501 123.569 130.58 123.998C130.706 124.686 130.544 125.248 129.96 125.673C129.723 125.844 129.522 126.064 129.285 126.235C129.028 126.421 128.957 126.641 129.054 126.934C129.115 127.116 129.16 127.303 129.252 127.631ZM96.2774 146.893C95.1498 143.77 95.1357 140.739 96.5605 137.748C95.888 137.719 95.8653 137.712 95.7148 138.206C95.4511 139.072 95.1956 139.942 94.9813 140.821C94.8723 141.268 94.7531 141.757 94.8253 142.196C95.0632 143.643 95.393 145.075 95.6725 146.517C95.7391 146.862 95.9239 146.952 96.2774 146.893ZM87.1263 135.864C87.0425 135.234 86.9792 134.751 86.9144 134.269C86.8505 133.793 86.7855 133.316 86.7222 132.85C85.7107 132.876 83.4775 133.319 82.9214 133.603C84.2979 134.344 85.645 135.068 87.1263 135.864ZM103.101 149.621C103.135 148.8 103.174 148.069 103.193 147.338C103.215 146.51 103.155 145.674 103.252 144.856C103.325 144.235 103.395 143.653 103.124 143.067C103.056 142.919 103.036 142.722 103.066 142.561C103.165 142.018 103.128 141.497 102.943 140.974C102.882 140.799 102.929 140.587 102.92 140.392C102.905 140.052 102.849 139.709 102.874 139.372C102.939 138.52 102.875 137.689 102.641 136.864C102.585 136.667 102.674 136.429 102.693 136.209C102.706 136.046 102.711 135.882 102.724 135.656C102.428 135.636 102.178 135.619 101.836 135.596C102.454 140.356 102.578 145.036 102.095 149.79C102.478 149.726 102.762 149.678 103.101 149.621ZM101.866 111.42C103.441 110.861 104.925 110.465 106.289 109.817C107.967 109.019 109.558 108.031 111.163 107.086C111.987 106.6 112.012 106.443 111.795 105.521C111.767 105.402 111.722 105.287 111.684 105.17C111.525 104.687 111.21 104.473 110.754 104.611C110.562 104.669 110.395 104.848 110.245 105C108.915 106.354 107.459 107.546 105.826 108.522C104.573 109.271 103.22 109.76 101.731 110.146C101.773 110.538 101.812 110.91 101.866 111.42ZM75.1945 113.513C70.9493 112.1 67.5385 109.554 64.1009 106.911C63.8912 107.525 63.7171 108.105 63.4935 108.665C63.3225 109.093 63.4321 109.398 63.7367 109.717C64.5578 110.576 65.4931 111.29 66.5341 111.847C68.2392 112.759 69.9544 113.655 71.6958 114.496C72.5666 114.916 73.5044 115.198 74.4824 115.569C74.7372 114.834 74.9577 114.197 75.1945 113.513ZM73.6112 116.087C73.2452 116.94 72.921 117.76 72.5457 118.556C71.9912 119.734 71.343 120.857 70.4893 121.853C69.7036 122.77 68.7256 123.05 67.5775 122.779C67.0536 122.655 66.5341 122.503 66.0274 122.322C64.0429 121.613 62.0648 120.886 60.0827 120.17C59.9282 120.114 59.7621 120.091 59.6015 120.053C59.6872 120.25 59.8011 120.339 59.9199 120.421C61.2311 121.327 62.5407 122.236 63.8559 123.137C65.1102 123.996 66.3667 124.853 67.6327 125.695C67.8237 125.821 68.0734 125.935 68.2935 125.931C69.1736 125.913 70.0527 125.851 70.9315 125.794C71.6347 125.748 72.3366 125.684 73.065 125.625C73.2118 122.441 73.1015 119.289 74.1029 116.269C74.0012 116.201 73.9478 116.15 73.8839 116.126C73.8188 116.102 73.7436 116.105 73.6112 116.087ZM115.808 120.156L115.789 120.068C115.671 120.061 115.553 120.044 115.436 120.05C114.112 120.122 112.789 120.242 111.465 120.259C109.897 120.279 108.324 120.26 106.759 120.163C105.812 120.105 104.922 119.789 104.447 118.832C103.846 117.623 103.298 116.395 102.953 115.081C102.748 114.3 102.48 113.534 102.234 112.763C102.185 112.61 102.101 112.468 102.033 112.321C101.942 112.644 101.917 112.951 101.945 113.253C102.138 115.333 102.252 117.412 102.046 119.499C101.968 120.28 101.935 121.067 101.922 121.852C101.915 122.239 101.907 122.67 102.062 123.008C102.332 123.6 102.48 124.203 102.553 124.839C102.566 124.953 102.641 125.06 102.671 125.13C107.069 123.464 111.439 121.81 115.808 120.156ZM101.24 135.968C100.162 136.343 99.2307 136.816 98.3092 137.319C97.291 137.876 96.703 138.722 96.4392 139.831C96.1346 141.11 96.0855 142.409 96.1902 143.707C96.4073 146.403 97.4912 148.641 101.397 149.48C101.924 144.979 101.815 140.508 101.24 135.968ZM88.3831 135.558C88.2944 135.89 88.209 136.098 88.1863 136.313C88.0727 137.382 87.9406 138.451 87.8811 139.525C87.8009 140.968 87.8172 142.417 87.7257 143.859C87.6345 145.3 87.4054 146.723 86.7922 148.018C86.841 148.085 86.8512 148.115 86.8699 148.122C88.5597 148.72 90.3059 148.871 92.0804 148.745C92.2211 148.735 92.389 148.546 92.4686 148.4C92.545 148.26 92.5352 148.066 92.5413 147.896C92.6031 146.255 92.6402 144.613 92.7237 142.973C92.837 140.751 92.7624 138.505 93.4739 136.349C93.5021 136.264 93.4776 136.161 93.4776 135.98C91.7964 135.841 90.1248 135.702 88.3831 135.558ZM87.4088 132.816C95.3043 130.105 102.826 126.685 110.259 123.051C109.878 123.125 109.514 123.241 109.149 123.36C106.543 124.214 104.063 125.415 101.413 126.153C99.7859 126.607 98.198 127.279 96.4638 127.093C95.3212 126.97 94.1752 126.803 93.0581 126.54C91.2578 126.116 89.4698 126.002 87.6744 126.483C85.0969 127.175 82.5425 127.059 79.9656 126.436C78.757 126.144 77.5054 126.014 76.267 125.862C75.4564 125.762 74.6507 125.839 73.914 126.263C73.7915 126.334 73.6177 126.426 73.5065 126.389C72.7493 126.14 71.9967 126.395 71.2438 126.388C70.5983 126.382 69.9523 126.479 69.3062 126.53C69.476 126.78 69.667 126.918 69.8752 127.024C70.859 127.523 71.8423 128.024 72.8356 128.504C75.196 129.645 77.5628 130.775 79.9251 131.913C80.101 131.997 80.3129 132.073 80.421 132.219C80.7508 132.662 81.2593 132.798 81.7131 133.022C81.8632 133.095 82.0816 133.076 82.2584 133.044C83.608 132.797 84.9523 132.521 86.304 132.285C87.0403 132.157 87.098 132.211 87.4088 132.816ZM46.7196 122.14C46.7697 122.175 46.82 122.21 46.8701 122.246C47.5244 121.905 48.0415 121.381 48.5626 120.874C49.6521 119.812 50.7228 118.73 51.7929 117.649C52.2053 117.232 52.6509 117.039 53.2487 117.221C54.0216 117.457 54.8249 117.598 55.5873 117.861C57.6038 118.557 59.6021 119.306 61.6134 120.018C63.5319 120.697 65.4532 121.366 67.3816 122.018C68.4762 122.388 69.4116 122.124 70.1347 121.2C71.3875 119.598 72.2043 117.774 72.8872 115.939C71.4336 115.294 70.0214 114.676 68.6178 114.041C67.1869 113.394 65.8595 112.573 64.6819 111.541C63.839 112.435 63.839 112.436 62.5966 112.327C62.4744 112.316 62.3531 112.292 62.2306 112.287C60.8823 112.226 59.5318 112.09 58.186 112.124C54.5832 112.216 51.0836 112.964 47.6203 113.917C46.8793 114.12 46.2667 114.48 45.7659 115.043C44.5069 116.457 43.3809 117.974 42.3759 119.577C41.9012 120.334 41.9421 121.123 42.4693 121.856C42.8706 122.413 43.2922 122.956 43.7147 123.498C43.8133 123.624 43.9536 123.718 44.1336 123.88C44.1805 123.206 44.0024 122.651 43.6902 122.206C43.1967 121.503 43.2765 120.829 43.5698 120.118C43.7473 119.689 43.918 119.251 44.1492 118.85C44.495 118.251 44.9138 117.688 45.5801 117.415C46.5363 117.023 47.5423 116.994 48.55 117.146C48.9676 117.209 49.0696 117.448 48.9025 117.844C48.827 118.024 48.7082 118.184 48.6148 118.357C48.0759 119.347 47.5306 120.334 47.0064 121.333C46.8753 121.583 46.8133 121.869 46.7196 122.14ZM129.782 129.268C129.917 129.215 130.019 129.201 130.086 129.145C131.1 128.295 132.104 127.433 133.122 126.588C133.534 126.246 133.598 125.854 133.475 125.35C133.113 123.874 132.76 122.395 132.459 120.905C132.262 119.929 131.946 119.045 131.312 118.247C130.28 116.952 129.066 115.865 127.525 115.299C124.401 114.152 121.321 112.849 118.01 112.274C116.154 111.952 114.306 111.577 112.458 111.209C112.317 111.181 112.163 111.044 112.083 110.915C111.928 110.668 111.81 110.394 111.696 110.123C111.421 109.472 111.157 108.816 110.882 108.147C110.749 108.203 110.655 108.229 110.574 108.279C108.303 109.653 105.991 110.937 103.391 111.606C103.172 111.662 102.978 111.817 102.765 111.93C103.23 114.13 104.153 116.086 104.872 118.11C105.181 118.977 105.851 119.378 106.715 119.47C107.495 119.554 108.282 119.643 109.062 119.619C111.858 119.53 114.653 119.394 117.448 119.277C118.131 119.248 118.815 119.234 119.498 119.198C120.501 119.144 121.503 119.038 122.507 119.023C123.535 119.008 124.308 119.522 124.734 120.442C125.639 122.399 126.497 124.378 127.375 126.348C127.474 126.571 127.554 126.812 127.697 127.003C127.783 127.117 128.001 127.231 128.115 127.196C128.233 127.161 128.369 126.947 128.371 126.81C128.375 126.395 128.349 125.974 128.278 125.565C128.009 123.999 127.713 122.437 127.44 120.871C127.409 120.691 127.461 120.497 127.479 120.253C128.089 120.364 128.645 120.45 129.193 120.569C129.987 120.74 130.577 121.192 130.908 121.939C131.244 122.701 131.558 123.473 131.872 124.244C132.218 125.091 132.013 125.832 131.397 126.471C130.989 126.895 130.572 127.313 130.131 127.703C129.635 128.14 129.65 128.656 129.782 129.268ZM104.026 143.582C105.038 143.391 106.041 143.277 107 143.004C110.042 142.139 113.071 141.226 116.097 140.308C117.694 139.824 119.207 139.133 120.718 138.423C122.914 137.39 124.926 136.105 126.674 134.419C128.337 132.814 128.768 130.766 128.739 128.562C128.735 128.284 128.672 127.996 128.31 127.992C127.759 127.985 127.461 127.644 127.246 127.211C126.637 125.981 126.001 124.762 125.458 123.503C125.062 122.583 124.757 121.641 124.129 120.821C123.767 120.35 123.402 120.076 122.824 120.016C121.191 119.847 119.593 119.918 118.056 120.568C117.357 120.864 116.636 121.112 115.944 121.426C112.393 123.031 108.849 124.652 105.301 126.263C104.007 126.85 102.711 127.433 101.408 128C98.9129 129.085 96.4116 130.154 93.9167 131.238C93.6032 131.375 93.262 131.511 93.0243 131.741C92.5935 132.157 92.0731 132.323 91.5256 132.464C91.2173 132.544 90.9102 132.63 90.6035 132.715C89.5681 133.002 88.5329 133.291 87.4466 133.593C87.5172 134.15 87.5811 134.652 87.6363 135.089C88.1114 135.05 88.5455 134.96 88.9711 134.989C90.3661 135.086 91.758 135.223 93.1509 135.351C94.2468 135.451 94.2492 135.459 94.1635 136.555C94.1602 136.596 94.201 136.64 94.2345 136.711C95.6031 137.263 96.9796 137.022 98.3018 136.538C99.4251 136.127 100.485 135.544 101.581 135.057C102.089 134.831 102.604 134.921 103.049 135.221C103.467 135.502 103.394 135.945 103.288 136.36C103.18 136.783 103.215 137.172 103.412 137.571C103.516 137.783 103.568 138.047 103.556 138.283C103.499 139.43 103.412 140.574 103.773 141.698C103.829 141.87 103.791 142.094 103.737 142.276C103.588 142.775 103.76 143.18 104.026 143.582ZM87.371 136.837C87.1638 136.706 87.0243 136.607 86.8742 136.527C85.0125 135.536 83.1655 134.515 81.2823 133.567C77.0101 131.416 72.7146 129.311 68.4409 127.163C67.6352 126.758 66.8101 126.332 66.1245 125.758C64.0843 124.053 61.8965 122.562 59.6795 121.107C57.6962 119.805 55.5372 118.882 53.3034 118.11C52.8351 117.948 52.5154 118.044 52.1943 118.385C51.6053 119.01 51.0013 119.622 50.3927 120.228C49.298 121.317 48.192 122.395 47.1004 123.487C46.9714 123.616 46.8526 123.797 46.8173 123.971C46.5121 125.479 46.486 126.977 46.8578 128.49C47.4268 130.807 48.6317 132.781 50.0411 134.657C50.7941 135.659 51.7413 136.425 52.8965 136.914C54.025 137.392 55.1663 137.839 56.2988 138.308C56.5229 138.4 56.7372 138.52 56.9494 138.639C57.3538 138.864 57.7334 139.149 58.1596 139.319C59.0939 139.69 60.0474 140.015 61.0005 140.337C61.3705 140.462 61.7645 140.62 62.1406 140.603C62.861 140.572 63.4859 140.834 64.1285 141.068C64.6591 141.261 65.1802 141.479 65.7142 141.661C65.9897 141.755 66.282 141.804 66.5694 141.856C67.0232 141.94 67.4986 141.95 67.9315 142.093C72.8697 143.721 77.8487 145.21 82.8741 146.546C83.9801 146.84 85.0767 147.172 86.199 147.492C86.6626 146.747 86.8294 145.919 86.8874 145.098C87.0821 142.361 87.2132 139.619 87.371 136.837ZM76.1028 104.481C76.1206 104.763 76.1445 104.972 76.1454 105.18C76.1494 106.48 76.1104 107.782 76.158 109.081C76.2455 111.466 75.9265 113.765 75.0065 115.988C74.4139 117.419 74.0709 118.93 73.9951 120.489C73.9226 121.981 73.8474 123.474 73.7814 124.966C73.774 125.128 73.8179 125.292 73.8354 125.434C74.4535 125.35 75.0283 125.233 75.6075 125.202C77.1415 125.119 78.6409 125.396 80.1213 125.754C82.5701 126.347 85.0088 126.483 87.4724 125.822C89.4351 125.295 91.3935 125.408 93.3655 125.892C94.4783 126.165 95.6344 126.307 96.7797 126.395C98.5892 126.534 100.214 125.751 101.885 125.295C101.906 125.157 101.931 125.085 101.925 125.015C101.906 124.82 101.882 124.625 101.846 124.433C101.543 122.785 101.384 121.131 101.537 119.454C101.591 118.868 101.641 118.277 101.62 117.691C101.559 116.025 101.483 114.36 101.37 112.696C101.109 108.851 100.628 105.034 99.7619 101.272C99.7128 101.06 99.6848 100.835 99.694 100.618C99.698 100.527 99.8132 100.386 99.8989 100.368C99.987 100.349 100.141 100.427 100.194 100.51C100.271 100.627 100.289 100.785 100.32 100.928C100.554 102.006 100.797 103.082 101.013 104.163C101.162 104.907 101.272 105.659 101.402 106.408C101.488 106.906 101.597 107.401 101.66 107.902C101.724 108.399 101.743 108.901 101.789 109.482C102.582 109.187 103.328 108.953 104.04 108.638C106.017 107.762 107.695 106.449 109.245 104.963C109.9 104.335 109.901 104.324 109.547 103.523C108.478 101.101 107.423 98.6719 106.32 96.2642C105.565 94.6137 104.726 93.0084 103.653 91.528C102.667 90.1682 101.364 89.3287 99.7536 88.949C97.5065 88.4189 95.2466 88.6285 92.8889 88.8434C92.8889 89.2624 92.911 89.6507 92.8846 90.0353C92.8109 91.1182 92.6448 92.1772 92.0636 93.1315C91.6146 93.8685 90.9569 94.2252 90.1171 94.2617C89.3427 94.2954 88.6069 94.1239 87.9102 93.7828C86.8536 93.265 85.9938 92.4976 85.2508 91.6075C84.5476 90.7652 83.8991 89.8769 83.2017 88.9778C80.4001 89.6375 77.5813 90.3671 74.7968 91.2398C72.7681 91.8754 71.28 93.1121 70.221 94.9314C68.1391 98.5071 66.6139 102.332 65.1133 106.17C64.9711 106.534 65.0445 106.763 65.3525 106.983C66.3305 107.681 67.2812 108.419 68.2708 109.099C70.2357 110.45 72.266 111.687 74.5168 112.517C74.7624 112.607 75.017 112.672 75.3032 112.76C75.3551 112.548 75.4128 112.411 75.4189 112.272C75.4705 111.073 75.5273 109.873 75.5537 108.674C75.5792 107.521 75.5663 106.367 75.5798 105.214C75.5835 104.929 75.566 104.611 76.1028 104.481ZM129.337 130.371C129.297 130.548 129.223 130.807 129.182 131.071C128.917 132.77 128.061 134.139 126.823 135.292C125.45 136.573 123.89 137.59 122.256 138.501C121.531 138.906 120.815 139.327 120.09 139.732C119.942 139.815 119.774 139.866 119.611 139.92C116.791 140.845 113.981 141.806 111.143 142.679C109.153 143.291 107.128 143.792 105.11 144.311C104.812 144.388 104.469 144.289 104.064 144.267C103.885 144.576 103.818 144.998 103.813 145.433C103.801 146.485 103.797 147.536 103.789 148.587C103.787 148.808 103.78 149.028 103.781 149.249C103.787 150.026 103.676 150.209 102.898 150.321C102.424 150.39 101.912 150.399 101.448 150.296C99.8451 149.941 98.3853 149.305 97.1866 148.111C96.8758 147.801 96.3133 147.636 95.8536 147.607C95.1302 147.561 94.3948 147.679 93.6658 147.744C93.3851 147.769 93.2571 147.954 93.2138 148.238C93.1591 148.595 93.0584 148.945 92.9804 149.283C90.7644 149.618 88.6616 149.419 86.6031 148.744C86.3636 148.665 86.1676 148.46 85.9404 148.334C85.711 148.207 85.4783 148.062 85.2286 147.998C82.1897 147.215 79.1553 146.413 76.104 145.68C72.4988 144.815 68.9092 143.87 65.5066 142.402C62.3181 141.026 58.9665 140.175 55.7107 139.025C54.4168 138.567 53.1458 138.044 51.8718 137.533C51.562 137.409 51.2746 137.269 51.138 136.877C51.0541 136.636 50.7501 136.454 50.5155 136.287C48.1033 134.562 46.6327 132.226 46.053 129.34C45.885 128.504 45.8583 127.637 45.8156 126.782C45.7779 126.026 45.8077 125.265 45.8077 124.37C45.5884 124.546 45.488 124.633 45.3805 124.711C44.8524 125.094 44.0801 125.039 43.6625 124.535C43.0364 123.78 42.4162 123.016 41.8518 122.215C41.1784 121.259 41.1698 120.246 41.7937 119.247C42.8101 117.621 43.9505 116.086 45.2169 114.645C45.7834 114 46.4672 113.566 47.3034 113.339C50.1944 112.553 53.0992 111.813 56.0986 111.619C57.784 111.51 59.4815 111.566 61.1734 111.575C61.8102 111.578 62.4498 111.631 63.0824 111.71C63.589 111.772 63.8728 111.58 64.0202 111.075C63.8952 110.968 63.777 110.848 63.6415 110.753C62.7449 110.118 62.5398 109.494 62.8905 108.436C63.0987 107.807 63.3486 107.189 63.5064 106.549C63.6489 105.97 63.9173 105.62 64.5824 105.674C64.9205 104.812 65.2466 103.968 65.5819 103.128C66.7208 100.278 67.9767 97.4834 69.5117 94.8216C70.0539 93.8814 70.696 93.0179 71.5152 92.2932C72.3944 91.516 73.3978 90.9528 74.5202 90.636C77.0445 89.9236 79.5784 89.2458 82.1092 88.5555C82.4629 88.4588 82.8231 88.383 83.1738 88.2768C83.5079 88.1761 83.7145 88.255 83.8871 88.5825C84.6514 90.0347 85.7371 91.2336 86.955 92.3135C87.644 92.924 88.4497 93.3399 89.3666 93.5106C90.5034 93.7227 91.2431 93.4013 91.7043 92.35C91.9656 91.7548 92.0973 91.0893 92.2011 90.4417C92.2978 89.8394 92.2856 89.2191 92.3104 88.6061C92.3218 88.3277 92.4299 88.1881 92.7127 88.0834C93.2024 87.9011 93.675 87.8722 94.1946 87.902C95.3454 87.9677 96.5034 87.9087 97.6545 87.9717C98.4584 88.0162 99.2709 88.1138 100.052 88.3007C101.865 88.7335 103.298 89.7351 104.374 91.2787C105.418 92.776 106.274 94.3737 107.025 96.0273C108.121 98.438 109.189 100.862 110.235 103.295C110.438 103.769 110.68 103.976 111.208 103.975C112.016 103.974 112.107 104.075 112.346 104.845C112.448 105.172 112.536 105.506 112.597 105.843C112.711 106.472 112.588 107.014 111.981 107.362C111.814 107.459 111.666 107.589 111.475 107.73C111.756 108.443 112.044 109.136 112.303 109.841C112.444 110.227 112.694 110.459 113.09 110.526C113.665 110.623 114.245 110.698 114.821 110.796C115.69 110.943 116.566 111.068 117.424 111.265C119.263 111.689 121.114 112.086 122.921 112.624C124.158 112.992 125.348 113.541 126.527 114.08C127.548 114.547 128.588 115.024 129.502 115.663C130.48 116.348 131.331 117.216 132.214 118.03C132.42 118.22 132.594 118.498 132.67 118.767C133.2 120.654 133.702 122.55 134.212 124.444C134.238 124.538 134.26 124.634 134.278 124.73C134.475 125.723 134.386 126.573 133.456 127.254C132.352 128.064 131.348 129.01 130.281 129.873C130.028 130.077 129.698 130.184 129.337 130.371Z" fill="black"/>
<path fill-rule="evenodd" clip-rule="evenodd" d="M90.2166 68.5525C90.2728 68.0878 90.3161 67.7314 89.8312 67.3035C90.0846 67.2872 90.2034 67.1703 90.3916 67.2777C90.867 67.5484 90.6941 68.1648 90.2166 68.5525ZM88.4148 66.7184C88.4283 66.3811 88.209 66.1015 87.823 65.7325C88.31 65.8421 88.6767 66.2958 88.4148 66.7184ZM84.5089 67.022C84.7819 66.4928 85.2585 66.2258 85.9067 66.5677C85.5597 66.7013 85.0279 66.5251 84.5089 67.022ZM81.9259 68.2682C81.7017 67.6111 81.9403 67.2446 82.6297 67.2031C82.2756 67.418 81.9585 67.67 81.9259 68.2682ZM81.4693 72.2967C81.1444 72.4667 80.7265 72.9063 81.2464 73.7056C80.9602 73.5183 80.5337 73.2614 80.3501 72.9692C80.176 72.6917 80.2217 72.3249 80.214 72.0014C80.1916 71.0839 80.6786 70.4387 81.6953 70.055C81.3803 70.8742 81.0615 71.6539 81.4693 72.2967ZM90.8347 68.8389C91.0143 68.9426 91.1498 69.2287 91.0616 69.4165C91.0374 69.4681 90.9492 69.5495 90.8955 69.5691C90.948 69.3843 90.8725 69.0872 90.675 68.9871C90.6456 68.8818 90.6216 68.7158 90.8347 68.8389ZM93.2553 73.6297C93.2362 73.5671 93.2553 73.2408 93.0502 73.0355C92.8813 72.867 92.6169 72.8977 92.4449 72.7331C91.8824 72.1951 91.6638 71.2886 90.6047 71.5468C90.6523 71.3669 90.6471 71.242 90.7067 71.1858C91.2382 70.6852 90.7739 69.9052 91.2195 69.3647C91.2821 69.2892 91.089 68.9718 90.9735 68.7925C90.905 68.6866 90.7561 68.6329 90.679 68.5798C90.8679 68.0727 90.9842 67.5908 90.4914 67.2209C90.4929 67.2209 90.0241 67.0377 89.7658 66.9692C89.4035 66.8725 89.0319 66.8111 88.615 66.7246C88.8213 66.1515 88.5238 65.9075 88.1617 65.7006C87.5246 65.3369 86.8103 65.4382 86.1142 65.9621C85.9294 66.1012 85.6979 66.2789 85.4946 66.2703C85.1341 66.2556 84.9013 66.4173 84.6422 66.6076C84.1908 66.9395 83.7253 67.1982 83.1231 66.9361C82.7436 66.7712 82.0589 67.0506 81.769 67.4266C81.4739 67.8097 81.5445 68.197 81.7438 68.5961C81.8909 68.8901 82.3417 69.1366 82.1301 69.4742C81.9778 69.717 81.574 69.8211 81.2651 69.9439C80.0006 70.4473 79.6997 72.1966 80.3808 73.1469C80.3808 73.1463 80.3805 73.1457 80.3805 73.1451C80.437 73.2881 80.6138 73.4259 80.6786 73.468C81.002 73.6761 81.2955 73.8053 81.5636 74.0632C81.8501 74.3391 81.9953 74.7559 82.2465 75.077C82.3579 75.2188 82.5852 75.2646 82.7464 75.3744C82.8919 75.4733 82.9567 76.0025 83.6105 76.2585C83.7256 76.3036 83.8088 76.4083 83.8315 76.5298C83.8936 76.8635 83.9537 77.1879 84.0176 77.5308C83.2564 77.9719 83.0605 78.343 83.1803 79.1186C83.3037 79.9182 83.9154 80.2798 84.5848 80.65C84.4435 81.9082 84.3413 83.1535 84.1546 84.3862C83.9645 85.6447 83.6937 86.8906 83.4526 88.1408C83.3961 88.4324 83.3169 88.7188 83.7701 88.9082C83.8589 88.6635 83.9676 88.4511 84.0118 88.2264C84.1963 87.289 84.391 86.3522 84.5273 85.4074C84.7438 83.9052 84.9167 82.3965 85.1077 80.8903C85.1669 80.4235 85.0463 80.099 84.5295 79.9523C84.1082 79.8326 83.8315 79.5103 83.748 79.0575C83.6682 78.6241 83.7919 78.2533 84.0726 78.1674C84.4874 78.0406 84.5433 78.4102 84.6882 78.6465C84.8614 78.9298 85.0401 79.1947 85.4845 79.0253C85.5842 78.6511 85.6561 78.2414 85.8032 77.861C86.02 77.3018 86.2997 76.7674 86.5346 76.2149C86.7581 75.6888 86.7551 75.143 87.3981 75.034C87.5077 75.0156 87.7764 75.2501 88.053 75.0558C88.3377 74.8557 88.388 74.5724 88.7049 74.5736C88.8861 74.5742 89.1299 74.6307 89.3108 74.5699C89.4904 74.5092 89.6028 74.2519 89.787 74.2261C90.0879 74.1841 90.2676 74.0398 90.6603 74.1356C90.8888 74.1915 90.8838 74.4699 91.3533 74.4831C91.7795 74.4953 91.6687 74.6933 91.7964 75.034C91.8554 75.1918 92.2039 75.2867 92.2613 75.4447C92.4413 75.9395 92.6387 76.4813 92.6332 76.9783C92.6101 79.0542 92.2291 81.0705 91.3085 82.9561C90.9486 83.6928 90.5476 83.8788 89.76 83.6808C89.5137 83.6191 89.129 83.4641 88.9057 83.3438C88.4931 83.1206 88.0837 82.891 87.6803 82.6522C87.4908 82.5396 87.2967 82.3232 87.1122 82.5651C86.9949 82.7188 87.056 82.8435 87.1589 82.9451C87.4177 83.1998 87.913 83.5227 88.2388 83.6827C89.0627 84.0872 89.9098 84.4411 90.863 84.222C91.0441 84.7809 91.2152 85.2656 91.3582 85.7589C91.5968 86.5821 91.8145 87.4115 92.047 88.2369C92.129 88.527 92.1284 88.8717 92.4637 89.0141C92.8211 88.8385 92.678 88.5859 92.616 88.3615C92.257 87.0628 91.9005 85.7632 91.5213 84.4703C91.4252 84.1428 91.4316 83.8856 91.614 83.574C92.1106 82.725 92.4861 81.8164 92.6832 80.8477C92.8638 79.9594 93.0133 79.0646 93.1834 78.1744C93.219 77.9872 93.2353 77.765 93.3462 77.629C93.8633 76.997 93.9293 76.271 93.9311 75.4923C93.933 74.6906 93.4724 74.3394 93.2553 73.6297Z" fill="black"/>
<path fill-rule="evenodd" clip-rule="evenodd" d="M90.5675 76.9248L91.0929 79.0026L90.3268 79.079L90.5675 76.9248Z" fill="black"/>
<path fill-rule="evenodd" clip-rule="evenodd" d="M90.5675 76.9248L91.0929 79.0026L90.3268 79.079L90.5675 76.9248Z" stroke="black" stroke-width="0.127528" stroke-linejoin="round"/>
<path fill-rule="evenodd" clip-rule="evenodd" d="M90.5693 80.4143C90.5475 80.4143 90.5263 80.4138 90.5064 80.4125C89.942 80.379 89.4089 79.9038 89.2925 79.3302C89.2855 79.296 89.3122 79.2636 89.3518 79.2575C89.3917 79.252 89.4292 79.2746 89.4363 79.3086C89.5394 79.8192 90.0246 80.2586 90.5165 80.2879C90.807 80.3047 91.3486 80.1904 91.7076 79.2298C91.7199 79.1969 91.761 79.179 91.7994 79.1895C91.8378 79.2001 91.8587 79.2351 91.8464 79.2678C91.4804 80.2476 90.9126 80.4143 90.5693 80.4143Z" fill="black"/>
<path fill-rule="evenodd" clip-rule="evenodd" d="M88.9258 77.3636C88.311 77.3636 87.9272 77.9465 87.7242 78.3904C88.7065 78.0414 89.6458 78.1132 89.9931 78.1583C89.866 77.9186 89.5301 77.4011 88.9912 77.3658C88.9691 77.3643 88.9473 77.3636 88.9258 77.3636ZM87.5897 78.5921C87.571 78.5921 87.5523 78.5847 87.5385 78.5709C87.5179 78.55 87.5114 78.5193 87.5225 78.4923C87.7215 77.9941 88.1796 77.1663 89.0007 77.2203C89.3302 77.2421 89.6406 77.4235 89.8976 77.7452C90.0883 77.984 90.1826 78.2142 90.1863 78.2237C90.1964 78.2486 90.1921 78.2768 90.1752 78.2971C90.1583 78.3176 90.1316 78.3278 90.1052 78.3225C90.0929 78.3201 88.8456 78.0923 87.6171 78.5865C87.6085 78.5902 87.5993 78.5921 87.5897 78.5921Z" fill="black"/>
<path fill-rule="evenodd" clip-rule="evenodd" d="M91.5463 78.0201C92.0754 78.0201 92.6962 78.1469 92.9486 78.2043C92.8881 77.9646 92.7015 77.409 92.2584 77.3408C91.9697 77.2969 91.7161 77.3482 91.5239 77.4894C91.3562 77.6125 91.2398 77.8034 91.1843 78.0453C91.2954 78.0275 91.4179 78.0201 91.5463 78.0201ZM93.0447 78.3743C93.0386 78.3743 93.0328 78.3737 93.0269 78.3722C93.014 78.3691 91.7397 78.0539 91.1103 78.2086C91.0866 78.2144 91.0617 78.208 91.0436 78.1917C91.0258 78.1751 91.0169 78.1512 91.0209 78.1269C91.0703 77.7967 91.2147 77.5358 91.4376 77.3718C91.6614 77.2073 91.9528 77.1465 92.2808 77.1969C92.5608 77.2402 92.7945 77.4452 92.9572 77.7902C93.0758 78.0425 93.1148 78.2801 93.1166 78.2899C93.1206 78.3142 93.112 78.3387 93.0939 78.3553C93.0804 78.3679 93.0626 78.3743 93.0447 78.3743Z" fill="black"/>
<path fill-rule="evenodd" clip-rule="evenodd" d="M91.2398 77.9554C91.2398 77.6394 91.446 77.3833 91.7005 77.3833C91.9548 77.3833 92.161 77.6394 92.161 77.9554C92.161 78.0272 92.1485 78.1485 92.129 78.2121C91.9083 78.1282 91.445 78.0383 91.2658 78.1067C91.2498 78.0548 91.2398 78.003 91.2398 77.9554Z" fill="black"/>
<path fill-rule="evenodd" clip-rule="evenodd" d="M87.9119 78.0606C87.9119 77.7448 88.1868 77.4888 88.5259 77.4888C88.8652 77.4888 89.1401 77.8166 89.1401 78.1324C88.7165 78.2264 88.2042 78.2675 88.0118 78.3356C87.9546 78.246 87.9119 78.1466 87.9119 78.0606Z" fill="black"/>
<path fill-rule="evenodd" clip-rule="evenodd" d="M89.8589 75.6597C89.8589 75.6597 90.0806 76.2469 89.9744 76.4095C89.422 76.3899 87.7497 76.2263 87.1267 77.1465C87.3346 75.7017 89.8589 75.6597 89.8589 75.6597Z" fill="black"/>
<path d="M89.8948 75.6462L89.8583 75.6213L89.7708 75.6248L89.7387 75.6266C89.6441 75.6322 89.5388 75.6411 89.4255 75.6543C89.1015 75.6918 88.7774 75.7551 88.4745 75.8504C87.6875 76.0978 87.1789 76.5145 87.0887 77.1411C87.0829 77.1814 87.1356 77.2018 87.1585 77.1681C87.4213 76.7799 87.8927 76.5602 88.5272 76.471L88.6381 76.4568C88.9336 76.4225 89.2284 76.4176 89.5947 76.4311L89.973 76.4479L90.0065 76.4306C90.0541 76.3576 90.051 76.2263 90.0131 76.0474C90.0011 75.9906 89.9858 75.9308 89.9679 75.8692C89.9406 75.7746 89.9132 75.6948 89.8948 75.6462ZM89.9511 76.3702L89.7392 76.3604C89.253 76.3378 88.8932 76.342 88.5165 76.395L88.4196 76.4098C87.9097 76.4944 87.506 76.6678 87.2339 76.9528L87.1995 76.9905L87.2077 76.9622C87.3611 76.4747 87.8203 76.1365 88.4975 75.9236C88.7953 75.8299 89.1148 75.7675 89.4343 75.7305C89.5462 75.7175 89.6501 75.7087 89.7432 75.7032L89.8323 75.6986L89.8627 75.7877C89.8728 75.8189 89.8835 75.8536 89.8942 75.8906C89.9115 75.9505 89.9264 76.0085 89.938 76.0633L89.948 76.1146C89.9688 76.2307 89.9707 76.3199 89.9511 76.3702Z" fill="black"/>
<path fill-rule="evenodd" clip-rule="evenodd" d="M90.9019 76.4147C91.3608 76.3515 92.7436 76.0565 93.3239 76.9249C93.0552 75.5006 90.9489 75.6575 90.9489 75.6575C90.9489 75.6575 90.8028 76.2606 90.9019 76.4147Z" fill="black"/>
<path d="M90.9959 75.6167L90.946 75.6193L90.9116 75.6485L90.8885 75.7531C90.8827 75.7819 90.8765 75.8139 90.8704 75.8482C90.8579 75.9178 90.8476 75.9856 90.8404 76.0496C90.8197 76.2338 90.8252 76.3664 90.8696 76.4355L90.9071 76.4528L91.2046 76.4085C91.567 76.3571 91.869 76.3388 92.1643 76.3662C92.6706 76.4131 93.0565 76.5939 93.292 76.9463C93.3152 76.981 93.3694 76.9589 93.3616 76.9178C93.2479 76.3152 92.8122 75.9412 92.1612 75.7512C91.761 75.6345 91.3441 75.6025 90.9959 75.6167ZM92.2168 75.8486C92.7235 76.0128 93.0797 76.2977 93.2317 76.7283L93.241 76.7572L93.2178 76.7316C92.9666 76.4697 92.6108 76.3305 92.1714 76.2898C91.9068 76.2653 91.6384 76.2765 91.329 76.3146L91.1155 76.344L90.9239 76.3726L90.9173 76.3513C90.902 76.2894 90.9022 76.1872 90.9167 76.0582C90.9237 75.996 90.9337 75.9298 90.9459 75.8618L90.955 75.8131C90.9639 75.7664 90.9725 75.7259 90.9795 75.6942L90.999 75.6933C91.3396 75.6795 91.7488 75.7109 92.1397 75.8249L92.2168 75.8486Z" fill="black"/>
<path d="M88.7769 77.9164C88.9465 77.9164 89.084 77.7789 89.084 77.6093C89.084 77.4397 88.9465 77.3022 88.7769 77.3022C88.6073 77.3022 88.4698 77.4397 88.4698 77.6093C88.4698 77.7789 88.6073 77.9164 88.7769 77.9164Z" fill="white"/>
<path d="M92.1546 77.9164C92.3242 77.9164 92.4617 77.7789 92.4617 77.6093C92.4617 77.4397 92.3242 77.3022 92.1546 77.3022C91.985 77.3022 91.8475 77.4397 91.8475 77.6093C91.8475 77.7789 91.985 77.9164 92.1546 77.9164Z" fill="white"/>
<path d="M92.4617 77.9164C92.6313 77.9164 92.7687 77.7789 92.7687 77.6093C92.7687 77.4397 92.6313 77.3022 92.4617 77.3022C92.2921 77.3022 92.1546 77.4397 92.1546 77.6093C92.1546 77.7789 92.2921 77.9164 92.4617 77.9164Z" fill="white"/>
<path fill-rule="evenodd" clip-rule="evenodd" d="M105.539 33.5552C105.539 36.243 105.561 38.8495 105.53 41.4556C105.516 42.7066 105.394 43.956 105.338 45.2073C105.272 46.7052 105.223 48.2038 105.17 49.7022C105.096 51.7533 104.989 53.8044 104.967 55.856C104.956 56.961 105.081 58.0679 105.165 59.1727C105.211 59.7713 105.556 60.1904 106.064 60.4979C106.653 60.8543 107.304 60.9558 107.971 60.9622C109.691 60.9792 111.411 60.975 113.131 60.983C113.289 60.9838 113.448 61.012 113.608 61.028C113.803 63.0256 113.244 64.9092 112.949 66.932C114.045 66.4037 114.943 65.8218 115.761 65.135C116.99 64.1032 117.782 62.7558 118.385 61.2985C118.526 60.9591 118.702 60.8378 119.067 60.8242C121.593 60.7292 124.118 60.5691 126.644 60.5123C130.705 60.4211 134.767 60.388 138.828 60.3412C142.268 60.3019 145.707 60.3266 149.143 60.5313C149.502 60.5527 149.866 60.4915 150.238 60.4679C150.288 60.0773 150.36 59.7533 150.366 59.4281C150.384 58.4633 150.401 57.4975 150.372 56.5332C150.322 54.8514 150.2 53.1711 150.176 51.4889C150.14 49.0245 150.129 46.5585 150.174 44.0945C150.216 41.7721 150.243 39.4554 149.935 37.1466C149.862 36.5983 149.865 36.0359 149.747 35.4981C149.523 34.4643 149.148 33.4856 148.339 32.7395C146.951 31.4602 145.275 30.8888 143.409 30.8752C142.375 30.8678 141.338 30.9389 140.306 31.0237C138.201 31.1971 136.099 31.4194 133.994 31.5928C131.682 31.7835 129.366 31.9386 127.053 32.1139C125.049 32.2655 123.047 32.4296 121.043 32.5771C119.183 32.7146 117.319 32.8058 115.462 32.9733C112.345 33.2544 109.224 33.4509 106.096 33.5208C105.913 33.5249 105.732 33.5429 105.539 33.5552ZM118.95 61.6464C118.731 62.5557 118.229 63.2872 117.777 64.0446C116.91 65.4996 115.535 66.376 114.125 67.2143C113.877 67.3618 113.619 67.4964 113.358 67.6192C113.173 67.7066 112.979 67.7963 112.779 67.8294C112.309 67.9083 112.075 67.6735 112.151 67.1997C112.262 66.5111 112.403 65.8269 112.517 65.1388C112.679 64.1677 112.829 63.1947 112.979 62.2217C112.997 62.1053 112.981 61.9835 112.981 61.8101C112.765 61.7977 112.565 61.7767 112.365 61.7767C111.121 61.7772 109.877 61.809 108.635 61.7756C107.956 61.7577 107.269 61.6844 106.606 61.5431C105.432 61.2921 104.423 60.4653 104.317 58.9181C104.153 56.5176 104.133 54.123 104.281 51.7209C104.431 49.2824 104.469 46.8367 104.643 44.4005C104.8 42.2038 104.739 40.0091 104.758 37.8131C104.77 36.4382 104.811 35.0632 104.838 33.6883C104.845 33.334 105.121 33.0046 105.505 32.9152C105.645 32.8826 105.793 32.8754 105.937 32.8728C109.627 32.8004 113.298 32.4461 116.973 32.1465C119.346 31.9528 121.722 31.7799 124.097 31.5985C127.132 31.3665 130.169 31.145 133.203 30.9014C136.073 30.6709 138.94 30.4158 141.809 30.1761C143.566 30.0291 145.27 30.173 146.911 30.9101C149.013 31.8544 150.271 33.4368 150.582 35.6723C150.918 38.0898 151.11 40.5219 151.052 42.974C150.986 45.7648 150.997 48.5587 151.027 51.3505C151.044 53.0326 151.179 54.7132 151.225 56.3953C151.256 57.4823 151.242 58.572 151.203 59.659C151.191 60.0126 151.092 60.3859 150.939 60.7066C150.705 61.1986 150.261 61.3535 149.708 61.3319C147.928 61.2623 146.147 61.1819 144.365 61.1814C139.144 61.1801 133.922 61.0601 128.702 61.2741C125.679 61.398 122.655 61.4817 119.632 61.5865C119.408 61.5942 119.186 61.6251 118.95 61.6464Z" fill="black"/>
<path fill-rule="evenodd" clip-rule="evenodd" d="M128.425 52.3983C128.586 52.1842 128.68 52.0776 128.753 51.9591C129.766 50.3319 130.77 48.7 131.787 47.0761C132.499 45.9395 133.26 44.8311 133.939 43.6763C134.337 43.0005 134.685 42.2796 134.928 41.5387C135.068 41.1129 134.997 40.6027 134.946 40.1384C134.894 39.674 134.55 39.4165 134.082 39.4311C133.576 39.4468 133.045 39.4556 132.574 39.61C130.808 40.1882 129.286 41.1189 128.275 42.7178C128.035 43.0976 127.771 43.1292 127.446 42.8333C127.358 42.7529 127.293 42.648 127.208 42.5626C126.398 41.7416 125.62 40.8852 124.764 40.1122C123.713 39.1628 122.447 38.6298 121 38.6109C119.386 38.5901 118.233 39.6917 118.402 41.1187C118.465 41.6526 118.609 42.2101 118.863 42.6816C119.256 43.4147 119.703 44.1455 120.256 44.7662C121.246 45.8758 122.292 46.9447 123.387 47.9543C125.013 49.453 126.702 50.8851 128.425 52.3983ZM127.614 41.7853C128.486 41.0795 129.261 40.3967 130.095 39.792C131.067 39.087 132.189 38.6882 133.389 38.5454C133.742 38.5035 134.114 38.5457 134.468 38.6025C135.138 38.7107 135.529 39.1471 135.721 39.7591C136.013 40.685 135.956 41.6152 135.55 42.4815C135.095 43.4521 134.589 44.4058 134.026 45.3201C132.445 47.887 130.823 50.4302 129.217 52.9825C129.14 53.1038 129.072 53.2324 128.98 53.3416C128.668 53.7113 128.424 53.7204 128.063 53.4018C126.64 52.1425 125.192 50.9083 123.795 49.6221C122.203 48.1564 120.571 46.7226 119.283 44.9714C118.7 44.1781 118.152 43.3609 117.845 42.4196C117.589 41.6347 117.509 40.8258 117.735 40.0262C118.074 38.8287 118.939 38.1621 120.146 37.9008C121.496 37.6089 122.753 37.9326 123.943 38.5353C124.992 39.0665 125.841 39.8544 126.628 40.7063C126.969 41.0757 127.306 41.4485 127.614 41.7853Z" fill="black"/>
</g>
</g>
</svg>

