<svg width="176" height="176" viewBox="0 0 176 176" fill="none" xmlns="http://www.w3.org/2000/svg">
<mask id="mask0" mask-type="alpha" maskUnits="userSpaceOnUse" x="0" y="0" width="176" height="176">
<circle cx="88" cy="88" r="88" fill="#C4C4C4"/>
</mask>
<g mask="url(#mask0)">
<path fill-rule="evenodd" clip-rule="evenodd" d="M185.659 161.144L192.399 21.7609C71.753 -15.9738 46.9806 3.96204 40.2899 23.6192C30.2538 53.1051 66.1853 57.6138 75.0459 78.6775C83.9065 99.7412 83.4372 110.872 64.0818 133.792C44.7263 156.713 30.3865 213.237 65.0858 225.048C88.2187 232.922 120.334 235.223 161.432 231.952L185.659 161.144Z" fill="#FBF9FF"/>
<path fill-rule="evenodd" clip-rule="evenodd" d="M-78.3201 176.247C-62.076 159.996 -44.3523 138.994 -25.1488 113.241C3.65634 74.611 118.809 147.937 131.889 156.995C140.609 163.033 143.895 169.472 141.748 176.311L-78.3201 176.247Z" fill="#B28960"/>
<path fill-rule="evenodd" clip-rule="evenodd" d="M24.3954 114.855C23.5838 114.482 22.838 114.337 22.0455 114.609C21.4553 114.813 20.997 115.218 20.6913 115.777C20.3994 116.309 20.596 116.663 21.1715 116.67C21.4031 116.673 21.6454 116.636 21.8697 116.566C22.828 116.27 23.6188 115.688 24.3954 114.855ZM45.951 100.445C46.0481 100.48 46.1399 100.516 46.2332 100.548C47.1455 100.855 47.5665 100.607 47.6679 99.6076C47.7212 99.0818 47.6724 98.5363 47.5921 98.0151C47.2426 95.7472 46.4727 93.6369 45.4635 91.6236C44.6277 89.9566 43.6217 88.4159 42.3408 87.0846C41.8415 86.5657 41.2974 86.1053 40.6527 85.7892C39.8243 85.3828 39.0685 85.6065 38.6061 86.4497C38.414 86.8002 38.2296 87.2372 38.2553 87.6119C38.304 88.3199 38.4362 89.0394 38.6644 89.7019C38.9537 90.5413 39.3719 91.3291 39.7369 92.138C40.6094 94.072 41.4292 96.0383 42.7184 97.7216C43.6014 98.8749 44.594 99.8945 45.951 100.445ZM9.24677 81.7834C10.2273 82.0021 11.1219 82.2528 12.0354 82.3965C15.8202 82.9924 19.6437 83.0186 23.469 82.5814C25.9168 82.3021 28.3538 81.8415 30.7847 81.3852C32.8228 81.0025 34.8509 80.5403 36.8716 80.0514C38.0207 79.7733 39.1166 79.3022 40.1284 78.627C40.5714 78.3316 40.799 77.9358 40.6871 77.4252C40.5072 76.6035 40.0835 75.8758 39.4156 75.4478C38.7601 75.0279 37.9907 74.7747 37.2457 74.5244C36.0427 74.1199 34.7725 74.0344 33.5124 73.9255C31.5209 73.7532 29.5186 73.8393 27.5178 73.8639C24.8051 73.8974 22.0927 73.9717 19.384 74.2146C17.901 74.3473 16.4194 74.563 14.9456 74.8089C13.1113 75.1149 11.3079 75.5777 9.61952 76.4603C8.71623 76.9324 7.86797 77.4953 7.20564 78.3073C6.50474 79.1673 6.56494 80.0842 7.41644 80.713C7.99887 81.1425 8.66682 81.4497 9.24677 81.7834ZM40.5059 95.5093C39.6367 95.9774 38.8047 96.3919 38.0023 96.8638C35.7867 98.1663 33.7286 99.6979 31.9679 101.631C30.4804 103.263 29.1541 105.019 28.243 107.071C27.9964 107.626 27.7143 108.173 27.5377 108.75C27.357 109.34 27.2994 109.965 27.1632 110.57C26.8705 111.871 26.4246 113.113 25.6912 114.237C25.6476 114.304 25.6255 114.385 25.5808 114.489C25.6513 114.558 25.7108 114.638 25.7883 114.688C27.4915 115.794 28.5128 117.436 29.1381 119.383C29.6637 121.02 29.9046 122.724 29.9854 124.452C30.1916 128.862 29.8271 133.255 29.0843 137.625C28.5164 140.965 27.9062 144.3 27.2673 147.629C26.7998 150.064 26.2587 152.487 25.7406 154.913C25.6502 155.337 25.5213 155.754 25.3897 156.168C25.3351 156.341 25.248 156.516 25.1345 156.654C25.0746 156.727 24.9106 156.77 24.8228 156.74C24.7353 156.711 24.6396 156.581 24.6279 156.482C24.6099 156.325 24.6462 156.156 24.6808 155.996C25.2826 153.228 25.9295 150.469 26.4814 147.692C27.1385 144.389 27.7454 141.075 28.318 137.758C29.0651 133.429 29.4225 129.075 29.2473 124.706C29.1742 122.877 28.9293 121.067 28.324 119.346C27.7303 117.659 26.814 116.229 25.314 115.274C25.2487 115.232 25.1775 115.201 25.0554 115.136C24.9181 115.272 24.7766 115.411 24.6359 115.552C23.9905 116.196 23.2685 116.723 22.448 117.089C21.9641 117.305 21.4631 117.443 20.9365 117.391C20.0503 117.303 19.6479 116.58 19.9972 115.711C20.5346 114.374 22.1342 113.524 23.5771 113.821C24.019 113.912 24.4525 114.04 24.9246 114.159C25.2714 113.755 25.5185 113.283 25.7307 112.79C26.4007 111.233 26.7524 109.601 26.9336 107.93C27.246 105.048 27.2384 102.169 27.0892 99.2956C26.9005 95.6598 26.5091 92.0549 25.7623 88.5101C25.4206 86.8877 24.9389 85.3145 24.3162 83.7931C24.0877 83.2348 24.0838 83.2411 23.4742 83.297C19.7828 83.6368 16.1031 83.6664 12.4511 83.1423C10.9445 82.9261 9.44968 82.6334 8.09271 81.9015C7.67925 81.6784 7.27125 81.4218 6.91803 81.1109C5.95256 80.261 5.86025 79.1419 6.62826 78.0441C7.12359 77.336 7.7937 76.8343 8.49543 76.3789C9.87824 75.4815 11.394 74.9579 12.9561 74.571C15.4108 73.9629 17.9054 73.726 20.398 73.4651C25.274 72.9551 30.1432 73.0047 35.0107 73.1704C35.7403 73.1951 36.4742 73.2781 37.1858 73.4265C38.3471 73.6689 39.3815 74.18 40.1017 75.1959C40.4374 75.6689 40.7886 76.1358 41.0654 76.6464C41.6001 77.6319 41.3419 78.5667 40.4048 79.2138C39.1791 80.0602 37.8191 80.5779 36.4123 80.89C33.5655 81.5216 30.706 82.081 27.8489 82.6531C26.9688 82.8294 26.0798 82.949 25.1952 83.0974C25.0801 83.1168 24.967 83.1524 24.8111 83.1908C24.9836 83.6301 25.1478 84.0398 25.306 84.4523C26.1157 86.5645 26.5895 88.7797 26.9395 91.0269C27.605 95.3003 27.9625 99.61 27.8787 103.967C27.8646 104.705 27.8242 105.443 27.8443 106.211C29.2627 103.684 31.0129 101.449 33.148 99.5463C35.273 97.6524 37.6496 96.177 40.194 94.9213C40.1323 94.7497 40.0876 94.5984 40.0243 94.4563C39.4493 93.1633 38.8747 91.8701 38.2925 90.5808C37.9395 89.7978 37.7304 88.9649 37.6571 88.106C37.6182 87.6497 37.6639 87.1482 37.8058 86.7103C38.3076 85.1591 39.6898 84.5813 41.063 85.3011C41.8045 85.6901 42.4359 86.2284 43.0127 86.8391C44.8021 88.7345 46.0506 90.9985 47.0389 93.4349C47.6269 94.8833 48.0877 96.3821 48.3106 97.9503C48.399 98.5713 48.4278 99.2201 48.3696 99.8484C48.2563 101.075 47.5166 101.603 46.3711 101.332C45.4943 101.126 44.7163 100.704 44.0138 100.138C42.6479 99.0372 41.6557 97.6152 40.8123 96.0658C40.7267 95.908 40.6392 95.7516 40.5059 95.5093Z" fill="black"/>
<path fill-rule="evenodd" clip-rule="evenodd" d="M64.1671 139.687C64.8568 135.75 65.6577 132.907 66.5697 131.157C67.4818 129.407 69.4117 126.093 72.3595 121.214L78.6879 113.199C80.0147 111.27 80.9741 110.536 81.566 110.997C82.4539 111.689 84.5462 111.907 85.3667 114.573C85.9137 116.351 88.016 124.057 91.6734 137.691L81.566 143.389L82.8248 146.407V149.279C80.5274 152.564 78.8926 154.207 77.9202 154.207C76.4618 154.207 69.4766 154.207 69.4766 154.207C69.4766 154.207 64.8182 153.559 64.1671 149.832C63.733 147.348 63.733 143.966 64.1671 139.687Z" fill="white"/>
<path fill-rule="evenodd" clip-rule="evenodd" d="M46.6218 151.807C44.4334 151.673 44.1413 151.72 43.7762 152.196C44.7152 152.068 45.6685 151.937 46.6218 151.807ZM89.1476 143.583C89.3384 143.526 89.5264 143.46 89.7198 143.415C90.2914 143.283 90.5533 143.528 90.5076 144.111C90.4654 144.644 90.3971 145.185 90.4461 145.713C90.5035 146.334 90.6567 146.948 90.8061 147.556C90.8671 147.803 91.022 148.051 91.3581 147.953C91.6519 147.868 91.6587 147.612 91.6162 147.378C91.3789 146.071 91.1366 144.764 90.8732 143.462C90.8416 143.306 90.6746 143.064 90.5612 143.058C90.038 143.033 89.5332 143.141 89.1476 143.583ZM57.0848 146.261C58.7609 146.644 60.3924 147.017 62.0242 147.389C62.2973 147.451 62.4033 147.273 62.469 147.056C62.5337 146.842 62.5492 146.634 62.3031 146.518C62.1988 146.468 62.0866 146.43 61.9741 146.403C60.6367 146.081 59.3008 145.755 57.9599 145.448C57.3702 145.313 57.2536 145.421 57.0848 146.261ZM112.854 111.057C112.975 110.901 113.057 110.819 113.112 110.722C113.512 110.014 113.498 109.958 112.802 109.509C111.879 108.912 110.956 108.314 110.03 107.722C109.879 107.626 109.708 107.563 109.506 107.464C109.321 107.716 109.161 107.933 108.939 108.235C110.272 109.196 111.551 110.118 112.854 111.057ZM83.2215 146.094C83.4163 146.094 83.4688 146.109 83.5075 146.092C84.9828 145.444 86.4565 144.791 87.9327 144.144C88.2641 143.999 88.2884 143.748 88.2122 143.448C88.0162 142.678 87.8246 141.908 87.6219 141.14C87.5826 140.99 87.5009 140.852 87.4244 140.676C87.2155 140.761 87.0418 140.819 86.8789 140.899C86.3548 141.158 85.8354 141.425 85.3136 141.688C84.5214 142.088 83.7266 142.484 82.9373 142.891C82.669 143.029 82.3455 143.17 82.456 143.561C82.6962 144.409 82.9643 145.249 83.2215 146.094ZM45.0878 152.732C45.711 153.11 46.3889 153.152 47.0446 153.175C49.3362 153.255 51.6295 153.294 53.9222 153.319C54.9286 153.33 55.9297 153.255 56.8674 152.812C57.1396 152.683 57.4417 152.608 57.737 152.54C57.9892 152.483 58.2933 152.442 58.3768 152.776C58.4506 153.071 58.1837 153.165 57.9614 153.248C57.2603 153.509 56.5504 153.749 55.8576 154.031C55.2104 154.294 54.5811 154.602 53.9436 154.89C53.9624 154.944 53.9808 154.998 53.9999 155.052C56.0269 154.716 58.0534 154.375 60.0813 154.046C60.5254 153.974 60.77 153.766 60.8846 153.307C61.252 151.832 61.6642 150.369 62.0529 148.899C62.1051 148.702 62.1221 148.496 62.1684 148.214C60.6115 147.856 59.0998 147.509 57.5738 147.158C57.49 147.354 57.4314 147.478 57.3834 147.605C56.8493 149.029 56.3123 150.451 55.7861 151.877C55.6487 152.251 55.4278 152.438 55.0074 152.439C54.4004 152.441 53.7936 152.517 53.1866 152.525C51.1502 152.55 49.1135 152.546 47.0777 152.579C46.4135 152.59 45.7508 152.679 45.0878 152.732ZM89.6636 144.348C89.2645 144.467 88.9654 144.523 88.6944 144.642C87.067 145.358 85.4481 146.094 83.8209 146.81C83.5262 146.94 83.363 147.114 83.387 147.444C83.3991 147.608 83.3891 147.772 83.3979 147.936C83.5016 149.865 83.3384 151.767 82.8178 153.633C82.7891 153.735 82.814 153.853 82.814 153.984C83.6065 153.984 84.3729 153.963 85.1375 153.991C85.7478 154.013 86.1679 153.809 86.3982 153.219C86.4978 152.965 86.6363 152.663 86.9729 152.677C87.362 152.692 87.3998 153.051 87.5009 153.332C87.7039 153.899 87.7042 153.906 88.2904 153.93C89.6231 153.982 90.9555 154.041 92.2885 154.07C94.581 154.121 96.8737 154.155 99.1665 154.185C99.6974 154.193 99.8409 154.085 99.9024 153.732C99.9701 153.347 99.8242 153.09 99.4032 152.92C99.1659 152.825 98.9125 152.766 98.6649 152.697C96.0288 151.967 93.5609 150.871 91.2705 149.367C90.6916 148.986 90.3075 148.493 90.0655 147.866C89.7928 147.162 89.6445 146.432 89.6618 145.672C89.6712 145.26 89.6636 144.849 89.6636 144.348ZM92.7456 148.768C93.042 148.74 93.2726 148.73 93.4991 148.695C94.17 148.591 94.8403 148.483 95.5085 148.365C98.089 147.907 100.668 147.442 103.248 146.987C105.167 146.648 107.057 146.205 108.858 145.445C110.703 144.667 112.209 143.489 113.157 141.685C114.237 139.632 114.036 137.087 112.526 135.524C111.808 134.781 110.913 134.153 109.995 133.667C108.719 132.991 107.373 132.416 106.007 131.94C101.122 130.235 96.0397 129.379 90.9485 128.578C90.6678 128.534 90.3725 128.581 89.9726 128.587C90.1267 129.194 90.246 129.688 90.3775 130.178C91.0065 132.529 91.6446 134.878 92.266 137.231C92.4567 137.954 92.4397 137.993 91.7937 138.347C90.8287 138.875 89.8478 139.374 88.8758 139.89C88.6549 140.007 88.4425 140.14 88.2219 140.269C88.4252 141.073 88.6127 141.812 88.8183 142.625C89.4441 142.463 89.9972 142.32 90.6134 142.16C90.4748 141.577 90.3371 141.061 90.2313 140.538C90.1182 139.978 90.1651 139.889 90.6968 139.708C93.2682 138.832 95.8416 137.964 98.4165 137.1C98.9488 136.921 99.4896 136.767 100.029 136.611C100.269 136.542 100.507 136.54 100.612 136.829C100.698 137.063 100.541 137.273 100.207 137.374C99.9836 137.441 99.7498 137.476 99.5286 137.55C96.9069 138.422 94.286 139.297 91.6663 140.175C91.4539 140.245 91.2514 140.346 91.0519 140.429C91.6244 143.249 92.1807 145.987 92.7456 148.768ZM96.8207 118.915C96.8368 118.918 96.8529 118.92 96.8694 118.923C96.8978 119.39 96.92 119.857 96.9567 120.323C97.0697 121.768 97.1691 123.215 97.3129 124.657C97.4011 125.54 97.5274 126.422 97.699 127.293C97.8985 128.307 98.2404 128.581 99.2828 128.626C100.556 128.681 101.737 128.33 102.847 127.727C104.403 126.883 105.506 125.599 106.31 124.051C107.264 122.217 108.352 120.48 109.694 118.898C110.465 117.989 111.18 117.03 111.898 116.077C112.579 115.173 112.893 114.129 112.995 113.01C113.05 112.394 112.845 111.966 112.306 111.601C111.086 110.776 109.905 109.889 108.728 109.002C108.429 108.776 108.176 108.75 107.917 108.984C107.486 109.375 107.004 109.739 106.677 110.207C106.142 110.97 105.705 111.803 105.245 112.616C104.669 113.634 104.203 114.736 103.333 115.543C102.73 116.102 102.128 116.638 101.723 117.37C101.655 117.493 101.409 117.614 101.277 117.586C101.024 117.534 101.014 117.281 101.08 117.067C101.133 116.891 101.206 116.708 101.316 116.562C101.583 116.209 101.846 115.843 102.167 115.542C102.48 115.25 102.598 114.947 102.466 114.547C102.166 113.639 101.879 112.726 101.557 111.825C101.337 111.21 101.03 110.625 100.825 110.006C100.471 108.94 100.158 107.861 99.8441 106.783C99.1425 104.37 97.4465 103.084 95.0506 102.733C93.7624 102.544 92.4382 102.61 91.1316 102.538C90.5624 102.506 90.183 102.712 89.8408 103.182C89.1447 104.138 88.2301 104.798 87.0134 104.969C84.9852 105.255 83.2874 104.513 81.7863 103.251C81.3799 102.91 81.0178 102.79 80.5198 102.889C79.7628 103.039 78.9969 103.143 78.2376 103.282C76.834 103.538 75.4313 103.801 74.0306 104.072C73.4772 104.179 73.0237 104.479 72.7201 104.947C72.3053 105.587 71.7185 106.021 71.1416 106.5C70.2273 107.258 69.3739 108.102 68.577 108.985C67.3067 110.392 66.1296 111.876 65.1924 113.54C64.3718 114.997 63.7911 116.553 63.2189 118.112C62.3526 120.471 61.3296 122.751 59.9292 124.846C58.8151 126.513 57.9397 128.288 57.3898 130.219C57.0883 131.277 56.7546 132.34 56.8273 133.453C56.8636 134.007 56.7807 134.512 56.6389 135.037C56.4327 135.803 56.208 136.576 56.1262 137.36C55.8766 139.757 56.7183 141.969 57.3974 144.204C57.4815 144.481 57.6719 144.603 57.9517 144.667C59.4113 145.004 60.865 145.365 62.3242 145.703C62.8044 145.814 62.8964 145.721 62.9409 145.233C63.0306 144.256 63.1056 143.276 63.2272 142.302C63.5872 139.421 64.0694 136.562 64.9214 133.777C64.9964 133.532 65.0605 133.277 65.1789 133.053C65.88 131.73 66.6156 130.426 67.3035 129.096C69.4046 125.036 71.7938 121.151 74.3816 117.385C75.5927 115.623 76.9731 114.003 78.5619 112.57C79.0643 112.117 79.5958 111.685 80.1618 111.316C81.464 110.47 82.7302 110.616 83.8801 111.668C84.6017 112.328 85.0942 113.144 85.5512 113.993C86.682 116.097 87.2794 118.386 87.8762 120.674C88.4135 122.733 88.9379 124.796 89.4172 126.87C89.5593 127.484 89.8921 127.694 90.4595 127.781C92.2633 128.058 94.0633 128.36 95.8624 128.666C96.8043 128.827 96.8943 128.797 96.8483 127.822C96.8058 126.915 96.6552 126.013 96.5556 125.108C96.3127 122.898 96.0965 120.687 96.1202 118.459C96.1226 118.235 96.0728 117.989 95.9729 117.79C95.5533 116.956 95.5982 116.849 96.4879 116.749C96.9186 116.7 97.0405 116.828 96.9924 117.252C96.9291 117.806 96.8773 118.361 96.8207 118.915ZM114.602 109.507C114.227 110.005 113.984 110.607 113.722 111.181C113.633 111.377 113.62 111.643 113.664 111.859C113.971 113.394 113.637 114.817 112.784 116.077C111.971 117.276 111.052 118.406 110.133 119.528C109.001 120.912 108.032 122.393 107.212 123.981C106.52 125.32 105.671 126.543 104.477 127.507C103.415 128.363 102.232 128.938 100.906 129.23C100.64 129.289 100.374 129.348 99.9757 129.437C101.057 129.707 102.01 129.938 102.958 130.186C104.837 130.677 106.724 131.136 108.503 131.957C109.786 132.548 110.976 133.268 112.126 134.089C114.906 136.075 115.251 139.874 113.632 142.438C112.471 144.278 110.812 145.468 108.821 146.253C106.717 147.082 104.516 147.519 102.294 147.888C100.287 148.222 98.2876 148.609 96.284 148.969C95.5469 149.101 94.8072 149.217 94.0695 149.347C93.8002 149.394 93.5339 149.458 93.1507 149.539C93.3757 149.695 93.4953 149.791 93.6271 149.867C95.244 150.791 96.9842 151.41 98.7616 151.939C99.165 152.059 99.5825 152.152 99.9628 152.326C100.823 152.717 101.012 154.165 100.286 154.778C100.142 154.899 99.9007 154.958 99.705 154.956C97.1064 154.929 94.5075 154.894 91.9091 154.842C90.6456 154.817 89.3829 154.751 88.1196 154.702C87.6468 154.684 87.1569 154.703 86.9536 154.175C86.5566 154.392 86.2561 154.626 85.9162 154.724C85.5884 154.818 85.2201 154.779 84.8695 154.785C84.0497 154.798 83.2294 154.818 82.41 154.805C81.5463 154.792 81.4007 154.567 81.6131 153.706C81.8756 152.641 82.1285 151.572 82.3787 150.503C82.6139 149.499 82.3787 148.5 82.3338 147.498C82.3227 147.247 82.3699 146.993 82.3813 146.74C82.3915 146.514 82.4396 146.275 82.3845 146.064C82.2084 145.388 81.9864 144.725 81.7945 144.053C81.7236 143.806 81.6266 143.628 81.3295 143.623C81.0714 143.619 80.9967 143.426 80.9375 143.204C80.363 141.056 79.7613 138.916 79.2064 136.763C78.8033 135.2 78.4573 133.622 78.0905 132.049C78.0486 131.869 77.9935 131.673 78.0261 131.499C78.0507 131.368 78.191 131.189 78.3064 131.166C78.4198 131.143 78.6307 131.259 78.6864 131.37C78.7995 131.596 78.8405 131.858 78.9044 132.107C79.7557 135.416 80.605 138.726 81.4582 142.035C81.5039 142.213 81.5759 142.385 81.6339 142.555C82.301 142.443 89.1813 138.99 91.538 137.59C91.5054 137.391 91.4881 137.162 91.4293 136.944C90.8392 134.752 90.234 132.564 89.6489 130.37C88.8892 127.522 88.1469 124.671 87.3925 121.822C86.8235 119.673 86.3275 117.501 85.4261 115.455C84.9617 114.402 84.4236 113.39 83.6454 112.527C83.4746 112.338 83.2813 112.164 83.078 112.009C82.2723 111.396 81.4242 111.368 80.6047 111.945C79.9558 112.402 79.328 112.898 78.7432 113.435C77.3042 114.754 76.0895 116.274 74.981 117.874C72.3777 121.631 70.0128 125.532 67.9231 129.599C67.3559 130.703 66.6812 131.758 66.204 132.898C65.7092 134.079 65.2697 135.311 65.0271 136.563C64.5206 139.18 64.0987 141.817 63.7606 144.46C63.5588 146.04 63.6842 147.635 64.1225 149.193C64.8144 151.652 66.489 153.065 68.8975 153.639C69.8924 153.876 70.9316 153.94 71.954 154.045C72.6973 154.122 73.4467 154.164 74.1938 154.175C76.1537 154.204 77.9587 153.812 79.3453 152.263C79.8738 151.672 80.4656 151.138 81.0328 150.582C81.0955 150.52 81.1831 150.484 81.314 150.401C81.4702 150.772 81.3782 151.076 81.1845 151.333C79.9933 152.914 78.6214 154.237 76.5958 154.711C74.8526 155.119 73.1028 154.972 71.352 154.89C70.2507 154.839 69.1533 154.701 68.1203 154.288C66.3721 153.588 64.8004 152.649 63.961 150.857C63.6648 150.225 63.4621 149.548 63.2272 148.889C63.1592 148.699 63.1261 148.496 63.0402 148.153C62.6919 149.448 62.3802 150.593 62.0773 151.74C61.91 152.373 61.7298 153.005 61.6053 153.647C61.482 154.281 61.1532 154.627 60.5046 154.732C59.0032 154.975 57.5082 155.26 56.0085 155.515C55.4319 155.613 54.8512 155.702 54.2688 155.742C53.8552 155.771 53.4181 155.777 53.0234 155.673C52.5125 155.538 52.4313 155.061 52.8204 154.704C53.0214 154.519 53.2651 154.381 53.4892 154.222L53.443 154.087C51.8308 154.048 50.2177 154.031 48.6064 153.963C47.5561 153.92 46.509 153.802 45.4602 153.722C44.6121 153.657 43.9154 153.196 43.1929 152.826C42.5871 152.517 42.6079 151.862 43.2073 151.48C43.8178 151.091 44.5177 150.971 45.2267 150.98C46.1859 150.993 47.1442 151.05 48.1028 151.096C50.1134 151.192 52.1234 151.294 54.1344 151.393C54.321 151.402 54.5088 151.403 54.6963 151.399C54.9511 151.395 55.1457 151.296 55.2444 151.042C55.76 149.713 56.2789 148.385 56.8147 147.011C56.0389 146.621 56.1954 146.062 56.4599 145.503C56.7034 144.989 56.7142 144.509 56.517 143.958C56.2027 143.079 55.9713 142.168 55.7375 141.262C55.2251 139.275 55.1726 137.293 55.7586 135.3C55.934 134.704 55.995 134.065 56.0413 133.44C56.2513 130.604 57.1783 128.005 58.6088 125.57C58.9408 125.004 59.2985 124.454 59.6538 123.904C61.0501 121.743 62.0087 119.378 62.8501 116.967C63.9484 113.82 65.6588 111.055 67.9064 108.616C68.7452 107.706 69.6153 106.816 70.5452 106.002C71.1598 105.463 71.7891 104.965 72.2801 104.295C72.6642 103.771 73.2592 103.491 73.8879 103.353C75.0082 103.109 76.1335 102.888 77.262 102.686C78.5979 102.448 79.9409 102.248 81.2774 102.014C81.5569 101.965 81.7848 101.96 81.9559 102.218C82.6332 103.242 83.6908 103.674 84.7918 104.042C85.4686 104.269 86.1389 104.34 86.8616 104.227C88.0774 104.037 88.9147 103.364 89.5133 102.353C89.6981 102.04 89.9006 101.849 90.263 101.81C92.1397 101.606 94.0121 101.649 95.8431 102.107C98.1382 102.682 99.7527 104.062 100.483 106.366C100.843 107.504 101.182 108.648 101.533 109.789C101.615 110.057 101.669 110.341 101.793 110.589C102.36 111.723 102.841 112.887 103.162 114.115C103.178 114.174 103.239 114.222 103.344 114.359C103.686 113.781 104.007 113.249 104.317 112.711C104.855 111.779 105.355 110.825 105.928 109.916C106.418 109.135 107.104 108.55 107.91 108.069C108.625 107.643 109.161 106.954 109.301 106.134" fill="black"/>
<path fill-rule="evenodd" clip-rule="evenodd" d="M96.8206 118.915C96.8772 118.361 96.929 117.806 96.9923 117.252C97.0404 116.828 96.9185 116.7 96.4878 116.748C95.5981 116.849 95.5536 116.956 95.9728 117.79C96.0727 117.989 96.1225 118.235 96.1201 118.459C96.0964 120.687 96.3129 122.898 96.5558 125.108C96.6554 126.013 96.8057 126.915 96.8485 127.822C96.8942 128.797 96.8042 128.827 95.8623 128.666C94.0632 128.36 92.2632 128.058 90.4594 127.781C89.8923 127.694 89.5592 127.484 89.4171 126.869C88.9381 124.796 88.4137 122.733 87.8764 120.673C87.2796 118.386 86.6822 116.097 85.5511 113.993C85.0944 113.144 84.6016 112.328 83.88 111.668C82.7301 110.616 81.4639 110.47 80.162 111.316C79.5957 111.684 79.0645 112.117 78.5621 112.57C76.973 114.003 75.5926 115.623 74.3815 117.385C71.7937 121.151 69.4045 125.036 67.3034 129.096C66.6155 130.426 65.8802 131.731 65.1788 133.053C65.0604 133.277 64.9963 133.532 64.9213 133.777C64.0693 136.562 63.5874 139.421 63.227 142.302C63.1055 143.276 63.0305 144.255 62.9408 145.233C62.8963 145.72 62.8046 145.814 62.3241 145.703C60.8652 145.365 59.4115 145.004 57.9516 144.667C57.6718 144.603 57.4817 144.481 57.3976 144.204C56.7182 141.969 55.8765 139.757 56.1264 137.359C56.2079 136.576 56.4329 135.802 56.6391 135.037C56.7806 134.512 56.8635 134.006 56.8272 133.453C56.7545 132.34 57.0882 131.278 57.3897 130.219C57.9396 128.288 58.815 126.512 59.9291 124.846C61.3295 122.751 62.3528 120.471 63.2191 118.111C63.7913 116.553 64.3717 114.997 65.1923 113.54C66.1295 111.876 67.3066 110.392 68.5772 108.984C69.3738 108.102 70.2275 107.257 71.1418 106.5C71.7184 106.021 72.3052 105.587 72.72 104.947C73.0236 104.479 73.4771 104.18 74.0305 104.072C75.4312 103.801 76.8339 103.538 78.2375 103.281C78.9968 103.143 79.7627 103.039 80.5197 102.889C81.018 102.791 81.3798 102.91 81.7865 103.251C83.2876 104.513 84.9854 105.255 87.0133 104.969C88.2303 104.798 89.1449 104.138 89.841 103.182C90.1832 102.712 90.5626 102.506 91.1315 102.538C92.4381 102.61 93.7626 102.544 95.0505 102.733C97.4467 103.083 99.1427 104.37 99.844 106.783C100.158 107.861 100.471 108.941 100.825 110.006C101.03 110.625 101.337 111.21 101.557 111.825C101.88 112.725 102.166 113.639 102.466 114.547C102.598 114.947 102.48 115.25 102.167 115.542C101.846 115.843 101.583 116.209 101.316 116.562C101.206 116.708 101.134 116.891 101.079 117.067C101.014 117.281 101.024 117.533 101.277 117.586C101.409 117.614 101.655 117.493 101.723 117.37C102.127 116.638 102.73 116.102 103.333 115.542C104.203 114.735 104.669 113.634 105.245 112.617C105.705 111.803 106.142 110.97 106.677 110.207C107.004 109.739 107.486 109.375 107.917 108.984C108.176 108.75 108.429 108.776 108.728 109.002C109.905 109.889 111.085 110.775 112.306 111.601C112.844 111.966 113.05 112.395 112.994 113.01C112.893 114.129 112.578 115.173 111.898 116.077C111.18 117.03 110.465 117.989 109.694 118.898C108.352 120.479 107.264 122.217 106.31 124.051C105.506 125.599 104.403 126.882 102.847 127.727C101.737 128.33 100.556 128.681 99.2827 128.626C98.2406 128.581 97.8987 128.307 97.6989 127.293C97.5273 126.422 97.401 125.54 97.3131 124.657C97.169 123.215 97.0699 121.768 96.9566 120.323C96.9199 119.857 96.898 119.389 96.8693 118.923C96.8529 118.92 96.837 118.918 96.8206 118.915Z" fill="#779BE7"/>
<path fill-rule="evenodd" clip-rule="evenodd" d="M92.7454 148.768C92.1806 145.987 91.6246 143.249 91.0521 140.429C91.2513 140.346 91.454 140.245 91.6662 140.175C94.2862 139.297 96.9067 138.422 99.5285 137.55C99.7497 137.476 99.9835 137.441 100.207 137.374C100.541 137.273 100.698 137.063 100.612 136.829C100.507 136.54 100.269 136.542 100.029 136.611C99.4898 136.767 98.949 136.921 98.4164 137.1C95.8415 137.964 93.2681 138.832 90.697 139.708C90.165 139.889 90.1181 139.978 90.2315 140.538C90.337 141.061 90.4747 141.577 90.6135 142.16C89.9971 142.32 89.444 142.464 88.8185 142.625C88.6129 141.812 88.4254 141.073 88.222 140.269C88.4424 140.14 88.6548 140.007 88.8757 139.89C89.8477 139.374 90.8286 138.875 91.7939 138.347C92.4396 137.993 92.4569 137.954 92.2659 137.231C91.6445 134.878 91.0064 132.529 90.3774 130.178C90.2461 129.688 90.1269 129.194 89.9725 128.587C90.3724 128.581 90.6677 128.534 90.9484 128.578C96.0396 129.379 101.122 130.235 106.007 131.94C107.373 132.416 108.719 132.991 109.996 133.667C110.913 134.153 111.808 134.781 112.527 135.525C114.036 137.087 114.237 139.632 113.157 141.685C112.209 143.489 110.703 144.667 108.858 145.445C107.057 146.205 105.167 146.648 103.249 146.987C100.668 147.442 98.0889 147.907 95.5087 148.365C94.8402 148.483 94.1698 148.591 93.499 148.695C93.2728 148.73 93.0422 148.74 92.7454 148.768Z" fill="white"/>
<path fill-rule="evenodd" clip-rule="evenodd" d="M89.6635 144.348C89.6635 144.849 89.6711 145.26 89.6618 145.672C89.6445 146.432 89.7927 147.161 90.0655 147.867C90.3075 148.493 90.6915 148.986 91.2705 149.367C93.5609 150.871 96.0288 151.967 98.6649 152.698C98.9125 152.766 99.1659 152.824 99.4032 152.92C99.8242 153.09 99.9701 153.347 99.9024 153.732C99.8409 154.085 99.6973 154.193 99.1668 154.186C96.8737 154.155 94.581 154.121 92.2885 154.07C90.9555 154.041 89.6231 153.982 88.2904 153.93C87.7042 153.906 87.7039 153.899 87.5009 153.332C87.3998 153.051 87.362 152.692 86.9729 152.676C86.6363 152.664 86.4977 152.965 86.3981 153.219C86.1679 153.809 85.7477 154.013 85.1375 153.991C84.3728 153.963 83.6064 153.984 82.814 153.984C82.814 153.853 82.7891 153.735 82.8178 153.633C83.3384 151.767 83.5016 149.865 83.3979 147.936C83.3891 147.772 83.399 147.608 83.387 147.444C83.363 147.114 83.5262 146.94 83.8209 146.81C85.448 146.094 87.067 145.358 88.6944 144.642C88.9654 144.523 89.2645 144.467 89.6635 144.348Z" fill="white"/>
<path fill-rule="evenodd" clip-rule="evenodd" d="M45.0878 152.732C45.751 152.679 46.4134 152.59 47.0776 152.579C49.1134 152.546 51.1501 152.549 53.1868 152.525C53.7938 152.517 54.4003 152.441 55.0073 152.439C55.4277 152.438 55.6486 152.25 55.7863 151.877C56.3122 150.451 56.8492 149.028 57.3836 147.605C57.4316 147.478 57.4899 147.354 57.5737 147.158C59.0998 147.509 60.6115 147.856 62.1686 148.214C62.1223 148.496 62.105 148.702 62.0529 148.899C61.6641 150.369 61.2522 151.832 60.8845 153.307C60.77 153.766 60.5253 153.974 60.0815 154.046C58.0533 154.375 56.0268 154.715 53.9998 155.052C53.9808 154.998 53.9623 154.944 53.9438 154.89C54.581 154.602 55.2106 154.294 55.8578 154.031C56.5504 153.749 57.2605 153.509 57.9613 153.248C58.1837 153.165 58.4505 153.07 58.3767 152.776C58.2932 152.442 57.9891 152.483 57.7372 152.54C57.4416 152.608 57.1398 152.683 56.8674 152.812C55.9296 153.255 54.9285 153.33 53.9222 153.319C51.6294 153.294 49.3361 153.255 47.0448 153.175C46.3888 153.152 45.7109 153.109 45.0878 152.732Z" fill="white"/>
<path fill-rule="evenodd" clip-rule="evenodd" d="M83.2215 146.094C82.9643 145.249 82.6963 144.409 82.4563 143.56C82.3459 143.17 82.669 143.029 82.9374 142.89C83.7269 142.484 84.5214 142.088 85.3139 141.688C85.8354 141.425 86.3548 141.158 86.8789 140.899C87.0418 140.818 87.2156 140.76 87.4247 140.676C87.5009 140.852 87.5829 140.99 87.6222 141.14C87.8246 141.908 88.0162 142.678 88.2122 143.448C88.2884 143.748 88.2641 143.999 87.9327 144.144C86.4565 144.79 84.9832 145.444 83.5078 146.092C83.4691 146.109 83.4164 146.094 83.2215 146.094Z" fill="white"/>
<path fill-rule="evenodd" clip-rule="evenodd" d="M112.854 111.057C111.551 110.118 110.272 109.196 108.939 108.235C109.161 107.933 109.321 107.716 109.506 107.464C109.708 107.563 109.879 107.626 110.03 107.722C110.956 108.314 111.879 108.912 112.802 109.509C113.497 109.959 113.513 110.015 113.112 110.722C113.057 110.819 112.976 110.901 112.854 111.057Z" fill="white"/>
<path fill-rule="evenodd" clip-rule="evenodd" d="M57.0848 146.261C57.2536 145.421 57.3705 145.313 57.9599 145.448C59.3008 145.755 60.6368 146.082 61.9742 146.402C62.0867 146.43 62.1989 146.468 62.3035 146.518C62.5492 146.634 62.5337 146.842 62.469 147.056C62.4034 147.273 62.2973 147.451 62.0243 147.389C60.3924 147.017 58.7609 146.644 57.0848 146.261Z" fill="white"/>
<path fill-rule="evenodd" clip-rule="evenodd" d="M89.1477 143.582C89.533 143.141 90.038 143.033 90.5613 143.058C90.6746 143.064 90.8416 143.306 90.8733 143.462C91.1367 144.764 91.3789 146.071 91.6162 147.378C91.6584 147.612 91.652 147.868 91.3581 147.953C91.0218 148.051 90.8671 147.803 90.8062 147.556C90.6565 146.948 90.5036 146.334 90.4461 145.713C90.3972 145.185 90.4655 144.644 90.5077 144.111C90.5534 143.528 90.2912 143.283 89.7199 143.415C89.5265 143.46 89.3381 143.526 89.1477 143.582Z" fill="white"/>
<path fill-rule="evenodd" clip-rule="evenodd" d="M112.52 111.747C112.44 111.263 112.229 110.904 111.767 110.642C110.894 110.145 110.038 109.608 109.224 109.021" fill="black"/>
<path fill-rule="evenodd" clip-rule="evenodd" d="M118.476 106.398C118.635 106.063 118.666 105.74 118.449 105.459C118.126 105.041 118.113 104.609 118.199 104.115C118.299 103.535 118.038 103.161 117.484 102.971C117.329 102.918 117.162 102.877 116.999 102.869C116.214 102.833 115.428 102.812 114.643 102.78C114.509 102.774 114.376 102.738 114.184 102.706C114.274 102.488 114.344 102.321 114.412 102.153C114.583 101.731 114.778 101.316 114.918 100.884C115.246 99.8808 115.146 98.9208 114.54 98.0367C114.218 97.5669 113.765 97.5684 113.435 98.0378C113.376 98.1216 113.34 98.2215 113.296 98.3152C113.139 98.6534 112.977 98.9893 112.829 99.3311C111.945 101.363 111.061 103.394 110.188 105.431C110.004 105.862 109.955 106.364 109.455 106.603C109.411 106.624 109.38 106.674 109.352 106.73C109.361 106.734 109.371 106.737 109.379 106.742C110.202 107.256 112.861 109.122 114.08 109.957C114.177 109.636 114.418 109.49 114.736 109.425C115.06 109.358 115.386 109.304 115.713 109.253C116.061 109.2 116.418 109.188 116.758 109.106C117.767 108.858 118.339 108.216 118.315 107.161C118.309 106.906 118.367 106.628 118.476 106.398Z" fill="black"/>
<path fill-rule="evenodd" clip-rule="evenodd" d="M113.935 98.5044C112.7 101.32 111.328 103.934 110.438 106.765C110.511 106.838 110.561 106.906 110.627 106.949C111.599 107.577 112.575 108.201 113.547 108.829C113.858 109.03 114.122 108.948 114.377 108.752C114.205 108.647 113.933 108.386 114.204 107.946C114.134 107.79 114.016 107.814 113.892 107.704C113.437 107.302 113.412 107.126 113.791 106.617C113.836 106.557 113.858 106.48 113.886 106.421C113.239 105.783 113.237 105.746 113.715 104.919C113.598 104.441 113.573 104.018 113.391 103.679C113.124 103.181 113.363 102.816 113.544 102.403C113.8 101.817 114.083 101.234 114.259 100.623C114.453 99.9494 114.522 99.2468 113.935 98.5044Z" fill="black"/>
<path fill-rule="evenodd" clip-rule="evenodd" d="M114.076 103.984C114.072 104.206 114.335 104.222 114.441 104.261C115.312 104.582 116.215 104.633 117.13 104.554C117.409 104.53 117.504 104.329 117.521 104.078C117.538 103.812 117.418 103.627 117.159 103.576C116.321 103.412 115.476 103.336 114.644 103.592C114.454 103.65 114.082 103.711 114.076 103.984Z" fill="black"/>
<path fill-rule="evenodd" clip-rule="evenodd" d="M114.085 105.607C114.251 105.711 114.347 105.817 114.453 105.83C115.439 105.947 116.425 106.057 117.413 106.143C117.546 106.155 117.797 106.032 117.809 105.948C117.829 105.791 117.756 105.572 117.642 105.461C117.527 105.35 117.317 105.304 117.143 105.29C116.545 105.243 115.946 105.216 115.347 105.193C114.913 105.177 114.48 105.181 114.085 105.607Z" fill="black"/>
<path fill-rule="evenodd" clip-rule="evenodd" d="M114.46 107.114C115.368 107.474 116.318 107.472 117.256 107.532C117.362 107.539 117.554 107.368 117.578 107.253C117.622 107.05 117.464 106.909 117.256 106.874C116.308 106.715 115.377 106.784 114.46 107.114Z" fill="black"/>
<path fill-rule="evenodd" clip-rule="evenodd" d="M115.105 108.062C115.585 108.474 116.264 108.505 116.794 108.204C116.206 108.154 115.655 108.108 115.105 108.062Z" fill="black"/>
<path fill-rule="evenodd" clip-rule="evenodd" d="M113.935 98.5044C114.522 99.2468 114.453 99.9494 114.259 100.623C114.083 101.234 113.8 101.817 113.544 102.403C113.363 102.816 113.124 103.181 113.391 103.679C113.573 104.018 113.216 104.401 113.715 104.919C113.237 105.746 113.239 105.783 113.886 106.421C113.858 106.48 113.836 106.557 113.791 106.617C113.412 107.126 113.437 107.302 113.892 107.704C114.016 107.814 114.134 107.79 114.204 107.946C114.018 108.394 114.158 108.633 114.377 108.752C114.122 108.948 113.858 109.03 113.547 108.829C112.575 108.201 111.599 107.577 110.627 106.949C110.561 106.906 110.511 106.838 110.438 106.765C111.328 103.934 112.7 101.32 113.935 98.5044Z" fill="white"/>
<path fill-rule="evenodd" clip-rule="evenodd" d="M114.076 103.984C114.299 103.826 114.454 103.65 114.644 103.592C115.476 103.336 116.321 103.412 117.159 103.576C117.418 103.627 117.538 103.812 117.521 104.078C117.504 104.329 117.409 104.53 117.129 104.554C116.215 104.633 115.312 104.582 114.441 104.261C114.335 104.222 114.252 104.12 114.076 103.984Z" fill="white"/>
<path fill-rule="evenodd" clip-rule="evenodd" d="M114.085 105.607C114.008 105.031 114.913 105.177 115.347 105.194C115.946 105.216 116.545 105.243 117.143 105.29C117.317 105.304 117.527 105.35 117.642 105.461C117.756 105.572 117.829 105.791 117.809 105.948C117.797 106.033 117.546 106.155 117.413 106.143C116.425 106.057 115.439 105.947 114.453 105.83C114.347 105.817 114.111 105.802 114.085 105.607Z" fill="white"/>
<path fill-rule="evenodd" clip-rule="evenodd" d="M114.46 107.114C114.535 106.421 116.308 106.716 117.256 106.874C117.464 106.909 117.622 107.05 117.578 107.253C117.553 107.368 117.362 107.539 117.256 107.532C116.318 107.472 114.413 107.55 114.46 107.114Z" fill="white"/>
<path fill-rule="evenodd" clip-rule="evenodd" d="M115.105 108.062C115.655 108.108 116.206 108.154 116.794 108.204C116.264 108.505 115.585 108.474 115.105 108.062Z" fill="white"/>
<path fill-rule="evenodd" clip-rule="evenodd" d="M90.7994 88.1202C90.5838 87.2794 90.0131 86.7815 89.184 86.6758C88.5254 86.5918 87.8269 86.5525 87.1824 86.679C85.8283 86.9453 84.6362 87.5819 83.668 88.5949C83.5669 88.7012 83.4462 88.7897 83.3328 88.8843C83.1304 89.593 82.8858 90.2935 82.7361 91.0137C82.6907 91.2304 82.6789 91.4395 82.691 91.6445C82.6622 91.6395 82.6362 91.6342 82.6124 91.6263C81.7611 91.3449 81.113 91.8237 81.1458 92.7196C81.1702 93.3858 81.4901 93.9001 82.0807 94.178C82.4264 94.3402 82.5055 94.5297 82.4756 94.8794C82.2852 97.0958 81.9248 99.2846 81.4716 101.461C81.4192 101.711 81.4646 101.982 81.4646 102.262C81.9254 102.246 81.9076 101.96 81.9597 101.718C82.4478 99.4536 82.8216 97.1713 83.027 94.8624C83.0911 94.1408 83.0832 94.1191 82.3892 93.7595C81.8551 93.483 81.5452 92.8891 81.7359 92.4352C81.8003 92.2806 81.9591 92.0896 82.1012 92.0647C82.2272 92.0431 82.4033 92.2129 82.5307 92.3274C82.5931 92.3836 82.8292 92.6291 83.003 92.7819C83.1172 93.0326 83.2532 93.2839 83.4049 93.5404C83.5611 92.8695 83.6437 92.311 83.823 91.7853C84.256 90.5132 85.1568 89.6117 86.2528 88.8828C86.9234 88.4371 87.6673 88.4242 88.0774 87.7992C88.0786 87.7992 88.0798 87.7992 88.0809 87.7989C88.4533 88.1823 88.7205 88.1577 89.1002 88.4833C89.5918 88.9042 90.0347 89.3499 90.3189 89.9125C90.3154 90.2759 90.299 90.6394 90.2659 90.9999C90.0898 92.9126 89.8387 94.8138 88.9751 96.5698C88.5775 97.3784 88.1606 97.5582 87.275 97.2852C86.6234 97.0843 86.0024 96.8187 85.4759 96.3659C85.325 96.2365 85.1363 96.0183 84.9468 96.269C84.7742 96.4974 84.9951 96.6635 85.1589 96.7841C85.4401 96.9912 85.7275 97.1985 86.0378 97.3555C86.8147 97.7488 87.6245 98.0347 88.5107 97.8712C88.5919 98.1079 88.6598 98.2812 88.7111 98.4599C89.0211 99.5382 89.3205 100.62 89.6389 101.696C89.718 101.963 89.6996 102.315 90.255 102.454C90.2126 102.134 90.2082 101.908 90.1505 101.697C89.8285 100.525 89.4869 99.3587 89.1684 98.1858C89.0987 97.9298 88.9502 97.6806 89.1365 97.3848C89.873 96.2178 90.224 94.9107 90.4751 93.5694C90.6421 92.6771 90.7707 91.7806 90.8299 90.8795C90.8354 90.8863 90.8395 90.8904 90.8448 90.8974C90.9544 89.8677 91.0238 88.9935 90.7994 88.1202Z" fill="black"/>
<path fill-rule="evenodd" clip-rule="evenodd" d="M79.2086 86.8471C79.1908 85.8954 79.2921 85.5158 79.4796 85.3149C79.3827 85.7987 79.4102 86.2881 79.5048 86.6096C79.6941 87.2542 80.0395 87.8467 80.51 88.1952C80.7479 88.3709 80.984 88.5243 81.2254 88.6512C80.2173 88.4403 79.2291 87.9597 79.2086 86.8471ZM81.1838 83.4207C81.294 83.0051 81.3892 82.6467 81.896 82.3342C82.2567 82.1119 82.7058 82.1137 83.1906 82.1643C82.3504 82.2531 81.9189 82.8766 81.1765 83.4488C81.1788 83.4394 81.1812 83.4298 81.1838 83.4207ZM86.294 81.8123C86.921 81.5142 87.569 81.2055 88.399 81.395C89.0678 81.5476 89.5714 82.0987 89.7455 82.8692C89.8 83.1117 89.8155 83.3527 89.7973 83.5756C89.7666 83.1185 89.403 81.6808 87.9203 81.6808C87.0349 81.6808 86.3696 82.0355 85.4019 82.1796C85.7125 82.0873 86.0069 81.9488 86.294 81.8123ZM83.3333 88.8802C83.326 88.8825 83.319 88.8831 83.3116 88.8852L83.3175 88.8307C83.3166 88.8304 83.3143 88.8304 83.3131 88.8304C83.3116 88.614 83.1854 88.3847 83.4071 88.1896C84.3757 87.3386 85.3603 86.5106 86.6356 86.1516C87.3048 85.9633 87.9915 85.7527 88.5091 86.448C89.1253 85.8945 89.5761 85.1008 89.7355 84.304C89.9473 83.9344 90.0124 83.3861 89.8884 82.837C89.7015 82.01 89.1572 81.4175 88.4315 81.2524C87.5514 81.0515 86.8803 81.3713 86.231 81.6799C85.8282 81.8715 85.4482 82.0522 85.0223 82.1172C84.5521 82.1883 84.0692 82.126 83.6025 82.0659C82.9431 81.9813 82.3199 81.901 81.819 82.2097C81.2626 82.5527 81.1554 82.9559 81.0423 83.3829C81.0242 83.4509 81.0057 83.5191 80.9855 83.5879C80.8176 83.7051 80.6351 83.8184 80.4277 83.9209C79.9522 84.1566 79.6771 84.6018 79.5371 85.0806C79.2063 85.2885 79.0399 85.6385 79.0622 86.8495C79.0888 88.295 80.5821 88.7466 81.8046 88.8936C82.155 88.997 82.5271 89.0292 82.9387 88.966C82.985 88.9669 83.0286 88.9677 83.0685 88.9686C83.1807 88.9704 83.2612 88.9718 83.3014 88.9762L83.3093 88.9033C83.3169 88.8969 83.3251 88.8907 83.3327 88.8846C83.333 88.8828 83.3336 88.8813 83.3339 88.8796L83.3333 88.8802Z" fill="black"/>
<path fill-rule="evenodd" clip-rule="evenodd" d="M88.255 91.0283L88.7562 93.0107L88.0253 93.0836L88.255 91.0283Z" fill="black"/>
<path fill-rule="evenodd" clip-rule="evenodd" d="M88.255 91.0283L88.7562 93.0107L88.0253 93.0836L88.255 91.0283Z" stroke="black" stroke-width="0.110599" stroke-linejoin="round"/>
<path fill-rule="evenodd" clip-rule="evenodd" d="M88.2566 94.3575C88.2358 94.3575 88.2156 94.357 88.1965 94.3557C87.6581 94.3238 87.1495 93.8703 87.0384 93.3231C87.0317 93.2905 87.0572 93.2595 87.095 93.2538C87.1331 93.2485 87.1688 93.2701 87.1755 93.3025C87.274 93.7897 87.7369 94.2089 88.2062 94.2368C88.4833 94.2529 89.0001 94.1438 89.3426 93.2274C89.3543 93.196 89.3936 93.1789 89.4302 93.1889C89.4668 93.199 89.4868 93.2324 89.475 93.2636C89.1258 94.1984 88.5841 94.3575 88.2566 94.3575Z" fill="black"/>
<path fill-rule="evenodd" clip-rule="evenodd" d="M86.6884 91.447C86.1019 91.447 85.7357 92.0032 85.5421 92.4266C86.4793 92.0937 87.3754 92.1622 87.7068 92.2052C87.5855 91.9765 87.265 91.4828 86.7508 91.4491C86.7297 91.4476 86.7089 91.447 86.6884 91.447ZM85.4137 92.6191C85.3959 92.6191 85.378 92.612 85.3648 92.5988C85.3452 92.5789 85.339 92.5496 85.3496 92.5239C85.5394 92.0486 85.9765 91.2587 86.7599 91.3103C87.0743 91.3311 87.3705 91.5041 87.6157 91.8111C87.7976 92.0389 87.8876 92.2585 87.8911 92.2676C87.9007 92.2913 87.8966 92.3183 87.8805 92.3376C87.8644 92.3572 87.8389 92.3669 87.8137 92.3619C87.802 92.3596 86.612 92.1423 85.4398 92.6138C85.4316 92.6173 85.4228 92.6191 85.4137 92.6191Z" fill="black"/>
<path fill-rule="evenodd" clip-rule="evenodd" d="M89.1888 92.0733C89.6936 92.0733 90.286 92.1943 90.5268 92.2491C90.4691 92.0203 90.2909 91.4903 89.8682 91.4252C89.5928 91.3834 89.3508 91.4323 89.1674 91.567C89.0075 91.6844 88.8964 91.8666 88.8434 92.0973C88.9495 92.0804 89.0663 92.0733 89.1888 92.0733ZM90.6185 92.4113C90.6126 92.4113 90.6071 92.4107 90.6015 92.4092C90.5892 92.4063 89.3734 92.1055 88.7728 92.2532C88.7502 92.2587 88.7265 92.2526 88.7092 92.237C88.6922 92.2212 88.6837 92.1984 88.6875 92.1752C88.7347 91.8601 88.8724 91.6112 89.0851 91.4548C89.2987 91.2978 89.5767 91.2399 89.8896 91.2879C90.1568 91.3292 90.3797 91.5248 90.535 91.854C90.6481 92.0947 90.6853 92.3214 90.687 92.3308C90.6908 92.3539 90.6826 92.3773 90.6654 92.3931C90.6525 92.4051 90.6355 92.4113 90.6185 92.4113Z" fill="black"/>
<path fill-rule="evenodd" clip-rule="evenodd" d="M88.8964 92.0114C88.8964 91.7099 89.0931 91.4656 89.3359 91.4656C89.5785 91.4656 89.7753 91.7099 89.7753 92.0114C89.7753 92.0799 89.7633 92.1956 89.7447 92.2563C89.5341 92.1763 89.0921 92.0905 88.9212 92.1558C88.9059 92.1063 88.8964 92.0568 88.8964 92.0114Z" fill="black"/>
<path fill-rule="evenodd" clip-rule="evenodd" d="M85.7212 92.112C85.7212 91.8107 85.9835 91.5664 86.307 91.5664C86.6307 91.5664 86.8931 91.8792 86.8931 92.1805C86.4888 92.2701 86 92.3094 85.8165 92.3744C85.762 92.2889 85.7212 92.194 85.7212 92.112Z" fill="black"/>
<path fill-rule="evenodd" clip-rule="evenodd" d="M87.5798 89.8223C87.5798 89.8223 87.7914 90.3825 87.69 90.5377C87.1629 90.519 85.5675 90.3629 84.973 91.2409C85.1714 89.8624 87.5798 89.8223 87.5798 89.8223Z" fill="black"/>
<path d="M87.613 89.8088L87.5782 89.7852L87.4947 89.7884L87.4641 89.7901C87.3738 89.7955 87.2734 89.8041 87.1652 89.8166C86.8561 89.8524 86.5469 89.9128 86.2579 90.0037C85.507 90.2397 85.0217 90.6374 84.9357 91.2352C84.9302 91.2736 84.9805 91.2931 85.0023 91.2609C85.253 90.8905 85.7028 90.6809 86.3082 90.5958L86.414 90.5822C86.6959 90.5496 86.9772 90.5449 87.3267 90.5578L87.6876 90.5738L87.7196 90.5572C87.765 90.4877 87.762 90.3623 87.7258 90.1916C87.7144 90.1375 87.6998 90.0804 87.6828 90.0217C87.6567 89.9314 87.6306 89.8552 87.613 89.8088ZM87.6667 90.4996L87.4645 90.4903C87.0007 90.4687 86.6574 90.4728 86.298 90.5233L86.2055 90.5374C85.719 90.6181 85.3338 90.7836 85.0743 91.0555L85.0415 91.0915L85.0493 91.0645C85.1956 90.5994 85.6337 90.2767 86.2799 90.0735C86.564 89.9842 86.8688 89.9247 87.1737 89.8893C87.2804 89.8769 87.3795 89.8685 87.4684 89.8632L87.5534 89.8588L87.5824 89.9438C87.592 89.9737 87.6022 90.0068 87.6124 90.042C87.629 90.0992 87.6431 90.1546 87.6542 90.2068L87.6638 90.2558C87.6836 90.3665 87.6854 90.4516 87.6667 90.4996Z" fill="black"/>
<path fill-rule="evenodd" clip-rule="evenodd" d="M88.5739 90.5416C89.0118 90.4812 90.331 90.1998 90.8847 91.0283C90.6283 89.6694 88.6187 89.8191 88.6187 89.8191C88.6187 89.8191 88.4794 90.3946 88.5739 90.5416Z" fill="black"/>
<path d="M88.6635 89.7801L88.616 89.7826L88.5831 89.8105L88.5611 89.9103C88.5556 89.9377 88.5497 89.9683 88.5438 90.001C88.5319 90.0674 88.5221 90.1321 88.5152 90.1932C88.4954 90.3689 88.5007 90.4955 88.5431 90.5614L88.5789 90.5779L88.8626 90.5356C89.2084 90.4866 89.4966 90.4691 89.7784 90.4952C90.2614 90.5399 90.6296 90.7124 90.8543 91.0487C90.8764 91.0818 90.9281 91.0607 90.9207 91.0215C90.8122 90.4466 90.3965 90.0897 89.7754 89.9085C89.3935 89.7971 88.9957 89.7666 88.6635 89.7801ZM89.8284 90.0014C90.3118 90.1581 90.6517 90.4298 90.7968 90.8407L90.8056 90.8683L90.7835 90.8438C90.5438 90.5939 90.2043 90.4611 89.7851 90.4223C89.5326 90.3989 89.2765 90.4096 88.9814 90.446L88.7776 90.4741L88.5948 90.5013L88.5885 90.481C88.574 90.422 88.5742 90.3245 88.588 90.2014C88.5947 90.1421 88.6042 90.0789 88.6159 90.014L88.6245 89.9675C88.633 89.923 88.6412 89.8844 88.6479 89.8541L88.6665 89.8532C88.9915 89.84 89.3819 89.87 89.7548 89.9788L89.8284 90.0014Z" fill="black"/>
<path d="M86.5465 91.9744C86.7083 91.9744 86.8395 91.8432 86.8395 91.6814C86.8395 91.5196 86.7083 91.3884 86.5465 91.3884C86.3847 91.3884 86.2535 91.5196 86.2535 91.6814C86.2535 91.8432 86.3847 91.9744 86.5465 91.9744Z" fill="white"/>
<path d="M89.7692 91.9744C89.931 91.9744 90.0621 91.8432 90.0621 91.6814C90.0621 91.5196 89.931 91.3884 89.7692 91.3884C89.6074 91.3884 89.4762 91.5196 89.4762 91.6814C89.4762 91.8432 89.6074 91.9744 89.7692 91.9744Z" fill="white"/>
<path d="M90.0621 91.9744C90.2239 91.9744 90.3551 91.8432 90.3551 91.6814C90.3551 91.5196 90.2239 91.3884 90.0621 91.3884C89.9003 91.3884 89.7692 91.5196 89.7692 91.6814C89.7692 91.8432 89.9003 91.9744 90.0621 91.9744Z" fill="white"/>
</g>
</svg>

