<svg width="247" height="130" viewBox="0 0 247 130" fill="none" xmlns="http://www.w3.org/2000/svg">
<path fill-rule="evenodd" clip-rule="evenodd" d="M83.8356 117.37H195.213C178.548 39.1232 163.445 0 149.903 0C129.591 0 122.155 24.361 111.012 33.7693C99.8702 43.1775 93.3919 47.3316 75.1741 40.5504C56.9564 33.7693 19.0466 36.6447 19.0466 59.3696C19.0466 74.5195 24.3742 93.8282 35.0295 117.296L83.8356 117.37Z" fill="#F5F5F5"/>
<path fill-rule="evenodd" clip-rule="evenodd" d="M173.337 57.5524C194.175 57.5524 233.526 51.5739 233.526 76.3226C233.526 101.071 234.417 118.767 213.579 118.767L213.605 118.767L150.224 118.767H150.224H111.843C189.774 96.3325 153.248 58.3219 172.729 57.564L173.337 57.5524Z" fill="#FFDA2D"/>
<path fill-rule="evenodd" clip-rule="evenodd" d="M23.9209 87.4413C23.1978 87.3865 22.5883 87.4793 22.0599 87.8892C21.6664 88.1944 21.4299 88.6114 21.3528 89.0999C21.2789 89.5656 21.5275 89.7705 21.9685 89.6222C22.1461 89.5628 22.3206 89.4713 22.4723 89.3608C23.1205 88.8895 23.5611 88.2548 23.9209 87.4413ZM36.3406 71.2056C36.4246 71.2056 36.5047 71.2074 36.5847 71.2054C37.3663 71.1857 37.6182 70.893 37.4166 70.1386C37.3104 69.7416 37.1208 69.3574 36.9141 68.9994C36.0142 67.4413 34.8376 66.1101 33.5056 64.9132C32.4026 63.9223 31.2049 63.0687 29.8561 62.4408C29.3303 62.1961 28.7867 62.0058 28.2066 61.9476C27.4613 61.8724 26.9471 62.2367 26.8299 62.9738C26.7812 63.2802 26.7626 63.6475 26.8868 63.9135C27.1216 64.416 27.4234 64.9046 27.7824 65.3261C28.2375 65.8601 28.7765 66.3222 29.2808 66.8139C30.4864 67.9894 31.6608 69.2025 33.1143 70.0845C34.1099 70.6889 35.1518 71.1666 36.3406 71.2056ZM3.13064 67.4007C3.93973 67.2987 4.69212 67.2428 5.42907 67.104C8.4827 66.5292 11.4067 65.5292 14.2026 64.1916C15.9919 63.3359 17.7223 62.351 19.4493 61.371C20.8972 60.5492 22.3152 59.6722 23.7202 58.7778C24.519 58.2691 25.2235 57.634 25.8068 56.8727C26.0623 56.5396 26.1254 56.1908 25.8974 55.8489C25.5307 55.2986 25.0043 54.8817 24.3754 54.7481C23.758 54.6171 23.1004 54.6378 22.4622 54.6541C21.4315 54.6802 20.4387 54.9564 19.4471 55.213C17.8798 55.6182 16.3764 56.2145 14.857 56.7656C12.797 57.513 10.7487 58.29 8.75019 59.1886C7.65597 59.6805 6.586 60.2324 5.53046 60.8042C4.21664 61.5158 2.97014 62.3333 1.92863 63.4259C1.3714 64.0103 0.881498 64.6462 0.602985 65.4139C0.308443 66.2268 0.610399 66.8784 1.43552 67.1092C1.99976 67.2667 2.59505 67.3123 3.13064 67.4007ZM30.8088 69.0635C30.2764 69.6359 29.7575 70.1595 29.2772 70.7168C27.9508 72.2556 26.8084 73.9191 26.005 75.7955C25.3261 77.3806 24.8048 79.0127 24.6825 80.7489C24.6495 81.2189 24.587 81.6922 24.6134 82.1595C24.6403 82.6371 24.7709 83.1077 24.8358 83.584C24.9759 84.6095 24.9825 85.6325 24.737 86.6467C24.7224 86.7068 24.7282 86.7719 24.7232 86.8595C24.7961 86.8908 24.8639 86.933 24.937 86.9489C26.5452 87.3005 27.7826 88.2237 28.8033 89.4746C29.6613 90.5261 30.3209 91.7027 30.8651 92.9393C32.2537 96.0948 33.2022 99.3902 33.8558 102.77C34.3554 105.353 34.821 107.944 35.2632 110.538C35.5866 112.435 35.8503 114.343 36.1326 116.248C36.1819 116.58 36.2001 116.919 36.2154 117.255C36.222 117.396 36.2044 117.546 36.1563 117.677C36.131 117.746 36.0178 117.821 35.9427 117.823C35.8677 117.825 35.7583 117.755 35.7219 117.687C35.6644 117.577 35.6447 117.444 35.6265 117.319C35.3127 115.143 35.0356 112.962 34.6814 110.793C34.2602 108.213 33.7979 105.639 33.3084 103.071C32.6696 99.7203 31.7265 96.4549 30.373 93.321C29.8064 92.0085 29.1143 90.7564 28.172 89.6646C27.2479 88.5942 26.1496 87.7973 24.7388 87.502C24.6773 87.4889 24.6142 87.4849 24.503 87.4705C24.4363 87.6061 24.3672 87.7451 24.299 87.8847C23.9867 88.5261 23.5829 89.1017 23.0593 89.5873C22.7506 89.8736 22.4069 90.1076 21.9906 90.2097C21.2899 90.3817 20.7811 89.9628 20.805 89.2371C20.8417 88.1206 21.8245 87.0753 23.0081 86.9069C23.3705 86.8553 23.737 86.833 24.1305 86.7942C24.282 86.407 24.3387 85.9976 24.3629 85.5821C24.4395 84.2705 24.2519 82.9883 23.9235 81.7232C23.3573 79.5423 22.5476 77.4482 21.6313 75.3956C20.4722 72.7988 19.167 70.2786 17.6075 67.8968C16.8938 66.8066 16.0871 65.7896 15.1872 64.8479C14.857 64.5024 14.8558 64.508 14.4064 64.7111C11.6854 65.9423 8.88664 66.9445 5.95444 67.5361C4.74481 67.7803 3.52276 67.9655 2.28328 67.7943C1.90558 67.7421 1.52268 67.6639 1.16642 67.5317C0.19263 67.1703 -0.190276 66.3801 0.0890387 65.3761C0.26917 64.7286 0.640254 64.1847 1.04841 63.6662C1.85269 62.6443 2.86275 61.8592 3.94634 61.1612C5.64908 60.0642 7.48586 59.227 9.31443 58.3727C12.8916 56.702 16.6199 55.4404 20.3792 54.2639C20.9426 54.0875 21.5257 53.9523 22.11 53.8707C23.0636 53.7377 23.9953 53.8341 24.8284 54.3818C25.2165 54.6368 25.6149 54.8831 25.9685 55.1811C26.6516 55.7561 26.7157 56.5055 26.1815 57.2263C25.4828 58.1692 24.59 58.9086 23.6039 59.5107C21.6087 60.7292 19.5835 61.8986 17.5638 63.0765C16.9417 63.4393 16.2969 63.7634 15.6635 64.1072C15.5812 64.152 15.5048 64.208 15.3966 64.2776C15.6509 64.5514 15.8905 64.806 16.1264 65.0641C17.3338 66.3861 18.3138 67.8727 19.2083 69.4155C20.9092 72.3494 22.3853 75.3918 23.538 78.5865C23.7332 79.1272 23.9085 79.6753 24.1383 80.2292C24.5146 78.0111 25.2257 75.9178 26.3232 73.9635C27.4154 72.0183 28.8163 70.3107 30.4067 68.7185C30.3117 68.61 30.2354 68.5118 30.1474 68.4252C29.3477 67.637 28.5483 66.8486 27.7442 66.0651C27.2563 65.5891 26.8642 65.0384 26.5684 64.4327C26.4113 64.1108 26.3061 63.7335 26.2921 63.3769C26.2418 62.1137 27.1349 61.3247 28.3834 61.4829C29.0576 61.5685 29.6896 61.7921 30.3001 62.083C32.1944 62.9861 33.7789 64.3017 35.2131 65.8121C36.0661 66.71 36.8361 67.6784 37.444 68.7607C37.6849 69.1893 37.8881 69.654 38.0191 70.1269C38.2752 71.0503 37.8582 71.6313 36.9089 71.7398C36.1823 71.823 35.4712 71.7236 34.7771 71.4983C33.4278 71.0612 32.2739 70.2903 31.1979 69.387C31.0885 69.2949 30.9781 69.2043 30.8088 69.0635Z" fill="black"/>
<path fill-rule="evenodd" clip-rule="evenodd" d="M77.7556 70.5366L87.8388 64.5377L88.9321 65.8746L98.5167 81.7866L101.973 75.4631L107.062 68.4247L110.04 69.2545C115.582 72.0915 119.268 73.6034 121.098 73.7902C122.928 73.977 125.124 73.899 127.686 73.556V76.5181L133.184 91.484C133.776 94.8542 134.073 96.7004 134.073 97.0226C134.073 97.5059 134.079 100.251 133.826 100.81C133.574 101.368 133.007 102.863 131.499 103.964C130.494 104.698 127.236 106.589 121.726 109.635L113.237 114.055V114.726L112.246 115.445L107.552 109.146L104.941 104.792L106.664 103.964L107.062 104.235L111.358 101.736L120.438 96.0875L117.15 91.0086L113.493 83.2749L107.932 88.1948L102.03 94.3178C100.813 95.2317 99.9695 95.7551 99.4987 95.8881C98.7924 96.0875 98.4494 96.4027 97.5123 96.4027C96.5753 96.4027 95.2754 96.5621 93.9392 94.7469C93.0484 93.5368 90.1733 89.0435 85.3139 81.2671L79.1801 72.0396L78.434 72.2934L77.7556 70.5366Z" fill="white"/>
<path fill-rule="evenodd" clip-rule="evenodd" d="M101.7 107.329C101.7 107.329 99.1322 110.934 98.2537 111.22C97.3752 111.505 93.2488 112.794 93.2488 112.794L103.248 129.216C103.248 129.216 107.464 127.879 107.246 125.562C107.027 123.245 104.638 117.645 105.17 117.481C105.702 117.318 108.496 116.191 108.496 116.191L101.7 107.329Z" fill="#FFDA2D"/>
<path fill-rule="evenodd" clip-rule="evenodd" d="M85.6254 63.2387C85.6254 63.2387 83.3426 59.9179 83.1474 59.0642C82.9521 58.211 82.0918 54.2091 82.0918 54.2091L63.2461 61.4741C63.2461 61.4741 64.1473 65.5651 66.6564 65.6501C69.1653 65.7354 75.4629 64.2081 75.5706 64.7238C75.6782 65.2394 76.534 67.981 76.534 67.981L85.6254 63.2387Z" fill="#FFDA2D"/>
<path fill-rule="evenodd" clip-rule="evenodd" d="M114.167 45.0167C114.167 45.0167 104.815 47.5071 103.138 46.7268C102.184 48.2314 101.857 54.2392 101.857 54.2392L102.289 54.5645C102.289 54.5645 105.241 54.5645 107.535 54.9206C108.248 54.807 105.869 67.9453 105.869 67.9453C107.719 67.9174 113.88 73.2612 121.497 73.6353C122.514 73.6852 128.802 72.8343 128.802 72.8343C128.802 72.8343 127.972 60.9318 129.499 53.5753C130.906 51.5438 135.549 49.2034 135.549 49.2034L132.657 43.1425C132.657 43.1425 124.234 45.0207 122.19 45.0501C120.81 45.07 122.073 47.7567 119.645 47.8103C117.216 47.8642 114.167 45.0167 114.167 45.0167Z" fill="#779BE7"/>
<path fill-rule="evenodd" clip-rule="evenodd" d="M88.4176 69.46C88.036 68.824 88.036 68.824 88.1531 68.7186L88.4661 69.0003L88.3096 68.8595L88.5064 68.7684C88.5157 68.7846 88.6213 68.9607 88.8073 69.2709L88.4176 69.46ZM89.0508 70.5144L88.7342 69.9874L89.1237 69.7979L89.4405 70.3249L89.0508 70.5144ZM89.6853 71.5673L89.3683 71.0409L89.7575 70.8509L90.0743 71.3775L89.6853 71.5673ZM90.3201 72.6195L90.0026 72.0935L90.3918 71.9037L90.7093 72.4292L90.3201 72.6195ZM90.9557 73.6713L90.6377 73.1455L91.0265 72.9552L91.3444 73.481L90.9557 73.6713ZM91.5924 74.7221L91.274 74.1967L91.6628 74.006L91.9811 74.5314L91.5924 74.7221ZM92.2298 75.7725L91.9107 75.2473L92.2995 75.0566L92.6181 75.5814L92.2298 75.7725ZM92.8685 76.8221L92.5488 76.2971L92.9375 76.106L93.2566 76.6306L92.8685 76.8221ZM93.5078 77.8715L93.1882 77.3473L93.576 77.155L93.8962 77.6796L93.5078 77.8715ZM94.1488 78.9199L93.828 78.3961L94.2158 78.2038L94.5366 78.7278L94.1488 78.9199ZM94.7908 79.9677L94.4696 79.4441L94.857 79.2516L95.1782 79.775L94.7908 79.9677ZM95.4348 81.0163L95.112 80.4917L95.4995 80.2986L95.8223 80.8232L95.4348 81.0163ZM96.0806 82.0631L95.7578 81.5403L96.1448 81.3468L96.4676 81.8692L96.0806 82.0631ZM96.7271 83.1075L96.4032 82.5847L96.7902 82.3908L97.1136 82.9132L96.7271 83.1075ZM97.3762 84.1523L97.0512 83.6301L97.4373 83.4356L97.7623 83.9574L97.3762 84.1523ZM98.0277 85.1957L97.7016 84.6741L98.0877 84.4788L98.4134 84.9999L98.0277 85.1957Z" fill="black"/>
<path fill-rule="evenodd" clip-rule="evenodd" d="M106.185 74.127L105.816 73.9107C105.939 73.7255 106.053 73.5521 106.156 73.3914L106.529 73.6017C106.426 73.7643 106.31 73.9397 106.185 74.127ZM105.482 75.1638L105.115 74.9432C105.237 74.7647 105.355 74.5926 105.467 74.4276L105.835 74.6469C105.722 74.8123 105.604 74.9849 105.482 75.1638ZM104.774 76.1951L104.407 75.9741L104.761 75.4587L105.128 75.6797L104.774 76.1951ZM104.071 77.2272L103.703 77.0085C103.821 76.8331 103.939 76.6603 104.054 76.4908L104.421 76.7106C104.306 76.8797 104.189 77.052 104.071 77.2272ZM103.378 78.2645L103.007 78.0498C103.123 77.8738 103.239 77.6998 103.354 77.5281L103.723 77.7451C103.609 77.9161 103.494 78.089 103.378 78.2645ZM102.698 79.3093L102.325 79.0991C102.438 78.9223 102.551 78.747 102.664 78.5733L103.036 78.7859C102.924 78.9588 102.811 79.1334 102.698 79.3093ZM102.039 80.3622L101.661 80.1584C101.77 79.9805 101.88 79.8035 101.99 79.6277L102.366 79.8345C102.256 80.0093 102.147 80.1852 102.039 80.3622ZM101.401 81.4272L101.019 81.2314C101.124 81.0515 101.23 80.8718 101.337 80.6931L101.717 80.893C101.61 81.0705 101.505 81.2486 101.401 81.4272ZM100.791 82.507L100.403 82.3211C100.503 82.1383 100.604 81.9562 100.707 81.774L101.092 81.9652C100.99 82.1457 100.89 82.3262 100.791 82.507ZM100.283 83.4744L99.8894 83.2991C99.9613 83.157 100.035 83.0147 100.109 82.8719L100.5 83.0518C100.426 83.1929 100.354 83.3336 100.283 83.4744Z" fill="black"/>
<path fill-rule="evenodd" clip-rule="evenodd" d="M146.998 32.8791C146.998 33.3549 146.891 33.8107 146.635 34.2236C146.2 34.9223 145.787 35.6366 145.291 36.2979C143.996 38.0227 142.661 39.7223 141.342 41.4318C139.654 43.6194 137.967 45.7258 136.278 47.9128C136.251 47.948 136.026 48.1546 135.998 48.19C135.998 48.1902 135.998 48.1907 135.998 48.1911C135.978 48.2055 135.959 48.2188 135.938 48.2341C135.259 46.7472 133.659 43.3913 133.403 42.8984C135.879 40.3708 137.109 39.1092 139.646 36.5316C140.552 35.6113 141.492 34.7193 142.401 33.802C142.767 33.4332 143.104 33.0394 143.435 32.6429C143.773 32.237 143.915 31.7548 144.018 31.2607C144.158 30.583 144.279 29.9005 144.459 29.2314C144.676 28.4204 144.922 27.6144 145.202 26.8197C145.357 26.3804 145.604 25.9679 145.816 25.5461C145.84 25.4967 145.906 25.4645 146.02 25.3677C145.828 26.6315 145.562 27.8091 145.492 28.9964C145.42 30.1958 145.542 31.4049 145.582 32.7005C146.011 32.5239 146.176 32.3085 146.228 32.0274C146.354 31.3463 146.468 30.6633 146.583 29.9806C146.655 29.5521 146.719 29.1223 146.794 28.6942C146.806 28.6242 146.857 28.5601 146.965 28.509C146.978 28.6618 147.001 28.8144 147.001 28.967C147.002 30.2711 146.999 31.575 146.998 32.8791ZM135.389 49.777C134.768 50.0996 134.48 49.991 134.276 49.3508C134.208 49.1345 134.154 48.9145 134.096 48.6958C133.666 47.0762 132.952 45.5565 132.156 44.0652C132.041 43.8481 131.92 43.6333 131.815 43.4118C131.631 43.0206 131.693 42.903 132.136 42.7772C132.252 42.744 132.374 42.7267 132.399 42.7216C132.771 42.6993 132.918 42.8676 133.028 43.0526C133.246 43.4193 133.466 43.7879 133.644 44.1713C134.282 45.5479 134.907 46.9297 135.528 48.3131C135.627 48.5339 135.687 48.7711 135.747 49.0047C135.868 49.4742 135.829 49.5475 135.389 49.777ZM133.622 49.9057C132.55 50.7855 131.509 51.6978 130.243 52.4706C130.197 52.2946 130.146 52.1647 130.131 52.0316C130.032 51.1109 129.736 50.2365 129.396 49.3721C129.335 49.2171 129.329 49.2191 129.1 49.0856C128.92 49.1843 128.969 49.3282 129.018 49.4663C129.111 49.7263 129.204 49.9862 129.307 50.2425C129.596 50.9619 129.587 51.7256 129.719 52.4685C130.22 55.2801 129.848 58.0551 129.266 60.8113C128.858 62.746 128.653 64.6925 128.539 66.6552C128.439 68.3839 128.58 70.0957 128.836 71.8045C128.909 72.2909 128.872 72.3532 128.367 72.5108C127.669 72.7289 126.976 72.9695 126.264 73.1398C125.707 73.2727 125.126 73.3661 124.552 73.3848C122.822 73.4412 121.091 73.3762 119.427 72.8972C118.441 72.6133 117.483 72.2364 116.536 71.8522C115.458 71.4155 114.402 70.9329 113.345 70.4539C112.762 70.1897 112.17 69.9296 111.629 69.6028C110.202 68.7409 108.636 68.2617 106.95 68.0676C106.455 68.0106 106.429 67.9855 106.105 67.6788C106.165 67.5298 106.242 67.3688 106.297 67.2017C106.549 66.4321 106.818 65.6662 107.037 64.8886C107.156 64.465 107.107 64.0269 106.966 63.6007C106.819 63.1537 106.68 62.7128 106.922 62.2388C106.999 62.0878 106.941 61.8548 106.883 61.6754C106.761 61.2905 106.602 60.9146 106.451 60.5375C106.146 59.7764 106.261 59.3675 107.001 58.9197C107.767 58.4566 107.972 58.4606 107.884 57.282C107.825 56.4847 108.109 55.6658 108.245 54.8572C108.26 54.7654 108.306 54.6777 108.34 54.579C108.083 54.3406 107.764 54.3493 107.451 54.3388C106.395 54.3038 105.339 54.2691 104.284 54.2309C104.165 54.2264 104.048 54.1985 103.883 54.1747C104.287 51.7429 104.257 49.3196 104.082 46.885C104.25 46.831 104.36 46.7889 104.474 46.7599C105.575 46.4803 106.663 46.1384 107.782 45.9389C109.56 45.6217 111.359 45.4015 113.149 45.1365C113.583 45.0723 114.021 45.0149 114.445 44.9134C114.745 44.8415 114.954 44.9102 115.149 45.1079C115.443 45.4071 115.741 45.7037 116.047 45.9932C116.45 46.375 116.861 46.7507 117.272 47.1256C117.718 47.5317 118.261 47.7936 118.846 47.9869C119.85 48.3185 120.789 47.998 121.214 47.0931C121.474 46.5384 121.61 45.9298 121.75 45.3354C121.808 45.0942 121.885 44.9684 122.156 44.9219C123.315 44.7232 124.467 44.4946 125.627 44.3076C127.118 44.0672 128.613 43.8532 130.107 43.6345C130.506 43.5761 130.909 43.5427 131.348 43.4936C131.402 43.5655 131.481 43.6486 131.534 43.744C132.503 45.483 133.33 47.2707 133.826 49.1778C133.903 49.4736 133.884 49.6904 133.622 49.9057ZM125.003 73.7988C125.668 73.6387 126.272 73.4931 126.956 73.328C127.005 74.1246 127.05 74.8578 127.101 75.6908C126.123 75.2406 125.52 74.5913 125.003 73.7988ZM128.099 79.1422C128.829 81.0563 129.629 82.9481 130.393 84.8512C131.394 87.3446 132.309 89.8632 133.035 92.4371C133.318 93.4398 133.432 94.4664 133.48 95.4953C133.537 96.7327 133.582 97.9732 133.551 99.2104C133.498 101.307 132.404 102.923 130.615 104.171C129.072 105.247 127.43 106.191 125.741 107.06C121.596 109.193 117.517 111.428 113.451 113.683C113.332 113.749 113.208 113.806 113.067 113.877C111.083 110.689 109.109 107.519 107.109 104.307C111.608 101.739 115.769 98.7369 120.194 96.0457C120.312 96.1659 120.408 96.2785 120.522 96.3719C120.562 96.4051 120.684 96.4182 120.707 96.3934C120.754 96.3415 120.794 96.2501 120.777 96.1895C120.751 96.1007 120.679 96.0206 120.616 95.9433C118.142 92.8535 116.375 89.4212 114.783 85.9036C114.346 84.938 113.892 83.9782 113.404 82.9244C113.543 82.8327 113.7 82.7524 113.827 82.6439C115.354 81.3424 117.018 80.2117 118.838 79.2734C118.976 79.2024 119.116 79.1325 119.244 79.0473C119.374 78.96 119.613 78.8929 119.465 78.6889C119.342 78.5192 119.183 78.6519 119.052 78.7246C118.36 79.1085 117.66 79.483 116.978 79.8827C115.264 80.8884 113.779 82.1512 112.306 83.4239C109.641 85.7278 107.174 88.2035 104.778 90.7406C103.501 92.0936 102.219 93.4464 100.751 94.6349C99.6315 95.5414 98.3134 96.0308 96.8129 96.0806C96.1502 96.1025 95.58 95.9038 95.092 95.4727C94.4915 94.9422 93.9887 94.346 93.5349 93.7106C91.8782 91.3903 90.3219 89.0149 88.8912 86.5726C86.6368 82.724 84.1814 78.9855 81.6126 75.3066C80.8647 74.2355 80.2066 73.1122 79.5091 72.0119C79.4659 71.9434 79.4388 71.8669 79.3796 71.7421C82.6809 70.0824 85.5615 67.8614 88.789 65.9904C88.9044 66.1639 89.0311 66.3296 89.1303 66.508C89.8165 67.7418 90.5184 68.969 91.1754 70.2157C92.4069 72.5531 93.803 74.8083 95.2009 77.0629C96.4599 79.0934 97.7294 81.1187 98.9972 83.1446C99.0785 83.2747 99.1272 83.4633 99.4057 83.3939C99.5024 83.0093 99.1744 82.7544 99.0285 82.4498C98.8814 82.1425 98.6879 81.8536 98.5339 81.5895C100.386 77.8399 102.703 74.3833 105.075 70.9073C107.224 71.572 108.998 71.1314 110.326 69.357C110.523 69.4559 110.707 69.5414 110.885 69.6375C113.176 70.8812 115.597 71.8885 118.035 72.8569C119.72 73.526 121.523 73.773 123.351 73.7354C124.141 73.7191 124.709 73.836 125.103 74.5417C125.397 75.0684 125.927 75.4611 126.491 75.7759C126.68 75.8811 126.893 75.9473 127.113 76.0383C127.43 77.0478 127.707 78.1133 128.099 79.1422ZM112.037 115.274C109.499 111.85 107.158 108.365 105.047 104.667C105.507 104.431 105.93 104.214 106.337 104.006C107.712 105.671 108.618 107.53 109.743 109.271C110.859 111 111.916 112.762 113.025 114.551C112.68 114.804 112.385 115.019 112.037 115.274ZM109.241 113.973C108.934 114.119 108.61 114.239 108.27 114.38C106.545 112.426 105.08 110.309 103.547 108.175C103.735 108.047 103.908 107.918 104.094 107.807C104.52 107.55 104.953 107.305 105.38 107.05C105.733 106.839 105.898 106.861 106.107 107.178C107.448 109.216 108.786 111.256 110.124 113.296C110.15 113.335 110.156 113.384 110.187 113.474C109.875 113.64 109.565 113.819 109.241 113.973ZM107.905 115.869C106.783 116.708 105.541 117.316 104.105 117.569C103.926 117.6 103.754 117.667 103.588 117.714C103.62 117.985 103.775 117.989 103.942 117.953C104.301 117.876 104.66 117.793 105.017 117.708C105.22 117.659 105.421 117.603 105.695 117.531C105.757 118.093 105.815 118.624 105.878 119.193C105.606 119.286 105.364 119.372 105.118 119.45C105.019 119.482 104.891 119.472 104.818 119.527C104.74 119.585 104.714 119.698 104.665 119.787C104.756 119.811 104.855 119.87 104.936 119.853C105.192 119.799 105.441 119.716 105.693 119.645C105.776 119.622 105.861 119.602 106.008 119.565C106.109 119.926 106.207 120.274 106.317 120.669C105.994 120.751 105.728 120.819 105.461 120.884C105.359 120.909 105.236 120.904 105.159 120.957C105.093 121.002 105.056 121.109 105.053 121.19C105.052 121.22 105.191 121.288 105.258 121.279C105.483 121.25 105.705 121.194 105.928 121.15C106.064 121.123 106.201 121.099 106.411 121.061C106.507 121.395 106.606 121.711 106.69 122.032C106.923 122.922 107.211 123.804 107.231 124.73C107.235 124.938 107.226 125.147 107.237 125.355C107.314 126.854 106.018 127.937 104.865 128.294C104.45 128.422 104.022 128.514 103.553 128.635C103.448 128.488 103.337 128.348 103.243 128.2C101.635 125.649 100.023 123.101 98.4231 120.545C97.0856 118.41 95.76 116.269 94.4353 114.126C94.2112 113.764 94.0189 113.385 93.779 112.954C93.9691 112.885 94.1352 112.814 94.3086 112.765C96.0308 112.279 97.6827 111.651 99.2206 110.781C100.376 110.127 101.472 109.403 102.475 108.564C102.629 108.436 102.792 108.318 103.022 108.139C103.531 108.835 104.005 109.452 104.446 110.089C105.557 111.696 106.772 113.235 108.046 114.735C108.573 115.356 108.57 115.371 107.905 115.869ZM102.775 129.074C102.319 129.095 102.121 128.982 102.001 128.577C101.928 128.329 101.795 128.148 101.582 127.987C101.185 127.687 101.001 127.296 101.128 126.828C101.215 126.507 101.094 126.321 100.797 126.156C100.046 125.741 99.6707 125.111 99.6443 124.314C99.6309 123.908 99.5396 123.598 99.0922 123.366C98.5104 123.064 98.3167 122.502 98.3235 121.915C98.3275 121.56 98.2427 121.35 97.8373 121.24C97.3308 121.104 97.0482 120.777 97.0951 120.263C97.1169 120.024 96.9869 119.891 96.7541 119.778C96.1072 119.466 95.8918 119.046 95.9916 118.386C96.0495 118 96.0557 117.986 95.6811 117.837C95.174 117.635 94.9253 117.285 94.8821 116.792C94.8695 116.648 94.8356 116.506 94.8224 116.361C94.8048 116.166 94.7041 116.022 94.5115 115.945C93.8629 115.687 93.6662 115.205 93.7316 114.609C93.7609 114.341 93.6752 114.198 93.3891 114.102C92.8367 113.918 92.7825 113.738 93.0919 113.28C93.1366 113.214 93.2033 113.161 93.317 113.042C93.4474 113.221 93.5695 113.365 93.6636 113.523C94.4289 114.808 95.1617 116.11 95.9559 117.38C97.4403 119.754 98.9629 122.108 100.463 124.473C101.362 125.893 102.25 127.319 103.141 128.743C103.183 128.81 103.21 128.883 103.264 128.996C103.075 129.027 102.926 129.067 102.775 129.074ZM78.369 71.642C78.1298 71.2174 77.8837 70.7809 77.6383 70.3454C81.0678 68.3477 84.459 66.3723 87.8754 64.3823C88.3019 64.67 88.368 65.1701 88.7401 65.5436C88.5539 65.6751 88.4469 65.757 88.3332 65.8297C86.4008 67.0647 84.4775 68.311 82.5313 69.5273C81.5591 70.1348 80.5496 70.6933 79.5472 71.2597C79.2069 71.452 78.8519 71.6392 78.369 71.642ZM78.3148 67.8838C80.8255 66.4349 83.3934 65.2521 85.9631 64.101C86.1805 64.3009 86.3634 64.4689 86.5654 64.6545C86.4716 64.7223 86.383 64.7972 86.2834 64.856C84.1709 66.1019 82.057 67.3458 79.9431 68.5895C79.8396 68.6503 79.7263 68.6986 79.6283 68.7655C79.4554 68.8832 79.2926 68.8613 79.1562 68.7304C78.8823 68.4677 78.6215 68.1939 78.3148 67.8838ZM77.3708 67.3714C76.5171 66.2094 75.9132 64.9609 75.7916 63.5447C75.7751 63.3498 75.709 63.1585 75.6574 62.9272C75.3517 63.0732 75.362 63.258 75.3953 63.4537C75.4757 63.9268 75.5528 64.4004 75.6378 64.9128H73.8368C73.7793 64.7276 73.717 64.548 73.6696 64.3654C73.6332 64.2248 73.6401 64.0714 73.5824 63.9403C73.5447 63.8554 73.4257 63.8002 73.3433 63.7317C73.2951 63.8205 73.1975 63.9142 73.2076 63.9967C73.2466 64.3108 73.3206 64.6217 73.3894 64.9726C73.0613 65.0254 72.7718 65.069 72.4837 65.119C72.2277 65.1637 72.1252 65.0338 72.0944 64.8337C72.0649 64.6432 72.0549 64.4505 72.0316 64.2591C72.0091 64.0776 71.9543 63.9194 71.6707 63.9051C71.5848 64.3245 71.6879 64.7119 71.7441 65.119C71.641 65.1615 71.5504 65.2259 71.4539 65.2343C70.2493 65.3397 69.0455 65.4756 67.838 65.5199C67.1791 65.5438 66.4983 65.4665 65.8878 65.178C64.8892 64.7062 64.3038 63.9353 64.0408 62.956C63.9368 62.569 63.8962 62.1677 63.8282 61.781C64.3855 61.3813 81.1806 54.813 81.9698 54.6881C82.2606 55.7206 82.5315 56.7611 82.8499 57.7892C83.1766 58.843 83.6732 59.841 84.25 60.796C84.8164 61.7336 85.4663 62.6296 86.1076 63.5856C85.5557 63.8534 85.0173 64.1143 84.4795 64.3762C82.7448 65.2217 81.0083 66.0639 79.2769 66.9153C78.892 67.1046 78.5318 67.3353 78.1496 67.5296C77.7233 67.7465 77.6321 67.7269 77.3708 67.3714ZM63.5129 61.4091C63.295 60.6857 63.4554 60.4537 64.176 60.2947C64.3849 60.2485 64.6006 60.1384 64.7574 60.0035C65.1617 59.6554 65.6129 59.5692 66.1152 59.7468C66.3961 59.8461 66.5849 59.7818 66.7552 59.5785C67.3359 58.8845 68.1088 58.5915 69.0561 58.6672C69.4368 58.6974 69.7417 58.6507 70.0076 58.3179C70.4273 57.7924 71.0818 57.6845 71.7582 57.7356C72.2283 57.7712 72.2999 57.7763 72.4698 57.4334C72.715 56.9375 73.1131 56.7331 73.6921 56.8149C73.9351 56.8491 74.0781 56.7561 74.2131 56.5755C74.6509 55.9906 75.0157 55.8742 75.7912 56.0359C76.206 56.1221 76.2386 56.1076 76.4631 55.781C76.7246 55.4003 77.0917 55.1848 77.5966 55.1927C77.7374 55.1949 77.879 55.186 78.0187 55.1975C78.3078 55.2209 78.5186 55.1423 78.6801 54.9011C79.005 54.4163 79.5118 54.3019 80.0956 54.3811C80.2494 54.402 80.4049 54.4137 80.5756 54.4314C81.0872 53.6003 81.3304 53.5582 81.9078 54.2144C81.6351 54.3362 81.3811 54.4642 81.1152 54.5657C78.8652 55.424 76.6061 56.2626 74.3638 57.1364C72.1224 58.0096 69.8981 58.9199 67.6637 59.8084C66.4913 60.2745 65.3139 60.7298 64.1377 61.1876C63.9335 61.2669 63.7239 61.3346 63.5129 61.4091ZM106.791 68.6062C106.851 68.5305 107.002 68.4564 107.095 68.4703C108.012 68.6058 108.935 68.73 109.779 69.1168C109.806 69.1291 109.818 69.1665 109.837 69.1917C109.159 70.6277 106.624 71.3819 105.34 70.4833C105.821 69.8577 106.299 69.2269 106.791 68.6062ZM103.486 54.0497C103.473 54.127 103.445 54.2023 103.408 54.3315C103.078 54.3541 102.789 54.374 102.507 54.3932C102.412 53.8654 103.167 47.0672 103.361 46.6113C103.723 46.6158 103.695 46.8711 103.708 47.0829C103.74 47.5796 103.761 48.0769 103.781 48.574C103.856 50.407 103.798 52.2342 103.486 54.0497ZM102.144 53.411C101.621 53.3585 101.169 53.3279 100.722 53.2642C100.201 53.1897 99.6857 53.08 99.166 52.9967C97.6091 52.7468 96.289 52.0806 95.1227 51.1222C93.6948 49.949 92.2697 48.7717 90.8117 47.6297C89.0463 46.2469 87.2521 44.8947 85.4606 43.5399C85.0845 43.2556 84.7783 42.89 84.3053 42.712C84.0889 42.6306 83.8959 42.5738 83.6494 42.6208C83.081 42.7283 82.506 42.8108 81.9299 42.8799C80.4946 43.052 79.1745 43.5254 77.8993 44.1284C77.6427 44.25 77.3902 44.4071 77.0853 44.4042C77.0641 44.3728 77.0425 44.3414 77.0209 44.3098C77.0967 44.2309 77.165 44.1443 77.249 44.074C77.9191 43.5139 78.7149 43.1281 79.5054 42.7395C80.0165 42.4883 80.5455 42.2678 81.066 42.0322C81.1445 41.9966 81.2383 41.9684 81.2903 41.9104C81.3361 41.8597 81.3707 41.753 81.3421 41.7057C81.311 41.6543 81.2024 41.6376 81.124 41.6175C81.0975 41.6106 81.0594 41.6384 81.0277 41.6519C79.5752 42.2724 78.1212 42.8908 76.896 43.865C76.8297 43.9178 76.7416 43.9655 76.7096 44.0334C76.4867 44.5083 75.9469 44.5325 75.551 44.7983C75.377 44.5041 75.5484 44.3277 75.7044 44.2009C76.0573 43.9136 76.4173 43.6194 76.8224 43.4024C77.9762 42.784 79.1549 42.2044 80.3212 41.6058C80.4741 41.5273 80.7693 41.4886 80.6237 41.2537C80.5142 41.0769 80.3053 41.2188 80.1586 41.2931C78.9119 41.9249 77.6552 42.5422 76.4279 43.2042C75.8258 43.529 75.2435 43.9073 74.9998 44.5597C74.7544 44.5148 74.7002 44.3905 74.83 44.247C75.0421 44.0122 75.2613 43.7734 75.5204 43.5858C75.9333 43.2864 76.3686 43.0093 76.8167 42.7555C77.7742 42.2122 78.746 41.6904 79.7118 41.1592C79.7871 41.118 79.8788 41.0871 79.9299 41.0278C79.9764 40.9736 80.0198 40.849 79.9914 40.8234C79.931 40.7692 79.7997 40.7133 79.7387 40.739C79.4681 40.8536 79.2071 40.9893 78.9515 41.131C77.9277 41.6986 76.9079 42.2714 75.8852 42.841C75.8456 42.863 75.7947 42.8682 75.6971 42.8267C75.8934 42.6616 76.0677 42.4641 76.29 42.3369C77.497 41.6449 78.7107 40.9621 79.9337 40.2937C80.4164 40.0299 80.931 39.8151 81.4269 39.5704C81.8488 39.3625 82.2804 39.1945 82.7668 39.1543C82.8849 39.1444 83.0691 39.0641 83.0922 38.9843C83.1433 38.8074 82.953 38.7266 82.8005 38.7113C82.1022 38.6413 81.402 38.5815 80.7012 38.5368C80.4045 38.5176 80.104 38.548 79.8052 38.5494C79.4093 38.5513 79.0449 38.4764 78.7528 38.1313C78.8504 38.0795 78.9372 38.0046 79.0374 37.9847C80.0183 37.7916 80.9986 37.5951 81.9845 37.4264C82.5474 37.3297 83.1043 37.3815 83.6397 37.5987C84.3317 37.8796 85.0307 38.1458 85.7287 38.4137C86.452 38.6916 87.0466 39.1358 87.6328 39.5998C87.8811 39.7964 88.1957 39.9214 88.4667 40.0961C90.9996 41.7294 93.5248 43.3728 96.0632 44.9994C97.1013 45.6646 98.1693 46.2908 99.2169 46.9439C100.062 47.4711 100.989 47.6144 101.986 47.4902C102.211 47.4624 102.44 47.4678 102.739 47.4548C102.766 49.4625 102.235 51.3881 102.144 53.411ZM145.296 24.8013C145.331 24.811 145.367 24.8208 145.403 24.8305C145.25 25.2624 145.329 25.7579 144.879 26.108C145.018 25.6723 145.157 25.2368 145.296 24.8013ZM147.373 28.3099C147.373 28.1687 147.34 28.0175 147.277 27.8897C147.152 27.6386 146.872 27.6132 146.692 27.8355C146.6 27.9491 146.522 28.0886 146.495 28.2259C146.374 28.8416 146.27 29.4605 146.167 30.079C146.114 30.3998 146.074 30.7225 146.028 31.0445L145.899 31.0356C145.891 30.3474 145.828 29.6548 145.889 28.9719C145.967 28.1085 146.153 27.2536 146.28 26.3933C146.345 25.9485 146.394 25.5012 146.429 25.0536C146.439 24.9344 146.414 24.7675 146.33 24.6994C146.233 24.6207 146.053 24.6271 145.903 24.5951C145.889 24.5365 145.87 24.4747 145.859 24.4115C145.83 24.2317 145.724 24.1304 145.526 24.0845C145.297 24.031 145.203 24.1699 145.112 24.3064C145.022 24.4425 144.929 24.5849 144.883 24.7361C144.698 25.3393 144.483 25.9395 144.364 26.5546C144.092 27.9636 143.858 29.3792 143.631 30.795C143.487 31.6894 143.173 32.4853 142.467 33.1624C141.337 34.2456 140.259 35.3741 139.168 36.4907C137.069 38.6405 135.26 40.5073 133.177 42.6415C132.611 42.1853 131.649 42.2908 131.276 42.9353C131.156 43.1442 130.995 43.1964 130.778 43.2197C130.305 43.2707 129.832 43.3136 129.363 43.3836C127.556 43.653 125.749 43.9206 123.946 44.2124C123.202 44.333 122.469 44.5118 121.732 44.6674C121.486 44.7191 121.362 44.821 121.354 45.0973C121.336 45.7274 121.169 46.3395 120.866 46.9105C120.455 47.6883 119.731 47.9249 118.844 47.6225C118.04 47.3482 117.438 46.8358 116.864 46.2876C116.377 45.8223 115.91 45.3395 115.431 44.8673C115.131 44.5722 114.768 44.485 114.333 44.5625C113.676 44.6795 113.014 44.7725 112.354 44.8726C110.669 45.1285 108.979 45.3548 107.302 45.6495C106.493 45.7915 105.714 46.0701 104.917 46.2682C104.522 46.3663 104.154 46.4865 103.707 46.2731C103.24 46.0498 102.963 46.2558 102.874 46.7424C102.854 46.8505 102.831 46.9578 102.807 47.0774C102.346 47.1125 101.91 47.1499 101.474 47.1785C100.746 47.226 100.083 47.0627 99.476 46.6836C98.3854 46.0025 97.2784 45.3427 96.1912 44.6573C94.5384 43.6154 92.8927 42.5642 91.2514 41.5073C90.2723 40.8767 89.2741 40.2651 88.3453 39.5765C87.5462 38.9839 86.7265 38.4409 85.7866 38.0604C85.0301 37.7544 84.2696 37.4544 83.4969 37.1846C83.2081 37.0837 82.8774 37.0255 82.5705 37.0386C82.0643 37.0603 81.5587 37.1403 81.0583 37.2238C80.3311 37.3452 79.6085 37.49 78.8845 37.6277C78.6089 37.6801 78.384 37.7902 78.3417 38.0785C78.3038 38.3362 78.4715 38.6185 78.7605 38.7443C78.9006 38.8058 79.0595 38.8565 79.2126 38.8643C79.7387 38.8901 80.2665 38.9117 80.7926 38.9024C81.2106 38.8949 81.2709 38.8831 81.632 39.0423C81.4996 39.1122 81.3809 39.1768 81.2601 39.2382C79.9215 39.919 78.5783 40.5916 77.2457 41.282C76.5067 41.665 75.8348 42.1335 75.2569 42.7075C75.0637 42.8998 74.8936 43.0913 74.9225 43.3867C74.9331 43.4924 74.8328 43.6154 74.761 43.7177C74.6669 43.8526 74.5328 43.9657 74.4479 44.1046C74.2261 44.4673 74.3797 44.7608 74.8249 44.8661C74.9364 44.8927 75.0688 44.9134 75.1454 44.9807C75.3611 45.1693 75.5814 45.1607 75.8229 45.0483C76.1045 44.9177 76.3858 44.7862 76.6814 44.6483C76.948 44.8585 77.2291 44.8126 77.5169 44.6859C77.8343 44.5462 78.1659 44.4312 78.4726 44.275C80.0797 43.4553 81.8541 43.2111 83.6393 42.9977C83.9023 42.9663 84.1222 43.0236 84.3246 43.1769C84.7179 43.474 85.1204 43.7614 85.513 44.0591C87.0988 45.2626 88.6989 46.4509 90.2622 47.6784C91.8121 48.8953 93.3302 50.1463 94.8508 51.3942C96.0704 52.3953 97.4474 53.1022 99.0766 53.3595C99.9435 53.4962 100.813 53.6208 101.681 53.7533C101.812 53.7732 101.941 53.8067 102.077 53.8352C102.077 54.0197 102.069 54.1636 102.078 54.307C102.102 54.7199 102.21 54.8035 102.675 54.7745C102.781 54.7681 102.885 54.7469 102.99 54.7379C103.528 54.6911 104.067 54.6082 104.605 54.6086C105.573 54.6096 106.541 54.6597 107.509 54.6938C107.606 54.697 107.703 54.7308 107.78 54.7467C107.673 55.5255 107.568 56.2739 107.469 57.0229C107.452 57.1497 107.418 57.2904 107.459 57.4052C107.666 57.9897 107.388 58.3044 106.845 58.6056C105.869 59.148 105.692 59.7839 106.106 60.7541C106.252 61.0984 106.382 61.4493 106.503 61.8023C106.543 61.9209 106.583 62.0773 106.532 62.178C106.256 62.7267 106.465 63.2437 106.582 63.7807C106.662 64.1511 106.712 64.5603 106.624 64.9215C106.446 65.6568 106.194 66.3808 105.919 67.0923C105.602 67.9138 105.577 67.9063 106.41 68.3978C106.333 68.5144 106.275 68.6126 106.207 68.7045C105.851 69.1836 105.474 69.6512 105.137 70.1418C102.76 73.6069 100.394 77.078 98.4899 80.7899C98.4359 80.895 98.3498 80.9865 98.2528 81.1195C98.1409 80.9621 98.0598 80.8584 97.9902 80.7485C97.3004 79.663 96.5915 78.5875 95.9283 77.4886C94.5937 75.276 93.2734 73.0564 91.9698 70.8286C91.4554 69.9493 90.976 69.0508 90.5281 68.1417C90.0849 67.2421 89.4085 66.4504 89.1314 65.4695C89.0258 65.0964 88.7042 64.7725 88.4713 64.4316C88.0983 63.8864 88.0058 63.8699 87.3991 64.2085C87.0342 64.4121 86.8538 64.3909 86.5777 64.1034C86.5209 64.0444 86.4813 63.9717 86.4156 63.8803C86.6934 63.6973 86.5896 63.5004 86.4447 63.3051C86.129 62.8805 85.7818 62.4722 85.5018 62.0286C85.012 61.252 84.5172 60.473 84.1096 59.6592C83.7016 58.8448 83.3416 58.002 83.0643 57.1437C82.7521 56.177 82.5551 55.1792 82.309 54.1948C82.1905 53.7207 81.8003 53.5216 81.3368 53.4205C80.9312 53.3323 80.6748 53.552 80.469 53.8368C80.4221 53.9015 80.3743 53.9653 80.3218 54.0368C79.449 53.944 78.7019 54.1151 78.2155 54.8415C78.0405 54.8415 77.8824 54.8407 77.7244 54.8417C77.0925 54.8452 76.5466 55.0141 76.1833 55.5217C76.0505 55.7075 75.8808 55.6803 75.6746 55.6495C75.0007 55.549 74.4182 55.718 73.9968 56.2276C73.8357 56.4221 73.6297 56.4303 73.3999 56.4676C73.1146 56.5139 72.8018 56.5759 72.5753 56.7255C72.3319 56.8864 72.1748 57.1564 71.9507 57.4125C71.8276 57.405 71.654 57.3877 71.4799 57.3859C70.8206 57.3786 70.2041 57.5387 69.7794 58.0034C69.5221 58.2851 69.2647 58.3255 68.9122 58.3161C67.9477 58.2909 67.1134 58.5633 66.4961 59.2807C66.4443 59.3409 66.3659 59.3816 66.2932 59.4363C65.6785 59.2243 65.0918 59.2708 64.6001 59.6542C64.3316 59.8636 64.0496 59.9636 63.7191 60.0363C63.1337 60.165 62.7936 60.9587 63.1379 61.4061C63.3814 61.7226 63.4933 62.0636 63.5283 62.4335C63.579 62.9683 63.727 63.4775 64.0119 63.9448C64.5845 64.8844 65.3805 65.5589 66.5908 65.751C67.6765 65.9231 68.7589 65.9115 69.845 65.7713C70.5022 65.6866 71.1607 65.6086 71.7298 65.5386C72.1713 65.8132 72.1995 66.3921 72.8029 66.3929C72.8736 65.9892 72.3204 65.8827 72.4039 65.48C72.804 65.4286 73.1975 65.3783 73.5742 65.3302C73.7282 65.4846 73.8441 65.6298 73.9926 65.7377C74.0657 65.7911 74.1988 65.7756 74.3047 65.7911C74.2995 65.6934 74.303 65.5941 74.2858 65.4983C74.2739 65.4321 74.2336 65.3701 74.173 65.2311C74.7011 65.2704 75.156 65.2823 75.6006 65.3507C75.7337 65.3715 75.8943 65.5313 75.9461 65.6598C76.2466 66.4037 76.7171 67.0585 77.163 67.7296C77.3675 68.0374 77.5825 68.2339 77.9667 68.0964C78.2998 68.4506 78.6032 68.7733 78.9394 69.1309C78.4552 69.3936 78.0313 69.6189 77.6131 69.8523C77.2893 70.0329 77.2025 70.2665 77.3549 70.5858C77.4884 70.8659 77.6453 71.1369 77.7973 71.4093C78.1516 72.0447 78.1529 72.0437 78.9176 71.943C78.9478 71.939 78.9826 71.9617 79.033 71.9777C79.1245 72.1186 79.2245 72.2696 79.3212 72.4222C79.911 73.356 80.4659 74.3102 81.096 75.2209C83.5919 78.8267 86.0305 82.4627 88.2307 86.2288C89.7914 88.8997 91.4611 91.5138 93.3045 94.0309C93.7325 94.6152 94.2573 95.1443 94.7713 95.6712C95.3659 96.2809 96.159 96.469 97.0228 96.4269C97.3553 96.4106 97.6884 96.3576 98.0142 96.2924C99.4154 96.0121 100.616 95.3845 101.589 94.4326C103.163 92.8911 104.717 91.3315 106.252 89.7571C108.327 87.6281 110.447 85.5384 112.723 83.586C112.844 83.4817 112.977 83.3878 113.139 83.2624C113.575 84.1938 113.992 85.0606 114.388 85.935C115.902 89.2708 117.545 92.5444 119.825 95.5168C119.863 95.5667 119.884 95.628 119.923 95.7053C119.789 95.8003 119.671 95.8909 119.545 95.972C118.032 96.9451 116.52 97.9196 115.004 98.8883C112.737 100.336 110.47 101.783 108.196 103.222C107.781 103.485 107.336 103.708 106.905 103.948C106.754 103.791 106.633 103.663 106.501 103.525C105.82 103.883 105.139 104.173 104.523 104.589C104.907 105.205 105.269 105.785 105.632 106.368C104.937 106.953 104.159 107.331 103.403 107.739C103.373 107.755 103.332 107.783 103.308 107.775C102.848 107.611 102.634 107.959 102.379 108.17C100.637 109.602 98.7249 110.798 96.5595 111.623C95.489 112.03 94.3741 112.339 93.2809 112.697C92.8433 112.84 92.5239 113.265 92.5232 113.706C92.5228 114.105 92.7977 114.31 93.1705 114.441C93.217 114.457 93.2551 114.493 93.3111 114.529C93.3179 114.621 93.3252 114.716 93.332 114.811C93.3754 115.406 93.6058 115.913 94.2009 116.213C94.4117 116.32 94.4483 116.476 94.4657 116.65C94.5364 117.354 94.8299 117.924 95.5884 118.212C95.5884 118.32 95.5908 118.399 95.5882 118.478C95.5657 119.156 95.8125 119.712 96.4782 120.062C96.6783 120.167 96.7122 120.315 96.7276 120.502C96.7686 120.998 97.0638 121.364 97.5551 121.534C97.8922 121.65 97.9561 121.825 97.9662 122.11C97.9829 122.571 98.1435 123.001 98.4837 123.349C98.7133 123.583 99.068 123.745 99.214 124.01C99.3625 124.28 99.2951 124.642 99.374 124.953C99.5586 125.68 100.044 126.214 100.729 126.573C100.729 126.764 100.734 126.924 100.728 127.083C100.713 127.511 100.876 127.888 101.214 128.165C101.463 128.369 101.6 128.597 101.708 128.877C101.928 129.448 102.837 129.656 103.327 129.254C103.613 129.018 103.956 128.923 104.309 128.825C104.711 128.712 105.133 128.622 105.497 128.439C106.822 127.774 107.649 126.807 107.618 125.349C107.603 124.655 107.598 123.966 107.399 123.289C107.236 122.73 107.136 122.154 106.948 121.603C106.788 121.136 106.788 120.769 107.32 120.515C107.421 120.467 107.51 120.363 107.56 120.265C107.605 120.177 107.591 120.064 107.602 119.961C107.572 119.941 107.542 119.922 107.512 119.902C107.254 120.091 106.996 120.281 106.679 120.513C106.559 120.066 106.461 119.698 106.371 119.361C106.533 119.186 106.673 119.06 106.776 118.913C106.82 118.85 106.79 118.743 106.794 118.656C106.697 118.656 106.594 118.637 106.505 118.661C106.42 118.684 106.351 118.753 106.208 118.845C106.172 118.299 106.141 117.825 106.112 117.364C106.286 117.27 106.413 117.214 106.527 117.14C107.257 116.665 107.994 116.199 108.708 115.705C109.036 115.479 109.027 115.372 108.807 115.053C108.737 114.952 108.669 114.85 108.6 114.749C108.592 114.71 108.585 114.67 108.577 114.631C108.899 114.785 109.076 114.707 109.168 114.465C109.187 114.416 109.276 114.386 109.336 114.354C109.7 114.164 110.065 113.976 110.452 113.775C110.518 113.848 110.604 113.928 110.671 114.02C110.982 114.449 111.286 114.883 111.597 115.312C111.871 115.689 112.059 115.717 112.458 115.444C112.683 115.29 112.895 115.118 113.128 114.974C113.332 114.848 113.398 114.691 113.35 114.478C113.329 114.387 113.322 114.293 113.308 114.192C113.44 114.111 113.552 114.034 113.671 113.968C116.574 112.384 119.475 110.796 122.385 109.22C124.324 108.17 126.292 107.163 128.215 106.087C129.249 105.509 130.251 104.87 131.201 104.182C132.472 103.26 133.419 102.099 133.743 100.612C133.901 99.8895 133.989 99.1454 134.004 98.4097C134.023 97.4453 133.954 96.4784 133.896 95.514C133.818 94.2097 133.637 92.9173 133.241 91.6579C132.488 89.2598 131.649 86.8877 130.704 84.5464C129.839 82.4035 128.994 80.2536 128.16 78.1006C127.548 76.5205 127.364 74.8808 127.437 73.1664C127.795 73.0647 128.182 72.9685 128.559 72.8444C129.229 72.6236 129.325 72.4732 129.233 71.8383C128.983 70.1124 128.797 68.3823 128.947 66.6393C129.065 65.2601 129.136 63.8729 129.362 62.5074C129.709 60.4084 130.246 58.3344 130.282 56.1982C130.298 55.2497 130.322 54.2999 130.28 53.3528C130.267 53.0504 130.346 52.8839 130.589 52.7075C131.402 52.117 132.202 51.512 133 50.9041C133.375 50.6182 133.734 50.314 134.119 50.0025C134.556 50.4654 135.026 50.3686 135.506 50.107C135.611 50.0492 135.719 49.9939 135.823 49.9331C136.157 49.7371 136.336 49.4341 136.204 49.1072C136.126 48.9119 136.136 48.7629 136.196 48.6348C137.411 47.0585 138.946 45.1256 140.16 43.5487C141.812 41.4035 143.463 39.257 145.112 37.1099C145.395 36.7422 145.676 36.3732 145.944 35.9968C146.145 35.7146 146.323 35.4184 146.513 35.1301C146.914 34.5232 147.37 33.9228 147.38 33.1861C147.403 31.5609 147.383 29.9353 147.373 28.3099Z" fill="black"/>
<path fill-rule="evenodd" clip-rule="evenodd" d="M119.855 28.8772C119.9 28.5048 119.935 28.2193 119.546 27.8765C119.749 27.8634 119.844 27.7697 119.995 27.8558C120.376 28.0727 120.237 28.5666 119.855 28.8772ZM118.412 27.4077C118.423 27.1375 118.247 26.9134 117.938 26.6178C118.328 26.7056 118.622 27.0691 118.412 27.4077ZM115.284 27.651C115.502 27.227 115.884 27.013 116.403 27.287C116.125 27.394 115.699 27.2528 115.284 27.651ZM113.215 28.6494C113.035 28.1229 113.227 27.8293 113.779 27.7961C113.495 27.9682 113.241 28.1701 113.215 28.6494ZM112.849 31.877C112.589 32.0132 112.254 32.3654 112.671 33.0058C112.442 32.8558 112.1 32.6499 111.953 32.4158C111.813 32.1935 111.85 31.8996 111.844 31.6404C111.826 30.9053 112.216 30.3884 113.03 30.081C112.778 30.7373 112.523 31.362 112.849 31.877ZM120.35 29.1066C120.494 29.1897 120.602 29.4189 120.532 29.5694C120.512 29.6108 120.442 29.6759 120.399 29.6917C120.441 29.5436 120.38 29.3056 120.222 29.2254C120.199 29.141 120.179 29.008 120.35 29.1066ZM122.289 32.945C122.273 32.8949 122.289 32.6334 122.124 32.4689C121.989 32.3339 121.777 32.3585 121.64 32.2267C121.189 31.7956 121.014 31.0693 120.166 31.2762C120.204 31.1321 120.2 31.032 120.247 30.987C120.673 30.5859 120.301 29.961 120.658 29.5279C120.708 29.4674 120.554 29.2131 120.461 29.0695C120.406 28.9846 120.287 28.9416 120.225 28.899C120.377 28.4928 120.47 28.1067 120.075 27.8103C120.076 27.8103 119.701 27.6635 119.494 27.6087C119.204 27.5312 118.906 27.482 118.572 27.4127C118.738 26.9535 118.499 26.758 118.209 26.5922C117.699 26.3008 117.127 26.382 116.569 26.8018C116.421 26.9132 116.236 27.0556 116.073 27.0487C115.784 27.0369 115.598 27.1665 115.39 27.319C115.029 27.5848 114.656 27.7921 114.174 27.5821C113.87 27.45 113.321 27.6738 113.089 27.9751C112.853 28.282 112.91 28.5924 113.069 28.9121C113.187 29.1477 113.548 29.3452 113.379 29.6157C113.257 29.8102 112.933 29.8936 112.686 29.9919C111.673 30.3953 111.432 31.7968 111.977 32.5582C111.977 32.5577 111.977 32.5572 111.977 32.5567C112.022 32.6713 112.164 32.7817 112.216 32.8154C112.475 32.9822 112.71 33.0857 112.925 33.2923C113.154 33.5134 113.271 33.8473 113.472 34.1046C113.561 34.2182 113.743 34.2548 113.872 34.3429C113.989 34.4221 114.041 34.846 114.564 35.0511C114.656 35.0873 114.723 35.1712 114.741 35.2685C114.791 35.5359 114.839 35.7958 114.89 36.0705C114.281 36.4239 114.124 36.7212 114.22 37.3427C114.318 37.9833 114.808 38.273 115.344 38.5696C115.231 39.5777 115.149 40.5754 115 41.563C114.848 42.5713 114.631 43.5696 114.438 44.5712C114.392 44.8048 114.329 45.0343 114.692 45.186C114.763 44.99 114.85 44.8199 114.886 44.6398C115.033 43.8888 115.189 43.1382 115.298 42.3812C115.472 41.1777 115.61 39.9689 115.763 38.7622C115.811 38.3881 115.714 38.1282 115.3 38.0106C114.963 37.9147 114.741 37.6565 114.674 37.2938C114.61 36.9465 114.709 36.6494 114.934 36.5806C115.266 36.479 115.311 36.7751 115.427 36.9645C115.566 37.1914 115.709 37.4037 116.065 37.2679C116.145 36.9681 116.202 36.6398 116.32 36.3351C116.494 35.8871 116.718 35.4589 116.906 35.0162C117.085 34.5947 117.083 34.1574 117.598 34.0701C117.685 34.0554 117.901 34.2433 118.122 34.0876C118.35 33.9273 118.39 33.7003 118.644 33.7013C118.789 33.7017 118.985 33.747 119.13 33.6983C119.273 33.6496 119.363 33.4435 119.511 33.4229C119.752 33.3892 119.896 33.2736 120.21 33.3503C120.393 33.3951 120.389 33.6181 120.765 33.6287C121.107 33.6385 121.018 33.7972 121.12 34.0701C121.168 34.1966 121.447 34.2725 121.493 34.3992C121.637 34.7956 121.795 35.2297 121.79 35.6278C121.772 37.291 121.467 38.9065 120.73 40.4173C120.441 41.0075 120.12 41.1565 119.489 40.9979C119.292 40.9485 118.984 40.8243 118.805 40.7279C118.475 40.5491 118.147 40.3651 117.824 40.1738C117.672 40.0835 117.516 39.9102 117.369 40.104C117.275 40.2272 117.324 40.327 117.406 40.4084C117.613 40.6125 118.01 40.8712 118.271 40.9994C118.931 41.3235 119.609 41.6071 120.373 41.4315C120.518 41.8793 120.655 42.2676 120.769 42.6628C120.96 43.3224 121.135 43.9869 121.321 44.6482C121.387 44.8806 121.386 45.1568 121.655 45.2709C121.941 45.1302 121.826 44.9278 121.777 44.748C121.489 43.7075 121.204 42.6663 120.9 41.6304C120.823 41.368 120.828 41.1619 120.974 40.9123C121.372 40.2321 121.673 39.5041 121.831 38.728C121.975 38.0163 122.095 37.2994 122.231 36.5862C122.26 36.4362 122.273 36.2582 122.361 36.1492C122.776 35.6428 122.828 35.0612 122.83 34.4373C122.831 33.795 122.463 33.5136 122.289 32.945Z" fill="black"/>
<path fill-rule="evenodd" clip-rule="evenodd" d="M120.247 35.6328L120.623 37.1194L120.075 37.1743L120.247 35.6328Z" fill="black"/>
<path fill-rule="evenodd" clip-rule="evenodd" d="M120.248 35.6475L120.078 37.1713L120.62 37.1175L120.248 35.6475ZM120.075 37.177C120.074 37.177 120.074 37.1767 120.073 37.1762C120.073 37.1757 120.073 37.1748 120.073 37.174L120.245 35.6325C120.245 35.6316 120.246 35.6306 120.247 35.6303C120.248 35.6303 120.25 35.6311 120.25 35.6323L120.626 37.1189C120.626 37.1197 120.626 37.1204 120.625 37.1209C120.625 37.1216 120.624 37.1221 120.623 37.1221L120.075 37.177H120.075Z" fill="black"/>
<path fill-rule="evenodd" clip-rule="evenodd" d="M119.653 34.6068C119.653 34.6068 119.732 35.0559 119.643 35.1631C119.253 35.1046 118.388 35.2121 117.845 35.7103C117.961 35.052 119.653 34.6068 119.653 34.6068Z" fill="black"/>
<path fill-rule="evenodd" clip-rule="evenodd" d="M119.651 34.6105C119.614 34.6203 119.207 34.731 118.793 34.9142C118.539 35.0266 118.332 35.1436 118.178 35.2624C117.988 35.408 117.877 35.5566 117.848 35.7034C118.152 35.4274 118.534 35.2914 118.8 35.2258C119.034 35.1685 119.377 35.1213 119.642 35.1606C119.724 35.0578 119.657 34.6484 119.651 34.6105ZM117.844 35.7132C117.844 35.7132 117.844 35.713 117.843 35.7127C117.842 35.7122 117.842 35.7115 117.842 35.7103C117.868 35.5593 117.98 35.4073 118.174 35.2582C118.329 35.1392 118.537 35.0219 118.791 34.9095C119.224 34.7179 119.648 34.6056 119.652 34.6048C119.653 34.6046 119.654 34.6046 119.654 34.6051C119.655 34.6053 119.656 34.6058 119.656 34.6065C119.659 34.6252 119.734 35.0581 119.645 35.165C119.645 35.1658 119.644 35.1663 119.643 35.166C119.378 35.1264 119.035 35.1734 118.802 35.2307C118.534 35.2966 118.15 35.4338 117.846 35.7125C117.846 35.713 117.845 35.7132 117.844 35.7132Z" fill="black"/>
<path fill-rule="evenodd" clip-rule="evenodd" d="M120.662 34.5368C120.662 34.5368 120.593 34.9873 120.684 35.0928C121.109 35.0897 121.775 35.2711 122.228 35.5296C122.086 35.0769 120.662 34.5368 120.662 34.5368Z" fill="black"/>
<path fill-rule="evenodd" clip-rule="evenodd" d="M120.695 35.0903C121.131 35.0903 121.784 35.2755 122.223 35.5244C122.145 35.293 121.728 35.0389 121.39 34.866C121.039 34.6858 120.7 34.5542 120.664 34.5407C120.658 34.5812 120.601 34.9902 120.685 35.0906C120.688 35.0903 120.692 35.0903 120.695 35.0903ZM122.228 35.5325C122.227 35.5325 122.227 35.5325 122.227 35.5322C121.788 35.2821 121.133 35.0955 120.695 35.0955H120.683C120.683 35.0955 120.682 35.0955 120.681 35.095C120.643 35.0505 120.628 34.943 120.636 34.7755C120.642 34.6508 120.659 34.538 120.66 34.5367C120.66 34.536 120.66 34.5353 120.661 34.5348C120.661 34.5343 120.662 34.5343 120.663 34.5345C120.667 34.536 121.023 34.672 121.393 34.8614C121.734 35.0362 122.157 35.2942 122.23 35.529C122.231 35.53 122.23 35.5313 122.23 35.532C122.229 35.5322 122.229 35.5325 122.228 35.5325Z" fill="black"/>
<path fill-rule="evenodd" clip-rule="evenodd" d="M119.264 36.9936C119.534 37.3947 119.753 37.6179 120.118 37.656C120.484 37.6946 120.739 37.4842 120.739 37.4842C120.739 37.4842 120.447 38.2651 120.094 38.41C119.363 38.7107 119.397 37.8086 119.264 36.9936Z" fill="black"/>
<path fill-rule="evenodd" clip-rule="evenodd" d="M118.21 36.3548L118.131 36.2862C118.144 36.2717 118.445 35.9343 118.959 35.9082C119.593 35.8765 119.873 36.1706 119.884 36.1832L119.807 36.2537C119.805 36.2513 119.546 35.9825 118.964 36.0122C118.496 36.0361 118.213 36.3516 118.21 36.3548Z" fill="black"/>
<path fill-rule="evenodd" clip-rule="evenodd" d="M122.066 36.251C122.063 36.2478 121.813 35.9387 121.393 35.9213C121.119 35.9099 120.927 35.9786 120.813 36.0383C120.691 36.1028 120.631 36.1711 120.631 36.1719L120.551 36.1045C120.562 36.0919 120.821 35.7931 121.398 35.817C121.866 35.8367 122.137 36.1721 122.148 36.1864L122.066 36.251Z" fill="black"/>
<path fill-rule="evenodd" clip-rule="evenodd" d="M203.107 74.3943C202.878 74.3943 202.697 74.385 202.516 74.3967C202.217 74.4156 201.92 74.4723 201.622 74.4702C200.678 74.4636 200.097 74.992 199.68 75.7617C199.566 75.9736 199.491 76.2091 199.415 76.4392C198.904 77.9943 198.633 79.5947 198.551 81.2261C198.421 83.8139 198.824 86.3326 199.584 88.8002C200.368 91.3454 201.475 93.7562 202.612 96.1571C203.66 98.3696 204.722 100.58 205.655 102.841C206.688 105.346 207.283 107.976 207.294 110.701C207.299 112.007 207.172 113.314 207.108 114.62C207.1 114.784 207.107 114.949 207.107 115.114C207.527 114.326 207.873 113.542 208.008 112.685C208.392 110.232 208.461 107.776 208.135 105.307C207.667 101.779 206.939 98.3085 205.924 94.8969C205.337 92.9267 204.673 90.9722 204.221 88.9707C203.699 86.6587 203.332 84.3088 202.973 81.9638C202.646 79.8299 202.592 77.6802 202.937 75.5356C202.996 75.1701 203.047 74.8035 203.107 74.3943ZM203.654 74.3695C203.307 75.9935 203.183 77.5561 203.245 79.1328C203.319 81.0243 203.622 82.8887 203.923 84.7538C204.277 86.9522 204.732 89.1268 205.378 91.2595C205.833 92.7624 206.287 94.2653 206.733 95.7708C207.451 98.195 207.942 100.669 208.36 103.16C208.796 105.752 209.007 108.353 208.738 110.981C208.591 112.423 208.332 113.828 207.733 115.16C207.442 115.807 207.184 116.47 206.91 117.126C206.781 117.435 206.678 117.748 206.772 118.08C207.096 118.212 207.35 118.222 207.614 117.969C208.575 117.048 209.516 116.112 210.303 115.034C212.722 111.717 213.413 108.05 212.475 104.071C212.048 102.261 211.282 100.57 210.541 98.8736C209.584 96.6808 208.617 94.4922 207.662 92.2982C206.52 89.6737 206.34 86.9073 206.482 84.0978C206.609 81.5885 207.065 79.1215 207.501 76.655C207.631 75.9169 207.406 75.4312 206.844 75.0128C205.886 74.2986 204.795 74.3218 203.654 74.3695ZM245.009 101.128C244.953 100.293 244.82 99.5441 244.589 98.8156C244.331 98.0007 244.297 97.9906 243.444 98.0061C240.419 98.0618 237.451 98.5117 234.506 99.1906C232.168 99.7295 230.22 100.874 228.576 102.612C227.138 104.132 225.938 105.817 224.905 107.625C223.771 109.61 222.573 111.545 221.088 113.296C219.214 115.506 217.082 117.32 214.222 118.129C212.544 118.603 210.875 119.09 209.1 118.906C209.086 118.905 209.067 118.951 209.03 119.006C209.214 119.073 209.383 119.141 209.557 119.198C212.084 120.025 214.658 120.16 217.256 119.635C221.689 118.74 225.324 116.559 228.003 112.864C229.051 111.418 229.855 109.835 230.674 108.257C231.536 106.594 232.477 104.985 233.688 103.539C234.956 102.025 236.591 101.232 238.495 100.892C240.003 100.623 241.511 100.648 243.021 100.855C243.65 100.941 244.277 101.028 245.009 101.128ZM209.888 118.339C209.89 118.372 209.892 118.406 209.894 118.439C210.022 118.439 210.15 118.444 210.278 118.438C211.349 118.386 212.389 118.156 213.413 117.856C215.13 117.354 216.775 116.698 218.154 115.513C219.637 114.239 220.949 112.798 222.045 111.185C222.978 109.809 223.818 108.369 224.674 106.943C225.826 105.025 227.134 103.235 228.764 101.691C230.118 100.409 231.648 99.4563 233.467 98.9649C236.697 98.0929 239.981 97.6263 243.321 97.5266C243.498 97.521 243.675 97.5069 243.847 97.4973C243.843 97.4086 243.85 97.3693 243.838 97.3375C243.817 97.286 243.786 97.2387 243.757 97.1911C243.059 96.0632 242.064 95.3385 240.755 95.1271C239.779 94.9698 238.789 94.8461 237.802 94.8195C234.539 94.7312 231.356 95.2441 228.244 96.2135C224.402 97.4103 221.59 99.7761 220.018 103.521C219.258 105.331 218.541 107.158 217.797 108.974C217.044 110.812 216.238 112.62 215.008 114.205C213.944 115.576 212.759 116.812 211.229 117.672C210.795 117.916 210.336 118.118 209.888 118.339ZM199.543 74.7857C200.717 73.8905 201.962 73.8044 203.229 73.8065C203.341 73.4713 203.434 73.169 203.544 72.8731C203.596 72.7352 203.665 72.5971 203.757 72.4848C203.8 72.4323 203.937 72.4031 203.996 72.4328C204.056 72.4635 204.117 72.5894 204.102 72.6552C204.042 72.9089 203.947 73.1545 203.873 73.4052C203.843 73.5087 203.832 73.6183 203.8 73.7946C204.071 73.8053 204.305 73.8166 204.54 73.8236C205.472 73.8521 206.365 74.0141 207.12 74.6134C207.309 74.7637 207.484 74.9356 207.651 75.1111C208.025 75.504 208.147 75.9675 208.057 76.5064C207.814 77.9634 207.578 79.4219 207.355 80.882C206.998 83.2207 206.87 85.5687 207.083 87.9308C207.24 89.6662 207.773 91.3002 208.447 92.8867C209.222 94.7101 210.062 96.5064 210.865 98.3183C211.591 99.9596 212.338 101.596 212.821 103.33C214.183 108.212 213.189 112.579 209.893 116.422C209.492 116.891 209.046 117.32 208.623 117.77C208.525 117.875 208.435 117.989 208.291 118.158C208.878 118.137 209.346 117.97 209.808 117.796C211.482 117.166 212.803 116.058 213.959 114.724C215.134 113.367 216.049 111.85 216.738 110.199C217.551 108.249 218.333 106.286 219.13 104.33C219.257 104.018 219.392 103.709 219.522 103.399C221.167 99.4835 224.1 97.0092 228.11 95.7552C231.644 94.6502 235.259 94.1534 238.961 94.3906C239.613 94.4323 240.264 94.5317 240.906 94.6511C242.304 94.9115 243.419 95.6376 244.133 96.8681C244.461 97.433 244.879 97.6357 245.482 97.6306C245.683 97.6287 245.895 97.6682 246.084 97.7375C246.176 97.771 246.226 97.9171 246.295 98.0124C246.19 98.0597 246.083 98.1507 245.98 98.1463C245.649 98.1313 245.319 98.0812 244.906 98.0353C244.971 98.2694 245.022 98.419 245.054 98.5726C245.214 99.3582 245.403 100.14 245.514 100.933C245.585 101.436 245.47 101.557 244.97 101.545C244.301 101.529 243.63 101.456 242.964 101.371C241.147 101.142 239.349 101.154 237.566 101.644C236.086 102.051 234.896 102.868 233.928 104.044C232.682 105.557 231.744 107.258 230.863 108.996C230.093 110.516 229.285 112.014 228.266 113.386C225.629 116.934 222.098 119.102 217.815 120.071C215.043 120.699 212.284 120.648 209.565 119.757C209.307 119.673 209.076 119.506 208.834 119.374C208.588 119.24 208.352 119.087 208.1 118.968C207.427 118.65 206.747 118.346 206.073 118.038C206.441 116.421 206.551 114.802 206.691 113.186C206.88 110.99 206.751 108.814 206.279 106.659C205.678 103.915 204.543 101.375 203.347 98.853C202.233 96.5048 201.115 94.157 200.092 91.7691C199.132 89.529 198.466 87.1903 198.164 84.7599C197.794 81.7805 198.04 78.8617 199.014 76.0138C199.093 75.7842 199.189 75.5599 199.285 75.3373C199.382 75.1144 199.491 74.8967 199.543 74.7857Z" fill="black"/>
</svg>

