<svg width="224" height="132" viewBox="0 0 224 132" fill="none" xmlns="http://www.w3.org/2000/svg">
<path fill-rule="evenodd" clip-rule="evenodd" d="M67.5262 122.328H183.609C166.24 40.7761 150.499 0 136.385 0C115.214 0 107.464 25.3902 95.8511 35.1959C84.2382 45.0017 77.4863 49.3313 58.4988 42.2636C39.5114 35.1959 0 38.1929 0 61.8779C0 77.6678 5.55269 97.7922 16.6581 122.251L67.5262 122.328Z" fill="#F5F5F5"/>
<path fill-rule="evenodd" clip-rule="evenodd" d="M52.7558 120.43C52.5179 120.43 52.3138 120.416 52.1122 120.432C50.943 120.526 49.7719 120.608 48.6055 120.73C45.3464 121.069 42.0866 121.404 38.8322 121.784C35.7265 122.146 32.6275 122.567 29.5248 122.953C27.3819 123.221 25.2464 123.53 23.1363 123.997C22.8224 124.066 22.5148 124.163 22.2042 124.247C22.2937 124.347 22.3643 124.369 22.4358 124.37C24.9863 124.431 27.5375 124.481 30.0878 124.552C32.3407 124.614 34.5939 124.685 36.8459 124.777C41.187 124.956 45.5251 124.835 49.8625 124.667C50.6247 124.638 51.3845 124.532 52.0992 124.231C52.4724 124.073 52.7917 123.852 52.8776 123.421C53.0785 122.42 53.013 121.43 52.7558 120.43ZM52.5694 119.854C52.352 119.148 52.0109 118.585 51.5772 118.07C51.0008 117.384 50.2903 116.944 49.3809 116.888C48.9359 116.86 48.4848 116.823 48.0439 116.868C46.3045 117.042 44.5598 117.193 42.832 117.453C40.2937 117.834 37.7646 118.281 35.2379 118.736C32.5096 119.227 29.8 119.804 27.1489 120.632C25.0353 121.293 23.0314 122.158 21.3069 123.582C21.1583 123.705 21.015 123.835 20.8691 123.962C21.2361 123.957 21.5537 123.869 21.872 123.785C24.5774 123.066 27.3462 122.709 30.1141 122.354C33.5283 121.916 36.9482 121.521 40.3612 121.073C44.0348 120.591 47.7205 120.24 51.4148 119.972C51.7818 119.945 52.1474 119.898 52.5694 119.854ZM1.56804 95.0814C1.48415 95.2002 1.41705 95.265 1.38559 95.3442C0.957093 96.4223 0.66001 97.5307 0.590574 98.696C0.474304 100.65 0.976898 102.459 1.87351 104.17C2.81275 105.964 4.06074 107.542 5.40751 109.04C7.16275 110.992 8.93825 112.926 10.7215 114.853C13.4523 117.805 16.1973 120.744 18.9384 123.686C19.013 123.766 19.1139 123.822 19.2026 123.888C19.211 123.767 19.1835 123.698 19.1449 123.636C18.2676 122.231 17.426 120.801 16.5044 119.426C12.9895 114.179 9.80783 108.729 6.64943 103.266C5.15913 100.687 3.70307 98.0885 1.98488 95.6497C1.85883 95.4707 1.72601 95.2964 1.56804 95.0814ZM32.1126 87.5723C32.0317 87.7184 31.97 87.8109 31.9266 87.9108C30.8098 90.4881 29.6432 93.0451 28.593 95.649C27.201 99.1012 26.1103 102.662 24.9849 106.208C23.6794 110.322 22.4808 114.467 21.4078 118.648C21.3626 118.824 21.2587 119.005 21.3715 119.279C21.4472 119.106 21.4975 119.01 21.5334 118.908C23.1675 114.286 25.4151 109.963 28.0643 105.858C29.7485 103.248 31.6037 100.749 33.3846 98.2015C34.4298 96.7066 35.5243 95.2417 36.3577 93.6132C36.6429 93.0561 36.8561 92.451 37.0211 91.8454C37.2592 90.9716 36.9962 90.2393 36.255 89.6812C35.1918 88.8815 34.0528 88.224 32.7993 87.7736C32.5909 87.6986 32.3738 87.6482 32.1126 87.5723ZM31.5622 87.4823C31.4811 87.4381 31.421 87.3866 31.3525 87.3707C30.2814 87.1195 29.2077 86.8931 28.0956 86.9567C27.1756 87.0089 26.3895 87.3591 25.7865 88.0483C25.446 88.4374 25.138 88.8694 24.8908 89.3231C24.2032 90.5862 23.7122 91.9332 23.2903 93.3063C22.2893 96.5637 21.8964 99.9291 21.5294 103.298C21.3582 104.871 21.2065 106.446 21.0562 108.022C20.8686 109.987 20.6916 111.952 20.5112 113.918C20.377 115.382 20.2342 116.846 20.1156 118.312C20.0105 119.611 19.932 120.912 19.8474 122.213C19.8392 122.335 19.8728 122.459 19.887 122.583C20.1405 121.821 20.308 121.06 20.4942 120.303C21.8144 114.931 23.3914 109.634 25.0588 104.361C26.8345 98.7456 28.8253 93.2152 31.3928 87.9055C31.4571 87.7729 31.503 87.6315 31.5622 87.4823ZM19.0782 122.582C19.1178 122.569 19.1572 122.555 19.1968 122.541C19.1414 122.35 19.0882 122.158 19.0307 121.967C18.0751 118.793 16.8663 115.709 15.7413 112.595C13.8132 107.258 11.8993 101.915 9.72116 96.6726C9.03355 95.0173 8.25858 93.4137 7.25455 91.9253C6.78271 91.2258 6.24796 90.5841 5.57504 90.0708C5.23998 89.8157 5.1568 89.8245 4.86251 90.1246C3.73616 91.2745 2.75986 92.5337 2.00632 93.9648C1.81665 94.3253 1.81292 94.579 2.06201 94.9169C3.45515 96.8077 4.65024 98.8267 5.8402 100.849C8.48366 105.34 11.1022 109.846 13.7932 114.308C15.2634 116.746 16.8609 119.107 18.4002 121.504C18.6294 121.861 18.8522 122.223 19.0782 122.582ZM53.3008 120.374C53.3497 120.818 53.4238 121.203 53.4278 121.589C53.4338 122.2 53.4275 122.816 53.3625 123.424C53.2998 124.005 52.9401 124.439 52.399 124.628C51.8072 124.836 51.189 125.032 50.5697 125.085C49.1607 125.203 47.7445 125.274 46.3306 125.288C43.3507 125.316 40.3694 125.339 37.3902 125.283C34.0759 125.22 30.7637 125.054 27.4501 124.956C25.7564 124.906 24.0613 124.892 22.3666 124.891C21.6229 124.89 20.8791 124.981 20.1351 124.988C19.8502 124.99 19.7658 125.172 19.6435 125.407C19.5135 125.252 19.3588 125.152 19.3429 125.032C19.2935 124.659 19.0186 124.464 18.7944 124.223C15.8502 121.059 12.8982 117.903 9.96628 114.728C8.10875 112.716 6.26334 110.693 4.44683 108.644C3.23356 107.276 2.15102 105.802 1.33922 104.153C0.530691 102.511 0.0420773 100.785 0.0998628 98.9348C0.140872 97.6172 0.438887 96.3515 0.956627 95.1447C1.1442 94.7076 1.18987 94.3534 0.830803 93.9883C0.679116 93.8341 0.5717 93.6216 0.49341 93.4168C0.460323 93.3294 0.553526 93.1938 0.589176 93.0803C0.695194 93.1271 0.837793 93.146 0.900006 93.2269C1.0673 93.4431 1.20035 93.6857 1.4054 94.0105C1.55149 93.7665 1.65634 93.6046 1.74838 93.4354C2.4735 92.0986 3.39876 90.9129 4.4657 89.8348C5.0368 89.2581 5.34553 89.215 5.94622 89.7513C6.45697 90.2071 6.94652 90.7053 7.35614 91.2517C8.52444 92.8109 9.36512 94.5524 10.1128 96.347C12.548 102.192 14.6457 108.163 16.8059 114.111C17.6189 116.35 18.3885 118.604 19.18 120.85C19.2145 120.948 19.2732 121.036 19.3837 121.253C19.4361 120.68 19.4788 120.245 19.5156 119.809C19.7181 117.416 19.9012 115.021 20.1253 112.63C20.4278 109.405 20.7284 106.18 21.0933 102.961C21.3407 100.781 21.6469 98.6035 22.0197 96.4409C22.4097 94.178 23.1011 91.9936 24.0657 89.9037C24.2528 89.4988 24.4607 89.101 24.6892 88.7177C25.7625 86.9168 27.3555 86.195 29.4158 86.4951C30.2057 86.61 30.9895 86.7642 31.761 86.8977C32.0958 86.7644 32.007 86.1519 32.6054 86.2332C32.5234 86.5212 32.4551 86.7602 32.3694 87.0622C32.5273 87.1223 32.6902 87.1894 32.8563 87.2468C34.2781 87.7382 35.5725 88.4628 36.7471 89.3986C37.4501 89.9589 37.6961 90.7041 37.5805 91.5846C37.472 92.4106 37.1961 93.1868 36.762 93.8846C35.8484 95.3544 34.9205 96.8173 33.9405 98.243C32.3477 100.56 30.6572 102.811 29.1 105.151C26.4731 109.098 24.2454 113.266 22.4983 117.679C21.7788 119.496 21.1089 121.332 20.4196 123.161C20.3574 123.326 20.319 123.499 20.2409 123.767C20.4015 123.671 20.4695 123.643 20.5212 123.597C22.4862 121.854 24.8097 120.816 27.2977 120.064C30.3879 119.129 33.5477 118.527 36.7194 117.972C38.8455 117.599 40.9726 117.231 43.1054 116.899C44.9452 116.613 46.7955 116.42 48.6607 116.352C50.628 116.28 51.9272 117.232 52.7138 118.931C53.0023 119.554 53.2525 120.009 54.0257 119.771C54.0597 119.761 54.1095 119.757 54.1354 119.774C54.2321 119.841 54.3218 119.917 54.4141 119.989C54.3374 120.08 54.275 120.229 54.182 120.251C53.901 120.318 53.6083 120.335 53.3008 120.374Z" fill="black"/>
<path fill-rule="evenodd" clip-rule="evenodd" d="M160.809 59.9838C182.527 59.9838 223.541 53.7527 223.541 79.5469C223.541 105.341 224.47 123.785 202.751 123.785L202.778 123.784L136.719 123.785H136.719H96.7172C177.941 100.402 139.872 60.7858 160.176 59.9958L160.809 59.9838Z" fill="#FFDA2D"/>
<path fill-rule="evenodd" clip-rule="evenodd" d="M199.438 91.1355C198.684 91.0783 198.049 91.1751 197.498 91.6022C197.088 91.9203 196.842 92.355 196.761 92.8641C196.684 93.3495 196.944 93.5631 197.403 93.4085C197.588 93.3465 197.77 93.2513 197.928 93.1361C198.604 92.6448 199.063 91.9833 199.438 91.1355ZM212.382 74.2138C212.47 74.2138 212.554 74.2157 212.637 74.2136C213.451 74.1931 213.714 73.888 213.504 73.1017C213.393 72.6879 213.196 72.2876 212.98 71.9144C212.042 70.2905 210.816 68.903 209.428 67.6556C208.278 66.6228 207.03 65.7331 205.624 65.0787C205.076 64.8237 204.509 64.6254 203.905 64.5647C203.128 64.4863 202.592 64.866 202.47 65.6343C202.419 65.9536 202.4 66.3364 202.529 66.6136C202.774 67.1373 203.089 67.6466 203.463 68.0859C203.937 68.6425 204.499 69.1241 205.024 69.6365C206.281 70.8617 207.505 72.1261 209.02 73.0454C210.058 73.6752 211.143 74.1732 212.382 74.2138ZM177.769 70.2482C178.613 70.1418 179.397 70.0836 180.165 69.9389C183.348 69.3398 186.395 68.2976 189.309 66.9034C191.174 66.0116 192.978 64.9851 194.778 63.9637C196.287 63.1072 197.764 62.1932 199.229 61.2609C200.061 60.7307 200.796 60.0688 201.404 59.2754C201.67 58.9282 201.736 58.5647 201.498 58.2083C201.116 57.6348 200.567 57.2002 199.912 57.061C199.268 56.9245 198.583 56.946 197.918 56.963C196.844 56.9902 195.809 57.2781 194.775 57.5455C193.142 57.9679 191.575 58.5894 189.991 59.1638C187.844 59.9428 185.709 60.7525 183.626 61.6892C182.486 62.2018 181.371 62.777 180.271 63.373C178.901 64.1147 177.602 64.9667 176.517 66.1054C175.936 66.7146 175.425 67.3773 175.135 68.1774C174.828 69.0247 175.143 69.7038 176.003 69.9444C176.591 70.1085 177.211 70.1561 177.769 70.2482ZM206.617 71.9812C206.062 72.5778 205.521 73.1235 205.021 73.7044C203.638 75.3082 202.448 77.042 201.61 78.9976C200.903 80.6497 200.359 82.3507 200.232 84.1604C200.197 84.6501 200.132 85.1435 200.16 85.6306C200.188 86.1283 200.324 86.6187 200.392 87.1152C200.538 88.184 200.544 89.2502 200.289 90.3073C200.273 90.3699 200.279 90.4378 200.274 90.5291C200.35 90.5617 200.421 90.6057 200.497 90.6222C202.173 90.9887 203.463 91.9509 204.527 93.2546C205.421 94.3506 206.108 95.5769 206.676 96.8657C208.123 100.155 209.111 103.589 209.793 107.111C210.313 109.804 210.799 112.504 211.26 115.208C211.597 117.185 211.871 119.174 212.166 121.159C212.217 121.506 212.236 121.858 212.252 122.209C212.259 122.355 212.24 122.512 212.19 122.648C212.164 122.72 212.046 122.798 211.968 122.8C211.89 122.802 211.776 122.73 211.738 122.659C211.678 122.545 211.657 122.406 211.638 122.275C211.311 120.008 211.022 117.734 210.653 115.474C210.214 112.785 209.732 110.102 209.222 107.425C208.556 103.933 207.573 100.53 206.163 97.2636C205.572 95.8956 204.851 94.5906 203.869 93.4527C202.906 92.337 201.761 91.5065 200.291 91.1987C200.226 91.1851 200.161 91.1809 200.045 91.1658C199.975 91.3072 199.903 91.4521 199.832 91.5976C199.507 92.266 199.086 92.866 198.54 93.3721C198.218 93.6705 197.86 93.9144 197.426 94.0208C196.696 94.2001 196.166 93.7635 196.191 93.0071C196.229 91.8435 197.253 90.754 198.487 90.5785C198.864 90.5247 199.246 90.5014 199.657 90.461C199.814 90.0575 199.874 89.6307 199.899 89.1977C199.979 87.8307 199.783 86.4943 199.441 85.1757C198.851 82.9027 198.007 80.7201 197.052 78.5809C195.844 75.8744 194.483 73.2477 192.858 70.7652C192.114 69.629 191.273 68.569 190.335 67.5876C189.991 67.2274 189.99 67.2333 189.522 67.445C186.686 68.7282 183.769 69.7727 180.713 70.3893C179.452 70.6438 178.178 70.8368 176.886 70.6584C176.493 70.604 176.094 70.5225 175.722 70.3847C174.707 70.008 174.308 69.1844 174.599 68.1381C174.787 67.4632 175.174 66.8963 175.599 66.3559C176.437 65.2909 177.49 64.4725 178.62 63.7451C180.394 62.6017 182.309 61.7292 184.214 60.8388C187.943 59.0974 191.829 57.7826 195.747 56.5563C196.334 56.3725 196.942 56.2316 197.551 56.1465C198.544 56.0079 199.516 56.1084 200.384 56.6793C200.788 56.945 201.204 57.2017 201.572 57.5123C202.284 58.1116 202.351 58.8926 201.794 59.6439C201.066 60.6267 200.135 61.3973 199.108 62.0248C197.028 63.2948 194.917 64.5136 192.812 65.7413C192.164 66.1195 191.492 66.4572 190.832 66.8155C190.746 66.8622 190.666 66.9206 190.554 66.9931C190.819 67.2785 191.068 67.5438 191.314 67.8129C192.573 69.1907 193.594 70.7401 194.526 72.3481C196.299 75.4059 197.838 78.5769 199.039 81.9066C199.242 82.4701 199.425 83.0413 199.665 83.6186C200.057 81.3068 200.798 79.1251 201.942 77.0883C203.08 75.0609 204.54 73.2812 206.198 71.6217C206.099 71.5086 206.019 71.4062 205.928 71.3159C205.094 70.4945 204.261 69.6728 203.423 68.8561C202.914 68.36 202.506 67.7861 202.197 67.1547C202.034 66.8193 201.924 66.426 201.909 66.0543C201.857 64.7378 202.788 63.9155 204.089 64.0803C204.792 64.1695 205.45 64.4026 206.087 64.7058C208.061 65.647 209.713 67.0182 211.207 68.5925C212.096 69.5283 212.899 70.5376 213.533 71.6656C213.784 72.1123 213.995 72.5966 214.132 73.0896C214.399 74.052 213.964 74.6575 212.975 74.7706C212.217 74.8573 211.476 74.7537 210.753 74.5189C209.347 74.0633 208.144 73.2598 207.023 72.3183C206.909 72.2224 206.793 72.128 206.617 71.9812Z" fill="black"/>
<path fill-rule="evenodd" clip-rule="evenodd" d="M114.374 130.832L109.118 130.12L107.403 128.794L83.577 122.148L72.5247 118.06L67.8319 112.239C67.1267 107.712 66.8784 105.163 67.0871 104.592C67.2957 104.02 69.5748 101.903 73.9242 98.2418L80.1687 100.804L89.6895 107.187L94.2423 106.694L97.6956 106.624L104.495 107.937L111.87 106.624L119.645 107.937L141.094 100.551H145.674L146.907 100.804L150.198 108.436L151.491 108.878L151.656 111.06C151.011 113.426 150.357 114.849 149.695 115.33C148.702 116.052 145.087 119.285 143.833 119.587C142.578 119.889 129.453 126.077 126.058 124.787C125.825 122.617 125.584 119.875 125.335 116.562L123.905 116.097L119.645 118.06H115.222L114.374 130.832Z" fill="white"/>
<path fill-rule="evenodd" clip-rule="evenodd" d="M105.255 68.2853C105.255 68.2853 93.4122 70.7787 91.7207 73.7595C90.2981 76.2664 84.836 87.6413 84.836 87.6413L83.5545 90.2883C83.5545 90.2883 89.2241 94.9337 95.452 96.8157C94.5078 100.538 94.3925 106.367 94.3925 106.367C95.2458 105.936 98.9449 106.952 104.455 107.17C108.66 107.337 114 106.824 119.25 107.888C120.738 108.19 123.815 106.03 123.815 106.03C123.815 106.03 123.857 95.7378 123.796 91.8649C124.832 91.8056 133.323 88.6832 134.613 87.2628C135.776 85.982 131.878 84.2463 131.878 84.2463C131.878 84.2463 129.912 73.9422 124.734 69.6565C122.5 67.8071 118.325 68.0712 114.451 68.0408C113.531 69.9433 115.078 74.259 111.459 74.3489C107.84 74.4385 105.255 68.2853 105.255 68.2853Z" fill="#779BE7"/>
<path fill-rule="evenodd" clip-rule="evenodd" d="M123.765 116.547V131.037C123.765 131.037 118.21 130.693 117.482 123.824C116.879 118.131 123.765 116.547 123.765 116.547Z" fill="#FFDA2D"/>
<path fill-rule="evenodd" clip-rule="evenodd" d="M151.937 106.044C151.927 105.995 151.916 105.944 151.906 105.894C151.706 105.87 151.506 105.845 151.218 105.81C151.304 106.064 151.359 106.228 151.432 106.442C151.638 106.28 151.787 106.162 151.937 106.044ZM152.446 104.036C152.359 103.903 152.316 103.771 152.263 103.766C151.826 103.733 151.392 103.548 150.942 103.732C151.4 103.93 151.854 104.118 152.446 104.036ZM67.8533 99.9795C66.5558 99.6812 66.468 99.6903 66.3025 100.135C67.5799 100.481 67.6392 100.475 67.8533 99.9795ZM65.7856 100.961C66.1276 101.404 66.579 101.499 67.0734 101.637C67.173 101.436 67.2658 101.249 67.3906 100.998C66.8226 100.946 66.3502 100.632 65.7856 100.961ZM151.102 104.528C151.106 105.133 151.105 105.142 151.42 105.197C151.663 105.239 151.912 105.279 152.157 105.273C152.276 105.269 152.392 105.16 152.51 105.099C152.425 104.976 152.361 104.777 152.249 104.745C151.897 104.642 151.527 104.603 151.102 104.528ZM65.9053 101.955C66.1122 102.638 66.2777 103.185 66.4436 103.731C66.4959 103.729 66.5483 103.727 66.6006 103.725C66.6646 103.255 66.7285 102.786 66.7981 102.273C66.5235 102.175 66.2799 102.088 65.9053 101.955ZM65.7078 104.661C65.8307 103.894 65.5906 103.179 65.2909 102.515C64.9476 101.755 65.0244 101.075 65.3718 100.366C65.5154 100.073 65.7213 99.7928 65.7458 99.3274C65.1498 100.026 64.9034 100.755 64.7213 101.505C64.6787 101.68 64.7116 101.919 64.8025 102.074C65.2746 102.878 65.542 103.749 65.7078 104.661ZM116.291 120.567C116.346 120.56 116.4 120.552 116.454 120.544C116.555 120.239 116.66 119.934 116.755 119.626C116.846 119.327 116.927 119.025 117.03 118.664C116.649 118.598 116.351 118.546 115.945 118.475C116.074 119.257 116.183 119.912 116.291 120.567ZM66.7897 99.1557C67.1458 99.2042 67.4395 99.2484 67.7342 99.2842C68.4853 99.3753 68.7495 99.1469 68.8546 98.3234C67.5147 98.1529 67.1191 98.3002 66.7897 99.1557ZM150.757 102.92C151.308 103.011 151.758 103.085 152.228 103.163C152.135 101.939 151.994 101.821 150.596 101.786C150.648 102.15 150.698 102.501 150.757 102.92ZM116.278 125.243C116.22 125.229 116.162 125.215 116.104 125.2C115.908 126.171 115.611 127.123 115.561 128.194C116.06 128.119 116.466 128.058 116.919 127.991C116.695 127.033 116.487 126.138 116.278 125.243ZM115.467 119.822C115.259 121.823 115.081 123.825 115.227 125.84C115.961 123.858 116.052 121.853 115.467 119.822ZM151.754 108.415C152.437 107.735 153.029 107.17 153.59 106.574C153.94 106.203 154.031 105.748 153.842 105.254C153.637 104.719 153.444 104.18 153.233 103.648C153.188 103.535 153.087 103.444 152.916 103.213C152.993 103.823 153.029 104.268 153.109 104.706C153.238 105.409 153.073 105.983 152.477 106.416C152.235 106.591 152.029 106.816 151.787 106.99C151.525 107.179 151.453 107.404 151.552 107.704C151.614 107.89 151.66 108.081 151.754 108.415ZM118.09 128.079C116.939 124.891 116.924 121.797 118.379 118.744C117.692 118.714 117.669 118.707 117.516 119.211C117.246 120.096 116.986 120.984 116.767 121.881C116.656 122.338 116.534 122.836 116.608 123.284C116.85 124.762 117.187 126.224 117.472 127.696C117.54 128.048 117.729 128.14 118.09 128.079ZM108.748 116.82C108.662 116.177 108.597 115.685 108.531 115.192C108.466 114.706 108.4 114.219 108.335 113.743C107.302 113.77 105.023 114.222 104.455 114.513C105.86 115.268 107.235 116.007 108.748 116.82ZM125.056 130.865C125.091 130.027 125.131 129.281 125.151 128.534C125.173 127.689 125.111 126.836 125.21 126.001C125.285 125.366 125.356 124.772 125.08 124.174C125.01 124.023 124.99 123.822 125.02 123.658C125.122 123.103 125.084 122.571 124.895 122.037C124.832 121.858 124.88 121.642 124.872 121.443C124.856 121.095 124.799 120.745 124.825 120.401C124.891 119.531 124.826 118.683 124.587 117.841C124.53 117.64 124.621 117.397 124.639 117.173C124.653 117.006 124.658 116.839 124.671 116.608C124.37 116.588 124.114 116.57 123.765 116.547C124.395 121.406 124.523 126.185 124.029 131.038C124.42 130.972 124.71 130.924 125.056 130.865ZM123.796 91.8649C125.404 91.2942 126.918 90.8903 128.31 90.2285C130.024 89.4144 131.648 88.4059 133.287 87.4405C134.128 86.9447 134.153 86.7843 133.932 85.8429C133.903 85.7213 133.858 85.6038 133.819 85.485C133.657 84.9915 133.335 84.7731 132.87 84.9138C132.673 84.973 132.503 85.1557 132.35 85.3111C130.992 86.6934 129.506 87.9102 127.838 88.9067C126.559 89.671 125.178 90.1708 123.658 90.565C123.7 90.9649 123.741 91.345 123.796 91.8649ZM96.5663 94.0024C92.2325 92.5599 88.7503 89.9605 85.2409 87.2625C85.0268 87.8892 84.849 88.4811 84.6208 89.0527C84.4462 89.4896 84.5581 89.8007 84.8691 90.1263C85.7073 91.0041 86.6622 91.7323 87.7249 92.3014C89.4657 93.2327 91.2168 94.1474 92.9945 95.0051C93.8836 95.4344 94.8409 95.7221 95.8394 96.101C96.0996 95.3505 96.3246 94.7005 96.5663 94.0024ZM94.95 96.6299C94.5764 97.5005 94.2453 98.3378 93.8623 99.1507C93.2961 100.353 92.6343 101.499 91.7629 102.517C90.9607 103.453 89.9622 103.738 88.7901 103.462C88.2553 103.335 87.7249 103.18 87.2077 102.996C85.1816 102.271 83.1622 101.529 81.1387 100.798C80.981 100.741 80.8114 100.718 80.6474 100.679C80.7349 100.88 80.8512 100.97 80.9725 101.054C82.3111 101.979 83.6481 102.908 84.9907 103.827C86.2713 104.704 87.5541 105.579 88.8465 106.438C89.0415 106.568 89.2964 106.684 89.5212 106.679C90.4196 106.661 91.3171 106.598 92.2143 106.54C92.9321 106.493 93.6488 106.427 94.3923 106.368C94.5422 103.117 94.4297 99.8987 95.4519 96.8158C95.3482 96.7462 95.2936 96.6942 95.2284 96.67C95.1619 96.6453 95.0851 96.6478 94.95 96.6299ZM138.029 100.784L138.01 100.694C137.889 100.687 137.768 100.67 137.649 100.676C136.297 100.749 134.947 100.872 133.595 100.889C131.994 100.91 130.389 100.89 128.791 100.791C127.824 100.732 126.916 100.409 126.431 99.4327C125.817 98.198 125.257 96.9446 124.905 95.603C124.696 94.8052 124.423 94.0234 124.171 93.2368C124.121 93.0804 124.035 92.9353 123.966 92.7849C123.873 93.1152 123.848 93.4283 123.877 93.7363C124.073 95.8597 124.189 97.9821 123.979 100.113C123.9 100.911 123.866 101.714 123.852 102.515C123.846 102.911 123.838 103.35 123.995 103.695C124.271 104.3 124.422 104.916 124.497 105.565C124.51 105.681 124.587 105.79 124.617 105.862C129.107 104.161 133.568 102.473 138.029 100.784ZM123.157 116.926C122.056 117.309 121.105 117.792 120.164 118.306C119.125 118.874 118.524 119.738 118.255 120.87C117.944 122.176 117.894 123.502 118.001 124.828C118.223 127.58 119.329 129.865 123.317 130.721C123.855 126.126 123.743 121.561 123.157 116.926ZM110.031 116.508C109.94 116.847 109.853 117.059 109.83 117.279C109.714 118.37 109.579 119.462 109.518 120.557C109.436 122.031 109.453 123.51 109.36 124.982C109.266 126.453 109.033 127.907 108.407 129.229C108.456 129.297 108.467 129.328 108.486 129.334C110.211 129.945 111.994 130.1 113.805 129.971C113.949 129.96 114.12 129.768 114.202 129.618C114.28 129.475 114.27 129.278 114.276 129.104C114.339 127.428 114.377 125.752 114.462 124.078C114.578 121.81 114.502 119.517 115.228 117.316C115.257 117.228 115.232 117.123 115.232 116.938C113.515 116.796 111.809 116.655 110.031 116.508ZM109.036 113.708C117.097 110.941 124.775 107.45 132.363 103.739C131.975 103.815 131.603 103.934 131.231 104.055C128.57 104.927 126.039 106.153 123.333 106.907C121.672 107.37 120.051 108.056 118.28 107.866C117.114 107.74 115.944 107.57 114.803 107.302C112.966 106.869 111.14 106.752 109.307 107.243C106.676 107.949 104.068 107.831 101.437 107.195C100.203 106.897 98.9256 106.765 97.6613 106.609C96.8337 106.508 96.0112 106.586 95.2591 107.019C95.134 107.091 94.9566 107.185 94.8431 107.147C94.0701 106.893 93.3017 107.154 92.5331 107.147C91.8741 107.14 91.2146 107.239 90.555 107.292C90.7284 107.546 90.9234 107.688 91.1359 107.796C92.1403 108.305 93.1441 108.816 94.1582 109.306C96.5679 110.472 98.9842 111.625 101.396 112.787C101.575 112.873 101.792 112.95 101.902 113.099C102.239 113.552 102.758 113.69 103.221 113.918C103.375 113.994 103.597 113.974 103.778 113.941C105.156 113.689 106.528 113.408 107.908 113.167C108.66 113.036 108.719 113.091 109.036 113.708ZM67.4962 102.809C67.5473 102.845 67.5988 102.881 67.6499 102.917C68.3179 102.569 68.8458 102.035 69.3778 101.517C70.49 100.432 71.5831 99.328 72.6756 98.224C73.0966 97.7985 73.5515 97.602 74.1618 97.7878C74.9508 98.0282 75.7709 98.1726 76.5493 98.4412C78.6079 99.1519 80.6481 99.9159 82.7014 100.643C84.66 101.336 86.6215 102.02 88.5901 102.685C89.7077 103.062 90.6625 102.793 91.4008 101.849C92.6798 100.215 93.5137 98.3519 94.2108 96.4789C92.7268 95.8199 91.2851 95.1894 89.8522 94.541C88.3914 93.8801 87.0362 93.0428 85.834 91.9893C84.9735 92.9018 84.9735 92.9021 83.7051 92.7912C83.5804 92.7802 83.4565 92.7558 83.3315 92.7501C81.955 92.6884 80.5763 92.5496 79.2023 92.5844C75.5242 92.6781 71.9515 93.4411 68.4157 94.4141C67.6593 94.6222 67.0339 94.9888 66.5226 95.5636C65.2373 97.0075 64.0878 98.5565 63.0617 100.193C62.5771 100.966 62.6188 101.771 63.157 102.519C63.5668 103.088 63.9972 103.643 64.4285 104.196C64.5291 104.325 64.6724 104.42 64.8561 104.585C64.9041 103.898 64.7222 103.332 64.4034 102.877C63.8997 102.159 63.9812 101.471 64.2806 100.745C64.4617 100.307 64.636 99.8601 64.8721 99.4509C65.2251 98.8389 65.6527 98.2638 66.3329 97.9853C67.3091 97.5857 68.3361 97.5559 69.3649 97.7114C69.7912 97.7756 69.8953 98.0191 69.7248 98.4237C69.6477 98.607 69.5264 98.7712 69.4311 98.947C68.8809 99.9582 68.3242 100.966 67.789 101.985C67.6552 102.24 67.5919 102.533 67.4962 102.809ZM152.295 110.086C152.433 110.032 152.537 110.018 152.605 109.961C153.64 109.093 154.666 108.213 155.705 107.35C156.126 107.001 156.191 106.601 156.065 106.086C155.696 104.579 155.335 103.069 155.028 101.549C154.827 100.552 154.505 99.6495 153.857 98.8354C152.803 97.5127 151.564 96.4027 149.991 95.8255C146.801 94.6545 143.658 93.3239 140.277 92.7376C138.382 92.4086 136.496 92.0256 134.609 91.6496C134.465 91.6211 134.308 91.481 134.226 91.35C134.068 91.0971 133.947 90.8179 133.831 90.5415C133.55 89.8769 133.28 89.2072 133 88.5238C132.864 88.5808 132.768 88.6081 132.685 88.6582C130.367 90.0611 128.007 91.3726 125.353 92.0548C125.129 92.1124 124.931 92.2707 124.713 92.386C125.188 94.6316 126.13 96.6287 126.865 98.6957C127.179 99.5803 127.864 99.9892 128.746 100.084C129.542 100.169 130.346 100.261 131.142 100.236C133.996 100.145 136.849 100.006 139.703 99.8868C140.4 99.8573 141.099 99.8429 141.796 99.8056C142.82 99.7504 143.843 99.6423 144.868 99.6273C145.917 99.6123 146.707 100.136 147.142 101.076C148.066 103.074 148.941 105.095 149.838 107.105C149.939 107.333 150.02 107.579 150.167 107.774C150.254 107.89 150.477 108.006 150.593 107.971C150.713 107.935 150.853 107.717 150.854 107.577C150.859 107.153 150.832 106.724 150.76 106.306C150.485 104.707 150.183 103.113 149.904 101.514C149.872 101.33 149.926 101.132 149.944 100.883C150.567 100.997 151.134 101.084 151.694 101.205C152.504 101.38 153.107 101.841 153.445 102.604C153.788 103.382 154.108 104.17 154.429 104.957C154.782 105.822 154.572 106.579 153.944 107.231C153.527 107.664 153.102 108.091 152.651 108.488C152.145 108.935 152.16 109.461 152.295 110.086ZM126 124.7C127.033 124.504 128.058 124.389 129.037 124.11C132.142 123.227 135.234 122.294 138.324 121.357C139.954 120.863 141.499 120.158 143.041 119.433C145.284 118.379 147.338 117.066 149.122 115.345C150.819 113.707 151.259 111.615 151.23 109.366C151.226 109.082 151.162 108.788 150.792 108.784C150.23 108.777 149.926 108.429 149.706 107.986C149.085 106.731 148.435 105.487 147.881 104.201C147.476 103.262 147.165 102.3 146.523 101.463C146.155 100.982 145.782 100.703 145.191 100.641C143.525 100.468 141.893 100.541 140.324 101.205C139.61 101.507 138.874 101.76 138.168 102.08C134.542 103.719 130.925 105.374 127.302 107.018C125.981 107.618 124.658 108.213 123.328 108.792C120.781 109.899 118.227 110.991 115.68 112.098C115.36 112.237 115.012 112.376 114.769 112.611C114.329 113.036 113.798 113.205 113.239 113.35C112.924 113.431 112.611 113.518 112.297 113.605C111.24 113.898 110.184 114.193 109.075 114.502C109.147 115.07 109.212 115.583 109.268 116.029C109.753 115.989 110.197 115.897 110.631 115.927C112.055 116.026 113.476 116.166 114.898 116.297C116.017 116.399 116.019 116.407 115.932 117.526C115.929 117.567 115.97 117.613 116.004 117.685C117.402 118.249 118.807 118.002 120.157 117.508C121.303 117.088 122.385 116.494 123.505 115.996C124.023 115.766 124.549 115.857 125.004 116.164C125.43 116.451 125.355 116.903 125.247 117.326C125.136 117.758 125.173 118.156 125.374 118.563C125.48 118.779 125.533 119.049 125.521 119.29C125.463 120.461 125.373 121.629 125.742 122.776C125.799 122.952 125.761 123.18 125.705 123.366C125.553 123.876 125.729 124.289 126 124.7ZM108.997 117.814C108.786 117.68 108.644 117.579 108.49 117.497C106.59 116.486 104.704 115.443 102.781 114.475C98.42 112.279 94.0347 110.13 89.6716 107.937C88.8491 107.524 88.0067 107.089 87.3067 106.504C85.2239 104.763 82.9904 103.241 80.7271 101.755C78.7023 100.425 76.4982 99.4838 74.2176 98.695C73.7395 98.5296 73.4132 98.628 73.0853 98.9761C72.4841 99.6141 71.8674 100.239 71.2461 100.857C70.1286 101.969 68.9994 103.069 67.885 104.185C67.7533 104.316 67.632 104.501 67.5959 104.679C67.2843 106.218 67.2577 107.748 67.6373 109.292C68.2182 111.657 69.4483 113.673 70.8872 115.588C71.6558 116.611 72.6229 117.393 73.8022 117.893C74.9543 118.38 76.1195 118.837 77.2756 119.315C77.5045 119.41 77.7233 119.532 77.9399 119.653C78.3527 119.883 78.7402 120.174 79.1753 120.347C80.1292 120.727 81.1026 121.058 82.0757 121.387C82.4534 121.515 82.8556 121.675 83.2396 121.659C83.975 121.627 84.613 121.895 85.2691 122.133C85.8108 122.33 86.3428 122.553 86.8879 122.738C87.1691 122.834 87.4675 122.884 87.761 122.938C88.2243 123.023 88.7096 123.034 89.1516 123.18C94.193 124.842 99.2761 126.362 104.407 127.725C105.536 128.026 106.655 128.365 107.801 128.692C108.274 127.931 108.444 127.085 108.504 126.247C108.702 123.453 108.836 120.654 108.997 117.814ZM97.4936 84.7812C97.5118 85.0695 97.5363 85.2823 97.5372 85.4951C97.5413 86.8225 97.5015 88.1515 97.55 89.4773C97.6394 91.9125 97.3137 94.259 96.3745 96.5287C95.7695 97.99 95.4193 99.5323 95.3419 101.124C95.2679 102.647 95.1911 104.171 95.1237 105.695C95.1162 105.86 95.161 106.027 95.1789 106.172C95.8099 106.087 96.3968 105.967 96.988 105.935C98.5541 105.851 100.085 106.133 101.596 106.499C104.096 107.105 106.586 107.243 109.101 106.568C111.105 106.03 113.104 106.146 115.117 106.64C116.253 106.919 117.434 107.064 118.603 107.153C120.45 107.295 122.109 106.496 123.815 106.03C123.836 105.89 123.862 105.816 123.855 105.744C123.836 105.546 123.811 105.346 123.775 105.15C123.466 103.468 123.303 101.779 123.46 100.067C123.515 99.4694 123.566 98.8655 123.544 98.2676C123.482 96.567 123.405 94.8663 123.289 93.1685C123.023 89.2426 122.531 85.3462 121.647 81.5056C121.597 81.2884 121.569 81.0594 121.578 80.8378C121.582 80.7444 121.7 80.6003 121.787 80.5818C121.877 80.563 122.034 80.6426 122.089 80.7269C122.167 80.8466 122.186 81.008 122.217 81.154C122.456 82.2542 122.704 83.3526 122.925 84.4566C123.077 85.2165 123.189 85.9842 123.321 86.7482C123.409 87.2568 123.52 87.7623 123.586 88.2737C123.65 88.7807 123.67 89.2934 123.716 89.8866C124.526 89.5861 125.288 89.3467 126.014 89.0248C128.033 88.1308 129.746 86.7902 131.329 85.2732C131.997 84.6321 131.998 84.6205 131.637 83.8029C130.546 81.3301 129.468 78.8507 128.343 76.3927C127.572 74.7077 126.715 73.0688 125.62 71.5574C124.613 70.1692 123.283 69.3122 121.639 68.9245C119.345 68.3834 117.038 68.5974 114.631 68.8167C114.631 69.2445 114.653 69.6409 114.626 70.0335C114.551 71.1391 114.382 72.2202 113.788 73.1945C113.33 73.9469 112.658 74.311 111.801 74.3483C111.01 74.3828 110.259 74.2076 109.548 73.8594C108.469 73.3308 107.591 72.5474 106.833 71.6386C106.115 70.7787 105.453 69.8718 104.741 68.954C101.881 69.6274 99.003 70.3723 96.1604 71.2632C94.0892 71.9122 92.5701 73.1747 91.4889 75.0321C89.3635 78.6825 87.8064 82.5877 86.2744 86.5057C86.1293 86.8773 86.2042 87.1105 86.5186 87.3352C87.5171 88.0484 88.4876 88.8017 89.498 89.4961C91.5039 90.8746 93.5767 92.1378 95.8745 92.9849C96.1253 93.0773 96.3852 93.1437 96.6773 93.233C96.7303 93.0168 96.7892 92.8771 96.7955 92.7351C96.8482 91.5108 96.9062 90.2865 96.9331 89.0615C96.9591 87.8845 96.946 86.7069 96.9598 85.5295C96.9635 85.2384 96.9457 84.9135 97.4936 84.7812ZM151.841 111.212C151.8 111.393 151.724 111.657 151.682 111.927C151.412 113.662 150.538 115.059 149.275 116.237C147.872 117.544 146.28 118.582 144.612 119.513C143.871 119.926 143.141 120.356 142.401 120.769C142.249 120.854 142.078 120.906 141.912 120.961C139.032 121.905 136.164 122.887 133.267 123.778C131.235 124.402 129.167 124.914 127.107 125.444C126.803 125.522 126.453 125.422 126.039 125.399C125.857 125.715 125.788 126.146 125.783 126.59C125.771 127.663 125.767 128.736 125.759 129.809C125.757 130.035 125.749 130.26 125.751 130.485C125.757 131.278 125.643 131.466 124.849 131.58C124.365 131.65 123.842 131.66 123.368 131.554C121.732 131.191 120.242 130.543 119.018 129.323C118.701 129.007 118.127 128.839 117.657 128.809C116.919 128.762 116.168 128.882 115.424 128.949C115.137 128.974 115.007 129.163 114.962 129.453C114.907 129.817 114.804 130.174 114.724 130.52C112.462 130.862 110.315 130.659 108.213 129.97C107.969 129.889 107.769 129.68 107.537 129.551C107.303 129.421 107.065 129.273 106.81 129.208C103.708 128.408 100.61 127.59 97.4949 126.842C93.8143 125.958 90.1497 124.993 86.676 123.495C83.4208 122.09 79.9992 121.222 76.6753 120.047C75.3543 119.58 74.0568 119.046 72.7562 118.525C72.4399 118.398 72.1464 118.254 72.0069 117.855C71.9214 117.609 71.611 117.423 71.3715 117.252C68.9088 115.492 67.4075 113.106 66.8157 110.16C66.6442 109.307 66.6169 108.422 66.5734 107.549C66.5348 106.776 66.5652 106 66.5652 105.086C66.3414 105.266 66.2389 105.355 66.1292 105.435C65.59 105.825 64.8016 105.769 64.3752 105.254C63.736 104.484 63.1028 103.704 62.5266 102.886C61.8392 101.91 61.8304 100.876 62.4674 99.8561C63.505 98.1955 64.6693 96.629 65.9621 95.1577C66.5404 94.4997 67.2386 94.0559 68.0922 93.8241C71.0436 93.0218 74.0091 92.2663 77.0712 92.0683C78.7919 91.957 80.5249 92.0147 82.2521 92.0234C82.9023 92.0269 83.5553 92.0811 84.2011 92.161C84.7183 92.2249 85.008 92.0288 85.1584 91.5133C85.0308 91.4039 84.9102 91.2817 84.7719 91.1839C83.8565 90.5362 83.6471 89.8991 84.0051 88.8186C84.2177 88.1772 84.4728 87.5464 84.634 86.8924C84.7794 86.3011 85.0534 85.9441 85.7324 85.9996C86.0776 85.1197 86.4105 84.2579 86.7528 83.3999C87.9155 80.4906 89.1976 77.6374 90.7647 74.9199C91.3183 73.96 91.9738 73.0785 92.8102 72.3387C93.7077 71.5452 94.7322 70.9702 95.8779 70.6468C98.4551 69.9195 101.042 69.2276 103.626 68.5228C103.987 68.4241 104.354 68.3467 104.712 68.2383C105.054 68.1355 105.265 68.216 105.441 68.5504C106.221 70.0329 107.329 71.2569 108.573 72.3594C109.276 72.9826 110.099 73.4073 111.035 73.5815C112.195 73.798 112.95 73.4699 113.421 72.3966C113.688 71.789 113.823 71.1096 113.929 70.4484C114.027 69.8336 114.015 69.2003 114.04 68.5745C114.052 68.2903 114.162 68.1477 114.451 68.0408C114.951 67.8547 115.433 67.8252 115.964 67.8556C117.139 67.9227 118.321 67.8625 119.496 67.9268C120.317 67.9722 121.146 68.0719 121.944 68.2627C123.794 68.7046 125.258 69.7271 126.356 71.303C127.422 72.8316 128.295 74.4627 129.062 76.1508C130.182 78.612 131.272 81.0863 132.339 83.5701C132.547 84.0545 132.794 84.266 133.333 84.2648C134.158 84.2632 134.251 84.3669 134.495 85.1526C134.599 85.4866 134.689 85.8276 134.751 86.1713C134.868 86.8137 134.742 87.3674 134.122 87.7228C133.952 87.8212 133.8 87.9544 133.605 88.0979C133.892 88.8262 134.187 89.5341 134.451 90.2535C134.595 90.6478 134.85 90.8844 135.254 90.9527C135.842 91.0517 136.433 91.1282 137.021 91.2281C137.909 91.3788 138.802 91.5054 139.678 91.7073C141.557 92.1397 143.445 92.5452 145.29 93.0942C146.554 93.4703 147.769 94.0302 148.972 94.5808C150.015 95.0581 151.076 95.5444 152.01 96.1975C153.008 96.896 153.877 97.7825 154.778 98.6136C154.988 98.8072 155.166 99.0908 155.243 99.3656C155.785 101.293 156.297 103.228 156.818 105.161C156.844 105.258 156.866 105.356 156.886 105.454C157.086 106.468 156.996 107.335 156.046 108.031C154.918 108.857 153.893 109.823 152.804 110.704C152.546 110.912 152.209 111.022 151.841 111.212Z" fill="black"/>
<path fill-rule="evenodd" clip-rule="evenodd" d="M115.655 50.3188C115.655 50.1812 115.664 50.0797 115.649 49.907C115.636 49.7641 115.687 49.1035 114.894 49.2502C114.822 49.2634 114.747 49.31 114.57 49.3928C115.048 49.6585 115.562 49.7578 115.655 50.3188ZM106.553 54.5088C106.854 53.8138 107 53.0927 106.949 52.3384C106.529 53.0134 106.666 53.7821 106.553 54.5088ZM114.018 69.0387C113.532 67.3813 113.056 65.7618 112.568 64.1019C111.511 64.3344 110.64 63.9421 109.785 63.5247C109.474 63.3727 109.195 63.1477 108.92 62.9337C108.749 62.8011 108.515 62.6197 108.75 62.3978C108.826 62.327 109.108 62.4198 109.263 62.5C109.838 62.7964 110.393 63.1333 110.97 63.425C111.189 63.5357 111.444 63.5921 111.69 63.6272C112.237 63.7049 112.677 63.4846 112.912 62.9775C113.185 62.3887 113.454 61.7918 113.646 61.1741C114.178 59.466 114.347 57.6948 114.481 55.9208C114.5 55.672 114.506 55.4166 114.473 55.1703C114.254 53.5653 113.728 53.2766 112.466 53.2973C111.254 53.3171 110.091 53.6113 108.961 54.0591C107.831 54.5066 107.433 55.4304 107.263 56.52C107.148 57.2586 107.051 58 106.945 58.744C106.478 58.916 106.327 58.6239 106.176 58.3309C106.063 58.1116 105.983 57.8239 105.649 57.9179C105.334 58.0066 105.257 58.2821 105.255 58.5732C105.252 59.1717 105.552 59.5963 106.107 59.7633C106.604 59.9128 106.715 60.2205 106.668 60.669C106.545 61.8645 106.469 63.0669 106.292 64.2539C106.096 65.5638 105.814 66.8614 105.554 68.161C105.505 68.4063 105.379 68.6366 105.279 68.9005C104.858 68.6909 104.913 68.4264 104.967 68.1487C105.213 66.8724 105.491 65.5998 105.685 64.315C105.879 63.033 105.986 61.7379 106.131 60.4509C105.886 60.3183 105.69 60.2516 105.546 60.1253C105.305 59.9134 105.04 59.6966 104.885 59.4246C104.273 58.3466 104.803 57.4319 106.205 57.2793C106.263 56.7174 106.341 56.1311 106.381 55.542C106.449 54.5464 106.404 53.533 106.58 52.5584C106.684 51.984 106.918 51.4735 107.269 50.9728C107.44 50.7283 107.771 50.7509 107.962 50.7174C108.454 50.6309 108.951 50.556 109.449 50.5118C110.663 50.4043 111.777 49.9383 112.924 49.5893C113.522 49.4075 114.118 49.212 114.729 49.0863C115.43 48.9418 115.743 49.1502 115.789 49.8691C115.834 50.5604 115.768 51.2633 115.701 51.9564C115.558 53.4499 115.392 54.9416 115.22 56.4323C115.016 58.2003 114.594 59.926 114.12 61.6354C113.954 62.2317 113.686 62.818 113.361 63.3448C113.101 63.765 113.134 64.1166 113.26 64.5431C113.637 65.8141 113.985 67.0936 114.34 68.3709C114.406 68.6053 114.527 68.8645 114.018 69.0387Z" fill="black"/>
<path fill-rule="evenodd" clip-rule="evenodd" d="M112.261 56.6487L112.797 58.7699L112.015 58.8479L112.261 56.6487Z" fill="black"/>
<path fill-rule="evenodd" clip-rule="evenodd" d="M112.261 56.6487L112.797 58.7699L112.015 58.8479L112.261 56.6487Z" stroke="black" stroke-width="0.230373" stroke-linejoin="round"/>
<path fill-rule="evenodd" clip-rule="evenodd" d="M112.262 60.2111C112.24 60.2111 112.218 60.2105 112.198 60.2092C111.622 60.175 111.078 59.6898 110.959 59.1043C110.952 59.0693 110.979 59.0363 111.019 59.0301C111.06 59.0244 111.098 59.0476 111.106 59.0823C111.211 59.6035 111.706 60.0521 112.208 60.082C112.505 60.0992 113.058 59.9825 113.424 59.0018C113.437 58.9682 113.479 58.9499 113.518 58.9607C113.557 58.9714 113.579 59.0072 113.566 59.0406C113.192 60.0408 112.613 60.2111 112.262 60.2111Z" fill="black"/>
<path fill-rule="evenodd" clip-rule="evenodd" d="M110.585 57.0965C109.957 57.0965 109.565 57.6916 109.358 58.1447C110.361 57.7884 111.32 57.8617 111.674 57.9078C111.545 57.6631 111.202 57.1347 110.651 57.0987C110.629 57.0971 110.607 57.0965 110.585 57.0965ZM109.221 58.3506C109.202 58.3506 109.183 58.3431 109.168 58.329C109.147 58.3077 109.141 58.2763 109.152 58.2488C109.355 57.7402 109.823 56.895 110.661 56.9502C110.998 56.9724 111.315 57.1576 111.577 57.486C111.772 57.7298 111.868 57.9648 111.872 57.9746C111.882 57.9999 111.878 58.0288 111.86 58.0495C111.843 58.0704 111.816 58.0808 111.789 58.0755C111.776 58.073 110.503 57.8404 109.249 58.345C109.24 58.3487 109.23 58.3506 109.221 58.3506Z" fill="black"/>
<path fill-rule="evenodd" clip-rule="evenodd" d="M113.26 57.7671C113.8 57.7671 114.434 57.8965 114.692 57.9551C114.63 57.7104 114.439 57.1432 113.987 57.0736C113.692 57.0288 113.433 57.0812 113.237 57.2253C113.066 57.351 112.947 57.5459 112.89 57.7928C113.004 57.7746 113.129 57.7671 113.26 57.7671ZM114.79 58.1288C114.783 58.1288 114.777 58.1281 114.772 58.1266C114.758 58.1234 113.457 57.8016 112.815 57.9595C112.791 57.9655 112.765 57.9589 112.747 57.9423C112.729 57.9254 112.719 57.9009 112.724 57.8762C112.774 57.539 112.921 57.2726 113.149 57.1053C113.377 56.9373 113.675 56.8753 114.01 56.9267C114.296 56.9709 114.534 57.1802 114.7 57.5324C114.821 57.79 114.861 58.0325 114.863 58.0426C114.867 58.0673 114.858 58.0924 114.84 58.1093C114.826 58.1222 114.808 58.1288 114.79 58.1288Z" fill="black"/>
<path fill-rule="evenodd" clip-rule="evenodd" d="M112.947 57.7007C112.947 57.3781 113.158 57.1167 113.418 57.1167C113.677 57.1167 113.888 57.3781 113.888 57.7007C113.888 57.7741 113.875 57.8979 113.855 57.9628C113.63 57.8772 113.157 57.7854 112.974 57.8553C112.957 57.8023 112.947 57.7493 112.947 57.7007Z" fill="black"/>
<path fill-rule="evenodd" clip-rule="evenodd" d="M109.55 57.8083C109.55 57.4858 109.83 57.2245 110.176 57.2245C110.523 57.2245 110.804 57.5591 110.804 57.8816C110.371 57.9775 109.848 58.0195 109.652 58.089C109.593 57.9975 109.55 57.896 109.55 57.8083Z" fill="black"/>
<path fill-rule="evenodd" clip-rule="evenodd" d="M111.536 55.3565C111.536 55.3565 111.763 55.956 111.654 56.1221C111.09 56.102 109.383 55.935 108.747 56.8745C108.959 55.3995 111.536 55.3565 111.536 55.3565Z" fill="black"/>
<path d="M111.574 55.3422L111.537 55.3169L111.447 55.3204L111.414 55.3222C111.318 55.3279 111.21 55.3371 111.095 55.3505C110.764 55.3888 110.433 55.4535 110.124 55.5507C109.32 55.8033 108.801 56.2287 108.709 56.8684C108.703 56.9096 108.757 56.9304 108.78 56.8959C109.049 56.4997 109.53 56.2754 110.178 56.1843L110.291 56.1698C110.593 56.1348 110.893 56.1298 111.267 56.1436L111.654 56.1607L111.688 56.143C111.737 56.0686 111.733 55.9344 111.695 55.7518C111.682 55.6939 111.667 55.6328 111.649 55.57C111.621 55.4734 111.593 55.3919 111.574 55.3422ZM111.631 56.0813L111.415 56.0714C110.919 56.0483 110.551 56.0526 110.167 56.1067L110.068 56.1218C109.547 56.2082 109.135 56.3852 108.857 56.6762L108.822 56.7147L108.831 56.6857C108.987 56.1881 109.456 55.8428 110.147 55.6254C110.451 55.5298 110.778 55.4661 111.104 55.4283C111.218 55.4151 111.324 55.406 111.419 55.4004L111.51 55.3957L111.541 55.4867C111.551 55.5186 111.562 55.554 111.573 55.5917C111.591 55.6529 111.606 55.7121 111.618 55.768L111.628 55.8205C111.649 55.939 111.651 56.03 111.631 56.0813Z" fill="black"/>
<path fill-rule="evenodd" clip-rule="evenodd" d="M112.602 56.1281C113.071 56.0635 114.482 55.7624 115.075 56.6489C114.8 55.1949 112.65 55.355 112.65 55.355C112.65 55.355 112.501 55.9708 112.602 56.1281Z" fill="black"/>
<path d="M112.698 55.3131L112.647 55.3157L112.612 55.3456L112.588 55.4524C112.582 55.4818 112.576 55.5144 112.57 55.5495C112.557 55.6205 112.547 55.6898 112.539 55.7551C112.518 55.9431 112.524 56.0785 112.569 56.1491L112.607 56.1667L112.911 56.1214C113.281 56.069 113.589 56.0503 113.891 56.0783C114.408 56.1261 114.802 56.3107 115.042 56.6705C115.066 56.7059 115.121 56.6834 115.113 56.6414C114.997 56.0262 114.552 55.6444 113.888 55.4505C113.479 55.3313 113.054 55.2986 112.698 55.3131ZM113.944 55.5499C114.462 55.7175 114.825 56.0083 114.981 56.448L114.99 56.4774L114.966 56.4513C114.71 56.1839 114.347 56.0418 113.898 56.0003C113.628 55.9752 113.354 55.9867 113.038 56.0256L112.82 56.0556L112.625 56.0848L112.618 56.063C112.602 55.9999 112.602 55.8956 112.617 55.7638C112.624 55.7004 112.635 55.6328 112.647 55.5633L112.656 55.5136C112.665 55.466 112.674 55.4246 112.681 55.3923L112.701 55.3913C113.049 55.3772 113.467 55.4093 113.866 55.5257L113.944 55.5499Z" fill="black"/>
<path d="M110.433 57.6612C110.606 57.6612 110.746 57.5208 110.746 57.3477C110.746 57.1746 110.606 57.0342 110.433 57.0342C110.26 57.0342 110.119 57.1746 110.119 57.3477C110.119 57.5208 110.26 57.6612 110.433 57.6612Z" fill="white"/>
<path d="M113.881 57.6612C114.054 57.6612 114.195 57.5208 114.195 57.3477C114.195 57.1746 114.054 57.0342 113.881 57.0342C113.708 57.0342 113.568 57.1746 113.568 57.3477C113.568 57.5208 113.708 57.6612 113.881 57.6612Z" fill="white"/>
<path d="M114.195 57.6612C114.368 57.6612 114.508 57.5208 114.508 57.3477C114.508 57.1746 114.368 57.0342 114.195 57.0342C114.021 57.0342 113.881 57.1746 113.881 57.3477C113.881 57.5208 114.021 57.6612 114.195 57.6612Z" fill="white"/>
</svg>

