<svg width="123" height="123" viewBox="0 0 123 123" fill="none" xmlns="http://www.w3.org/2000/svg">
<mask id="mask0" mask-type="alpha" maskUnits="userSpaceOnUse" x="0" y="0" width="123" height="123">
<circle cx="61.5" cy="61.5" r="61.5" fill="#C4C4C4"/>
</mask>
<g mask="url(#mask0)">
<path fill-rule="evenodd" clip-rule="evenodd" d="M40.3758 138.159L150.835 138.74C134.717 60.8478 119.943 21.8661 106.513 21.7954C86.3676 21.6895 78.8653 45.8744 67.7658 55.1716C56.6663 64.4687 50.2197 68.5656 32.1876 61.7276C14.1556 54.8895 -23.4566 57.551 -23.5755 80.1479C-23.6548 95.2125 -18.4721 114.44 -8.0275 137.831L40.3758 138.159Z" fill="#F5F5F5"/>
<path fill-rule="evenodd" clip-rule="evenodd" d="M34.9586 65.2484C35.3928 66.0264 34.9277 66.5445 34.7853 67.0705C34.6279 67.6491 34.5445 68.2862 34.0098 68.887C33.8401 67.483 34.3317 66.4361 34.9586 65.2484ZM35.3236 67.7709C35.409 67.7765 35.4945 67.7816 35.5799 67.7867C35.7511 69.1192 35.9224 70.4516 36.0936 71.784C36.0217 71.8113 35.9505 71.8386 35.8789 71.8655C35.4779 71.3166 35.0634 70.7763 34.6861 70.2107C34.5979 70.0786 34.5745 69.8425 34.6252 69.6887C34.8364 69.0424 35.0871 68.4089 35.3236 67.7709ZM113.797 98.0491C114.298 99.6635 114.128 100.02 112.615 100.524C112.287 100.634 111.953 100.736 111.613 100.791C109.967 101.055 108.32 101.312 106.67 101.55C106.093 101.633 105.507 101.657 104.863 101.714C104.795 101.017 104.739 100.439 104.683 99.8751C107.769 99.2569 110.746 98.6601 113.797 98.0491ZM36.0549 59.2044C36.1985 59.959 36.3088 60.5768 36.4334 61.1918C37.642 67.1737 38.486 73.2011 38.7063 79.3072C38.7166 79.59 38.7162 79.8791 38.664 80.1544C38.6418 80.271 38.4714 80.4419 38.3686 80.4415C38.2096 80.4407 38.0102 80.3509 37.9042 80.2315C37.8149 80.1302 37.8267 79.9341 37.8062 79.7782C37.6088 78.2758 37.4142 76.7736 37.2192 75.2708C36.9108 72.8926 36.6398 70.5089 36.2823 68.1383C35.9809 66.1422 35.5502 64.1659 35.2346 62.1718C35.0942 61.2804 34.834 60.3802 35.0618 59.4053C35.3636 59.344 35.6637 59.2835 36.0549 59.2044ZM52.8292 93.6009C53.5391 94.1926 54.211 94.6613 54.7742 95.2363C57.466 97.987 60.1277 100.768 62.8025 103.535C63.2154 103.962 63.6429 104.375 64.0688 104.799C63.7034 105.46 63.3961 106.064 62.7696 106.504C59.0322 102.751 55.1187 99.2289 51.7645 95.0777C52.1303 94.5703 52.4527 94.1226 52.8292 93.6009ZM40.477 78.0468C40.8187 77.4112 40.863 77.3712 40.4165 76.8804C39.5056 75.8782 38.995 74.7447 39.016 73.3779C39.0211 73.0322 38.9543 72.6858 38.9341 72.3389C38.9211 72.1044 38.9317 71.8687 38.9317 71.4127C40.2927 72.7989 41.6737 73.8521 42.6969 75.2632C43.1422 75.8778 43.3281 76.6099 43.2106 77.3356C43.0414 78.3885 42.7973 79.4373 42.4809 80.4549C42.1907 81.3867 41.7651 82.2762 41.3937 83.1823C41.1608 83.751 41.2209 84.2031 41.6219 84.7437C44.5577 88.7043 47.4472 92.6988 50.3458 96.687C50.6025 97.0406 50.8169 97.4246 51.0253 97.7541C50.7694 98.4707 50.0298 98.8088 49.9128 99.5413C50.5183 99.6548 50.5214 99.6576 50.8821 99.2328C51.4461 98.5684 52.0046 97.9008 52.5658 97.2336C55.2168 99.9301 57.778 102.536 60.3436 105.146C60.2898 105.253 60.2661 105.351 60.206 105.414C57.9438 107.755 55.7171 110.132 53.3932 112.41C52.5009 113.285 51.4485 114.041 50.3601 114.66C48.1421 115.921 45.9649 115.613 44.0554 113.947C42.6107 112.686 41.6314 111.11 41.0413 109.312C40.2934 107.033 39.5282 104.751 38.9531 102.424C37.8018 97.7659 36.7791 93.0749 35.6946 88.3997C35.3165 86.7687 35.0452 85.0973 34.4891 83.5276C33.7215 81.3583 32.7117 79.2756 31.8412 77.1411C31.1863 75.5353 30.5353 73.9237 29.9777 72.2824C29.3947 70.5655 29.7218 68.9202 30.6124 67.3632C31.7262 65.4161 32.8213 63.4584 33.9279 61.507C34.0109 61.3603 34.1225 61.229 34.3214 60.9482C34.4492 61.7012 34.5085 62.2909 34.656 62.8584C34.8186 63.4837 34.6702 64.0204 34.4175 64.5864C34.058 65.3916 33.7329 66.2174 33.4616 67.0562C33.0459 68.3408 33.229 69.5384 34.0754 70.6316C34.7323 71.4811 35.3553 72.3587 35.956 73.249C36.1573 73.546 36.3056 73.9098 36.3697 74.2634C36.5275 75.1327 36.622 76.0139 36.7427 76.8903C36.9104 78.11 37.0863 79.3298 37.2426 80.5514C37.3015 81.0114 37.5313 81.2092 37.994 81.2123C38.3907 81.2147 38.7874 81.2756 39.279 81.3191C39.3292 81.0134 39.4198 80.7164 39.4186 80.4194C39.4154 79.4729 39.3723 78.5261 39.3577 77.5793C39.3549 77.3898 39.4091 77.2 39.4542 76.8903C39.8366 77.3222 40.1206 77.6441 40.477 78.0468ZM91.1925 75.7513C91.2776 76.5842 91.921 76.4743 92.3331 76.6443C92.7939 76.8353 93.2895 76.9433 93.8989 77.1256C93.5082 77.9131 93.1388 78.6321 92.7919 79.3614C91.5698 81.9274 89.4535 83.4331 86.8484 84.3265C84.2246 85.2266 81.9189 84.5226 80.1371 82.5266C79.0586 81.3183 78.3186 79.8059 77.4434 78.4189C77.3145 78.2148 77.2805 77.951 77.1887 77.6734C78.183 77.1399 79.3046 77.2732 80.3116 76.922C80.3389 76.4268 80.0458 76.3461 79.7057 76.39C79.1108 76.4667 78.5164 76.5609 77.9287 76.6831C74.6203 77.3728 71.308 78.0479 68.0088 78.7812C66.2389 79.1743 64.5822 79.8878 63.067 80.8955C62.7601 81.1 62.4473 81.3484 62.2432 81.6486C60.9314 83.5826 59.6507 85.5383 58.3567 87.4849C57.1666 89.2746 55.9758 91.0626 54.7786 92.8475C54.5879 93.1319 54.3641 93.3937 54.1224 93.7097C53.8938 93.5471 53.7214 93.4265 53.5513 93.3035C52.8311 92.7815 52.5594 92.8186 51.963 93.5226C51.9017 93.595 51.8361 93.6642 51.7807 93.7413C50.9517 94.9041 50.8406 95.2426 51.8365 96.28C51.9009 96.3473 51.9425 96.4363 52.0397 96.5838C51.9243 96.7515 51.7934 96.9409 51.6545 97.1422C51.522 97.0493 51.4267 97.0125 51.3761 96.9429C48.3474 92.7747 45.3274 88.5994 42.2891 84.438C41.9901 84.0287 41.9383 83.6791 42.1456 83.2199C42.4968 82.4435 42.846 81.6588 43.1035 80.8481C43.427 79.8293 43.7339 78.7939 43.9095 77.7422C44.1409 76.3548 43.7224 75.1007 42.7289 74.0902C41.7097 73.0536 40.6905 72.0099 39.5926 71.0603C38.9539 70.5078 38.6363 69.9434 38.5153 69.084C38.1372 66.3938 37.6211 63.7242 37.1587 61.0459C37.0515 60.4237 36.9479 59.8004 36.8368 59.1787C36.7237 58.5443 36.5821 58.4814 35.9544 58.47C34.7505 58.4498 34.1949 59.2183 33.7112 60.1508C32.7228 62.0552 31.708 63.946 30.6987 65.8393C30.4309 66.3412 30.1426 66.832 29.8642 67.328C28.9502 68.9531 28.7018 70.6794 29.2768 72.4508C29.7827 74.0095 30.3949 75.5361 31.0071 77.058C31.844 79.1379 32.8577 81.157 33.5518 83.2816C34.306 85.5877 34.8051 87.9793 35.3723 90.3436C36.4694 94.9199 37.4894 99.5152 38.6367 104.078C39.1441 106.096 39.8446 108.069 40.53 110.037C41.0773 111.61 41.9925 112.971 43.1992 114.133C45.6105 116.456 48.6586 116.776 51.4113 114.882C52.5515 114.097 53.6427 113.208 54.6275 112.236C56.5397 110.349 58.3634 108.373 60.2159 106.427C60.4314 106.2 60.5975 105.927 60.8396 105.605C61.3601 106.102 61.7342 106.477 62.1277 106.831C62.8499 107.478 63.1726 107.447 63.7382 106.686C63.983 106.357 64.2116 106.015 64.4481 105.679C64.6925 105.331 64.8444 104.984 64.683 104.53C64.6099 104.324 64.6395 104.021 64.7412 103.824C65.4369 102.476 66.1618 101.143 66.8852 99.8099C66.9216 99.7422 67.0248 99.711 67.1343 99.637C67.1343 100.112 67.1347 100.539 67.1343 100.967C67.132 104.698 67.0964 108.431 67.1407 112.161C67.1624 113.961 67.3274 115.76 67.4511 117.557C67.4638 117.736 67.6212 118.033 67.7466 118.053C68.0851 118.106 68.1393 117.808 68.1263 117.542C68.0701 116.406 67.9716 115.271 67.9459 114.134C67.8795 111.194 67.781 108.253 67.8126 105.315C67.8455 102.25 68.0171 99.1869 68.1251 96.1226C68.1417 95.6488 68.1591 95.1742 68.1468 94.7008C68.1389 94.3982 68.0392 94.1344 67.5508 94.1898C67.516 94.4018 67.4369 94.6352 67.4472 94.8641C67.5283 96.6558 67.0596 98.2769 66.1124 99.8063C65.3677 101.009 64.7554 102.294 64.0851 103.542C63.0777 103.001 56.3843 96.1744 54.8367 94.1214C54.9123 93.9802 54.9874 93.8121 55.0871 93.6599C56.9776 90.7802 58.872 87.903 60.7625 85.0233C61.0745 84.548 61.3893 84.0726 61.6741 83.5806C62.7099 81.7882 64.2844 80.6594 66.2168 80.0765C68.1492 79.4939 70.1208 79.0399 72.0836 78.5637C73.1878 78.2959 74.3083 78.093 75.4232 77.8704C75.7262 77.8099 76.035 77.7834 76.3625 77.7387C76.9637 79.3954 77.8804 80.7963 78.87 82.1465C80.4733 84.3344 82.6264 85.5007 85.3732 85.3647C86.8547 85.2915 88.1634 84.6342 89.4504 83.9361C91.7743 82.6757 93.1095 80.6056 94.1647 78.2939C94.2956 78.008 94.4293 77.7232 94.576 77.4064C94.7765 77.4064 94.9683 77.3685 95.1396 77.412C97.9263 78.1152 100.709 78.8231 103.405 79.8447C105.113 80.4917 106.434 81.5418 107.243 83.1787C107.956 84.6219 108.731 86.0513 109.27 87.5609C110.351 90.5943 111.291 93.6784 112.285 96.7428C112.352 96.9496 112.386 97.1679 112.458 97.4819C109.927 98.3683 107.287 98.5731 104.595 99.1252C104.47 98.218 104.365 97.4151 104.246 96.6146C104.186 96.2088 104.12 95.8015 104.013 95.4068C103.981 95.2929 103.741 95.1212 103.696 95.1473C103.558 95.228 103.451 95.3807 103.368 95.527C103.33 95.5946 103.373 95.7109 103.385 95.805C103.542 97.1189 103.714 98.4311 103.858 99.7466C104.07 101.693 104.317 103.638 104.453 105.59C104.636 108.207 104.728 110.83 104.858 113.449C104.868 113.639 104.834 113.845 104.9 114.013C104.957 114.161 105.126 114.266 105.245 114.39C105.359 114.264 105.533 114.155 105.571 114.009C105.625 113.803 105.587 113.57 105.574 113.35C105.39 110.131 105.201 106.913 105.02 103.693C104.999 103.321 105.017 102.946 105.017 102.558C107.708 102.148 110.375 101.742 113.105 101.327C114.255 106.134 114.864 111.068 115.311 116.066C115.972 115.984 115.989 115.616 115.955 115.23C115.889 114.475 115.812 113.72 115.736 112.965C115.33 108.938 114.666 104.953 113.762 100.956C113.915 100.819 114.072 100.677 114.231 100.537C114.667 100.155 114.879 99.6936 114.756 99.1047C114.71 98.8883 114.691 98.6665 114.654 98.4485C114.453 97.2684 114.452 97.2684 113.217 97.2514C113.122 96.9544 113.009 96.6332 112.914 96.3069C111.856 92.6327 110.74 88.976 109.19 85.473C108.694 84.3494 108.093 83.2669 107.476 82.2027C106.704 80.8686 105.541 79.9214 104.106 79.4132C101.935 78.6459 99.7349 77.955 97.5264 77.3024C95.6802 76.757 93.8048 76.3097 91.9392 75.8292C91.7197 75.7722 91.4828 75.7794 91.1925 75.7513Z" fill="black"/>
<path fill-rule="evenodd" clip-rule="evenodd" d="M113.106 101.327C113.106 101.327 109.643 81.7778 105.968 80.4414C102.294 79.105 94.0944 76.1799 94.0944 76.1799C94.0944 76.1799 92.94 88.1912 83.3392 85.2063C78.9567 83.8439 76.3642 77.7385 76.3642 77.7385C76.3642 77.7385 65.5889 79.5191 63.0688 80.8958C62.5202 81.1956 58.1484 89.4754 55.1833 94.5563C54.1242 93.7096 52.9899 93.939 52.8514 94.164C52.257 95.1278 52.0771 94.232 51.7662 95.0776C55.6725 98.0494 59.9344 105.697 62.7709 106.504C63.3191 104.928 68.1481 94.7007 68.1481 94.7007C68.1481 94.7007 68.1675 117.765 68.6643 118.059C77.6979 123.409 88.7247 123.136 91.9746 122.226C99.3985 120.147 105.783 116.682 105.783 116.682C105.783 116.682 103.738 102.753 105.019 102.558C107.719 102.147 113.106 101.327 113.106 101.327Z" fill="#779BE7"/>
<path fill-rule="evenodd" clip-rule="evenodd" d="M34.9598 65.2498C35.3941 66.0277 34.9286 66.5454 34.7862 67.0714C34.6292 67.6501 34.5453 68.2872 34.0106 68.888C33.8409 67.4843 34.3329 66.4371 34.9598 65.2498ZM35.3244 67.7719C35.4103 67.7774 35.4953 67.7826 35.5807 67.7877C35.7524 69.1201 35.9236 70.4526 36.0945 71.785C36.0229 71.8123 35.9517 71.8396 35.8797 71.8665C35.4787 71.3175 35.0646 70.7773 34.6873 70.2121C34.5987 70.0796 34.5758 69.8439 34.626 69.6896C34.8376 69.0434 35.0883 68.4098 35.3244 67.7719ZM113.798 98.0504C114.299 99.6645 114.129 100.021 112.616 100.525C112.288 100.635 111.953 100.737 111.613 100.792C109.968 101.056 108.32 101.313 106.671 101.551C106.093 101.634 105.508 101.659 104.864 101.715C104.796 101.018 104.74 100.441 104.684 99.8761C107.769 99.2579 110.748 98.6611 113.798 98.0504ZM36.0561 59.2054C36.1993 59.96 36.3096 60.5778 36.4342 61.1932C37.6429 67.1747 38.4873 73.2025 38.7075 79.3082C38.7174 79.591 38.7174 79.8801 38.6648 80.1553C38.6431 80.272 38.4722 80.4429 38.3694 80.4425C38.2104 80.4417 38.0111 80.3523 37.9051 80.2325C37.8161 80.1312 37.8276 79.935 37.807 79.7792C37.61 78.2767 37.4154 76.7746 37.2205 75.2717C36.9116 72.8936 36.6407 70.5099 36.2831 68.1393C35.9818 66.1432 35.5511 64.1669 35.2359 62.1728C35.0951 61.2813 34.8352 60.3812 35.0626 59.4063C35.3644 59.345 35.665 59.2845 36.0561 59.2054ZM52.83 93.6019C53.5399 94.1935 54.2119 94.6622 54.7751 95.2373C57.4668 97.988 60.1285 100.769 62.8037 103.536C63.2166 103.963 63.6437 104.376 64.0697 104.8C63.7046 105.461 63.3973 106.065 62.7705 106.505C59.0334 102.752 55.1195 99.2302 51.7657 95.0787C52.1315 94.5713 52.4535 94.1235 52.83 93.6019ZM40.4778 78.0477C40.8199 77.4125 40.8638 77.3722 40.4177 76.8814C39.5064 75.8792 38.9959 74.7457 39.0168 73.3793C39.022 73.0332 38.9551 72.6867 38.9353 72.3399C38.9219 72.1057 38.9326 71.8696 38.9326 71.414C40.2939 72.7998 41.675 73.8531 42.6981 75.2642C43.1434 75.8788 43.3289 76.6109 43.2119 77.337C43.0422 78.3894 42.7982 79.4383 42.4818 80.4559C42.1919 81.3877 41.7659 82.2776 41.395 83.1833C41.162 83.752 41.2217 84.204 41.6228 84.7447C44.5589 88.7052 47.4485 92.6997 50.3467 96.688C50.6037 97.0415 50.8177 97.4256 51.0261 97.755C50.7706 98.472 50.0307 98.8098 49.914 99.5427C50.5191 99.6562 50.5227 99.6589 50.8834 99.2338C51.4469 98.5697 52.0054 97.9017 52.5666 97.2345C55.2176 99.931 57.7789 102.537 60.3445 105.146C60.2907 105.254 60.267 105.352 60.2068 105.415C57.9446 107.756 55.7179 110.133 53.394 112.411C52.5021 113.286 51.4493 114.042 50.3609 114.661C48.1429 115.923 45.9661 115.614 44.0567 113.948C42.6115 112.687 41.6322 111.111 41.0426 109.313C40.2943 107.034 39.529 104.752 38.9543 102.426C37.8026 97.7669 36.7803 93.0763 35.6954 88.4007C35.3173 86.77 35.046 85.0983 34.4903 83.5285C33.7223 81.3592 32.7126 79.2765 31.8425 77.142C31.1875 75.5363 30.5361 73.925 29.9785 72.2833C29.3955 70.5665 29.7226 68.9212 30.6137 67.3641C31.727 65.4171 32.8225 63.4594 33.9291 61.508C34.0122 61.3612 34.1233 61.2299 34.3226 60.9491C34.45 61.7022 34.5097 62.2922 34.6568 62.8594C34.8198 63.4847 34.6711 64.0214 34.4184 64.5873C34.0592 65.3926 33.7341 66.2184 33.4628 67.0572C33.0468 68.3418 33.2299 69.5394 34.0763 70.6329C34.7336 71.4824 35.3565 72.3597 35.9572 73.2499C36.1582 73.5473 36.3069 73.9112 36.3709 74.2644C36.5287 75.1337 36.6229 76.0149 36.7435 76.8913C36.9112 78.1118 37.0872 79.3311 37.2434 80.5524C37.3027 81.0124 37.5321 81.2101 37.9949 81.2133C38.3919 81.2157 38.7882 81.2766 39.2802 81.3205C39.3301 81.0144 39.4206 80.7173 39.4194 80.4207C39.4167 79.4739 39.3736 78.5271 39.3589 77.5806C39.3558 77.3912 39.4099 77.201 39.4554 76.8917C39.8375 77.3236 40.1218 77.6451 40.4778 78.0477ZM91.1933 75.7522C91.2784 76.5852 91.9219 76.4752 92.334 76.6453C92.7951 76.8363 93.2903 76.9443 93.8997 77.127C93.509 77.914 93.1396 78.6331 92.7927 79.3627C91.5711 81.9283 89.4543 83.4344 86.8496 84.3274C84.2255 85.2276 81.9197 84.5236 80.1384 82.5279C79.0595 81.3193 78.3195 79.8069 77.4442 78.4199C77.3157 78.2158 77.2817 77.9524 77.1899 77.6744C78.1842 77.1408 79.3055 77.2741 80.3124 76.9229C80.3401 76.4278 80.047 76.3471 79.7065 76.391C79.1117 76.4677 78.5172 76.5618 77.9299 76.684C74.6212 77.3738 71.3093 78.0489 68.01 78.7822C66.2402 79.1753 64.5834 79.8888 63.0683 80.8969C62.761 81.1014 62.4481 81.3493 62.2444 81.6495C60.9326 83.5839 59.652 85.5396 58.3575 87.4859C57.1678 89.2755 55.9766 91.0644 54.7794 92.8485C54.5892 93.1328 54.3653 93.3946 54.1237 93.7106C53.8951 93.5481 53.7226 93.4279 53.5526 93.3045C52.832 92.7824 52.5603 92.8196 51.9639 93.5236C51.9029 93.5959 51.8369 93.6656 51.7819 93.7423C50.9526 94.905 50.8414 95.2436 51.8377 96.2814C51.9022 96.3482 51.9433 96.4376 52.041 96.5851C51.9251 96.7524 51.7942 96.9419 51.6558 97.1432C51.5233 97.0502 51.4276 97.0135 51.3773 96.9442C48.3486 92.7757 45.3286 88.6008 42.29 84.4394C41.9914 84.03 41.9392 83.68 42.1468 83.2212C42.4976 82.4445 42.8468 81.6598 43.1047 80.8494C43.4282 79.8306 43.7347 78.7948 43.9103 77.7432C44.1417 76.3558 43.7233 75.1016 42.7298 74.0911C41.7106 73.0545 40.6918 72.0112 39.5938 71.0612C38.9551 70.5087 38.6375 69.9447 38.5165 69.0849C38.1384 66.3951 37.6223 63.7251 37.1596 61.0468C37.0524 60.4247 36.9492 59.8018 36.838 59.1797C36.7245 58.5457 36.5833 58.4824 35.9557 58.4709C34.7514 58.4508 34.1957 59.2196 33.7124 60.1518C32.724 62.0565 31.7088 63.947 30.6995 65.8403C30.4317 66.3421 30.1438 66.833 29.865 67.3289C28.951 68.9544 28.7026 70.6808 29.2777 72.4518C29.7835 74.0105 30.3957 75.5371 31.0084 77.059C31.8448 79.1389 32.8585 81.1579 33.553 83.2825C34.3072 85.5887 34.8059 87.9803 35.3731 90.345C36.4702 94.9209 37.4902 99.5162 38.6379 104.079C39.145 106.097 39.8458 108.07 40.5308 110.038C41.0782 111.611 41.9937 112.972 43.2004 114.134C45.6118 116.457 48.6595 116.777 51.4125 114.882C52.5528 114.098 53.6435 113.209 54.6283 112.237C56.5406 110.35 58.3646 108.374 60.2167 106.428C60.4323 106.201 60.5988 105.928 60.8408 105.606C61.3609 106.103 61.735 106.478 62.129 106.832C62.8511 107.48 63.1739 107.448 63.739 106.687C63.9842 106.358 64.2128 106.016 64.449 105.68C64.6934 105.332 64.8456 104.985 64.6839 104.531C64.6107 104.325 64.6404 104.022 64.7424 103.825C65.4377 102.477 66.163 101.144 66.886 99.8108C66.9224 99.7432 67.0256 99.7119 67.1352 99.638C67.1352 100.113 67.1356 100.54 67.1352 100.968C67.1328 104.699 67.0972 108.431 67.1419 112.162C67.1633 113.962 67.3286 115.76 67.4524 117.558C67.4646 117.737 67.6224 118.034 67.7474 118.054C68.0864 118.107 68.1405 117.81 68.1275 117.543C68.0709 116.407 67.9728 115.272 67.9467 114.135C67.8803 111.195 67.7818 108.254 67.8135 105.316C67.8467 102.251 68.0179 99.1879 68.1259 96.1236C68.1425 95.6498 68.1603 95.1752 68.1477 94.7018C68.1401 94.3992 68.0401 94.1358 67.5516 94.1912C67.5168 94.4032 67.4377 94.6361 67.4484 94.8651C67.5291 96.6567 67.0608 98.2779 66.1136 99.8073C65.3685 101.01 64.7567 102.295 64.0859 103.543C63.0789 103.002 56.3851 96.1754 54.8376 94.1224C54.9131 93.9812 54.9882 93.8131 55.0879 93.6608C56.9784 90.7812 58.8728 87.9039 60.7633 85.0243C61.0757 84.5489 61.3902 84.0735 61.6749 83.5815C62.7111 81.7895 64.2856 80.6604 66.218 80.0774C68.15 79.4948 70.122 79.0408 72.0844 78.565C73.1891 78.2969 74.3095 78.0944 75.4244 77.8713C75.727 77.8108 76.0363 77.7843 76.3637 77.7396C76.9645 79.3964 77.8813 80.798 78.8708 82.1478C80.4745 84.3354 82.6276 85.5017 85.3744 85.3656C86.8559 85.2925 88.1642 84.6351 89.4512 83.9371C91.7751 82.6766 93.1103 80.6066 94.1659 78.2953C94.2964 78.009 94.4301 77.7242 94.5768 77.4074C94.7778 77.4074 94.9692 77.3698 95.1408 77.4129C97.9271 78.1161 100.71 78.8241 103.406 79.8457C105.114 80.4927 106.435 81.5427 107.244 83.1797C107.957 84.6229 108.732 86.0522 109.27 87.5618C110.352 90.5953 111.292 93.6794 112.286 96.7437C112.354 96.9506 112.387 97.1689 112.459 97.4829C109.929 98.3692 107.289 98.5741 104.596 99.1262C104.471 98.2189 104.366 97.4161 104.248 96.6156C104.187 96.2098 104.121 95.8024 104.014 95.4077C103.983 95.2938 103.742 95.1222 103.697 95.1487C103.559 95.229 103.451 95.382 103.369 95.528C103.33 95.596 103.374 95.7119 103.385 95.8064C103.544 97.1198 103.715 98.4321 103.858 99.7479C104.072 101.694 104.318 103.639 104.454 105.592C104.637 108.208 104.728 110.831 104.859 113.45C104.869 113.64 104.835 113.846 104.901 114.014C104.958 114.161 105.127 114.267 105.246 114.39C105.36 114.265 105.534 114.156 105.572 114.01C105.626 113.804 105.588 113.571 105.575 113.351C105.391 110.132 105.202 106.914 105.021 103.695C105 103.322 105.018 102.947 105.018 102.559C107.709 102.149 110.375 101.743 113.106 101.328C114.256 106.135 114.865 111.069 115.312 116.067C115.973 115.985 115.99 115.617 115.956 115.231C115.89 114.476 115.813 113.721 115.736 112.966C115.331 108.939 114.667 104.954 113.764 100.957C113.916 100.82 114.073 100.678 114.233 100.538C114.669 100.156 114.88 99.6945 114.757 99.1056C114.712 98.8893 114.692 98.6678 114.655 98.4495C114.453 97.2693 114.453 97.2693 113.219 97.2523C113.123 96.9553 113.01 96.6342 112.915 96.3079C111.857 92.6337 110.741 88.9769 109.192 85.474C108.695 84.3504 108.094 83.2683 107.477 82.2036C106.704 80.87 105.542 79.9224 104.107 79.4146C101.936 78.6469 99.7361 77.956 97.5277 77.3034C95.6811 76.758 93.8056 76.3107 91.9404 75.8302C91.7206 75.7732 91.484 75.7807 91.1933 75.7522Z" fill="black"/>
<path fill-rule="evenodd" clip-rule="evenodd" d="M81.2285 61.4267L81.2491 61.333C81.2744 61.2239 81.4045 60.911 81.6149 60.5547C81.2313 60.7761 81.0079 61.1436 80.8793 61.6103C80.8121 61.8535 80.7168 62.0892 80.6535 62.3328C80.5329 62.7956 80.3359 63.1768 80.0907 63.5067C80.1113 63.6759 80.1326 63.8456 80.1552 64.0153C80.5692 63.5039 80.9616 62.6979 81.2285 61.4267ZM84.0484 59.3029C85.4062 60.0801 86.3843 59.5244 86.8664 59.0984C86.2387 59.4504 85.6502 59.4485 84.9522 59.0403C84.3186 58.6693 83.787 58.7306 83.3595 59.1348C83.592 59.1234 83.8226 59.1736 84.0484 59.3029ZM77.7592 65.0088C77.4741 65.1009 77.1134 64.9601 76.7875 64.9265C77.5654 64.126 77.5773 64.0726 77.0999 63.2187C77.0074 63.0534 76.9042 62.8925 76.8282 62.7204C76.5593 62.1121 76.5917 61.7692 77.1494 61.4212C77.6817 61.0882 77.7466 60.6488 77.6928 60.1259C77.6536 59.7502 77.5844 59.3773 77.5231 59.0043C77.3459 57.9238 77.6556 57.0114 78.4506 56.2572C79.3341 55.4183 80.3707 55.0125 81.5979 54.9259C83.7657 54.7737 85.4544 55.7948 87.0985 56.9845C87.2797 57.7276 87.9955 57.8234 88.5275 58.0745C89.4308 58.5016 89.8674 59.2388 90.0296 60.1275C90.1787 60.9423 90.0719 61.7249 89.8611 62.5246C89.8722 62.6251 89.884 62.7267 89.8991 62.8312C90.0814 62.7991 90.1716 62.7944 90.2546 62.7671C91.4039 62.387 92.2788 63.0333 92.2345 64.2431C92.2016 65.1428 91.7698 65.8373 90.9728 66.2127C90.5061 66.4322 90.399 66.6877 90.4397 67.1599C90.6964 70.153 91.1828 73.109 91.7947 76.0479C91.8655 76.3857 91.8042 76.7515 91.8042 77.1296C91.1821 77.1083 91.2062 76.7226 91.1358 76.396C90.4769 73.3372 89.9722 70.2551 89.695 67.1369C89.6084 66.1628 89.619 66.1332 90.556 65.6479C91.277 65.2745 91.6954 64.4721 91.4383 63.8591C91.3509 63.6502 91.1366 63.3924 90.9448 63.3591C90.7747 63.3299 90.537 63.5593 90.365 63.7139C90.2542 63.8132 89.7381 64.3566 89.5407 64.4737C89.4656 64.3234 89.3592 64.1782 89.3058 64.0244C89.1266 63.7851 88.9898 63.6392 88.9202 63.4719C88.5571 62.5982 88.2036 61.7206 87.8713 60.8351C87.6499 60.2446 87.4628 59.6371 87.2488 58.9913C86.8889 59.3923 85.6937 60.4728 83.9504 59.4742C83.6905 59.3259 83.4236 59.293 83.1542 59.3646C83.0925 59.4457 83.0328 59.5339 82.9762 59.6308C82.7528 60.0136 82.472 60.2822 82.0551 60.3826C82.0112 60.3933 81.9725 60.4083 81.9313 60.421C81.6458 60.8517 81.4674 61.2685 81.4413 61.3785L81.4219 61.4675C81.1245 62.883 80.6693 63.7487 80.1931 64.2755C80.4478 66.0521 80.8552 67.7955 81.6652 69.4431C82.2019 70.5347 82.7647 70.7779 83.9602 70.4093C84.8398 70.138 85.6783 69.7793 86.389 69.1678C86.5927 68.993 86.8478 68.6984 87.1033 69.0365C87.3366 69.345 87.038 69.5697 86.8169 69.7326C86.4377 70.0122 86.0493 70.2918 85.6304 70.5042C84.5816 71.0354 83.4884 71.4214 82.292 71.2007C82.1825 71.5203 82.0911 71.7544 82.0215 71.9953C81.6035 73.4519 81.1993 74.9124 80.7694 76.3655C80.6626 76.7266 80.6875 77.2016 79.9372 77.3891C79.9946 76.9568 80.0005 76.6518 80.0788 76.3671C80.5131 74.7843 80.9742 73.209 81.4041 71.6251C81.4983 71.2798 81.6992 70.9432 81.4476 70.5438C80.453 68.9673 79.9792 67.2022 79.6402 65.3912C79.6042 65.1962 79.5702 65.0013 79.5366 64.8063C79.3998 64.8814 79.2665 64.938 79.1403 64.9767C78.0503 65.3109 76.9378 65.3149 76.8907 65.3149V65.1171C76.9022 65.1171 78.0207 65.1132 79.0822 64.7873C79.2147 64.747 79.3559 64.6868 79.5002 64.6002C79.4765 64.4578 79.4555 64.3155 79.4334 64.1727C78.954 64.5409 78.3829 64.8075 77.7592 65.0088Z" fill="black"/>
<path fill-rule="evenodd" clip-rule="evenodd" d="M82.8709 61.7758L82.267 64.1665L83.1482 64.2551L82.8709 61.7758Z" fill="black"/>
<path fill-rule="evenodd" clip-rule="evenodd" d="M82.8694 61.7994L83.1431 64.2499L82.2718 64.1633L82.8694 61.7994ZM83.1482 64.259C83.149 64.259 83.1502 64.2586 83.151 64.2578C83.1522 64.257 83.1526 64.2559 83.1522 64.2543L82.8753 61.7753C82.8753 61.7737 82.8734 61.7721 82.8714 61.7717C82.8694 61.7721 82.8674 61.7733 82.867 61.7749L82.2627 64.1657C82.2627 64.1669 82.2627 64.1681 82.2635 64.1692C82.2643 64.17 82.2655 64.1708 82.2667 64.1708L83.1474 64.259H83.1482Z" fill="black"/>
<path fill-rule="evenodd" clip-rule="evenodd" d="M84.2991 59.8524C84.2991 59.8524 84.1271 60.565 84.2584 60.7462C84.892 60.6916 86.2683 60.9514 87.0906 61.8057C86.9707 60.7371 84.2991 59.8524 84.2991 59.8524Z" fill="black"/>
<path fill-rule="evenodd" clip-rule="evenodd" d="M84.3017 59.8578C84.3606 59.878 85.0017 60.0967 85.6476 60.4321C86.0439 60.6381 86.3646 60.847 86.6007 61.0526C86.8906 61.3057 87.0536 61.5549 87.0848 61.7942C86.6245 61.3204 86.0265 61.0637 85.6049 60.9312C85.2363 60.8157 84.6897 60.7058 84.2606 60.7418C84.1396 60.5689 84.2879 59.9183 84.3017 59.8578ZM87.0904 61.8104C87.0912 61.8104 87.092 61.81 87.0924 61.81C87.0939 61.8092 87.0947 61.8072 87.0947 61.8057C87.067 61.5608 86.9029 61.3053 86.6063 61.0467C86.3698 60.8398 86.0482 60.6306 85.6516 60.425C84.976 60.0738 84.3069 59.8507 84.3001 59.8487C84.2989 59.8483 84.2978 59.8483 84.2966 59.8491C84.2958 59.8495 84.295 59.8503 84.2946 59.8515C84.2942 59.8531 84.2515 60.0318 84.2254 60.2308C84.1898 60.4985 84.1997 60.6729 84.255 60.7489C84.2558 60.7501 84.2574 60.7505 84.259 60.7505C84.6877 60.7133 85.2339 60.8236 85.6021 60.9391C86.0257 61.072 86.6272 61.3307 87.0876 61.8088C87.0884 61.81 87.0896 61.8104 87.0904 61.8104Z" fill="black"/>
<path fill-rule="evenodd" clip-rule="evenodd" d="M82.0944 59.6608C82.0944 59.6608 82.2515 60.2714 82.1411 60.4288C81.5562 60.4822 80.6659 60.8228 80.0778 61.2404C80.2115 60.5977 82.0944 59.6608 82.0944 59.6608Z" fill="black"/>
<path fill-rule="evenodd" clip-rule="evenodd" d="M82.1387 60.4248C81.5387 60.4806 80.6583 60.8258 80.0845 61.2308C80.2304 60.6135 81.9876 59.7196 82.0916 59.667C82.1062 59.7256 82.2391 60.2761 82.1387 60.4248ZM80.0777 61.2447C80.0785 61.2447 80.0797 61.2443 80.0805 61.2439C80.6536 60.8365 81.5395 60.4881 82.1414 60.4331C82.1426 60.4331 82.1438 60.4327 82.1446 60.4315C82.1909 60.3655 82.1968 60.2152 82.1632 59.9854C82.1379 59.8146 82.0987 59.6615 82.0983 59.6599C82.0979 59.6587 82.0975 59.6579 82.0964 59.6572C82.0952 59.6568 82.0936 59.6568 82.0924 59.6575C82.0877 59.6595 81.6158 59.8952 81.1337 60.2061C80.6884 60.4936 80.143 60.9061 80.0738 61.2399C80.0734 61.2411 80.0742 61.2427 80.0754 61.2439C80.0762 61.2443 80.0769 61.2447 80.0777 61.2447Z" fill="black"/>
<path fill-rule="evenodd" clip-rule="evenodd" d="M82.9012 65.8377C82.9336 65.8377 82.9645 65.8187 82.9779 65.7875C82.9799 65.7827 83.18 65.337 83.6202 65.1827C83.9133 65.0795 84.2487 65.1254 84.6188 65.3184C84.6596 65.3398 84.7102 65.3239 84.732 65.2828C84.7533 65.2417 84.7375 65.191 84.6964 65.1697C84.2827 64.9541 83.9014 64.9055 83.5633 65.0249C83.0535 65.2049 82.8336 65.6993 82.8245 65.7202C82.8059 65.7629 82.8256 65.8124 82.868 65.8306C82.8786 65.8353 82.8901 65.8377 82.9012 65.8377Z" fill="black"/>
<path fill-rule="evenodd" clip-rule="evenodd" d="M84.8461 63.1013C85.0656 63.1147 85.2839 63.074 85.4876 63.0072C85.4124 63.0289 85.3322 63.0412 85.2483 63.0412C84.8319 63.0412 84.4929 62.7442 84.4929 62.3787C84.4929 62.2316 84.6072 62.0556 84.7156 61.9338C84.1817 61.9832 83.713 62.2609 83.5398 62.3752C83.6948 62.5587 84.1765 63.0602 84.8461 63.1013ZM85.9835 62.1968C85.9962 62.2597 86.0037 62.3285 86.0037 62.3787C86.0037 62.6441 85.825 62.8731 85.5675 62.9787C85.961 62.8331 86.2861 62.5986 86.4249 62.4895C86.3442 62.4206 86.194 62.3052 85.9835 62.1968ZM83.3681 62.2905C83.3958 62.2692 84.0658 61.7685 84.8528 61.7586C85.9333 61.7455 86.5863 62.4064 86.6136 62.4345C86.6294 62.4511 86.6377 62.4732 86.6369 62.4962C86.6361 62.5191 86.6258 62.5405 86.6088 62.5559C86.5744 62.586 85.789 63.2718 84.9323 63.2718C84.9003 63.2718 84.8682 63.271 84.8362 63.269C83.9376 63.2132 83.3737 62.4388 83.3503 62.406C83.3238 62.3688 83.3317 62.3178 83.3681 62.2905Z" fill="black"/>
<path fill-rule="evenodd" clip-rule="evenodd" d="M81.16 62.9325C81.3518 62.9464 81.5448 62.8993 81.7212 62.8254C81.6907 62.8313 81.6599 62.8353 81.6286 62.8353C81.2932 62.8353 81.0204 62.5624 81.0204 62.2274C81.0204 62.0806 81.0718 61.9426 81.1647 61.8342C81.1271 61.8319 81.0896 61.8303 81.0512 61.8303C80.6276 61.8303 80.2404 62.1289 80.1044 62.2464C80.225 62.4136 80.6166 62.8934 81.16 62.9325ZM82.4267 62.3626C82.3828 62.3251 82.3168 62.2721 82.2318 62.2143C82.2156 62.3555 82.1546 62.4971 82.0589 62.6122C82.0328 62.6438 82.0055 62.6711 81.9763 62.696C82.1804 62.5758 82.3425 62.439 82.4267 62.3626ZM79.9347 62.1736C79.9561 62.1526 80.4572 61.6626 81.0512 61.6626C81.9699 61.6626 82.5842 62.2768 82.6095 62.3025C82.6415 62.3353 82.6415 62.3875 82.6099 62.42C82.6023 62.4275 82.4283 62.6051 82.1633 62.7779C81.8327 62.9935 81.5191 63.103 81.2292 63.103C81.2015 63.103 81.1746 63.1018 81.1481 63.0998C80.4054 63.0464 79.9418 62.3084 79.9225 62.2772C79.9019 62.244 79.9074 62.2009 79.9347 62.1736Z" fill="black"/>
<path fill-rule="evenodd" clip-rule="evenodd" d="M69.472 37.5833C74.5039 37.5833 78.5831 33.5041 78.5831 28.4722C78.5831 23.4403 74.5039 19.3611 69.472 19.3611C64.44 19.3611 60.3608 23.4403 60.3608 28.4722C60.3608 33.5041 64.44 37.5833 69.472 37.5833ZM72.2052 27.1054V29.6064L71.982 29.8296L67.6497 25.5019V24.3721H68.5608V26.1943H70.383V24.3721H71.2941V26.1943C71.7451 26.1898 72.2052 26.6499 72.2052 27.1054ZM67.2852 26.2854L71.4034 30.4128L73.4398 32.4445L72.8658 33.0276L70.8294 30.9868L70.6108 31.2054V32.5721H68.333V31.2054L66.7386 29.6019V27.1054C66.7386 27.058 66.7502 27.0107 66.7619 26.9633C66.7648 26.9514 66.7677 26.9396 66.7704 26.9278L65.2398 25.3971L65.8183 24.8276L67.2807 26.29L67.2852 26.2854Z" fill="#27302B"/>
<path fill-rule="evenodd" clip-rule="evenodd" d="M57.9063 52.7085C57.7645 52.7085 57.7273 52.7277 57.696 52.7043C57.6286 52.6544 57.5626 52.5904 57.4993 52.5166C55.8956 50.6473 54.4503 48.2639 53.2178 45.212C52.978 44.6183 52.7848 43.9483 52.7046 43.0791C52.5983 41.9277 52.4394 41.7681 51.9201 41.6652C51.3014 41.542 50.6772 41.4422 50.0695 41.1662C48.5607 40.481 47.4762 38.5046 46.966 35.0576C46.6708 33.0615 46.4378 31.0129 46.206 28.9694C45.9605 26.8074 46.1551 24.7692 46.6141 22.8515C46.8926 21.6871 47.3032 20.7935 47.8312 20.3449C48.5632 19.7227 49.3086 19.1264 50.0692 18.7589C52.1631 17.7468 54.2949 17.4422 56.4254 17.2764C59.5873 17.0294 62.7503 16.8771 65.9134 16.7305C69.04 16.5855 72.1673 16.481 75.2943 16.388C78.2795 16.3001 81.2649 16.2554 84.2502 16.1811C85.636 16.1473 87.022 16.0896 88.4078 16.0397C89.0649 16.0163 89.6704 16.2544 90.1512 17.4775C90.3644 18.0197 90.6616 18.3758 90.9059 18.8572C91.0671 19.1743 91.2278 19.5246 91.3441 19.9296C91.72 21.2411 92.075 22.5849 92.4384 23.9151C93.0564 26.1758 93.4797 28.6383 93.7891 31.2073C93.8845 31.9979 93.9423 32.8406 93.9436 33.6603C93.9476 35.972 93.3056 37.912 92.3673 38.5597C91.1155 39.4232 89.8265 39.8104 88.5322 39.9674C86.6336 40.1982 84.7317 40.3048 82.8304 40.3911C78.1383 40.6047 73.4457 40.7305 68.7543 40.9806C64.7744 41.1932 60.7957 41.529 56.8164 41.8165C56.7146 41.8237 56.6136 41.897 56.4358 41.9719C56.8113 45.6377 57.2512 49.1824 57.9063 52.7085ZM57.2721 43.417C58.0079 43.3406 58.6777 43.258 59.3479 43.2034C62.1528 42.9746 64.9573 42.709 67.7629 42.5442C70.8353 42.3649 73.9085 42.3009 76.9813 42.1523C80.48 41.9828 83.9787 41.7983 87.4768 41.5747C89.0593 41.4734 90.6252 41.004 92.1728 40.1873C93.5455 39.4627 94.231 37.5372 94.4949 34.1459C94.5954 32.8525 94.4451 31.581 94.2819 30.3501C93.8858 27.3611 93.3172 24.5784 92.5909 21.9273C91.9389 19.547 91.1902 17.4952 90.1948 15.8614C89.7735 15.1705 89.3727 14.8004 88.8781 14.8056C87.1018 14.8228 85.3254 14.8134 83.549 14.8404C80.7061 14.8852 77.8631 14.9236 75.0206 15.0151C71.0947 15.1414 67.1687 15.3057 63.2427 15.4731C61.0753 15.5656 58.9073 15.6373 56.7415 15.8292C54.3456 16.0413 51.9477 16.3001 49.5944 17.5144C49.0936 17.7728 48.6045 18.1622 48.1139 18.5203C46.6257 19.6078 45.875 22.1207 45.6169 25.5942C45.5273 26.7991 45.5364 27.9968 45.6362 29.1851C45.8521 31.7552 46.1368 34.2815 46.5932 36.6858C47.1052 39.3816 47.9777 41.1662 49.1534 42.1538C49.9107 42.7901 50.6986 43.1056 51.5015 43.1415C51.8349 43.1555 52.0581 43.3598 52.2195 44.1105C52.6361 46.0479 53.3112 47.493 54.0297 48.7879C55.225 50.9431 56.4387 53.0541 57.8856 54.2487C58.1106 54.4343 58.3476 54.9458 58.5754 54.4686C58.8279 53.9394 58.6292 53.2953 58.5465 52.7318C58.1899 50.2985 57.8152 47.8803 57.4621 45.4438C57.3739 44.8351 57.3419 44.1807 57.2721 43.417Z" fill="black"/>
</g>
</svg>

