<svg width="148" height="136" viewBox="0 0 148 136" fill="none" xmlns="http://www.w3.org/2000/svg">
<path fill-rule="evenodd" clip-rule="evenodd" d="M143.089 97.901C143.089 97.901 134.614 66.449 128.731 64.3107C122.848 62.1723 107.121 57.1263 107.121 57.1263C107.121 57.1263 103.63 68.5498 92.3714 67.0303C85.0897 66.0474 84.8718 56.6377 84.8718 56.6377C84.8718 56.6377 69.5669 58.5004 65.5323 60.7042C64.6535 61.1845 61.0834 68.9257 57.5606 79.3294C56.8643 81.3843 47.4769 102.961 47.2554 103.32C46.3036 104.863 55.012 100.171 58.7207 103.093C65.1772 108.18 76.2427 108.169 77.1661 108.142C92.2432 107.693 89.8457 108.357 94.9422 108.145C107.785 107.613 124.509 111.759 121.879 104.991C127.812 104.452 147.143 105.065 145.371 100.999C144.446 96.1489 143.089 97.901 143.089 97.901Z" fill="#779BE7"/>
<path fill-rule="evenodd" clip-rule="evenodd" d="M118.499 130.203C104.051 131.715 74.087 129.24 71.8474 128.783C69.0268 128.208 68.8829 124.923 68.8829 124.923L68.068 119.666C68.068 119.666 78.4746 119.026 81.9055 119.258C94.2411 120.093 110.306 127.188 110.306 127.188" fill="#779BE7"/>
<path fill-rule="evenodd" clip-rule="evenodd" d="M70.5769 116.336C70.5623 116.45 70.5484 116.564 70.5337 116.677C69.6118 116.677 68.6863 116.73 67.77 116.66C67.0374 116.605 67.1022 116.144 67.4002 115.544C68.5032 115.82 69.5407 116.078 70.5769 116.336ZM47.9646 113.529C49.0349 112.145 49.8691 111.068 50.7026 109.991C50.8252 110.062 50.9485 110.133 51.0703 110.204C50.6365 111.303 50.2027 112.4 49.7577 113.529H47.9646ZM44.274 113.112C45.8812 111.45 47.6603 110.247 49.4903 109.07C48.8664 110.429 47.8929 111.524 46.9835 112.67C46.2809 113.557 45.4829 113.646 44.274 113.112ZM40.6962 113.465C40.988 112.831 41.0165 112.639 41.128 112.547C42.912 111.058 44.6946 109.565 46.5093 108.113C46.9772 107.739 47.5649 107.715 48.6129 108.045C48.0127 108.453 47.6708 108.639 47.3839 108.887C45.7962 110.26 44.2524 111.686 42.6202 113.002C42.2345 113.312 41.5653 113.271 40.6962 113.465ZM62.5829 114.133C58.8018 113.916 55.0415 114.096 51.1936 113.516C51.9602 111.502 52.6594 109.663 53.4065 107.698C57.0352 109.227 59.1674 112.549 62.5829 114.133ZM65.5326 115.977C63.5118 116.548 30.1056 115.921 28.6391 115.519C28.9155 114.604 28.9155 114.59 29.9169 114.583C41.0465 114.516 52.1615 114.891 63.2625 115.671C64.0229 115.725 64.7764 115.873 65.5326 115.977ZM47.2558 103.321C47.4486 102 47.5649 101.037 47.7397 100.082C47.8407 99.5284 48.2439 99.2193 48.8065 99.236C49.2417 99.2485 49.6846 99.3209 50.1073 99.4309C56.3312 101.051 62.5537 102.68 68.7734 104.316C69.2365 104.438 69.68 104.631 70.1856 104.81C70.1013 105.667 70.0282 106.411 69.9335 107.365C69.0115 106.953 68.3124 106.646 67.6189 106.328C65.4024 105.312 63.1859 104.297 60.973 103.272C58.2029 101.989 55.3681 101.7 52.3836 102.468C50.8433 102.864 49.2369 103.001 47.2558 103.321ZM120.746 101.123C129.117 103.099 136.886 102.547 143.758 96.6055C144.337 98.1821 144.824 99.5096 145.371 101C144.53 101.266 143.916 101.496 143.285 101.653C136.708 103.294 130.021 103.896 123.257 103.71C121.243 103.655 121.19 103.555 120.746 101.123ZM7.533 68.9862C7.62074 68.9368 7.70779 68.888 7.79553 68.84C8.01208 69.1045 8.28716 69.3419 8.43686 69.6412C9.18265 71.1308 9.94096 72.617 10.6129 74.1407C13.1671 79.9342 15.676 85.7472 18.2267 91.5415C19.9724 95.505 21.8073 99.4288 23.5112 103.41C24.7563 106.318 25.8558 109.29 27.0145 112.235C27.112 112.483 27.1608 112.751 27.2388 113.03C26.0626 113.675 25.8475 112.769 25.5606 112.089C19.6883 98.1689 13.8244 84.2458 7.96613 70.3206C7.78508 69.8904 7.67577 69.431 7.533 68.9862ZM35.2662 109.041C35.2327 108.922 35.1993 108.802 35.1659 108.683C35.537 108.489 35.8908 108.254 36.2793 108.107C41.3828 106.176 46.5643 104.549 52.0466 104.102C52.4247 104.072 52.8021 103.96 53.1663 103.845C55.1404 103.226 57.1194 103.126 59.0448 103.956C61.8504 105.165 64.6448 106.404 67.4058 107.711C68.6397 108.295 69.8562 108.628 71.2391 108.635C76.1922 108.664 81.146 108.791 86.099 108.88C87.2522 108.9 88.4081 108.976 89.5585 108.923C101.143 108.379 112.706 108.647 124.243 109.848C125.239 109.952 126.23 110.108 127.227 110.188C127.742 110.229 128.509 110.5 128.627 109.743C128.749 108.962 127.977 109.02 127.44 108.951C127.33 108.937 127.219 108.927 127.109 108.912C125.577 108.695 124.045 108.478 122.517 108.261C122.299 107.146 122.105 106.147 121.88 104.991C129.142 105.278 136.128 104.522 143.071 103.094C143.279 103.706 143.455 104.114 143.555 104.539C144.805 109.84 146.106 115.135 146.459 120.595C146.617 123.034 146.845 125.473 146.303 127.911C145.821 130.073 144.617 131.614 142.676 132.632C140.968 133.527 139.148 133.959 137.231 134.042C132.357 134.252 127.759 133.013 123.213 131.437C114.76 128.506 106.714 124.504 98.1436 121.891C95.7677 121.166 93.3479 120.586 90.9484 119.942C90.8954 119.927 90.839 119.922 90.7847 119.91C88.0119 119.333 85.2182 118.837 82.4704 118.157C77.5062 116.931 72.5761 115.568 67.6189 114.313C64.266 113.463 61.2731 111.99 58.6709 109.684C57.5943 108.73 56.4015 107.894 55.1968 107.102C54.2101 106.454 53.082 106.104 51.8739 106.17C49.044 106.324 46.2161 106.451 43.467 107.28C41.8194 107.776 40.135 108.16 38.4533 108.53C37.4046 108.762 36.3295 108.875 35.2662 109.041ZM121.248 108.101C120.755 108.122 120.539 108.152 120.325 108.139C110.935 107.537 101.549 107.208 92.1293 107.517C85.4062 107.738 78.6656 107.428 71.9327 107.344C71.7307 107.341 71.5309 107.209 71.2614 107.113C71.4445 105.194 71.581 103.309 71.8129 101.437C72.1353 98.8364 72.0859 96.9452 71.4682 95.7535C70.3687 96.8596 70.9056 98.1947 70.7489 99.3529C70.5748 100.648 70.4544 101.951 70.2921 103.424C63.4582 101.603 56.868 99.8465 50.1658 98.0589C50.2981 97.5703 50.383 97.1457 50.5272 96.7412C52.7144 90.6164 54.8556 84.4748 57.1187 78.3785C58.7245 74.053 60.5343 69.8034 62.186 65.4946C63.5675 61.8889 65.979 59.5327 69.8541 58.8505C73.191 58.263 76.5292 57.6776 79.8765 57.1597C81.5088 56.9077 83.166 56.811 84.8721 56.6376C85.0775 57.3866 85.182 57.9908 85.4069 58.5442C86.0747 60.1842 86.5698 61.9502 87.5307 63.4043C89.8447 66.9098 93.8507 68.5226 98.1262 66.0244C99.9165 64.9774 101.595 63.7913 102.945 62.2077C104.345 60.5663 105.688 58.8755 107.12 57.1263C114.008 58.1356 120.543 60.3881 126.679 63.7544C130.406 65.7981 133.086 68.8901 134.757 72.8028C135.52 74.5897 136.237 76.4058 136.823 78.2567C138.384 83.1857 139.857 88.1425 141.376 93.0854C142.412 96.4579 142.435 96.4837 139.288 98.2176C134.004 101.129 128.388 101.461 122.614 100.176C120.126 99.623 120.142 99.5506 119.28 97.154C118.979 96.318 118.719 95.4625 118.35 94.6565C118.228 94.3892 117.824 94.2492 117.547 94.0516C117.44 94.3864 117.249 94.7198 117.247 95.0553C117.246 95.3692 117.448 95.6832 117.549 96.0006C118.638 99.3871 119.73 102.772 120.803 106.163C120.983 106.731 121.073 107.329 121.248 108.101ZM48.8831 97.77C46.8561 98.0659 46.8735 98.0701 46.4967 99.8486C46.2217 101.146 45.8937 102.431 45.5887 103.722C44.366 104.078 43.1439 104.434 41.9218 104.791C38.9818 105.648 36.0663 106.572 33.3554 108.03C32.7816 108.34 31.962 108.555 32.07 109.372C32.1946 110.313 33.0734 110.263 33.7899 110.304C36.1004 110.437 38.3196 109.883 40.5451 109.383C41.3445 109.203 42.1467 109.034 43.3061 108.783C42.8737 109.29 42.6989 109.532 42.4886 109.736C41.3738 110.815 40.268 111.905 39.1162 112.944C38.8614 113.174 38.4359 113.321 38.087 113.323C35.3588 113.344 32.6298 113.304 29.9016 113.324C29.176 113.33 28.7812 113.031 28.5179 112.384C27.7415 110.48 26.8655 108.613 26.1511 106.686C24.3524 101.832 22.2919 97.0976 20.0978 92.4067C17.201 86.2129 14.566 79.896 11.7883 73.6458C11.0217 71.9188 10.1721 70.2266 9.30728 68.5456C8.77808 67.5168 7.26701 67.1026 6.31302 67.6824C5.79286 67.9998 5.81096 68.4725 6.03658 68.9973C6.696 70.5308 7.32411 72.0768 7.9724 73.6145C13.7193 87.2466 19.4683 100.877 25.2131 114.51C25.383 114.913 25.5216 115.33 25.7618 115.97C25.0488 115.995 24.4722 116.039 23.897 116.031C16.6049 115.93 9.31355 115.822 2.02217 115.717C1.57651 115.712 1.11414 115.654 0.692154 115.754C0.430328 115.817 0.22908 116.133 -1.52588e-05 116.335C0.211685 116.539 0.39621 116.867 0.640625 116.922C1.1218 117.029 1.6364 116.995 2.13705 117.002C9.54124 117.118 16.9447 117.233 24.3489 117.345C39.0466 117.566 53.7443 117.783 68.4419 118.004C70.8903 118.041 73.3476 118.221 75.7848 118.077C77.0654 118.002 78.1385 118.284 79.2464 119.006C78.676 119.006 78.1064 119.013 77.5361 119.005C63.7841 118.811 50.0328 118.607 36.2807 118.422C24.9784 118.27 13.6747 118.137 2.37242 118.009C1.75476 118.002 1.13641 118.132 0.519455 118.198L0.431732 118.585C0.696335 118.795 0.934494 119.109 1.2346 119.189C1.65381 119.301 2.11826 119.244 2.56322 119.249C21.6611 119.504 40.7589 119.756 59.856 120.011C67.0952 120.107 74.3337 120.218 81.5721 120.293C82.3304 120.3 83.0881 120.074 83.8506 120.007C84.228 119.974 84.6249 120.011 84.996 120.092C89.3419 121.045 93.7184 121.886 98.0155 123.023C100.525 123.689 102.912 124.821 105.345 125.767C111.669 128.223 117.953 130.787 124.321 133.123C128.57 134.681 132.991 135.573 137.575 135.295C139.659 135.169 141.639 134.679 143.476 133.665C145.528 132.533 146.753 130.844 147.497 128.588C148.436 125.744 147.807 122.971 147.621 120.168C147.244 114.482 145.83 108.983 144.516 103.47C144.466 103.259 144.47 103.037 144.452 102.857C144.563 102.736 144.62 102.623 144.71 102.582C146.805 101.635 146.862 101.554 146.122 99.3098C145.794 98.3102 145.371 97.3385 144.941 96.3765C144.788 96.0326 144.537 95.5481 144.249 95.4813C143.147 95.2286 143.028 94.3509 142.771 93.5121C141.095 88.0367 139.497 82.5334 137.683 77.1033C136.825 74.5333 135.69 72.0281 134.422 69.6294C132.624 66.2318 129.73 63.8359 126.364 62.0942C120.449 59.0343 114.157 57.0198 107.638 55.6903C106.718 55.5023 106.308 56.0195 105.859 56.5986C104.872 57.8753 103.893 59.1568 102.9 60.4292C101.477 62.2537 99.6951 63.657 97.7356 64.8647C94.3347 66.9585 91.252 65.929 88.9902 63.2219C87.4123 61.332 86.7244 59.0391 86.2877 56.6613C86.0524 55.3819 85.8999 55.2002 84.6903 55.3234C79.7101 55.8302 74.7522 56.4198 69.8416 57.4841C65.3669 58.4544 62.5857 61.0647 61.0106 65.2266C58.4515 71.987 55.8214 78.7203 53.2826 85.489C51.7604 89.5486 50.3538 93.652 48.8831 97.77Z" fill="black"/>
<path fill-rule="evenodd" clip-rule="evenodd" d="M113.506 25.3566C114.051 26.5705 114.538 27.8235 114.904 29.1015C115.437 30.9712 115.824 32.882 116.298 34.7683C116.511 35.6204 116.822 40.1769 121.004 41.1897C126.398 42.4956 130.019 45.4456 131.538 48.4395C131.356 47.5102 130.955 46.4633 130.212 45.2695C126.838 39.8484 121.592 39.3395 119.071 39.0952C118.869 39.075 118.682 39.0576 118.512 39.0381C117.244 38.8975 116.633 35.7032 115.925 32.0049C115.272 28.5955 114.533 24.7308 113.156 22.8326C111.424 20.445 107.669 17.369 102.788 16.5567C101.505 16.3423 100.361 16.4371 99.3692 16.6771C100.585 16.6096 101.859 16.8685 103.15 17.2158C107.739 18.4486 111.479 20.8487 113.506 25.3566ZM131.424 56.1514C131.497 56.8552 131.752 57.5443 132.113 58.2536C132.38 58.7819 132.573 59.3987 132.668 60.0154C132.696 58.2271 132.238 57.2143 131.424 56.1514ZM94.9468 21.1571C94.951 21.2156 94.9607 21.2511 94.9795 21.2559C96.2399 21.5573 97.3728 22.1038 98.4612 22.7386C99.0503 23.008 99.6032 23.3421 100.097 23.7556C100.311 23.8941 100.524 24.034 100.739 24.1725C100.908 24.2825 101.141 24.2923 101.37 24.3549C101.951 23.727 101.866 23.1347 101.226 22.811C99.4521 21.9165 97.6444 21.084 95.813 20.3148C95.5436 20.2014 95.1508 20.6267 94.9468 21.1571ZM88.1791 20.9838C89.8155 20.809 91.4888 20.9921 93.1447 20.9524C93.6523 20.9406 94.6877 19.5185 95.1069 19.0424C95.1083 19.0459 95.109 19.0528 95.1104 19.0577C95.1425 19.0013 95.1682 18.9435 95.21 18.8913L95.1452 18.8335C95.1536 18.8245 95.3931 18.5683 95.8256 18.2245C96.5762 17.5019 97.377 17.0738 98.2154 16.856C99.4424 16.3792 100.996 16.0812 102.817 16.3847C107.75 17.2068 111.545 20.3162 113.296 22.7302C114.697 24.6605 115.44 28.5446 116.097 31.9722C116.762 35.4519 117.391 38.7388 118.532 38.8655C118.7 38.8843 118.887 38.9024 119.088 38.9219C121.637 39.169 126.94 39.6841 130.359 45.1776C131.26 46.6234 131.663 47.8736 131.785 48.9581C132.363 50.3154 132.51 51.6631 132.176 52.852C132.04 53.3323 131.895 53.8147 131.703 54.2755C131.478 54.8149 131.388 55.33 131.399 55.8354C132.41 57.1037 132.987 58.2571 132.825 60.6147C132.807 60.8904 132.755 61.1521 132.681 61.4041C132.169 65.5855 129.01 69.0889 124.614 69.9172C117.051 71.3428 110.908 68.8543 105.712 63.1171C103.786 60.9906 99.3713 55.8563 101.936 45.8855C102.398 44.1954 102.75 42.4754 103.1 40.754C103.054 40.3092 102.996 39.8665 102.957 39.4217C102.804 37.7058 102.822 37.6543 104.473 36.8002C105.743 36.1431 106.478 34.7308 106.026 33.6518C105.872 33.2843 105.495 32.8304 105.158 32.772C104.547 32.6731 103.791 33.5098 103.258 34.1266C103.168 34.2421 103.085 34.3396 103.014 34.4071C102.873 34.5679 102.758 34.6897 102.685 34.7328C102.524 34.4126 102.274 34.1071 102.221 33.7702C102.112 33.0845 102.022 32.3961 101.931 31.7077C101.85 31.5093 101.77 31.3116 101.672 31.1216C100.893 29.6062 99.998 28.1305 98.9814 26.7648C98.3867 25.9663 97.4529 25.5118 96.3151 25.7714C94.1021 26.2768 91.9685 26.2295 89.7862 25.319C87.8051 24.492 86.4577 25.3851 85.9034 27.4553C85.8247 27.7497 85.7349 28.0414 85.6423 28.333C85.6618 28.9706 85.6931 29.6076 85.7516 30.2403C86.1694 34.7864 86.7662 39.3061 88.819 43.4792C89.7639 45.4011 90.7548 45.8292 92.8599 45.1804C94.4078 44.7029 95.8848 44.0708 97.1361 42.9947C97.494 42.687 97.9431 42.1691 98.3937 42.7643C98.8045 43.3079 98.2788 43.7019 97.8895 43.9894C97.221 44.4808 96.5379 44.9737 95.8005 45.3468C93.9531 46.2823 92.0284 46.9617 89.9227 46.5726C89.7298 47.135 89.5682 47.5478 89.4464 47.9717C88.7104 50.5354 87.998 53.106 87.2411 55.6635C87.0538 56.2983 87.0969 57.135 85.7774 57.4649C85.8776 56.7041 85.8874 56.1674 86.0253 55.6662C86.7906 52.8805 87.6025 50.108 88.3601 47.3202C88.5244 46.7125 88.8789 46.1194 88.4353 45.4171C86.684 42.6425 85.8505 39.5358 85.2537 36.3485C84.5943 32.8249 84.1786 29.2769 84.377 25.6928C84.0484 22.9544 85.3415 21.2873 88.1791 20.9838Z" fill="black"/>
<path fill-rule="evenodd" clip-rule="evenodd" d="M91.1227 29.7848L90.0594 33.9927L91.6108 34.1486L91.1227 29.7848Z" fill="black"/>
<path fill-rule="evenodd" clip-rule="evenodd" d="M91.1198 29.8263L91.6016 34.1392L90.0676 33.9868L91.1198 29.8263ZM91.6107 34.1552C91.6121 34.1552 91.6142 34.1545 91.6156 34.1531C91.6177 34.1517 91.6184 34.1496 91.6177 34.1469L91.1302 29.7838C91.1302 29.781 91.1267 29.7782 91.1233 29.7775C91.1198 29.7782 91.1163 29.7803 91.1156 29.7831L90.0516 33.9909C90.0516 33.993 90.0516 33.9951 90.053 33.9972C90.0544 33.9986 90.0565 34 90.0586 34L91.6093 34.1552H91.6107Z" fill="black"/>
<path fill-rule="evenodd" clip-rule="evenodd" d="M93.6375 26.3996C93.6375 26.3996 93.3346 27.6539 93.5658 27.9728C94.6813 27.8767 97.1046 28.334 98.5522 29.8376C98.3413 27.9567 93.6375 26.3996 93.6375 26.3996Z" fill="black"/>
<path fill-rule="evenodd" clip-rule="evenodd" d="M93.6423 26.4091C93.746 26.4446 94.8748 26.8295 96.0119 27.4198C96.7096 27.7825 97.2744 28.15 97.6901 28.512C98.2005 28.9575 98.4874 29.396 98.5424 29.8171C97.7319 28.9832 96.679 28.5315 95.9367 28.2983C95.2877 28.095 94.3254 27.9015 93.5698 27.9649C93.3568 27.6607 93.6179 26.5156 93.6423 26.4091ZM98.5522 29.8457C98.5535 29.8457 98.5549 29.845 98.5556 29.845C98.5584 29.8436 98.5598 29.8401 98.5598 29.8373C98.5111 29.4065 98.2221 28.9568 97.6998 28.5015C97.2834 28.1375 96.7173 27.7693 96.0189 27.4073C94.8295 26.7892 93.6513 26.3966 93.6395 26.3931C93.6374 26.3924 93.6353 26.3924 93.6332 26.3938C93.6318 26.3945 93.6304 26.3959 93.6297 26.398C93.629 26.4008 93.5538 26.7154 93.5079 27.0655C93.4452 27.5368 93.4626 27.8437 93.5601 27.9774C93.5615 27.9795 93.5643 27.9802 93.5671 27.9802C94.3219 27.9147 95.2835 28.1089 95.9318 28.3122C96.6776 28.5461 97.7367 29.0013 98.5473 29.8429C98.5487 29.845 98.5508 29.8457 98.5522 29.8457Z" fill="black"/>
<path fill-rule="evenodd" clip-rule="evenodd" d="M89.7559 26.0623C89.7559 26.0623 90.0323 27.1371 89.838 27.4141C88.8081 27.5081 87.2407 28.1074 86.2052 28.8425C86.4406 27.7114 89.7559 26.0623 89.7559 26.0623Z" fill="black"/>
<path fill-rule="evenodd" clip-rule="evenodd" d="M89.834 27.4068C88.7776 27.5049 87.2276 28.1126 86.2172 28.8254C86.4742 27.7388 89.568 26.1657 89.7511 26.0731C89.7769 26.1761 90.0109 27.1451 89.834 27.4068ZM86.2054 28.8498C86.2068 28.8498 86.2088 28.8491 86.2102 28.8484C87.2192 28.1314 88.779 27.5182 89.8389 27.4214C89.841 27.4214 89.843 27.4207 89.8444 27.4186C89.9259 27.3024 89.9364 27.0379 89.8772 26.6334C89.8326 26.3327 89.7637 26.0634 89.763 26.0606C89.7623 26.0585 89.7616 26.0571 89.7595 26.0557C89.7574 26.055 89.7546 26.055 89.7525 26.0564C89.7442 26.0599 88.9134 26.4747 88.0646 27.0219C87.2805 27.5279 86.3203 28.2539 86.1984 28.8414C86.1977 28.8435 86.1991 28.8463 86.2012 28.8484C86.2026 28.8491 86.204 28.8498 86.2054 28.8498Z" fill="black"/>
<path fill-rule="evenodd" clip-rule="evenodd" d="M91.1764 36.9344C91.2335 36.9344 91.2878 36.901 91.3115 36.846C91.315 36.8377 91.6673 36.0529 92.4424 35.7813C92.9583 35.5996 93.5488 35.6803 94.2006 36.0202C94.2723 36.0578 94.3615 36.0299 94.3998 35.9575C94.4374 35.8851 94.4095 35.7959 94.3371 35.7583C93.6087 35.3788 92.9375 35.2932 92.3421 35.5035C91.4445 35.8203 91.0573 36.6907 91.0413 36.7276C91.0086 36.8028 91.0434 36.8899 91.1179 36.9219C91.1367 36.9303 91.1569 36.9344 91.1764 36.9344Z" fill="black"/>
<path fill-rule="evenodd" clip-rule="evenodd" d="M94.6003 32.1178C94.9868 32.1414 95.3711 32.0697 95.7298 31.9521C95.5975 31.9904 95.4561 32.012 95.3085 32.012C94.5752 32.012 93.9785 31.4892 93.9785 30.846C93.9785 30.5871 94.1797 30.2773 94.3705 30.0629C93.4304 30.1499 92.6053 30.6386 92.3003 30.8397C92.5732 31.1627 93.4214 32.0454 94.6003 32.1178ZM96.603 30.5258C96.6253 30.6365 96.6385 30.7576 96.6385 30.846C96.6385 31.3131 96.3237 31.7161 95.8704 31.902C96.5633 31.6458 97.1357 31.233 97.3801 31.0409C97.238 30.9198 96.9734 30.7165 96.603 30.5258ZM91.9981 30.6908C92.0468 30.6532 93.2264 29.7719 94.6121 29.7545C96.5145 29.7316 97.6642 30.8947 97.7122 30.9442C97.7401 30.9734 97.7547 31.0124 97.7533 31.0527C97.7519 31.0931 97.7338 31.1307 97.7039 31.1579C97.6433 31.2108 96.2604 32.4178 94.7521 32.4178C94.6957 32.4178 94.6393 32.4164 94.5829 32.4129C93.0008 32.3148 92.0078 30.9518 91.9667 30.894C91.9201 30.8286 91.934 30.7388 91.9981 30.6908Z" fill="black"/>
<path fill-rule="evenodd" clip-rule="evenodd" d="M88.1101 31.8206C88.4478 31.8449 88.7877 31.7621 89.0982 31.6319C89.0446 31.6424 88.9903 31.6493 88.9353 31.6493C88.3448 31.6493 87.8643 31.169 87.8643 30.5795C87.8643 30.3212 87.9548 30.0783 88.1185 29.8876C88.0523 29.8834 87.9862 29.8806 87.9186 29.8806C87.1728 29.8806 86.4911 30.4061 86.2516 30.6129C86.464 30.9073 87.1533 31.7517 88.1101 31.8206ZM90.3405 30.8175C90.2632 30.7514 90.1469 30.6581 89.9972 30.5565C89.9686 30.805 89.8614 31.0542 89.6929 31.2568C89.6469 31.3124 89.5989 31.3605 89.5474 31.4043C89.9067 31.1927 90.1922 30.9519 90.3405 30.8175ZM85.9528 30.4848C85.9905 30.4479 86.8727 29.5854 87.9186 29.5854C89.5362 29.5854 90.6176 30.6665 90.6622 30.7117C90.7186 30.7695 90.7186 30.8614 90.6629 30.9185C90.6497 30.9317 90.3433 31.2442 89.8767 31.5484C89.2946 31.9278 88.7424 32.1206 88.232 32.1206C88.1832 32.1206 88.1359 32.1185 88.0892 32.115C86.7815 32.0211 85.9654 30.7222 85.9313 30.6672C85.8951 30.6087 85.9048 30.5328 85.9528 30.4848Z" fill="black"/>
<path fill-rule="evenodd" clip-rule="evenodd" d="M74.6557 5.31002C74.6557 8.69179 74.6289 11.9714 74.6671 15.2504C74.6858 16.8244 74.8395 18.3965 74.9095 19.9708C74.9932 21.8555 75.0543 23.7412 75.1223 25.6265C75.2149 28.2072 75.3503 30.7879 75.3777 33.3693C75.3921 34.7597 75.2338 36.1523 75.1276 37.5424C75.07 38.2956 74.6344 38.8229 73.9935 39.2099C73.2515 39.6582 72.4291 39.7859 71.5876 39.794C69.4179 39.8154 67.2485 39.8102 65.0788 39.8202C64.879 39.8212 64.6788 39.8567 64.4771 39.8768C64.2312 42.3902 64.9362 44.7602 65.3087 47.3053C63.9257 46.6407 62.7933 45.9084 61.7609 45.0443C60.2105 43.7461 59.2112 42.0508 58.4502 40.2172C58.273 39.7901 58.0503 39.6376 57.5902 39.6204C54.4034 39.5008 51.2186 39.2994 48.0309 39.228C42.9086 39.1132 37.7843 39.0715 32.6609 39.0127C28.3211 38.9632 23.9823 38.9942 19.6478 39.2519C19.1952 39.2787 18.7364 39.2018 18.2674 39.172C18.204 38.6807 18.1124 38.273 18.1049 37.8638C18.0823 36.6499 18.0611 35.4347 18.0974 34.2214C18.1608 32.1053 18.3152 29.9911 18.3456 27.8746C18.3901 24.7737 18.4038 21.6709 18.3475 18.5707C18.2946 15.6487 18.2602 12.7337 18.6487 9.82875C18.7413 9.13888 18.738 8.43123 18.8858 7.75462C19.169 6.45376 19.6415 5.22241 20.6625 4.28362C22.4136 2.67404 24.5275 1.95508 26.8813 1.93794C28.1861 1.92857 29.4948 2.01812 30.7963 2.1248C33.4523 2.34301 36.1031 2.62264 38.7591 2.84085C41.6764 3.08072 44.5976 3.27598 47.5162 3.49645C50.0437 3.68718 52.5698 3.89375 55.0973 4.07931C57.444 4.25226 59.7955 4.36703 62.1383 4.5778C66.0703 4.93146 70.0069 5.17877 73.9539 5.2667C74.1838 5.27187 74.4134 5.2945 74.6557 5.31002ZM57.738 40.6549C58.0143 41.799 58.6474 42.7193 59.2174 43.6723C60.3112 45.5031 62.0464 46.6057 63.825 47.6606C64.138 47.8461 64.4627 48.0155 64.7923 48.1701C65.0261 48.28 65.2707 48.3928 65.5222 48.4345C66.1157 48.5337 66.411 48.2383 66.3149 47.6422C66.1746 46.7758 65.9974 45.9149 65.8531 45.0492C65.6494 43.8272 65.4594 42.603 65.2704 41.3787C65.2478 41.2323 65.2675 41.079 65.2675 40.8608C65.5399 40.8453 65.7926 40.8188 66.0454 40.8188C67.6141 40.8195 69.1834 40.8595 70.7508 40.8175C71.6069 40.7949 72.4742 40.7028 73.3107 40.5249C74.7914 40.2091 76.0641 39.1688 76.1972 37.2221C76.4042 34.2017 76.4294 31.1888 76.2433 28.1665C76.0543 25.0983 76.0063 22.021 75.7868 18.9558C75.589 16.1918 75.6655 13.4303 75.642 10.6673C75.6269 8.93748 75.5753 7.20732 75.5406 5.47748C75.5318 5.03168 75.1841 4.61724 74.6985 4.50474C74.5223 4.46369 74.3359 4.45463 74.1537 4.4514C69.4987 4.36024 64.8682 3.91444 60.2324 3.53751C57.2376 3.29376 54.2409 3.07619 51.2448 2.84796C47.4155 2.55604 43.5851 2.27738 39.7571 1.97092C36.1371 1.68094 32.5193 1.35993 28.9003 1.05831C26.6838 0.873401 24.5343 1.05443 22.464 1.98191C19.8122 3.16994 18.2256 5.16099 17.8335 7.9738C17.4093 11.0155 17.167 14.0756 17.2403 17.1609C17.3237 20.6723 17.3093 24.1876 17.272 27.7003C17.2498 29.8168 17.0797 31.9313 17.0212 34.0478C16.9832 35.4156 17.0005 36.7866 17.049 38.1544C17.0647 38.5992 17.1896 39.0689 17.3822 39.4724C17.6778 40.0914 18.2383 40.2864 18.9352 40.2592C21.1811 40.1716 23.4284 40.0704 25.6753 40.0698C32.262 40.0682 38.8497 39.9172 45.4354 40.1865C49.2484 40.3423 53.0633 40.4477 56.8773 40.5796C57.1595 40.5893 57.4404 40.6281 57.738 40.6549Z" fill="black"/>
<path fill-rule="evenodd" clip-rule="evenodd" d="M45.7276 34.0628C52.8932 34.0628 58.7022 28.2538 58.7022 21.0882C58.7022 13.9225 52.8932 8.11353 45.7276 8.11353C38.5619 8.11353 32.7529 13.9225 32.7529 21.0882C32.7529 28.2538 38.5619 34.0628 45.7276 34.0628ZM49.6199 19.1419V22.7034L49.302 23.0213L43.1326 16.8584V15.2495H44.43V17.8444H47.0249V15.2495H48.3224V17.8444C48.9647 17.838 49.6199 18.4932 49.6199 19.1419ZM42.6136 17.9742L48.4781 23.8517L51.3779 26.745L50.5605 27.5754L47.6607 24.6691L47.3493 24.9805V26.9267H44.1057V24.9805L41.8351 22.697V19.1419C41.8351 19.0744 41.8517 19.007 41.8683 18.9395C41.8725 18.9226 41.8766 18.9058 41.8805 18.8889L39.7008 16.7092L40.5247 15.8982L42.6071 17.9807L42.6136 17.9742Z" fill="black"/>
</svg>

